<svg width="1920" height="824" viewBox="0 0 1920 824" fill="none" xmlns="http://www.w3.org/2000/svg">
<g clip-path="url(#clip0_140_6)">
<path d="M-139 0H1920V765C1920 797.585 1893.58 824 1861 824H-80C-112.585 824 -139 797.585 -139 765V0Z" fill="#F4B816"/>
<path d="M375.703 457.858C368.09 381.086 272.658 373.55 272.658 373.55C132.267 347.845 -5.79047 370.978 -5.79047 370.978C-84.0966 385.144 -118.909 419.78 -118.909 419.78C-172.422 468.401 -136.813 550.01 -136.813 550.01L-92.6325 677.124C-73.6257 737.593 -16.0444 754.567 -16.0444 754.567C54.9194 772.7 182.813 767.972 182.813 767.972C247.629 764.838 283.382 696.453 283.382 696.453C294.395 680.294 310.382 648.792 323.584 621.384C338.287 590.86 350.873 559.376 361.362 527.167L371.074 497.313C375.215 484.596 377.006 471.173 375.685 457.876L375.703 457.858ZM281.374 453.746C281.139 457.985 280.271 466.155 277.287 479.035L250.92 592.418C249.347 599.175 247.574 605.895 245.603 612.544L241.588 626.112C241.588 626.112 232.347 668.212 207.39 693.211C207.39 693.211 183.682 715.565 158.454 717.901L82.4441 718.427C82.4441 718.427 43.6527 718.843 12.2579 711.67C12.2579 711.67 -28.6132 704.659 -38.1618 678.755L-63.01 593.631L-74.0959 555.572C-74.0959 555.572 -96.4665 475.72 -14.7062 441.192C-14.7062 441.192 16.3631 427.86 64.4862 423.729C64.4862 423.729 167.713 417.534 201.097 419.69L247.936 423.095C253.289 423.476 258.57 424.689 263.453 426.881C270.578 430.088 278.77 436.066 280.977 446.862C281.429 449.127 281.501 451.427 281.374 453.728V453.746Z" fill="#FFD35C"/>
<path d="M395.051 411.502C411.43 411.502 424.707 397.888 424.707 381.094C424.707 364.3 411.43 350.686 395.051 350.686C378.671 350.686 365.394 364.3 365.394 381.094C365.394 397.888 378.671 411.502 395.051 411.502Z" fill="#FFD35C"/>
<path d="M339.667 361.418C356.638 361.418 370.396 349.566 370.396 334.945C370.396 320.325 356.638 308.473 339.667 308.473C322.696 308.473 308.938 320.325 308.938 334.945C308.938 349.566 322.696 361.418 339.667 361.418Z" fill="#FFD35C"/>
<path d="M816.241 442.125C811.339 392.74 749.888 387.892 749.888 387.892C659.486 371.356 570.587 386.237 570.587 386.237C520.164 395.35 497.747 417.631 497.747 417.631C463.289 448.907 486.218 501.404 486.218 501.404L514.667 583.173C526.906 622.071 563.985 632.99 563.985 632.99C609.68 644.655 692.034 641.613 692.034 641.613C733.771 639.597 756.793 595.607 756.793 595.607C763.885 585.213 774.179 564.948 782.68 547.317C792.148 527.682 800.253 507.429 807.007 486.71L813.26 467.506C815.927 459.325 817.08 450.69 816.23 442.137L816.241 442.125ZM755.5 439.48C755.349 442.207 754.79 447.462 752.869 455.748L735.89 528.684C734.877 533.031 733.736 537.354 732.466 541.63L729.881 550.359C729.881 550.359 723.93 577.44 707.86 593.521C707.86 593.521 692.593 607.901 676.348 609.404L627.404 609.742C627.404 609.742 602.425 610.01 582.209 605.396C582.209 605.396 555.891 600.886 549.743 584.222L533.742 529.465L526.604 504.982C526.604 504.982 512.199 453.615 564.846 431.404C564.846 431.404 584.853 422.828 615.84 420.171C615.84 420.171 682.311 416.186 703.808 417.572L733.969 419.763C737.416 420.008 740.816 420.789 743.96 422.199C748.548 424.261 753.824 428.107 755.244 435.052C755.535 436.508 755.582 437.988 755.5 439.468V439.48Z" fill="#FFD35C"/>
<path d="M828.699 412.305C839.246 412.305 847.796 403.548 847.796 392.745C847.796 381.942 839.246 373.184 828.699 373.184C818.153 373.184 809.603 381.942 809.603 392.745C809.603 403.548 818.153 412.305 828.699 412.305Z" fill="#FFD35C"/>
<path d="M793.037 380.088C803.965 380.088 812.824 372.464 812.824 363.059C812.824 353.654 803.965 346.029 793.037 346.029C782.109 346.029 773.25 353.654 773.25 363.059C773.25 372.464 782.109 380.088 793.037 380.088Z" fill="#FFD35C"/>
<path d="M626.241 772.125C621.339 722.74 559.888 717.892 559.888 717.892C469.486 701.356 380.587 716.237 380.587 716.237C330.164 725.35 307.747 747.631 307.747 747.631C273.289 778.907 296.218 831.404 296.218 831.404L324.667 913.173C336.906 952.071 373.985 962.99 373.985 962.99C419.68 974.655 502.034 971.613 502.034 971.613C543.771 969.597 566.793 925.607 566.793 925.607C573.885 915.213 584.179 894.948 592.68 877.317C602.148 857.682 610.253 837.429 617.007 816.71L623.26 797.506C625.927 789.325 627.08 780.69 626.23 772.137L626.241 772.125ZM565.5 769.48C565.349 772.207 564.79 777.462 562.869 785.748L545.89 858.684C544.877 863.031 543.736 867.354 542.466 871.63L539.881 880.359C539.881 880.359 533.93 907.44 517.86 923.521C517.86 923.521 502.593 937.901 486.348 939.404L437.404 939.742C437.404 939.742 412.425 940.01 392.209 935.396C392.209 935.396 365.891 930.886 359.743 914.222L343.742 859.465L336.604 834.982C336.604 834.982 322.199 783.615 374.846 761.404C374.846 761.404 394.853 752.828 425.84 750.171C425.84 750.171 492.311 746.186 513.808 747.572L543.969 749.763C547.416 750.008 550.816 750.789 553.96 752.199C558.548 754.261 563.824 758.107 565.244 765.052C565.535 766.508 565.582 767.988 565.5 769.468V769.48Z" fill="#FFD35C"/>
<path d="M638.699 742.305C649.246 742.305 657.796 733.548 657.796 722.745C657.796 711.942 649.246 703.184 638.699 703.184C628.153 703.184 619.603 711.942 619.603 722.745C619.603 733.548 628.153 742.305 638.699 742.305Z" fill="#FFD35C"/>
<path d="M603.037 710.088C613.965 710.088 622.824 702.464 622.824 693.059C622.824 683.654 613.965 676.029 603.037 676.029C592.109 676.029 583.25 683.654 583.25 693.059C583.25 702.464 592.109 710.088 603.037 710.088Z" fill="#FFD35C"/>
<path d="M1037.2 631.676C1034.58 605.188 1001.71 602.588 1001.71 602.588C953.353 593.719 905.803 601.7 905.803 601.7C878.832 606.588 866.842 618.538 866.842 618.538C848.411 635.314 860.675 663.472 860.675 663.472L875.892 707.33C882.439 728.193 902.271 734.049 902.271 734.049C926.713 740.306 970.763 738.675 970.763 738.675C993.087 737.593 1005.4 713.999 1005.4 713.999C1009.19 708.423 1014.7 697.554 1019.25 688.098C1024.31 677.566 1028.65 666.703 1032.26 655.59L1035.6 645.29C1037.03 640.902 1037.65 636.27 1037.19 631.683L1037.2 631.676ZM1004.71 630.258C1004.63 631.72 1004.33 634.539 1003.3 638.983L994.22 678.103C993.679 680.435 993.068 682.754 992.389 685.047L991.006 689.729C991.006 689.729 987.823 704.254 979.228 712.88C979.228 712.88 971.062 720.593 962.373 721.399L936.193 721.58C936.193 721.58 922.832 721.724 912.019 719.249C912.019 719.249 897.942 716.83 894.653 707.892L886.095 678.522L882.277 665.39C882.277 665.39 874.572 637.839 902.732 625.926C902.732 625.926 913.433 621.326 930.008 619.901C930.008 619.901 965.562 617.763 977.06 618.507L993.193 619.682C995.036 619.813 996.855 620.232 998.537 620.988C1000.99 622.095 1003.81 624.157 1004.57 627.883C1004.73 628.664 1004.75 629.458 1004.71 630.251V630.258Z" fill="#FFD35C"/>
<path d="M1043.86 615.682C1049.5 615.682 1054.08 610.985 1054.08 605.19C1054.08 599.396 1049.5 594.699 1043.86 594.699C1038.22 594.699 1033.65 599.396 1033.65 605.19C1033.65 610.985 1038.22 615.682 1043.86 615.682Z" fill="#FFD35C"/>
<path d="M1024.79 598.402C1030.63 598.402 1035.37 594.312 1035.37 589.268C1035.37 584.223 1030.63 580.134 1024.79 580.134C1018.94 580.134 1014.2 584.223 1014.2 589.268C1014.2 594.312 1018.94 598.402 1024.79 598.402Z" fill="#FFD35C"/>
<path d="M198.241 118.125C193.339 68.7397 131.888 63.892 131.888 63.892C41.4863 47.3564 -47.4127 62.2373 -47.4127 62.2373C-97.8361 71.35 -120.253 93.6306 -120.253 93.6306C-154.711 124.907 -131.782 177.404 -131.782 177.404L-103.333 259.173C-91.0936 298.071 -54.0154 308.99 -54.0154 308.99C-8.31993 320.655 74.0345 317.613 74.0345 317.613C115.771 315.597 138.793 271.607 138.793 271.607C145.885 261.213 156.179 240.948 164.68 223.317C174.148 203.682 182.253 183.429 189.007 162.71L195.26 143.506C197.927 135.325 199.08 126.69 198.23 118.137L198.241 118.125ZM137.5 115.48C137.349 118.207 136.79 123.462 134.869 131.748L117.89 204.684C116.877 209.031 115.736 213.354 114.466 217.63L111.881 226.359C111.881 226.359 105.93 253.44 89.8602 269.521C89.8602 269.521 74.5934 283.901 58.3485 285.404L9.40396 285.742C9.40396 285.742 -15.5749 286.01 -35.7908 281.396C-35.7908 281.396 -62.1088 276.886 -68.2574 260.222L-84.2579 205.465L-91.3963 180.982C-91.3963 180.982 -105.801 129.615 -53.1537 107.404C-53.1537 107.404 -33.1474 98.8278 -2.15966 96.1709C-2.15966 96.1709 64.3108 92.1856 85.8077 93.5723L115.969 95.7631C119.416 96.0078 122.816 96.7885 125.96 98.1986C130.548 100.261 135.824 104.107 137.244 111.052C137.535 112.508 137.582 113.988 137.5 115.468V115.48Z" fill="#FFD35C"/>
<path d="M210.699 88.3054C221.246 88.3054 229.796 79.5478 229.796 68.7448C229.796 57.9417 221.246 49.1841 210.699 49.1841C200.153 49.1841 191.603 57.9417 191.603 68.7448C191.603 79.5478 200.153 88.3054 210.699 88.3054Z" fill="#FFD35C"/>
<path d="M175.037 56.0879C185.965 56.0879 194.824 48.4636 194.824 39.0586C194.824 29.6536 185.965 22.0293 175.037 22.0293C164.109 22.0293 155.25 29.6536 155.25 39.0586C155.25 48.4636 164.109 56.0879 175.037 56.0879Z" fill="#FFD35C"/>
</g>
<defs>
<clipPath id="clip0_140_6">
<rect width="1920" height="824" fill="white"/>
</clipPath>
</defs>
</svg>
