<svg width="1920" height="334" viewBox="0 0 1920 334" fill="none" xmlns="http://www.w3.org/2000/svg">
<rect width="1920" height="334" fill="white"/>
<path d="M175.679 104.909V134H169.528V104.909H175.679ZM186.677 121.386V134H180.626V112.182H186.393V116.031H186.648C187.131 114.762 187.941 113.759 189.077 113.02C190.214 112.272 191.592 111.898 193.211 111.898C194.726 111.898 196.047 112.229 197.174 112.892C198.301 113.555 199.177 114.502 199.802 115.733C200.427 116.955 200.739 118.413 200.739 120.108V134H194.688V121.188C194.698 119.852 194.357 118.811 193.665 118.062C192.974 117.305 192.022 116.926 190.81 116.926C189.996 116.926 189.276 117.101 188.651 117.452C188.036 117.802 187.553 118.313 187.202 118.986C186.862 119.649 186.686 120.449 186.677 121.386ZM217.241 112.182V116.727H203.776V112.182H217.241ZM206.858 134V110.605C206.858 109.024 207.166 107.712 207.781 106.67C208.406 105.629 209.259 104.848 210.338 104.327C211.418 103.806 212.644 103.545 214.017 103.545C214.945 103.545 215.793 103.616 216.56 103.759C217.336 103.901 217.914 104.028 218.293 104.142L217.213 108.688C216.976 108.612 216.683 108.541 216.332 108.474C215.991 108.408 215.641 108.375 215.281 108.375C214.391 108.375 213.771 108.583 213.42 109C213.07 109.407 212.895 109.98 212.895 110.719V134H206.858ZM230.015 134.426C227.808 134.426 225.9 133.957 224.29 133.02C222.69 132.073 221.454 130.757 220.583 129.071C219.712 127.376 219.276 125.411 219.276 123.176C219.276 120.922 219.712 118.953 220.583 117.267C221.454 115.572 222.69 114.256 224.29 113.318C225.9 112.371 227.808 111.898 230.015 111.898C232.221 111.898 234.125 112.371 235.725 113.318C237.335 114.256 238.576 115.572 239.447 117.267C240.318 118.953 240.754 120.922 240.754 123.176C240.754 125.411 240.318 127.376 239.447 129.071C238.576 130.757 237.335 132.073 235.725 133.02C234.125 133.957 232.221 134.426 230.015 134.426ZM230.043 129.739C231.047 129.739 231.885 129.455 232.558 128.886C233.23 128.309 233.737 127.523 234.077 126.528C234.428 125.534 234.603 124.402 234.603 123.134C234.603 121.865 234.428 120.733 234.077 119.739C233.737 118.744 233.23 117.958 232.558 117.381C231.885 116.803 231.047 116.514 230.043 116.514C229.03 116.514 228.178 116.803 227.487 117.381C226.805 117.958 226.289 118.744 225.938 119.739C225.597 120.733 225.427 121.865 225.427 123.134C225.427 124.402 225.597 125.534 225.938 126.528C226.289 127.523 226.805 128.309 227.487 128.886C228.178 129.455 229.03 129.739 230.043 129.739ZM244.688 134V112.182H250.555V115.989H250.782C251.18 114.634 251.847 113.612 252.785 112.92C253.722 112.22 254.802 111.869 256.023 111.869C256.326 111.869 256.653 111.888 257.004 111.926C257.354 111.964 257.662 112.016 257.927 112.082V117.452C257.643 117.366 257.25 117.291 256.748 117.224C256.246 117.158 255.787 117.125 255.37 117.125C254.48 117.125 253.684 117.319 252.984 117.707C252.292 118.086 251.743 118.616 251.336 119.298C250.938 119.98 250.739 120.766 250.739 121.656V134H244.688ZM261.055 134V112.182H266.822V116.031H267.078C267.533 114.753 268.29 113.744 269.351 113.006C270.411 112.267 271.68 111.898 273.158 111.898C274.654 111.898 275.928 112.272 276.979 113.02C278.03 113.759 278.731 114.762 279.081 116.031H279.308C279.753 114.781 280.558 113.782 281.723 113.034C282.897 112.277 284.285 111.898 285.885 111.898C287.921 111.898 289.573 112.546 290.842 113.844C292.121 115.132 292.76 116.959 292.76 119.327V134H286.723V120.52C286.723 119.308 286.401 118.399 285.757 117.793C285.113 117.187 284.308 116.884 283.342 116.884C282.244 116.884 281.387 117.234 280.771 117.935C280.156 118.626 279.848 119.54 279.848 120.676V134H273.982V120.392C273.982 119.322 273.674 118.47 273.058 117.835C272.452 117.201 271.652 116.884 270.658 116.884C269.985 116.884 269.379 117.054 268.839 117.395C268.309 117.726 267.888 118.195 267.575 118.801C267.263 119.398 267.107 120.098 267.107 120.903V134H261.055ZM303.761 134.412C302.369 134.412 301.129 134.17 300.04 133.688C298.951 133.195 298.089 132.471 297.455 131.514C296.83 130.548 296.517 129.346 296.517 127.906C296.517 126.694 296.74 125.676 297.185 124.852C297.63 124.028 298.236 123.366 299.003 122.864C299.77 122.362 300.641 121.983 301.616 121.727C302.601 121.472 303.634 121.292 304.713 121.188C305.982 121.055 307.005 120.932 307.781 120.818C308.558 120.695 309.121 120.515 309.472 120.278C309.822 120.042 309.997 119.691 309.997 119.227V119.142C309.997 118.242 309.713 117.546 309.145 117.054C308.586 116.562 307.791 116.315 306.759 116.315C305.67 116.315 304.803 116.557 304.159 117.04C303.515 117.513 303.089 118.11 302.881 118.83L297.284 118.375C297.568 117.049 298.127 115.903 298.96 114.938C299.794 113.962 300.868 113.214 302.185 112.693C303.51 112.163 305.045 111.898 306.787 111.898C307.999 111.898 309.159 112.04 310.267 112.324C311.384 112.608 312.374 113.048 313.236 113.645C314.107 114.241 314.794 115.009 315.295 115.946C315.797 116.874 316.048 117.987 316.048 119.284V134H310.31V130.974H310.139C309.789 131.656 309.32 132.258 308.733 132.778C308.146 133.29 307.44 133.692 306.616 133.986C305.793 134.27 304.841 134.412 303.761 134.412ZM305.494 130.236C306.384 130.236 307.17 130.061 307.852 129.71C308.534 129.35 309.069 128.867 309.457 128.261C309.846 127.655 310.04 126.969 310.04 126.202V123.886C309.85 124.009 309.59 124.123 309.259 124.227C308.937 124.322 308.572 124.412 308.165 124.497C307.758 124.573 307.35 124.644 306.943 124.71C306.536 124.767 306.167 124.819 305.835 124.866C305.125 124.971 304.505 125.136 303.974 125.364C303.444 125.591 303.032 125.899 302.739 126.287C302.445 126.666 302.298 127.139 302.298 127.707C302.298 128.531 302.597 129.161 303.193 129.597C303.799 130.023 304.566 130.236 305.494 130.236ZM332.348 112.182V116.727H319.209V112.182H332.348ZM322.192 106.955H328.243V127.295C328.243 127.854 328.328 128.29 328.499 128.602C328.669 128.905 328.906 129.118 329.209 129.241C329.521 129.365 329.881 129.426 330.288 129.426C330.572 129.426 330.857 129.402 331.141 129.355C331.425 129.298 331.643 129.256 331.794 129.227L332.746 133.73C332.443 133.825 332.017 133.934 331.467 134.057C330.918 134.189 330.25 134.27 329.464 134.298C328.006 134.355 326.728 134.161 325.629 133.716C324.54 133.271 323.693 132.58 323.087 131.642C322.481 130.705 322.182 129.521 322.192 128.091V106.955ZM336.29 134V112.182H342.341V134H336.29ZM339.33 109.369C338.43 109.369 337.658 109.071 337.014 108.474C336.38 107.868 336.062 107.144 336.062 106.301C336.062 105.468 336.38 104.753 337.014 104.156C337.658 103.55 338.43 103.247 339.33 103.247C340.229 103.247 340.996 103.55 341.631 104.156C342.275 104.753 342.597 105.468 342.597 106.301C342.597 107.144 342.275 107.868 341.631 108.474C340.996 109.071 340.229 109.369 339.33 109.369ZM357.046 134.426C354.84 134.426 352.932 133.957 351.322 133.02C349.721 132.073 348.486 130.757 347.614 129.071C346.743 127.376 346.308 125.411 346.308 123.176C346.308 120.922 346.743 118.953 347.614 117.267C348.486 115.572 349.721 114.256 351.322 113.318C352.932 112.371 354.84 111.898 357.046 111.898C359.253 111.898 361.156 112.371 362.756 113.318C364.366 114.256 365.607 115.572 366.478 117.267C367.349 118.953 367.785 120.922 367.785 123.176C367.785 125.411 367.349 127.376 366.478 129.071C365.607 130.757 364.366 132.073 362.756 133.02C361.156 133.957 359.253 134.426 357.046 134.426ZM357.075 129.739C358.078 129.739 358.916 129.455 359.589 128.886C360.261 128.309 360.768 127.523 361.109 126.528C361.459 125.534 361.634 124.402 361.634 123.134C361.634 121.865 361.459 120.733 361.109 119.739C360.768 118.744 360.261 117.958 359.589 117.381C358.916 116.803 358.078 116.514 357.075 116.514C356.061 116.514 355.209 116.803 354.518 117.381C353.836 117.958 353.32 118.744 352.969 119.739C352.629 120.733 352.458 121.865 352.458 123.134C352.458 124.402 352.629 125.534 352.969 126.528C353.32 127.523 353.836 128.309 354.518 128.886C355.209 129.455 356.061 129.739 357.075 129.739ZM377.771 121.386V134H371.719V112.182H377.487V116.031H377.742C378.225 114.762 379.035 113.759 380.171 113.02C381.308 112.272 382.685 111.898 384.305 111.898C385.82 111.898 387.141 112.229 388.268 112.892C389.395 113.555 390.271 114.502 390.896 115.733C391.521 116.955 391.833 118.413 391.833 120.108V134H385.782V121.188C385.791 119.852 385.451 118.811 384.759 118.062C384.068 117.305 383.116 116.926 381.904 116.926C381.09 116.926 380.37 117.101 379.745 117.452C379.129 117.802 378.647 118.313 378.296 118.986C377.955 119.649 377.78 120.449 377.771 121.386ZM410.988 134H404.397L414.44 104.909H422.366L432.394 134H425.803L418.516 111.557H418.289L410.988 134ZM410.576 122.565H426.144V127.366H410.576V122.565ZM435.782 134V112.182H441.648V115.989H441.876C442.273 114.634 442.941 113.612 443.879 112.92C444.816 112.22 445.896 111.869 447.117 111.869C447.42 111.869 447.747 111.888 448.097 111.926C448.448 111.964 448.755 112.016 449.021 112.082V117.452C448.737 117.366 448.344 117.291 447.842 117.224C447.34 117.158 446.88 117.125 446.464 117.125C445.574 117.125 444.778 117.319 444.077 117.707C443.386 118.086 442.837 118.616 442.43 119.298C442.032 119.98 441.833 120.766 441.833 121.656V134H435.782ZM460.991 134.426C458.757 134.426 456.834 133.953 455.224 133.006C453.624 132.049 452.393 130.723 451.531 129.028C450.679 127.333 450.253 125.383 450.253 123.176C450.253 120.941 450.684 118.981 451.545 117.295C452.417 115.6 453.652 114.279 455.253 113.332C456.853 112.376 458.757 111.898 460.963 111.898C462.866 111.898 464.533 112.243 465.963 112.935C467.393 113.626 468.525 114.597 469.358 115.847C470.191 117.097 470.651 118.564 470.736 120.25H465.026C464.865 119.161 464.438 118.285 463.747 117.622C463.065 116.95 462.17 116.614 461.062 116.614C460.125 116.614 459.306 116.869 458.605 117.381C457.914 117.883 457.374 118.616 456.986 119.582C456.598 120.548 456.403 121.718 456.403 123.091C456.403 124.483 456.593 125.667 456.972 126.642C457.36 127.617 457.904 128.361 458.605 128.872C459.306 129.384 460.125 129.639 461.062 129.639C461.754 129.639 462.374 129.497 462.923 129.213C463.482 128.929 463.941 128.517 464.301 127.977C464.67 127.428 464.912 126.77 465.026 126.003H470.736C470.641 127.67 470.187 129.137 469.372 130.406C468.567 131.666 467.455 132.651 466.034 133.361C464.614 134.071 462.933 134.426 460.991 134.426ZM480.661 121.386V134H474.61V104.909H480.491V116.031H480.746C481.239 114.743 482.034 113.735 483.133 113.006C484.231 112.267 485.609 111.898 487.266 111.898C488.781 111.898 490.103 112.229 491.229 112.892C492.366 113.545 493.246 114.488 493.871 115.719C494.506 116.94 494.818 118.403 494.809 120.108V134H488.758V121.188C488.767 119.843 488.426 118.796 487.735 118.048C487.053 117.3 486.097 116.926 484.866 116.926C484.042 116.926 483.313 117.101 482.678 117.452C482.053 117.802 481.561 118.313 481.201 118.986C480.851 119.649 480.671 120.449 480.661 121.386ZM499.571 134V112.182H505.622V134H499.571ZM502.611 109.369C501.711 109.369 500.939 109.071 500.295 108.474C499.661 107.868 499.344 107.144 499.344 106.301C499.344 105.468 499.661 104.753 500.295 104.156C500.939 103.55 501.711 103.247 502.611 103.247C503.51 103.247 504.277 103.55 504.912 104.156C505.556 104.753 505.878 105.468 505.878 106.301C505.878 107.144 505.556 107.868 504.912 108.474C504.277 109.071 503.51 109.369 502.611 109.369ZM522.075 112.182V116.727H508.935V112.182H522.075ZM511.918 106.955H517.969V127.295C517.969 127.854 518.055 128.29 518.225 128.602C518.396 128.905 518.632 129.118 518.935 129.241C519.248 129.365 519.608 129.426 520.015 129.426C520.299 129.426 520.583 129.402 520.867 129.355C521.151 129.298 521.369 129.256 521.521 129.227L522.472 133.73C522.169 133.825 521.743 133.934 521.194 134.057C520.645 134.189 519.977 134.27 519.191 134.298C517.733 134.355 516.454 134.161 515.356 133.716C514.267 133.271 513.419 132.58 512.813 131.642C512.207 130.705 511.909 129.521 511.918 128.091V106.955ZM535.725 134.426C533.481 134.426 531.549 133.972 529.93 133.062C528.32 132.144 527.079 130.847 526.208 129.17C525.337 127.485 524.901 125.491 524.901 123.19C524.901 120.946 525.337 118.976 526.208 117.281C527.079 115.586 528.306 114.265 529.887 113.318C531.478 112.371 533.344 111.898 535.484 111.898C536.923 111.898 538.263 112.13 539.504 112.594C540.754 113.048 541.843 113.735 542.771 114.653C543.708 115.572 544.437 116.727 544.958 118.119C545.479 119.502 545.739 121.121 545.739 122.977V124.639H527.316V120.889H540.043C540.043 120.018 539.854 119.246 539.475 118.574C539.096 117.902 538.571 117.376 537.898 116.997C537.236 116.609 536.464 116.415 535.583 116.415C534.665 116.415 533.85 116.628 533.14 117.054C532.439 117.471 531.89 118.034 531.492 118.744C531.094 119.445 530.891 120.226 530.881 121.088V124.653C530.881 125.733 531.08 126.666 531.478 127.452C531.885 128.238 532.458 128.844 533.197 129.27C533.935 129.696 534.811 129.909 535.825 129.909C536.497 129.909 537.112 129.814 537.671 129.625C538.23 129.436 538.708 129.152 539.106 128.773C539.504 128.394 539.807 127.93 540.015 127.381L545.612 127.75C545.327 129.095 544.745 130.269 543.864 131.273C542.993 132.267 541.866 133.044 540.484 133.602C539.111 134.152 537.524 134.426 535.725 134.426ZM559.546 134.426C557.311 134.426 555.389 133.953 553.779 133.006C552.179 132.049 550.948 130.723 550.086 129.028C549.234 127.333 548.808 125.383 548.808 123.176C548.808 120.941 549.238 118.981 550.1 117.295C550.971 115.6 552.207 114.279 553.808 113.332C555.408 112.376 557.311 111.898 559.518 111.898C561.421 111.898 563.088 112.243 564.518 112.935C565.948 113.626 567.079 114.597 567.913 115.847C568.746 117.097 569.205 118.564 569.29 120.25H563.58C563.419 119.161 562.993 118.285 562.302 117.622C561.62 116.95 560.725 116.614 559.617 116.614C558.68 116.614 557.861 116.869 557.16 117.381C556.469 117.883 555.929 118.616 555.54 119.582C555.152 120.548 554.958 121.718 554.958 123.091C554.958 124.483 555.147 125.667 555.526 126.642C555.915 127.617 556.459 128.361 557.16 128.872C557.861 129.384 558.68 129.639 559.617 129.639C560.308 129.639 560.929 129.497 561.478 129.213C562.037 128.929 562.496 128.517 562.856 127.977C563.225 127.428 563.467 126.77 563.58 126.003H569.29C569.196 127.67 568.741 129.137 567.927 130.406C567.122 131.666 566.009 132.651 564.589 133.361C563.168 134.071 561.487 134.426 559.546 134.426ZM584.77 112.182V116.727H571.631V112.182H584.77ZM574.614 106.955H580.665V127.295C580.665 127.854 580.75 128.29 580.92 128.602C581.091 128.905 581.328 129.118 581.631 129.241C581.943 129.365 582.303 129.426 582.71 129.426C582.994 129.426 583.278 129.402 583.562 129.355C583.847 129.298 584.064 129.256 584.216 129.227L585.168 133.73C584.865 133.825 584.438 133.934 583.889 134.057C583.34 134.189 582.672 134.27 581.886 134.298C580.428 134.355 579.15 134.161 578.051 133.716C576.962 133.271 576.115 132.58 575.509 131.642C574.902 130.705 574.604 129.521 574.614 128.091V106.955ZM602.703 124.71V112.182H608.754V134H602.945V130.037H602.717C602.225 131.315 601.406 132.343 600.26 133.119C599.124 133.896 597.736 134.284 596.098 134.284C594.64 134.284 593.357 133.953 592.249 133.29C591.141 132.627 590.274 131.685 589.649 130.463C589.034 129.241 588.721 127.778 588.712 126.074V112.182H594.763V124.994C594.772 126.282 595.118 127.3 595.8 128.048C596.482 128.796 597.395 129.17 598.541 129.17C599.27 129.17 599.952 129.005 600.587 128.673C601.221 128.332 601.732 127.83 602.121 127.168C602.518 126.505 602.713 125.686 602.703 124.71ZM613.594 134V112.182H619.461V115.989H619.688C620.086 114.634 620.754 113.612 621.691 112.92C622.629 112.22 623.708 111.869 624.93 111.869C625.233 111.869 625.559 111.888 625.91 111.926C626.26 111.964 626.568 112.016 626.833 112.082V117.452C626.549 117.366 626.156 117.291 625.654 117.224C625.152 117.158 624.693 117.125 624.276 117.125C623.386 117.125 622.591 117.319 621.89 117.707C621.199 118.086 620.649 118.616 620.242 119.298C619.844 119.98 619.646 120.766 619.646 121.656V134H613.594ZM638.889 134.426C636.645 134.426 634.713 133.972 633.094 133.062C631.484 132.144 630.243 130.847 629.372 129.17C628.501 127.485 628.065 125.491 628.065 123.19C628.065 120.946 628.501 118.976 629.372 117.281C630.243 115.586 631.47 114.265 633.051 113.318C634.642 112.371 636.508 111.898 638.648 111.898C640.087 111.898 641.427 112.13 642.668 112.594C643.918 113.048 645.007 113.735 645.935 114.653C646.872 115.572 647.601 116.727 648.122 118.119C648.643 119.502 648.903 121.121 648.903 122.977V124.639H630.48V120.889H643.207C643.207 120.018 643.018 119.246 642.639 118.574C642.26 117.902 641.735 117.376 641.062 116.997C640.4 116.609 639.628 116.415 638.747 116.415C637.829 116.415 637.014 116.628 636.304 117.054C635.603 117.471 635.054 118.034 634.656 118.744C634.259 119.445 634.055 120.226 634.045 121.088V124.653C634.045 125.733 634.244 126.666 634.642 127.452C635.049 128.238 635.622 128.844 636.361 129.27C637.099 129.696 637.975 129.909 638.989 129.909C639.661 129.909 640.277 129.814 640.835 129.625C641.394 129.436 641.872 129.152 642.27 128.773C642.668 128.394 642.971 127.93 643.179 127.381L648.776 127.75C648.491 129.095 647.909 130.269 647.028 131.273C646.157 132.267 645.03 133.044 643.648 133.602C642.275 134.152 640.688 134.426 638.889 134.426ZM170.523 182V152.909H180.352C182.634 152.909 184.5 153.321 185.949 154.145C187.407 154.959 188.487 156.062 189.188 157.455C189.888 158.847 190.239 160.4 190.239 162.114C190.239 163.828 189.888 165.385 189.188 166.787C188.496 168.188 187.426 169.306 185.977 170.139C184.528 170.963 182.672 171.375 180.409 171.375H173.364V168.25H180.295C181.858 168.25 183.113 167.98 184.06 167.44C185.007 166.901 185.693 166.171 186.119 165.253C186.555 164.325 186.773 163.278 186.773 162.114C186.773 160.949 186.555 159.907 186.119 158.989C185.693 158.07 185.002 157.35 184.045 156.83C183.089 156.299 181.82 156.034 180.239 156.034H174.045V182H170.523ZM198.811 152.909V182H195.459V152.909H198.811ZM211.371 182.511C209.989 182.511 208.734 182.251 207.607 181.73C206.48 181.2 205.585 180.438 204.923 179.443C204.26 178.439 203.928 177.227 203.928 175.807C203.928 174.557 204.174 173.544 204.667 172.767C205.159 171.981 205.817 171.366 206.641 170.92C207.465 170.475 208.374 170.144 209.369 169.926C210.372 169.699 211.381 169.519 212.394 169.386C213.72 169.216 214.795 169.088 215.619 169.003C216.452 168.908 217.058 168.752 217.437 168.534C217.825 168.316 218.019 167.937 218.019 167.398V167.284C218.019 165.883 217.636 164.794 216.869 164.017C216.111 163.241 214.96 162.852 213.417 162.852C211.817 162.852 210.562 163.203 209.653 163.903C208.744 164.604 208.104 165.352 207.735 166.148L204.553 165.011C205.121 163.686 205.879 162.653 206.826 161.915C207.782 161.167 208.824 160.646 209.951 160.352C211.087 160.049 212.205 159.898 213.303 159.898C214.004 159.898 214.809 159.983 215.718 160.153C216.637 160.314 217.522 160.651 218.374 161.162C219.236 161.673 219.951 162.445 220.519 163.477C221.087 164.509 221.371 165.892 221.371 167.625V182H218.019V179.045H217.849C217.621 179.519 217.243 180.026 216.712 180.565C216.182 181.105 215.477 181.564 214.596 181.943C213.715 182.322 212.64 182.511 211.371 182.511ZM211.883 179.5C213.209 179.5 214.326 179.24 215.235 178.719C216.154 178.198 216.845 177.526 217.309 176.702C217.782 175.878 218.019 175.011 218.019 174.102V171.034C217.877 171.205 217.565 171.361 217.082 171.503C216.608 171.635 216.059 171.754 215.434 171.858C214.818 171.953 214.217 172.038 213.63 172.114C213.052 172.18 212.584 172.237 212.224 172.284C211.353 172.398 210.538 172.582 209.781 172.838C209.032 173.084 208.426 173.458 207.962 173.96C207.508 174.453 207.281 175.125 207.281 175.977C207.281 177.142 207.711 178.023 208.573 178.619C209.444 179.206 210.548 179.5 211.883 179.5ZM236.354 182.455C234.308 182.455 232.547 181.972 231.07 181.006C229.592 180.04 228.456 178.709 227.661 177.014C226.865 175.319 226.467 173.383 226.467 171.205C226.467 168.989 226.875 167.033 227.689 165.338C228.513 163.634 229.659 162.303 231.126 161.347C232.604 160.381 234.327 159.898 236.297 159.898C237.831 159.898 239.214 160.182 240.445 160.75C241.676 161.318 242.684 162.114 243.47 163.136C244.256 164.159 244.744 165.352 244.933 166.716H241.581C241.325 165.722 240.757 164.841 239.876 164.074C239.005 163.297 237.831 162.909 236.354 162.909C235.047 162.909 233.901 163.25 232.916 163.932C231.941 164.604 231.179 165.556 230.629 166.787C230.089 168.009 229.82 169.443 229.82 171.091C229.82 172.777 230.085 174.244 230.615 175.494C231.155 176.744 231.912 177.715 232.888 178.406C233.873 179.098 235.028 179.443 236.354 179.443C237.225 179.443 238.016 179.292 238.726 178.989C239.436 178.686 240.037 178.25 240.53 177.682C241.022 177.114 241.373 176.432 241.581 175.636H244.933C244.744 176.924 244.275 178.084 243.527 179.116C242.788 180.139 241.808 180.954 240.587 181.56C239.375 182.156 237.964 182.455 236.354 182.455ZM249.834 182V160.182H253.186V182H249.834ZM251.538 156.545C250.885 156.545 250.321 156.323 249.848 155.878C249.384 155.433 249.152 154.898 249.152 154.273C249.152 153.648 249.384 153.113 249.848 152.668C250.321 152.223 250.885 152 251.538 152C252.192 152 252.75 152.223 253.214 152.668C253.688 153.113 253.925 153.648 253.925 154.273C253.925 154.898 253.688 155.433 253.214 155.878C252.75 156.323 252.192 156.545 251.538 156.545ZM262.678 168.875V182H259.326V160.182H262.565V163.591H262.849C263.36 162.483 264.137 161.593 265.178 160.92C266.22 160.239 267.565 159.898 269.212 159.898C270.69 159.898 271.982 160.201 273.09 160.807C274.198 161.403 275.06 162.312 275.675 163.534C276.291 164.746 276.599 166.28 276.599 168.136V182H273.246V168.364C273.246 166.65 272.801 165.314 271.911 164.358C271.021 163.392 269.799 162.909 268.246 162.909C267.176 162.909 266.22 163.141 265.377 163.605C264.544 164.069 263.886 164.746 263.403 165.636C262.92 166.527 262.678 167.606 262.678 168.875ZM291.531 190.636C289.912 190.636 288.52 190.428 287.355 190.011C286.19 189.604 285.22 189.064 284.443 188.392C283.676 187.729 283.065 187.019 282.611 186.261L285.281 184.386C285.584 184.784 285.968 185.239 286.432 185.75C286.896 186.271 287.53 186.721 288.335 187.099C289.15 187.488 290.215 187.682 291.531 187.682C293.293 187.682 294.746 187.256 295.892 186.403C297.038 185.551 297.611 184.216 297.611 182.398V177.966H297.327C297.08 178.364 296.73 178.856 296.276 179.443C295.83 180.021 295.187 180.537 294.344 180.991C293.51 181.437 292.384 181.659 290.963 181.659C289.202 181.659 287.62 181.242 286.219 180.409C284.827 179.576 283.723 178.364 282.909 176.773C282.104 175.182 281.702 173.25 281.702 170.977C281.702 168.742 282.095 166.796 282.881 165.139C283.667 163.473 284.76 162.185 286.162 161.276C287.563 160.357 289.183 159.898 291.02 159.898C292.44 159.898 293.567 160.134 294.401 160.608C295.243 161.072 295.887 161.602 296.332 162.199C296.787 162.786 297.137 163.269 297.384 163.648H297.724V160.182H300.963V182.625C300.963 184.5 300.537 186.025 299.685 187.199C298.842 188.383 297.705 189.249 296.276 189.798C294.855 190.357 293.274 190.636 291.531 190.636ZM291.418 178.648C292.762 178.648 293.899 178.34 294.827 177.724C295.755 177.109 296.46 176.223 296.943 175.068C297.426 173.913 297.668 172.53 297.668 170.92C297.668 169.348 297.431 167.961 296.957 166.759C296.484 165.556 295.783 164.614 294.855 163.932C293.927 163.25 292.781 162.909 291.418 162.909C289.997 162.909 288.813 163.269 287.866 163.989C286.929 164.708 286.223 165.674 285.75 166.886C285.286 168.098 285.054 169.443 285.054 170.92C285.054 172.436 285.291 173.776 285.764 174.94C286.247 176.096 286.957 177.005 287.895 177.668C288.842 178.321 290.016 178.648 291.418 178.648ZM318.349 182V160.182H321.702V182H318.349ZM320.054 156.545C319.401 156.545 318.837 156.323 318.364 155.878C317.9 155.433 317.668 154.898 317.668 154.273C317.668 153.648 317.9 153.113 318.364 152.668C318.837 152.223 319.401 152 320.054 152C320.707 152 321.266 152.223 321.73 152.668C322.204 153.113 322.44 153.648 322.44 154.273C322.44 154.898 322.204 155.433 321.73 155.878C321.266 156.323 320.707 156.545 320.054 156.545ZM331.194 168.875V182H327.842V160.182H331.08V163.591H331.364C331.876 162.483 332.652 161.593 333.694 160.92C334.736 160.239 336.08 159.898 337.728 159.898C339.205 159.898 340.498 160.201 341.606 160.807C342.714 161.403 343.576 162.312 344.191 163.534C344.807 164.746 345.114 166.28 345.114 168.136V182H341.762V168.364C341.762 166.65 341.317 165.314 340.427 164.358C339.537 163.392 338.315 162.909 336.762 162.909C335.692 162.909 334.736 163.141 333.893 163.605C333.059 164.069 332.401 164.746 331.918 165.636C331.435 166.527 331.194 167.606 331.194 168.875ZM360.956 160.182V163.023H349.195V160.182H360.956ZM352.717 182V157.17C352.717 155.92 353.011 154.879 353.598 154.045C354.185 153.212 354.947 152.587 355.885 152.17C356.822 151.754 357.812 151.545 358.854 151.545C359.678 151.545 360.35 151.612 360.871 151.744C361.392 151.877 361.78 152 362.036 152.114L361.07 155.011C360.899 154.955 360.662 154.884 360.359 154.798C360.066 154.713 359.678 154.67 359.195 154.67C358.087 154.67 357.286 154.95 356.794 155.509C356.311 156.067 356.07 156.886 356.07 157.966V182H352.717ZM373.619 182.455C371.65 182.455 369.921 181.986 368.435 181.048C366.957 180.111 365.802 178.799 364.969 177.114C364.145 175.428 363.733 173.458 363.733 171.205C363.733 168.932 364.145 166.948 364.969 165.253C365.802 163.558 366.957 162.241 368.435 161.304C369.921 160.366 371.65 159.898 373.619 159.898C375.589 159.898 377.313 160.366 378.79 161.304C380.277 162.241 381.432 163.558 382.256 165.253C383.089 166.948 383.506 168.932 383.506 171.205C383.506 173.458 383.089 175.428 382.256 177.114C381.432 178.799 380.277 180.111 378.79 181.048C377.313 181.986 375.589 182.455 373.619 182.455ZM373.619 179.443C375.116 179.443 376.347 179.06 377.312 178.293C378.278 177.526 378.993 176.517 379.457 175.267C379.921 174.017 380.153 172.663 380.153 171.205C380.153 169.746 379.921 168.387 379.457 167.128C378.993 165.868 378.278 164.85 377.312 164.074C376.347 163.297 375.116 162.909 373.619 162.909C372.123 162.909 370.892 163.297 369.926 164.074C368.96 164.85 368.245 165.868 367.781 167.128C367.317 168.387 367.085 169.746 367.085 171.205C367.085 172.663 367.317 174.017 367.781 175.267C368.245 176.517 368.96 177.526 369.926 178.293C370.892 179.06 372.123 179.443 373.619 179.443ZM388.623 182V160.182H391.862V163.477H392.089C392.487 162.398 393.206 161.522 394.248 160.849C395.29 160.177 396.464 159.841 397.771 159.841C398.017 159.841 398.325 159.846 398.694 159.855C399.063 159.865 399.343 159.879 399.532 159.898V163.307C399.418 163.278 399.158 163.236 398.751 163.179C398.353 163.113 397.932 163.08 397.487 163.08C396.426 163.08 395.479 163.302 394.646 163.747C393.822 164.183 393.168 164.789 392.685 165.565C392.212 166.332 391.975 167.208 391.975 168.193V182H388.623ZM403.506 182V160.182H406.744V163.591H407.028C407.483 162.426 408.217 161.522 409.23 160.878C410.243 160.224 411.46 159.898 412.881 159.898C414.32 159.898 415.518 160.224 416.474 160.878C417.44 161.522 418.193 162.426 418.733 163.591H418.96C419.519 162.464 420.357 161.569 421.474 160.906C422.592 160.234 423.932 159.898 425.494 159.898C427.445 159.898 429.041 160.509 430.281 161.73C431.522 162.942 432.142 164.831 432.142 167.398V182H428.79V167.398C428.79 165.788 428.349 164.637 427.469 163.946C426.588 163.255 425.551 162.909 424.358 162.909C422.824 162.909 421.635 163.373 420.793 164.301C419.95 165.22 419.528 166.384 419.528 167.795V182H416.119V167.057C416.119 165.816 415.717 164.817 414.912 164.06C414.107 163.293 413.07 162.909 411.801 162.909C410.93 162.909 410.116 163.141 409.358 163.605C408.61 164.069 408.004 164.713 407.54 165.537C407.085 166.351 406.858 167.294 406.858 168.364V182H403.506ZM444.692 182.511C443.309 182.511 442.054 182.251 440.928 181.73C439.801 181.2 438.906 180.438 438.243 179.443C437.58 178.439 437.249 177.227 437.249 175.807C437.249 174.557 437.495 173.544 437.987 172.767C438.48 171.981 439.138 171.366 439.962 170.92C440.786 170.475 441.695 170.144 442.689 169.926C443.693 169.699 444.701 169.519 445.714 169.386C447.04 169.216 448.115 169.088 448.939 169.003C449.772 168.908 450.378 168.752 450.757 168.534C451.145 168.316 451.339 167.937 451.339 167.398V167.284C451.339 165.883 450.956 164.794 450.189 164.017C449.431 163.241 448.281 162.852 446.737 162.852C445.137 162.852 443.882 163.203 442.973 163.903C442.064 164.604 441.425 165.352 441.055 166.148L437.874 165.011C438.442 163.686 439.199 162.653 440.146 161.915C441.103 161.167 442.144 160.646 443.271 160.352C444.408 160.049 445.525 159.898 446.624 159.898C447.324 159.898 448.129 159.983 449.038 160.153C449.957 160.314 450.842 160.651 451.695 161.162C452.556 161.673 453.271 162.445 453.839 163.477C454.408 164.509 454.692 165.892 454.692 167.625V182H451.339V179.045H451.169C450.942 179.519 450.563 180.026 450.033 180.565C449.502 181.105 448.797 181.564 447.916 181.943C447.036 182.322 445.961 182.511 444.692 182.511ZM445.203 179.5C446.529 179.5 447.646 179.24 448.555 178.719C449.474 178.198 450.165 177.526 450.629 176.702C451.103 175.878 451.339 175.011 451.339 174.102V171.034C451.197 171.205 450.885 171.361 450.402 171.503C449.929 171.635 449.379 171.754 448.754 171.858C448.139 171.953 447.537 172.038 446.95 172.114C446.373 172.18 445.904 172.237 445.544 172.284C444.673 172.398 443.858 172.582 443.101 172.838C442.353 173.084 441.747 173.458 441.283 173.96C440.828 174.453 440.601 175.125 440.601 175.977C440.601 177.142 441.032 178.023 441.893 178.619C442.765 179.206 443.868 179.5 445.203 179.5ZM470.299 160.182V163.023H458.992V160.182H470.299ZM462.288 154.955H465.64V175.75C465.64 176.697 465.777 177.407 466.052 177.881C466.336 178.345 466.696 178.657 467.131 178.818C467.576 178.97 468.045 179.045 468.538 179.045C468.907 179.045 469.21 179.027 469.447 178.989C469.683 178.941 469.873 178.903 470.015 178.875L470.697 181.886C470.469 181.972 470.152 182.057 469.745 182.142C469.338 182.237 468.822 182.284 468.197 182.284C467.25 182.284 466.322 182.08 465.413 181.673C464.513 181.266 463.765 180.646 463.168 179.812C462.581 178.979 462.288 177.928 462.288 176.659V154.955ZM475.342 182V160.182H478.694V182H475.342ZM477.046 156.545C476.393 156.545 475.829 156.323 475.356 155.878C474.892 155.433 474.66 154.898 474.66 154.273C474.66 153.648 474.892 153.113 475.356 152.668C475.829 152.223 476.393 152 477.046 152C477.7 152 478.258 152.223 478.722 152.668C479.196 153.113 479.433 153.648 479.433 154.273C479.433 154.898 479.196 155.433 478.722 155.878C478.258 156.323 477.7 156.545 477.046 156.545ZM493.697 182.455C491.728 182.455 490 181.986 488.513 181.048C487.036 180.111 485.88 178.799 485.047 177.114C484.223 175.428 483.811 173.458 483.811 171.205C483.811 168.932 484.223 166.948 485.047 165.253C485.88 163.558 487.036 162.241 488.513 161.304C490 160.366 491.728 159.898 493.697 159.898C495.667 159.898 497.391 160.366 498.868 161.304C500.355 162.241 501.51 163.558 502.334 165.253C503.167 166.948 503.584 168.932 503.584 171.205C503.584 173.458 503.167 175.428 502.334 177.114C501.51 178.799 500.355 180.111 498.868 181.048C497.391 181.986 495.667 182.455 493.697 182.455ZM493.697 179.443C495.194 179.443 496.425 179.06 497.391 178.293C498.357 177.526 499.071 176.517 499.536 175.267C500 174.017 500.232 172.663 500.232 171.205C500.232 169.746 500 168.387 499.536 167.128C499.071 165.868 498.357 164.85 497.391 164.074C496.425 163.297 495.194 162.909 493.697 162.909C492.201 162.909 490.97 163.297 490.004 164.074C489.038 164.85 488.323 165.868 487.859 167.128C487.395 168.387 487.163 169.746 487.163 171.205C487.163 172.663 487.395 174.017 487.859 175.267C488.323 176.517 489.038 177.526 490.004 178.293C490.97 179.06 492.201 179.443 493.697 179.443ZM512.053 168.875V182H508.701V160.182H511.94V163.591H512.224C512.735 162.483 513.512 161.593 514.553 160.92C515.595 160.239 516.94 159.898 518.587 159.898C520.065 159.898 521.357 160.201 522.465 160.807C523.573 161.403 524.435 162.312 525.05 163.534C525.666 164.746 525.974 166.28 525.974 168.136V182H522.621V168.364C522.621 166.65 522.176 165.314 521.286 164.358C520.396 163.392 519.174 162.909 517.621 162.909C516.551 162.909 515.595 163.141 514.752 163.605C513.919 164.069 513.261 164.746 512.778 165.636C512.295 166.527 512.053 167.606 512.053 168.875Z" fill="#0173B0"/>
<path d="M167.827 78L170.724 60.5455H177.116C178.355 60.5455 179.347 60.75 180.091 61.1591C180.841 61.5625 181.358 62.1108 181.642 62.804C181.926 63.4915 181.994 64.267 181.847 65.1307C181.727 65.858 181.491 66.4687 181.139 66.9631C180.793 67.4574 180.372 67.8551 179.878 68.1562C179.384 68.4574 178.864 68.6761 178.318 68.8125L178.284 68.983C178.852 69.0114 179.384 69.1989 179.878 69.5455C180.378 69.8864 180.759 70.3722 181.02 71.0028C181.281 71.6335 181.341 72.4006 181.199 73.304C181.045 74.196 180.699 74.9972 180.159 75.7074C179.625 76.4119 178.889 76.9716 177.952 77.3864C177.014 77.7955 175.869 78 174.517 78H167.827ZM170.835 75.7415H174.636C175.898 75.7415 176.841 75.4972 177.466 75.0085C178.097 74.5199 178.477 73.9091 178.608 73.1761C178.693 72.625 178.634 72.1193 178.429 71.6591C178.23 71.1989 177.895 70.8324 177.423 70.5597C176.957 70.2869 176.372 70.1506 175.668 70.1506H171.773L170.835 75.7415ZM172.122 68.0966H175.642C176.233 68.0966 176.784 67.983 177.295 67.7557C177.813 67.5284 178.241 67.2074 178.582 66.7926C178.929 66.3778 179.145 65.892 179.23 65.3352C179.355 64.608 179.205 64.0028 178.778 63.5199C178.358 63.0312 177.628 62.7869 176.588 62.7869H172.991L172.122 68.0966ZM192.521 72.571L193.8 64.9091H196.357L194.175 78H191.669L192.053 75.733H191.916C191.507 76.4318 190.928 77.0142 190.178 77.4801C189.433 77.9403 188.57 78.1705 187.587 78.1705C186.746 78.1705 186.033 77.9858 185.447 77.6165C184.868 77.2415 184.456 76.6875 184.212 75.9545C183.967 75.2216 183.933 74.3153 184.109 73.2358L185.507 64.9091H188.055L186.717 72.929C186.575 73.821 186.709 74.5312 187.118 75.0597C187.527 75.5881 188.124 75.8523 188.908 75.8523C189.385 75.8523 189.879 75.733 190.391 75.4943C190.902 75.2557 191.354 74.8949 191.746 74.4119C192.143 73.929 192.402 73.3153 192.521 72.571ZM197.599 78L199.781 64.9091H202.329L200.147 78H197.599ZM201.587 62.8636C201.144 62.8636 200.769 62.7159 200.462 62.4205C200.161 62.1193 200.022 61.7614 200.045 61.3466C200.067 60.9261 200.244 60.5682 200.573 60.2727C200.903 59.9716 201.286 59.821 201.724 59.821C202.167 59.821 202.539 59.9716 202.84 60.2727C203.141 60.5682 203.283 60.9261 203.266 61.3466C203.244 61.7614 203.067 62.1193 202.738 62.4205C202.414 62.7159 202.031 62.8636 201.587 62.8636ZM209.021 60.5455L206.124 78H203.575L206.473 60.5455H209.021ZM214.435 78.2557C213.373 78.2557 212.472 77.9858 211.734 77.446C211.001 76.9006 210.481 76.125 210.174 75.1193C209.873 74.108 209.839 72.8949 210.072 71.4801C210.31 70.0653 210.751 68.8551 211.393 67.8494C212.035 66.8437 212.813 66.0739 213.728 65.5398C214.643 65.0057 215.629 64.7386 216.685 64.7386C217.498 64.7386 218.129 64.875 218.577 65.1477C219.032 65.4148 219.367 65.7273 219.583 66.0852C219.799 66.4432 219.961 66.7585 220.069 67.0312H220.214L221.296 60.5455H223.844L220.947 78H218.458L218.808 75.9631H218.594C218.396 76.2415 218.12 76.5597 217.768 76.9176C217.421 77.2756 216.978 77.5881 216.438 77.8551C215.898 78.1222 215.231 78.2557 214.435 78.2557ZM215.296 76.0824C216.029 76.0824 216.685 75.8892 217.265 75.5028C217.85 75.1108 218.336 74.5682 218.722 73.875C219.114 73.1818 219.387 72.375 219.54 71.4545C219.694 70.5455 219.691 69.75 219.532 69.0682C219.373 68.3864 219.066 67.8551 218.612 67.4744C218.157 67.0937 217.558 66.9034 216.813 66.9034C216.046 66.9034 215.379 67.1023 214.81 67.5C214.242 67.8977 213.776 68.4403 213.413 69.1278C213.055 69.8153 212.805 70.5909 212.663 71.4545C212.515 72.3295 212.509 73.1165 212.646 73.8153C212.782 74.5142 213.069 75.0682 213.506 75.4773C213.944 75.8807 214.54 76.0824 215.296 76.0824ZM224.575 78L226.757 64.9091H229.305L227.124 78H224.575ZM228.564 62.8636C228.121 62.8636 227.746 62.7159 227.439 62.4205C227.138 62.1193 226.999 61.7614 227.021 61.3466C227.044 60.9261 227.22 60.5682 227.55 60.2727C227.879 59.9716 228.263 59.821 228.7 59.821C229.143 59.821 229.516 59.9716 229.817 60.2727C230.118 60.5682 230.26 60.9261 230.243 61.3466C230.22 61.7614 230.044 62.1193 229.714 62.4205C229.391 62.7159 229.007 62.8636 228.564 62.8636ZM234.387 70.2273L233.109 78H230.56L232.742 64.9091H235.188L234.83 67.0398H234.992C235.407 66.3409 235.972 65.7841 236.688 65.3693C237.41 64.9489 238.262 64.7386 239.245 64.7386C240.131 64.7386 240.876 64.9261 241.478 65.3011C242.086 65.6705 242.515 66.2216 242.765 66.9545C243.021 67.6875 243.06 68.5937 242.884 69.6733L241.487 78H238.938L240.276 69.9801C240.43 69.0312 240.305 68.2898 239.901 67.7557C239.504 67.2159 238.87 66.946 238.001 66.946C237.41 66.946 236.862 67.0739 236.356 67.3295C235.856 67.5852 235.433 67.9602 235.086 68.4545C234.745 68.9432 234.512 69.5341 234.387 70.2273ZM249.566 83.1818C248.521 83.1818 247.646 83.0455 246.941 82.7727C246.242 82.5 245.691 82.1392 245.288 81.6903C244.89 81.2415 244.614 80.75 244.461 80.2159L246.813 79.3125C246.927 79.5625 247.086 79.8267 247.29 80.1051C247.495 80.3892 247.799 80.6307 248.202 80.8295C248.612 81.0284 249.171 81.1278 249.881 81.1278C250.847 81.1278 251.691 80.892 252.413 80.4205C253.134 79.9545 253.58 79.2102 253.751 78.1875L254.151 75.6136H253.989C253.796 75.892 253.529 76.2017 253.188 76.5426C252.847 76.8835 252.407 77.179 251.867 77.429C251.327 77.679 250.657 77.804 249.856 77.804C248.822 77.804 247.93 77.5625 247.18 77.0795C246.435 76.5909 245.901 75.8722 245.577 74.9233C245.254 73.9687 245.208 72.7955 245.441 71.4034C245.668 70.0114 246.1 68.8182 246.737 67.8239C247.379 66.8295 248.157 66.0682 249.072 65.5398C249.992 65.0057 250.978 64.7386 252.029 64.7386C252.842 64.7386 253.475 64.875 253.93 65.1477C254.39 65.4148 254.731 65.7273 254.952 66.0852C255.174 66.4432 255.336 66.7585 255.438 67.0312H255.626L255.975 64.9091H258.472L256.256 78.2898C256.075 79.4148 255.663 80.3381 255.021 81.0597C254.384 81.7813 253.592 82.3153 252.643 82.6619C251.7 83.0085 250.674 83.1818 249.566 83.1818ZM250.725 75.6903C251.452 75.6903 252.1 75.5199 252.668 75.179C253.242 74.8324 253.719 74.3381 254.1 73.696C254.481 73.0483 254.745 72.2727 254.893 71.3693C255.04 70.4886 255.032 69.7131 254.867 69.0426C254.708 68.3722 254.398 67.8494 253.938 67.4744C253.484 67.0937 252.89 66.9034 252.157 66.9034C251.384 66.9034 250.714 67.1023 250.146 67.5C249.577 67.892 249.114 68.4261 248.756 69.1023C248.404 69.7784 248.157 70.5341 248.015 71.3693C247.879 72.2273 247.881 72.9801 248.023 73.6278C248.171 74.2756 248.467 74.7812 248.91 75.1449C249.353 75.5085 249.958 75.6903 250.725 75.6903ZM274.352 64.9091L274.02 66.9545H266.869L267.202 64.9091H274.352ZM269.631 61.7727H272.179L270.116 74.1562C270.037 74.6506 270.051 75.0227 270.159 75.2727C270.267 75.517 270.432 75.6847 270.653 75.7756C270.881 75.8608 271.134 75.9034 271.412 75.9034C271.616 75.9034 271.795 75.8892 271.949 75.8608C272.102 75.8324 272.224 75.8097 272.315 75.7926L272.452 77.8977C272.281 77.9545 272.051 78.0114 271.761 78.0682C271.477 78.1307 271.131 78.1648 270.722 78.1705C270.051 78.1818 269.446 78.0625 268.906 77.8125C268.366 77.5568 267.963 77.1705 267.696 76.6534C267.429 76.1307 267.364 75.4744 267.5 74.6847L269.631 61.7727ZM279.106 70.2273L277.827 78H275.279L278.177 60.5455H280.691L279.617 67.0398H279.779C280.194 66.3295 280.751 65.7699 281.45 65.3608C282.154 64.946 283.018 64.7386 284.04 64.7386C284.938 64.7386 285.691 64.9233 286.299 65.2926C286.913 65.6619 287.344 66.2131 287.594 66.946C287.85 67.6733 287.89 68.5824 287.714 69.6733L286.316 78H283.768L285.097 69.9801C285.256 69.0199 285.131 68.2756 284.722 67.7472C284.313 67.2131 283.674 66.946 282.805 66.946C282.197 66.946 281.634 67.0739 281.117 67.3295C280.606 67.5852 280.174 67.9602 279.822 68.4545C279.469 68.9432 279.231 69.5341 279.106 70.2273ZM295.316 78.2642C294.032 78.2642 292.969 77.9886 292.129 77.4375C291.293 76.8807 290.708 76.0994 290.373 75.0938C290.038 74.0824 289.984 72.8977 290.211 71.5398C290.433 70.1989 290.879 69.017 291.549 67.9943C292.219 66.9716 293.055 66.1733 294.055 65.5994C295.06 65.0256 296.171 64.7386 297.387 64.7386C298.126 64.7386 298.822 64.8608 299.475 65.1051C300.134 65.3494 300.694 65.733 301.154 66.2557C301.614 66.7784 301.933 67.4574 302.109 68.2926C302.29 69.1222 302.285 70.1307 302.092 71.3182L301.947 72.2216H291.532L291.83 70.3125H299.739C299.859 69.642 299.827 69.0483 299.646 68.5312C299.464 68.0085 299.151 67.5966 298.708 67.2955C298.271 66.9943 297.719 66.8438 297.055 66.8438C296.373 66.8438 295.737 67.0227 295.146 67.3807C294.555 67.7386 294.06 68.196 293.663 68.7528C293.271 69.304 293.023 69.8722 292.921 70.4574L292.623 72.2045C292.475 73.1591 292.501 73.9261 292.7 74.5057C292.904 75.0852 293.262 75.5057 293.773 75.767C294.285 76.0284 294.924 76.1591 295.691 76.1591C296.185 76.1591 296.643 76.0909 297.063 75.9545C297.489 75.8125 297.867 75.6051 298.197 75.3324C298.526 75.054 298.802 74.7074 299.023 74.2926L301.359 74.7273C301.046 75.4375 300.597 76.0597 300.012 76.5938C299.427 77.1222 298.737 77.5341 297.941 77.8295C297.151 78.1193 296.276 78.2642 295.316 78.2642ZM310.397 78L313.295 60.5455H319.687C320.925 60.5455 321.917 60.75 322.661 61.1591C323.411 61.5625 323.928 62.1108 324.212 62.804C324.496 63.4915 324.565 64.267 324.417 65.1307C324.298 65.858 324.062 66.4687 323.71 66.9631C323.363 67.4574 322.942 67.8551 322.448 68.1562C321.954 68.4574 321.434 68.6761 320.888 68.8125L320.854 68.983C321.423 69.0114 321.954 69.1989 322.448 69.5455C322.948 69.8864 323.329 70.3722 323.59 71.0028C323.852 71.6335 323.911 72.4006 323.769 73.304C323.616 74.196 323.269 74.9972 322.729 75.7074C322.195 76.4119 321.46 76.9716 320.522 77.3864C319.585 77.7955 318.44 78 317.087 78H310.397ZM313.406 75.7415H317.207C318.468 75.7415 319.411 75.4972 320.036 75.0085C320.667 74.5199 321.048 73.9091 321.178 73.1761C321.263 72.625 321.204 72.1193 320.999 71.6591C320.8 71.1989 320.465 70.8324 319.994 70.5597C319.528 70.2869 318.942 70.1506 318.238 70.1506H314.343L313.406 75.7415ZM314.692 68.0966H318.212C318.803 68.0966 319.354 67.983 319.866 67.7557C320.383 67.5284 320.812 67.2074 321.153 66.7926C321.499 66.3778 321.715 65.892 321.8 65.3352C321.925 64.608 321.775 64.0028 321.349 63.5199C320.928 63.0312 320.198 62.7869 319.158 62.7869H315.562L314.692 68.0966ZM329.671 78.2898C328.842 78.2898 328.117 78.1364 327.498 77.8295C326.879 77.517 326.421 77.0653 326.126 76.4744C325.83 75.8835 325.754 75.1591 325.896 74.3011C326.021 73.5625 326.265 72.9545 326.629 72.4773C326.998 72 327.447 71.6222 327.975 71.3438C328.504 71.0597 329.077 70.8466 329.697 70.7045C330.316 70.5625 330.941 70.4574 331.572 70.3892C332.367 70.2983 333.012 70.2216 333.506 70.1591C334.006 70.0966 334.381 70 334.631 69.8693C334.881 69.733 335.032 69.5114 335.083 69.2045V69.1449C335.202 68.4062 335.094 67.8324 334.759 67.4233C334.43 67.0085 333.856 66.8011 333.038 66.8011C332.185 66.8011 331.469 66.9886 330.89 67.3636C330.316 67.7386 329.893 68.1591 329.62 68.625L327.336 68.0795C327.745 67.2841 328.265 66.642 328.896 66.1534C329.532 65.6591 330.228 65.3011 330.984 65.0795C331.739 64.8523 332.512 64.7386 333.302 64.7386C333.825 64.7386 334.367 64.8011 334.93 64.9261C335.492 65.0455 336.004 65.267 336.464 65.5909C336.93 65.9148 337.276 66.3778 337.504 66.9801C337.731 67.5767 337.765 68.3523 337.606 69.3068L336.165 78H333.677L333.984 76.2102H333.881C333.665 76.5398 333.364 76.8636 332.978 77.1818C332.597 77.5 332.131 77.7642 331.58 77.9744C331.029 78.1847 330.393 78.2898 329.671 78.2898ZM330.54 76.2443C331.251 76.2443 331.879 76.1051 332.424 75.8267C332.975 75.5483 333.421 75.1847 333.762 74.7358C334.103 74.2812 334.316 73.7955 334.401 73.2784L334.683 71.5909C334.575 71.6818 334.384 71.7642 334.112 71.8381C333.844 71.9119 333.543 71.9773 333.208 72.0341C332.873 72.0909 332.543 72.1392 332.219 72.179C331.901 72.2187 331.637 72.2557 331.427 72.2898C330.927 72.3523 330.458 72.4574 330.021 72.6051C329.589 72.7528 329.228 72.9659 328.938 73.2443C328.648 73.517 328.467 73.8807 328.393 74.3352C328.29 74.9659 328.441 75.4432 328.844 75.767C329.254 76.0852 329.819 76.2443 330.54 76.2443ZM345.04 78.2642C343.767 78.2642 342.724 77.9773 341.912 77.4034C341.099 76.8239 340.534 76.0256 340.216 75.0085C339.898 73.9915 339.847 72.8267 340.062 71.5142C340.278 70.1847 340.719 69.0114 341.384 67.9943C342.054 66.9716 342.892 66.1733 343.898 65.5994C344.909 65.0256 346.031 64.7386 347.264 64.7386C348.259 64.7386 349.114 64.9233 349.83 65.2926C350.545 65.6562 351.088 66.1676 351.457 66.8267C351.827 67.4858 351.986 68.2557 351.935 69.1364H349.455C349.415 68.5227 349.188 67.9943 348.773 67.5511C348.358 67.108 347.747 66.8864 346.94 66.8864C346.23 66.8864 345.577 67.0739 344.98 67.4489C344.384 67.8182 343.881 68.3466 343.472 69.0341C343.063 69.7159 342.784 70.5227 342.636 71.4545C342.477 72.4091 342.486 73.233 342.662 73.9261C342.838 74.6193 343.162 75.1562 343.634 75.5369C344.105 75.9176 344.699 76.108 345.415 76.108C345.903 76.108 346.358 76.0199 346.778 75.8438C347.205 75.6619 347.58 75.4034 347.903 75.0682C348.233 74.733 348.489 74.3295 348.67 73.858H351.159C350.915 74.7045 350.506 75.4602 349.932 76.125C349.364 76.7898 348.665 77.3125 347.835 77.6932C347.006 78.0739 346.074 78.2642 345.04 78.2642ZM356.254 73.5597L356.739 70.4489H357.191L363.344 64.9091H366.396L359.407 71.2159H359.006L356.254 73.5597ZM353.177 78L356.075 60.5455H358.623L355.725 78H353.177ZM361.444 78L357.796 71.7784L359.833 69.9972L364.572 78H361.444ZM366.741 78L369.638 60.5455H372.187L371.121 67.0312H371.275C371.468 66.7585 371.732 66.4432 372.067 66.0852C372.408 65.7273 372.849 65.4148 373.388 65.1477C373.928 64.875 374.604 64.7386 375.417 64.7386C376.474 64.7386 377.371 65.0057 378.11 65.5398C378.849 66.0739 379.371 66.8437 379.678 67.8494C379.985 68.8551 380.022 70.0653 379.789 71.4801C379.556 72.8949 379.119 74.108 378.477 75.1193C377.84 76.125 377.065 76.9006 376.15 77.446C375.235 77.9858 374.249 78.2557 373.192 78.2557C372.397 78.2557 371.769 78.1222 371.309 77.8551C370.854 77.5881 370.513 77.2756 370.286 76.9176C370.065 76.5597 369.897 76.2415 369.783 75.9631H369.57L369.229 78H366.741ZM370.329 71.4545C370.181 72.375 370.181 73.1818 370.329 73.875C370.482 74.5682 370.781 75.1108 371.224 75.5028C371.673 75.8892 372.261 76.0824 372.988 76.0824C373.749 76.0824 374.42 75.8807 374.999 75.4773C375.579 75.0682 376.056 74.5142 376.431 73.8153C376.806 73.1165 377.067 72.3295 377.215 71.4545C377.352 70.5909 377.349 69.8153 377.207 69.1278C377.065 68.4403 376.769 67.8977 376.32 67.5C375.877 67.1023 375.272 66.9034 374.505 66.9034C373.766 66.9034 373.11 67.0937 372.536 67.4744C371.962 67.8551 371.488 68.3864 371.113 69.0682C370.738 69.75 370.477 70.5455 370.329 71.4545ZM387.134 78.2642C385.889 78.2642 384.849 77.9801 384.014 77.4119C383.179 76.8381 382.591 76.0369 382.25 75.0085C381.915 73.9744 381.858 72.7727 382.08 71.4034C382.295 70.0625 382.73 68.892 383.384 67.892C384.043 66.892 384.866 66.1165 385.855 65.5653C386.849 65.0142 387.955 64.7386 389.17 64.7386C390.415 64.7386 391.452 65.0256 392.281 65.5994C393.116 66.1733 393.705 66.9773 394.045 68.0114C394.386 69.0455 394.446 70.25 394.224 71.625C394.009 72.9545 393.568 74.1193 392.903 75.1193C392.244 76.1136 391.42 76.8864 390.432 77.4375C389.443 77.9886 388.344 78.2642 387.134 78.2642ZM387.278 76.125C388.097 76.125 388.81 75.9091 389.418 75.4773C390.031 75.0455 390.531 74.4716 390.918 73.7557C391.304 73.0398 391.568 72.2557 391.71 71.4034C391.841 70.5795 391.838 69.8267 391.702 69.1449C391.571 68.4574 391.287 67.9062 390.849 67.4915C390.412 67.0767 389.804 66.8693 389.026 66.8693C388.207 66.8693 387.489 67.0881 386.869 67.5256C386.256 67.9574 385.756 68.5341 385.369 69.2557C384.989 69.9773 384.73 70.7642 384.594 71.6165C384.463 72.4347 384.463 73.1875 384.594 73.875C384.724 74.5568 385.009 75.1023 385.446 75.5114C385.884 75.9205 386.494 76.125 387.278 76.125ZM399.856 70.2273L398.577 78H396.029L398.211 64.9091H400.657L400.299 67.0398H400.461C400.876 66.3409 401.441 65.7841 402.157 65.3693C402.879 64.9489 403.731 64.7386 404.714 64.7386C405.6 64.7386 406.344 64.9261 406.947 65.3011C407.555 65.6705 407.984 66.2216 408.234 66.9545C408.489 67.6875 408.529 68.5937 408.353 69.6733L406.955 78H404.407L405.745 69.9801C405.898 69.0312 405.773 68.2898 405.37 67.7557C404.972 67.2159 404.339 66.946 403.469 66.946C402.879 66.946 402.33 67.0739 401.825 67.3295C401.325 67.5852 400.901 67.9602 400.555 68.4545C400.214 68.9432 399.981 69.5341 399.856 70.2273ZM415.972 78.2642C414.688 78.2642 413.626 77.9886 412.785 77.4375C411.95 76.8807 411.364 76.0994 411.029 75.0938C410.694 74.0824 410.64 72.8977 410.867 71.5398C411.089 70.1989 411.535 69.017 412.205 67.9943C412.876 66.9716 413.711 66.1733 414.711 65.5994C415.717 65.0256 416.827 64.7386 418.043 64.7386C418.782 64.7386 419.478 64.8608 420.131 65.1051C420.79 65.3494 421.35 65.733 421.81 66.2557C422.271 66.7784 422.589 67.4574 422.765 68.2926C422.947 69.1222 422.941 70.1307 422.748 71.3182L422.603 72.2216H412.188L412.487 70.3125H420.396C420.515 69.642 420.484 69.0483 420.302 68.5312C420.12 68.0085 419.808 67.5966 419.364 67.2955C418.927 66.9943 418.376 66.8438 417.711 66.8438C417.029 66.8438 416.393 67.0227 415.802 67.3807C415.211 67.7386 414.717 68.196 414.319 68.7528C413.927 69.304 413.68 69.8722 413.577 70.4574L413.279 72.2045C413.131 73.1591 413.157 73.9261 413.356 74.5057C413.56 75.0852 413.918 75.5057 414.43 75.767C414.941 76.0284 415.58 76.1591 416.347 76.1591C416.842 76.1591 417.299 76.0909 417.719 75.9545C418.146 75.8125 418.523 75.6051 418.853 75.3324C419.183 75.054 419.458 74.7074 419.68 74.2926L422.015 74.7273C421.702 75.4375 421.254 76.0597 420.668 76.5938C420.083 77.1222 419.393 77.5341 418.597 77.8295C417.808 78.1193 416.933 78.2642 415.972 78.2642ZM439.977 69.5199L439.61 71.7273H431.863L432.229 69.5199H439.977Z" fill="#0173B0"/>
<path d="M204.576 288L198.504 270.648H201.324L206.268 284.64L211.212 270.648H214.044L207.96 288H204.576ZM217.451 288V275.592H220.247V288H217.451ZM217.403 273.42V270.66H220.295V273.42H217.403ZM230.274 288.24C229.082 288.24 228.03 287.988 227.118 287.484C226.214 286.972 225.506 286.244 224.994 285.3C224.49 284.356 224.238 283.232 224.238 281.928C224.238 280.656 224.466 279.528 224.922 278.544C225.386 277.552 226.054 276.772 226.926 276.204C227.806 275.636 228.866 275.352 230.106 275.352C231.33 275.352 232.358 275.612 233.19 276.132C234.022 276.652 234.654 277.38 235.086 278.316C235.518 279.244 235.734 280.332 235.734 281.58V282.468H227.154C227.146 283.172 227.258 283.796 227.49 284.34C227.722 284.884 228.066 285.312 228.522 285.624C228.978 285.928 229.542 286.08 230.214 286.08C230.902 286.08 231.498 285.928 232.002 285.624C232.514 285.312 232.854 284.84 233.022 284.208H235.686C235.542 285.072 235.198 285.804 234.654 286.404C234.118 287.004 233.462 287.46 232.686 287.772C231.918 288.084 231.114 288.24 230.274 288.24ZM227.142 280.656H232.974C232.974 280.056 232.866 279.516 232.65 279.036C232.442 278.548 232.126 278.164 231.702 277.884C231.278 277.596 230.742 277.452 230.094 277.452C229.454 277.452 228.914 277.608 228.474 277.92C228.034 278.232 227.702 278.636 227.478 279.132C227.254 279.62 227.142 280.128 227.142 280.656ZM242.227 288L238.291 275.592H240.919L243.499 284.124H243.643L246.151 275.592H248.275L250.855 284.112H250.999L253.495 275.592H256.171L252.235 288H249.715L247.171 279.732L244.687 288H242.227Z" fill="white"/>
<path d="M282 280H310" stroke="white" stroke-width="2"/>
<path d="M304 274L310 280.316L304 286" stroke="white" stroke-width="2"/>
</svg>
