<svg width="1920" height="463" viewBox="0 0 1920 463" fill="none" xmlns="http://www.w3.org/2000/svg">
<rect width="1920" height="463" fill="white"/>
<path d="M295.932 136.636V157H293.466V136.636H295.932ZM302.904 147.812V157H300.558V141.727H302.825V144.114H303.024C303.382 143.338 303.925 142.715 304.654 142.244C305.384 141.767 306.325 141.528 307.478 141.528C308.512 141.528 309.417 141.741 310.193 142.165C310.968 142.582 311.572 143.219 312.002 144.074C312.433 144.922 312.649 145.996 312.649 147.295V157H310.302V147.455C310.302 146.255 309.991 145.32 309.368 144.651C308.744 143.974 307.889 143.636 306.802 143.636C306.053 143.636 305.384 143.799 304.794 144.124C304.21 144.448 303.75 144.922 303.412 145.545C303.074 146.169 302.904 146.924 302.904 147.812ZM323.738 141.727V143.716H315.505V141.727H323.738ZM317.971 157V139.619C317.971 138.744 318.176 138.015 318.587 137.432C318.998 136.848 319.532 136.411 320.188 136.119C320.844 135.828 321.537 135.682 322.266 135.682C322.843 135.682 323.314 135.728 323.678 135.821C324.043 135.914 324.315 136 324.494 136.08L323.817 138.108C323.698 138.068 323.532 138.018 323.32 137.959C323.115 137.899 322.843 137.869 322.505 137.869C321.729 137.869 321.169 138.065 320.825 138.456C320.487 138.847 320.317 139.42 320.317 140.176V157H317.971ZM332.602 157.318C331.223 157.318 330.014 156.99 328.973 156.334C327.939 155.678 327.13 154.759 326.547 153.58C325.97 152.4 325.682 151.021 325.682 149.443C325.682 147.852 325.97 146.464 326.547 145.277C327.13 144.09 327.939 143.169 328.973 142.513C330.014 141.857 331.223 141.528 332.602 141.528C333.981 141.528 335.188 141.857 336.222 142.513C337.262 143.169 338.071 144.09 338.648 145.277C339.231 146.464 339.523 147.852 339.523 149.443C339.523 151.021 339.231 152.4 338.648 153.58C338.071 154.759 337.262 155.678 336.222 156.334C335.188 156.99 333.981 157.318 332.602 157.318ZM332.602 155.21C333.65 155.21 334.511 154.942 335.188 154.405C335.864 153.868 336.364 153.162 336.689 152.287C337.014 151.412 337.176 150.464 337.176 149.443C337.176 148.422 337.014 147.471 336.689 146.589C336.364 145.708 335.864 144.995 335.188 144.452C334.511 143.908 333.65 143.636 332.602 143.636C331.555 143.636 330.693 143.908 330.017 144.452C329.341 144.995 328.84 145.708 328.516 146.589C328.191 147.471 328.028 148.422 328.028 149.443C328.028 150.464 328.191 151.412 328.516 152.287C328.84 153.162 329.341 153.868 330.017 154.405C330.693 154.942 331.555 155.21 332.602 155.21ZM343.105 157V141.727H345.372V144.034H345.531C345.809 143.278 346.313 142.665 347.042 142.195C347.771 141.724 348.593 141.489 349.508 141.489C349.681 141.489 349.896 141.492 350.154 141.499C350.413 141.505 350.609 141.515 350.741 141.528V143.915C350.662 143.895 350.479 143.865 350.194 143.825C349.916 143.779 349.621 143.756 349.309 143.756C348.567 143.756 347.904 143.911 347.321 144.223C346.744 144.528 346.287 144.952 345.949 145.496C345.617 146.033 345.451 146.646 345.451 147.335V157H343.105ZM353.523 157V141.727H355.79V144.114H355.989C356.307 143.298 356.821 142.665 357.53 142.214C358.239 141.757 359.091 141.528 360.085 141.528C361.093 141.528 361.931 141.757 362.601 142.214C363.277 142.665 363.804 143.298 364.182 144.114H364.341C364.732 143.325 365.319 142.698 366.101 142.234C366.883 141.764 367.821 141.528 368.915 141.528C370.28 141.528 371.397 141.956 372.266 142.811C373.134 143.66 373.568 144.982 373.568 146.778V157H371.222V146.778C371.222 145.652 370.913 144.846 370.297 144.362C369.68 143.878 368.955 143.636 368.119 143.636C367.045 143.636 366.214 143.961 365.624 144.611C365.034 145.254 364.739 146.069 364.739 147.057V157H362.352V146.54C362.352 145.671 362.071 144.972 361.507 144.442C360.944 143.905 360.218 143.636 359.33 143.636C358.72 143.636 358.15 143.799 357.619 144.124C357.096 144.448 356.671 144.899 356.347 145.476C356.028 146.046 355.869 146.705 355.869 147.455V157H353.523ZM382.353 157.358C381.385 157.358 380.507 157.176 379.718 156.811C378.929 156.44 378.303 155.906 377.839 155.21C377.375 154.508 377.143 153.659 377.143 152.665C377.143 151.79 377.315 151.08 377.66 150.537C378.004 149.987 378.465 149.556 379.042 149.244C379.619 148.933 380.255 148.701 380.951 148.548C381.654 148.389 382.36 148.263 383.069 148.17C383.997 148.051 384.749 147.962 385.326 147.902C385.909 147.836 386.334 147.726 386.599 147.574C386.871 147.421 387.006 147.156 387.006 146.778V146.699C387.006 145.718 386.738 144.955 386.201 144.412C385.671 143.868 384.865 143.597 383.785 143.597C382.665 143.597 381.786 143.842 381.15 144.332C380.513 144.823 380.066 145.347 379.808 145.903L377.58 145.108C377.978 144.18 378.508 143.457 379.171 142.94C379.841 142.417 380.57 142.052 381.359 141.847C382.154 141.634 382.936 141.528 383.705 141.528C384.196 141.528 384.759 141.588 385.396 141.707C386.039 141.82 386.658 142.055 387.255 142.413C387.858 142.771 388.359 143.312 388.756 144.034C389.154 144.757 389.353 145.724 389.353 146.938V157H387.006V154.932H386.887C386.728 155.263 386.463 155.618 386.092 155.996C385.72 156.374 385.227 156.695 384.61 156.96C383.994 157.225 383.241 157.358 382.353 157.358ZM382.711 155.25C383.639 155.25 384.421 155.068 385.058 154.703C385.701 154.339 386.184 153.868 386.509 153.291C386.841 152.714 387.006 152.108 387.006 151.472V149.324C386.907 149.443 386.688 149.553 386.35 149.652C386.019 149.745 385.634 149.828 385.197 149.901C384.766 149.967 384.345 150.027 383.934 150.08C383.53 150.126 383.201 150.166 382.95 150.199C382.34 150.278 381.77 150.408 381.239 150.587C380.716 150.759 380.291 151.021 379.967 151.372C379.648 151.717 379.489 152.187 379.489 152.784C379.489 153.599 379.791 154.216 380.394 154.634C381.004 155.045 381.776 155.25 382.711 155.25ZM400.278 141.727V143.716H392.363V141.727H400.278ZM394.67 138.068H397.017V152.625C397.017 153.288 397.113 153.785 397.305 154.116C397.504 154.441 397.756 154.66 398.061 154.773C398.372 154.879 398.7 154.932 399.045 154.932C399.304 154.932 399.516 154.919 399.681 154.892C399.847 154.859 399.98 154.832 400.079 154.812L400.556 156.92C400.397 156.98 400.175 157.04 399.89 157.099C399.605 157.166 399.244 157.199 398.806 157.199C398.144 157.199 397.494 157.056 396.858 156.771C396.228 156.486 395.704 156.052 395.287 155.469C394.876 154.885 394.67 154.15 394.67 153.261V138.068ZM403.808 157V141.727H406.154V157H403.808ZM405.001 139.182C404.544 139.182 404.149 139.026 403.818 138.714C403.493 138.403 403.331 138.028 403.331 137.591C403.331 137.153 403.493 136.779 403.818 136.467C404.149 136.156 404.544 136 405.001 136C405.458 136 405.85 136.156 406.174 136.467C406.506 136.779 406.672 137.153 406.672 137.591C406.672 138.028 406.506 138.403 406.174 138.714C405.85 139.026 405.458 139.182 405.001 139.182ZM416.657 157.318C415.278 157.318 414.068 156.99 413.028 156.334C411.994 155.678 411.185 154.759 410.602 153.58C410.025 152.4 409.737 151.021 409.737 149.443C409.737 147.852 410.025 146.464 410.602 145.277C411.185 144.09 411.994 143.169 413.028 142.513C414.068 141.857 415.278 141.528 416.657 141.528C418.036 141.528 419.242 141.857 420.276 142.513C421.317 143.169 422.126 144.09 422.702 145.277C423.286 146.464 423.577 147.852 423.577 149.443C423.577 151.021 423.286 152.4 422.702 153.58C422.126 154.759 421.317 155.678 420.276 156.334C419.242 156.99 418.036 157.318 416.657 157.318ZM416.657 155.21C417.704 155.21 418.566 154.942 419.242 154.405C419.918 153.868 420.419 153.162 420.744 152.287C421.068 151.412 421.231 150.464 421.231 149.443C421.231 148.422 421.068 147.471 420.744 146.589C420.419 145.708 419.918 144.995 419.242 144.452C418.566 143.908 417.704 143.636 416.657 143.636C415.61 143.636 414.748 143.908 414.072 144.452C413.396 144.995 412.895 145.708 412.57 146.589C412.246 147.471 412.083 148.422 412.083 149.443C412.083 150.464 412.246 151.412 412.57 152.287C412.895 153.162 413.396 153.868 414.072 154.405C414.748 154.942 415.61 155.21 416.657 155.21ZM429.506 147.812V157H427.159V141.727H429.426V144.114H429.625C429.983 143.338 430.527 142.715 431.256 142.244C431.985 141.767 432.926 141.528 434.08 141.528C435.114 141.528 436.019 141.741 436.794 142.165C437.57 142.582 438.173 143.219 438.604 144.074C439.035 144.922 439.25 145.996 439.25 147.295V157H436.904V147.455C436.904 146.255 436.592 145.32 435.969 144.651C435.346 143.974 434.491 143.636 433.404 143.636C432.655 143.636 431.985 143.799 431.395 144.124C430.812 144.448 430.351 144.922 430.013 145.545C429.675 146.169 429.506 146.924 429.506 147.812ZM452.567 157H449.982L457.459 136.636H460.004L467.482 157H464.896L458.811 139.858H458.652L452.567 157ZM453.521 149.045H463.942V151.233H453.521V149.045ZM470.335 157V141.727H472.602V144.034H472.761C473.04 143.278 473.544 142.665 474.273 142.195C475.002 141.724 475.824 141.489 476.739 141.489C476.911 141.489 477.126 141.492 477.385 141.499C477.643 141.505 477.839 141.515 477.972 141.528V143.915C477.892 143.895 477.71 143.865 477.425 143.825C477.146 143.779 476.851 143.756 476.54 143.756C475.797 143.756 475.134 143.911 474.551 144.223C473.974 144.528 473.517 144.952 473.179 145.496C472.848 146.033 472.682 146.646 472.682 147.335V157H470.335ZM486.493 157.318C485.061 157.318 483.828 156.98 482.794 156.304C481.76 155.628 480.964 154.696 480.408 153.51C479.851 152.323 479.572 150.968 479.572 149.443C479.572 147.892 479.857 146.523 480.428 145.337C481.004 144.143 481.806 143.212 482.834 142.543C483.868 141.866 485.074 141.528 486.453 141.528C487.527 141.528 488.495 141.727 489.357 142.125C490.218 142.523 490.924 143.08 491.474 143.795C492.025 144.511 492.366 145.347 492.499 146.301H490.152C489.973 145.605 489.575 144.989 488.959 144.452C488.349 143.908 487.527 143.636 486.493 143.636C485.578 143.636 484.776 143.875 484.087 144.352C483.404 144.823 482.87 145.489 482.486 146.351C482.108 147.206 481.919 148.21 481.919 149.364C481.919 150.544 482.105 151.571 482.476 152.446C482.854 153.321 483.384 154 484.067 154.484C484.756 154.968 485.565 155.21 486.493 155.21C487.103 155.21 487.656 155.104 488.153 154.892C488.651 154.68 489.071 154.375 489.416 153.977C489.761 153.58 490.006 153.102 490.152 152.545H492.499C492.366 153.447 492.038 154.259 491.514 154.982C490.997 155.697 490.311 156.268 489.456 156.692C488.607 157.109 487.62 157.318 486.493 157.318ZM498.276 147.812V157H495.929V136.636H498.276V144.114H498.474C498.832 143.325 499.369 142.698 500.085 142.234C500.808 141.764 501.769 141.528 502.969 141.528C504.009 141.528 504.921 141.737 505.703 142.155C506.485 142.566 507.092 143.199 507.523 144.054C507.96 144.902 508.179 145.983 508.179 147.295V157H505.832V147.455C505.832 146.241 505.518 145.304 504.888 144.641C504.265 143.971 503.4 143.636 502.293 143.636C501.524 143.636 500.834 143.799 500.224 144.124C499.621 144.448 499.144 144.922 498.793 145.545C498.448 146.169 498.276 146.924 498.276 147.812ZM512.472 157V141.727H514.819V157H512.472ZM513.665 139.182C513.208 139.182 512.813 139.026 512.482 138.714C512.157 138.403 511.995 138.028 511.995 137.591C511.995 137.153 512.157 136.779 512.482 136.467C512.813 136.156 513.208 136 513.665 136C514.123 136 514.514 136.156 514.838 136.467C515.17 136.779 515.336 137.153 515.336 137.591C515.336 138.028 515.17 138.403 514.838 138.714C514.514 139.026 514.123 139.182 513.665 139.182ZM525.759 141.727V143.716H517.844V141.727H525.759ZM520.151 138.068H522.497V152.625C522.497 153.288 522.593 153.785 522.786 154.116C522.984 154.441 523.236 154.66 523.541 154.773C523.853 154.879 524.181 154.932 524.526 154.932C524.784 154.932 524.996 154.919 525.162 154.892C525.328 154.859 525.46 154.832 525.56 154.812L526.037 156.92C525.878 156.98 525.656 157.04 525.371 157.099C525.086 157.166 524.724 157.199 524.287 157.199C523.624 157.199 522.974 157.056 522.338 156.771C521.708 156.486 521.185 156.052 520.767 155.469C520.356 154.885 520.151 154.15 520.151 153.261V138.068ZM535.528 157.318C534.056 157.318 532.787 156.993 531.719 156.344C530.659 155.688 529.84 154.773 529.263 153.599C528.693 152.42 528.408 151.047 528.408 149.483C528.408 147.919 528.693 146.54 529.263 145.347C529.84 144.147 530.642 143.212 531.67 142.543C532.704 141.866 533.91 141.528 535.289 141.528C536.085 141.528 536.87 141.661 537.646 141.926C538.421 142.191 539.127 142.622 539.763 143.219C540.4 143.809 540.907 144.591 541.285 145.565C541.663 146.54 541.852 147.74 541.852 149.165V150.159H530.079V148.131H539.465C539.465 147.269 539.293 146.5 538.948 145.824C538.61 145.148 538.126 144.614 537.496 144.223C536.873 143.832 536.138 143.636 535.289 143.636C534.354 143.636 533.546 143.868 532.863 144.332C532.187 144.79 531.666 145.386 531.302 146.122C530.937 146.858 530.755 147.647 530.755 148.489V149.841C530.755 150.994 530.954 151.972 531.352 152.774C531.756 153.57 532.316 154.176 533.032 154.594C533.748 155.005 534.58 155.21 535.528 155.21C536.144 155.21 536.701 155.124 537.198 154.952C537.702 154.773 538.136 154.508 538.501 154.156C538.865 153.798 539.147 153.354 539.346 152.824L541.613 153.46C541.374 154.229 540.973 154.905 540.41 155.489C539.846 156.065 539.15 156.516 538.322 156.841C537.493 157.159 536.562 157.318 535.528 157.318ZM551.626 157.318C550.194 157.318 548.961 156.98 547.927 156.304C546.893 155.628 546.097 154.696 545.54 153.51C544.984 152.323 544.705 150.968 544.705 149.443C544.705 147.892 544.99 146.523 545.56 145.337C546.137 144.143 546.939 143.212 547.967 142.543C549.001 141.866 550.207 141.528 551.586 141.528C552.66 141.528 553.628 141.727 554.489 142.125C555.351 142.523 556.057 143.08 556.607 143.795C557.157 144.511 557.499 145.347 557.631 146.301H555.285C555.106 145.605 554.708 144.989 554.092 144.452C553.482 143.908 552.66 143.636 551.626 143.636C550.711 143.636 549.909 143.875 549.219 144.352C548.537 144.823 548.003 145.489 547.619 146.351C547.241 147.206 547.052 148.21 547.052 149.364C547.052 150.544 547.237 151.571 547.609 152.446C547.987 153.321 548.517 154 549.2 154.484C549.889 154.968 550.698 155.21 551.626 155.21C552.236 155.21 552.789 155.104 553.286 154.892C553.783 154.68 554.204 154.375 554.549 153.977C554.894 153.58 555.139 153.102 555.285 152.545H557.631C557.499 153.447 557.171 154.259 556.647 154.982C556.13 155.697 555.444 156.268 554.589 156.692C553.74 157.109 552.753 157.318 551.626 157.318ZM567.704 141.727V143.716H559.789V141.727H567.704ZM562.096 138.068H564.442V152.625C564.442 153.288 564.539 153.785 564.731 154.116C564.93 154.441 565.182 154.66 565.487 154.773C565.798 154.879 566.126 154.932 566.471 154.932C566.729 154.932 566.942 154.919 567.107 154.892C567.273 154.859 567.406 154.832 567.505 154.812L567.982 156.92C567.823 156.98 567.601 157.04 567.316 157.099C567.031 157.166 566.67 157.199 566.232 157.199C565.569 157.199 564.92 157.056 564.283 156.771C563.654 156.486 563.13 156.052 562.712 155.469C562.301 154.885 562.096 154.15 562.096 153.261V138.068ZM580.859 150.756V141.727H583.205V157H580.859V154.415H580.7C580.342 155.19 579.785 155.85 579.029 156.393C578.273 156.93 577.319 157.199 576.165 157.199C575.211 157.199 574.362 156.99 573.62 156.572C572.878 156.148 572.294 155.512 571.87 154.663C571.446 153.808 571.234 152.731 571.234 151.432V141.727H573.58V151.273C573.58 152.386 573.892 153.275 574.515 153.938C575.145 154.6 575.947 154.932 576.921 154.932C577.504 154.932 578.098 154.783 578.701 154.484C579.311 154.186 579.821 153.729 580.232 153.112C580.65 152.496 580.859 151.71 580.859 150.756ZM587.503 157V141.727H589.77V144.034H589.929C590.208 143.278 590.712 142.665 591.441 142.195C592.17 141.724 592.992 141.489 593.907 141.489C594.079 141.489 594.294 141.492 594.553 141.499C594.811 141.505 595.007 141.515 595.14 141.528V143.915C595.06 143.895 594.878 143.865 594.593 143.825C594.314 143.779 594.019 143.756 593.708 143.756C592.965 143.756 592.302 143.911 591.719 144.223C591.142 144.528 590.685 144.952 590.347 145.496C590.016 146.033 589.85 146.646 589.85 147.335V157H587.503ZM603.86 157.318C602.388 157.318 601.119 156.993 600.051 156.344C598.991 155.688 598.172 154.773 597.596 153.599C597.025 152.42 596.74 151.047 596.74 149.483C596.74 147.919 597.025 146.54 597.596 145.347C598.172 144.147 598.974 143.212 600.002 142.543C601.036 141.866 602.242 141.528 603.621 141.528C604.417 141.528 605.202 141.661 605.978 141.926C606.753 142.191 607.459 142.622 608.096 143.219C608.732 143.809 609.239 144.591 609.617 145.565C609.995 146.54 610.184 147.74 610.184 149.165V150.159H598.411V148.131H607.797C607.797 147.269 607.625 146.5 607.28 145.824C606.942 145.148 606.458 144.614 605.828 144.223C605.205 143.832 604.47 143.636 603.621 143.636C602.686 143.636 601.878 143.868 601.195 144.332C600.519 144.79 599.998 145.386 599.634 146.122C599.269 146.858 599.087 147.647 599.087 148.489V149.841C599.087 150.994 599.286 151.972 599.684 152.774C600.088 153.57 600.648 154.176 601.364 154.594C602.08 155.005 602.912 155.21 603.86 155.21C604.476 155.21 605.033 155.124 605.53 154.952C606.034 154.773 606.468 154.508 606.833 154.156C607.197 153.798 607.479 153.354 607.678 152.824L609.945 153.46C609.706 154.229 609.305 154.905 608.742 155.489C608.178 156.065 607.482 156.516 606.654 156.841C605.825 157.159 604.894 157.318 603.86 157.318Z" fill="#0173B0"/>
<path d="M292.261 111L298.057 76.0909H311.42C313.943 76.0909 315.977 76.4886 317.523 77.2841C319.068 78.0682 320.142 79.142 320.744 80.5057C321.358 81.8693 321.517 83.4148 321.222 85.142C320.983 86.5511 320.506 87.7614 319.79 88.7727C319.085 89.7727 318.222 90.5909 317.199 91.2273C316.176 91.8523 315.08 92.3011 313.909 92.5739L313.841 92.9148C315.068 92.9716 316.193 93.3466 317.216 94.0398C318.239 94.733 319.011 95.7102 319.534 96.9716C320.057 98.2216 320.176 99.7273 319.892 101.489C319.585 103.295 318.875 104.92 317.761 106.364C316.648 107.795 315.136 108.926 313.227 109.756C311.33 110.585 309.051 111 306.392 111H292.261ZM299.472 105.716H306.273C308.557 105.716 310.284 105.278 311.455 104.403C312.625 103.517 313.324 102.381 313.551 100.994C313.722 99.9602 313.619 99.0284 313.244 98.1989C312.869 97.358 312.25 96.6989 311.386 96.2216C310.523 95.733 309.443 95.4886 308.148 95.4886H301.159L299.472 105.716ZM301.943 90.9375H308.199C309.29 90.9375 310.301 90.7386 311.233 90.3409C312.176 89.9318 312.96 89.358 313.585 88.6193C314.222 87.8693 314.614 86.983 314.761 85.9602C315 84.608 314.716 83.4943 313.909 82.6193C313.102 81.7443 311.773 81.3068 309.92 81.3068H303.511L301.943 90.9375ZM342.047 99.9886L344.587 84.8182H350.757L346.393 111H340.411L341.195 106.347H340.922C340.104 107.812 338.933 109.011 337.411 109.943C335.899 110.875 334.161 111.341 332.195 111.341C330.479 111.341 329.03 110.96 327.848 110.199C326.666 109.426 325.825 108.307 325.325 106.841C324.837 105.364 324.763 103.58 325.104 101.489L327.899 84.8182H334.07L331.445 100.534C331.183 102.193 331.422 103.511 332.161 104.489C332.911 105.466 334.024 105.955 335.501 105.955C336.411 105.955 337.325 105.733 338.246 105.29C339.178 104.847 339.99 104.188 340.683 103.312C341.376 102.426 341.831 101.318 342.047 99.9886ZM352.739 111L357.102 84.8182H363.273L358.909 111H352.739ZM361.091 81.0682C360.102 81.0682 359.284 80.7386 358.636 80.0795C357.989 79.4205 357.705 78.6307 357.784 77.7102C357.864 76.7898 358.278 76 359.028 75.3409C359.79 74.6818 360.659 74.3523 361.636 74.3523C362.625 74.3523 363.438 74.6818 364.074 75.3409C364.722 76 365.006 76.7898 364.926 77.7102C364.858 78.6307 364.443 79.4205 363.682 80.0795C362.932 80.7386 362.068 81.0682 361.091 81.0682ZM377.22 76.0909L371.425 111H365.254L371.05 76.0909H377.22ZM387.452 111.46C385.395 111.46 383.639 110.932 382.185 109.875C380.73 108.818 379.696 107.284 379.082 105.273C378.48 103.261 378.412 100.818 378.878 97.9432C379.366 95.0341 380.259 92.5795 381.554 90.5795C382.849 88.5682 384.395 87.0511 386.19 86.0284C387.997 84.9943 389.906 84.4773 391.918 84.4773C393.463 84.4773 394.685 84.7386 395.582 85.2614C396.491 85.7727 397.173 86.392 397.628 87.1193C398.082 87.8352 398.418 88.5114 398.634 89.1477H398.889L401.054 76.0909H407.241L401.446 111H395.378L396.077 106.875H395.702C395.27 107.511 394.696 108.187 393.98 108.903C393.264 109.608 392.372 110.21 391.304 110.71C390.236 111.21 388.952 111.46 387.452 111.46ZM389.906 106.398C391.224 106.398 392.406 106.045 393.452 105.341C394.509 104.625 395.389 103.631 396.094 102.358C396.798 101.085 397.293 99.6023 397.577 97.9091C397.861 96.2159 397.861 94.7443 397.577 93.4943C397.293 92.2443 396.741 91.2727 395.923 90.5795C395.105 89.8864 394.031 89.5398 392.702 89.5398C391.338 89.5398 390.139 89.8977 389.105 90.6136C388.082 91.3295 387.241 92.3182 386.582 93.5795C385.923 94.8409 385.457 96.2841 385.185 97.9091C384.912 99.5455 384.895 101.006 385.134 102.29C385.384 103.562 385.901 104.568 386.685 105.307C387.48 106.034 388.554 106.398 389.906 106.398ZM408.051 111L412.415 84.8182H418.585L414.222 111H408.051ZM416.403 81.0682C415.415 81.0682 414.597 80.7386 413.949 80.0795C413.301 79.4205 413.017 78.6307 413.097 77.7102C413.176 76.7898 413.591 76 414.341 75.3409C415.102 74.6818 415.972 74.3523 416.949 74.3523C417.938 74.3523 418.75 74.6818 419.386 75.3409C420.034 76 420.318 76.7898 420.239 77.7102C420.17 78.6307 419.756 79.4205 418.994 80.0795C418.244 80.7386 417.381 81.0682 416.403 81.0682ZM429.294 95.6591L426.771 111H420.584L424.947 84.8182H430.862L430.112 89.267H430.436C431.254 87.8011 432.402 86.6364 433.879 85.7727C435.357 84.9091 437.078 84.4773 439.044 84.4773C440.828 84.4773 442.328 84.8636 443.544 85.6364C444.76 86.3977 445.624 87.517 446.135 88.9943C446.646 90.4602 446.726 92.2386 446.374 94.3295L443.578 111H437.408L440.016 95.2841C440.311 93.5455 440.089 92.1818 439.351 91.1932C438.624 90.1932 437.453 89.6932 435.839 89.6932C434.76 89.6932 433.766 89.9318 432.857 90.4091C431.947 90.875 431.18 91.5511 430.555 92.4375C429.942 93.3239 429.521 94.3977 429.294 95.6591ZM459.567 121.364C457.339 121.364 455.482 121.063 453.993 120.46C452.504 119.869 451.357 119.074 450.55 118.074C449.743 117.074 449.243 115.966 449.05 114.75L454.845 113.403C455.016 113.915 455.288 114.42 455.663 114.92C456.05 115.432 456.618 115.852 457.368 116.182C458.118 116.523 459.118 116.693 460.368 116.693C462.118 116.693 463.646 116.267 464.953 115.415C466.26 114.563 467.067 113.176 467.374 111.256L468.158 106.295H467.851C467.442 106.932 466.879 107.585 466.163 108.256C465.459 108.926 464.567 109.489 463.487 109.943C462.419 110.398 461.135 110.625 459.635 110.625C457.624 110.625 455.879 110.153 454.402 109.21C452.925 108.256 451.862 106.835 451.214 104.949C450.578 103.051 450.499 100.676 450.976 97.8239C451.442 94.9489 452.317 92.5227 453.601 90.5455C454.896 88.5568 456.447 87.0511 458.254 86.0284C460.061 84.9943 461.97 84.4773 463.982 84.4773C465.516 84.4773 466.737 84.7386 467.646 85.2614C468.555 85.7727 469.243 86.392 469.709 87.1193C470.175 87.8352 470.516 88.5114 470.732 89.1477H471.055L471.771 84.8182H477.857L473.459 111.426C473.095 113.665 472.26 115.517 470.953 116.983C469.646 118.46 468.004 119.557 466.027 120.273C464.061 121 461.908 121.364 459.567 121.364ZM462.089 105.784C463.396 105.784 464.567 105.466 465.601 104.83C466.635 104.193 467.499 103.278 468.192 102.085C468.885 100.892 469.368 99.4602 469.641 97.7898C469.913 96.142 469.902 94.6989 469.607 93.4602C469.322 92.2216 468.771 91.2614 467.953 90.5795C467.135 89.8864 466.067 89.5398 464.749 89.5398C463.374 89.5398 462.169 89.8977 461.135 90.6136C460.112 91.3295 459.271 92.3125 458.612 93.5625C457.964 94.8011 457.51 96.2102 457.249 97.7898C456.999 99.392 456.999 100.795 457.249 102C457.51 103.193 458.038 104.125 458.834 104.795C459.641 105.455 460.726 105.784 462.089 105.784ZM509.161 84.8182L508.359 89.5909H493.325L494.109 84.8182H509.161ZM498.848 78.5455H505.018L500.928 103.125C500.803 103.955 500.825 104.591 500.996 105.034C501.178 105.466 501.467 105.761 501.865 105.92C502.274 106.08 502.734 106.159 503.246 106.159C503.621 106.159 503.973 106.131 504.303 106.074C504.632 106.006 504.893 105.955 505.087 105.92L505.359 110.744C504.984 110.858 504.479 110.983 503.842 111.119C503.217 111.256 502.467 111.335 501.592 111.358C500.024 111.392 498.661 111.153 497.501 110.642C496.354 110.119 495.513 109.318 494.979 108.239C494.456 107.148 494.337 105.784 494.621 104.148L498.848 78.5455ZM519.247 95.6591L516.724 111H510.537L516.332 76.0909H522.384L520.202 89.267H520.526C521.355 87.7784 522.486 86.608 523.918 85.7557C525.361 84.9034 527.094 84.4773 529.116 84.4773C530.912 84.4773 532.423 84.858 533.651 85.6193C534.878 86.3807 535.741 87.4943 536.241 88.9602C536.753 90.4261 536.838 92.2159 536.497 94.3295L533.702 111H527.514L530.139 95.2841C530.423 93.5227 530.19 92.1534 529.44 91.1761C528.702 90.1875 527.531 89.6932 525.929 89.6932C524.827 89.6932 523.81 89.9318 522.878 90.4091C521.946 90.875 521.162 91.5511 520.526 92.4375C519.901 93.3239 519.474 94.3977 519.247 95.6591ZM551.48 111.511C548.855 111.511 546.685 110.966 544.969 109.875C543.253 108.773 542.048 107.216 541.355 105.205C540.673 103.182 540.56 100.801 541.014 98.0625C541.457 95.3693 542.361 93.0057 543.724 90.9716C545.088 88.9261 546.793 87.3352 548.838 86.1989C550.895 85.0511 553.168 84.4773 555.656 84.4773C557.27 84.4773 558.753 84.7386 560.105 85.2614C561.457 85.7727 562.599 86.5682 563.531 87.6477C564.463 88.7273 565.105 90.1023 565.457 91.7727C565.81 93.4318 565.793 95.4091 565.406 97.7045L565.116 99.5966H543.639L544.304 95.4375H559.849C560.054 94.2557 559.986 93.2045 559.645 92.2841C559.304 91.3523 558.736 90.6193 557.94 90.0852C557.145 89.5511 556.151 89.2841 554.957 89.2841C553.741 89.2841 552.605 89.5966 551.548 90.2216C550.503 90.8352 549.622 91.6307 548.906 92.608C548.19 93.5852 547.736 94.6136 547.543 95.6932L546.844 99.6818C546.594 101.318 546.651 102.653 547.014 103.688C547.378 104.722 548.014 105.483 548.923 105.972C549.832 106.46 550.98 106.705 552.366 106.705C553.276 106.705 554.116 106.58 554.889 106.33C555.662 106.08 556.349 105.705 556.952 105.205C557.565 104.693 558.077 104.068 558.486 103.33L564.128 103.977C563.503 105.5 562.588 106.83 561.384 107.966C560.179 109.091 558.736 109.966 557.054 110.591C555.384 111.205 553.526 111.511 551.48 111.511ZM580.636 111L586.432 76.0909H599.795C602.318 76.0909 604.352 76.4886 605.898 77.2841C607.443 78.0682 608.517 79.142 609.119 80.5057C609.733 81.8693 609.892 83.4148 609.597 85.142C609.358 86.5511 608.881 87.7614 608.165 88.7727C607.46 89.7727 606.597 90.5909 605.574 91.2273C604.551 91.8523 603.455 92.3011 602.284 92.5739L602.216 92.9148C603.443 92.9716 604.568 93.3466 605.591 94.0398C606.614 94.733 607.386 95.7102 607.909 96.9716C608.432 98.2216 608.551 99.7273 608.267 101.489C607.96 103.295 607.25 104.92 606.136 106.364C605.023 107.795 603.511 108.926 601.602 109.756C599.705 110.585 597.426 111 594.767 111H580.636ZM587.847 105.716H594.648C596.932 105.716 598.659 105.278 599.83 104.403C601 103.517 601.699 102.381 601.926 100.994C602.097 99.9602 601.994 99.0284 601.619 98.1989C601.244 97.358 600.625 96.6989 599.761 96.2216C598.898 95.733 597.818 95.4886 596.523 95.4886H589.534L587.847 105.716ZM590.318 90.9375H596.574C597.665 90.9375 598.676 90.7386 599.608 90.3409C600.551 89.9318 601.335 89.358 601.96 88.6193C602.597 87.8693 602.989 86.983 603.136 85.9602C603.375 84.608 603.091 83.4943 602.284 82.6193C601.477 81.7443 600.148 81.3068 598.295 81.3068H591.886L590.318 90.9375ZM619.376 111.528C617.717 111.528 616.274 111.233 615.047 110.642C613.82 110.04 612.916 109.153 612.337 107.983C611.768 106.812 611.626 105.369 611.911 103.653C612.161 102.176 612.638 100.955 613.342 99.9886C614.058 99.0227 614.933 98.25 615.967 97.6705C617.013 97.0795 618.149 96.6364 619.376 96.3409C620.615 96.0455 621.876 95.8295 623.161 95.6932C624.729 95.5341 625.996 95.3864 626.962 95.25C627.939 95.1136 628.672 94.9091 629.161 94.6364C629.649 94.3523 629.945 93.9205 630.047 93.3409V93.2386C630.251 91.9545 630.047 90.9602 629.433 90.2557C628.82 89.5511 627.797 89.1989 626.365 89.1989C624.865 89.1989 623.604 89.5284 622.581 90.1875C621.558 90.8466 620.814 91.625 620.348 92.5227L614.757 91.7045C615.462 90.1136 616.428 88.7841 617.655 87.7159C618.882 86.6364 620.297 85.8295 621.899 85.2955C623.513 84.75 625.234 84.4773 627.064 84.4773C628.314 84.4773 629.536 84.625 630.729 84.9205C631.933 85.2159 632.996 85.7045 633.916 86.3864C634.848 87.0568 635.53 87.9716 635.962 89.1307C636.405 90.2898 636.479 91.7386 636.183 93.4773L633.268 111H627.337L627.95 107.403H627.746C627.257 108.131 626.621 108.812 625.837 109.449C625.053 110.074 624.121 110.58 623.041 110.966C621.962 111.341 620.74 111.528 619.376 111.528ZM621.712 106.994C622.95 106.994 624.064 106.75 625.053 106.261C626.041 105.761 626.854 105.102 627.49 104.284C628.126 103.466 628.524 102.574 628.683 101.608L629.195 98.5227C628.967 98.6818 628.615 98.8295 628.138 98.9659C627.661 99.1023 627.126 99.2216 626.536 99.3239C625.956 99.4261 625.382 99.517 624.814 99.5966C624.246 99.6761 623.757 99.7443 623.348 99.8011C622.405 99.9261 621.541 100.131 620.757 100.415C619.984 100.699 619.342 101.097 618.831 101.608C618.331 102.108 618.018 102.756 617.893 103.551C617.712 104.676 617.979 105.534 618.695 106.125C619.411 106.705 620.416 106.994 621.712 106.994ZM650.825 111.511C648.212 111.511 646.064 110.938 644.382 109.79C642.7 108.642 641.524 107.057 640.854 105.034C640.195 103 640.087 100.659 640.53 98.0114C640.962 95.3523 641.854 93.0057 643.206 90.9716C644.57 88.9261 646.286 87.3352 648.354 86.1989C650.422 85.0511 652.734 84.4773 655.291 84.4773C657.416 84.4773 659.229 84.8693 660.729 85.6534C662.24 86.4261 663.365 87.5227 664.104 88.9432C664.854 90.3523 665.143 92 664.973 93.8864H659.058C659.036 92.625 658.643 91.5739 657.882 90.733C657.121 89.8807 656.007 89.4545 654.541 89.4545C653.268 89.4545 652.098 89.7955 651.03 90.4773C649.962 91.1477 649.058 92.1136 648.32 93.375C647.581 94.6364 647.07 96.1477 646.786 97.9091C646.49 99.6932 646.496 101.227 646.803 102.511C647.121 103.784 647.695 104.767 648.524 105.46C649.365 106.142 650.428 106.483 651.712 106.483C652.621 106.483 653.467 106.312 654.251 105.972C655.036 105.619 655.723 105.114 656.314 104.455C656.916 103.795 657.388 102.994 657.729 102.051H663.626C663.161 103.903 662.331 105.545 661.138 106.977C659.956 108.398 658.49 109.511 656.74 110.318C654.99 111.114 653.018 111.511 650.825 111.511ZM674.148 102.784L675.358 95.3352H676.347L687.545 84.8182H694.756L681.051 97.7045H679.79L674.148 102.784ZM667.176 111L672.972 76.0909H679.142L673.347 111H667.176ZM683.608 111L677.062 99.0852L681.955 94.7386L690.989 111H683.608ZM694.777 111L700.572 76.0909H706.743L704.595 89.1477H704.868C705.277 88.5114 705.828 87.8352 706.521 87.1193C707.226 86.392 708.118 85.7727 709.197 85.2614C710.277 84.7386 711.584 84.4773 713.118 84.4773C715.141 84.4773 716.879 84.9943 718.334 86.0284C719.788 87.0511 720.828 88.5682 721.453 90.5795C722.078 92.5795 722.152 95.0341 721.675 97.9432C721.197 100.818 720.322 103.261 719.05 105.273C717.777 107.284 716.237 108.818 714.43 109.875C712.624 110.932 710.692 111.46 708.635 111.46C707.135 111.46 705.93 111.21 705.021 110.71C704.124 110.21 703.436 109.608 702.959 108.903C702.482 108.187 702.135 107.511 701.919 106.875H701.527L700.845 111H694.777ZM703.01 97.9091C702.737 99.6023 702.732 101.085 702.993 102.358C703.266 103.631 703.8 104.625 704.595 105.341C705.402 106.045 706.464 106.398 707.783 106.398C709.135 106.398 710.328 106.034 711.362 105.307C712.408 104.568 713.271 103.562 713.953 102.29C714.635 101.006 715.112 99.5455 715.385 97.9091C715.646 96.2841 715.646 94.8409 715.385 93.5795C715.135 92.3182 714.607 91.3295 713.8 90.6136C713.004 89.8977 711.925 89.5398 710.561 89.5398C709.232 89.5398 708.05 89.8864 707.016 90.5795C705.982 91.2727 705.124 92.2443 704.442 93.4943C703.76 94.7443 703.283 96.2159 703.01 97.9091ZM736.227 111.511C733.648 111.511 731.5 110.943 729.784 109.807C728.08 108.67 726.881 107.074 726.188 105.017C725.494 102.96 725.369 100.574 725.812 97.858C726.256 95.1761 727.142 92.8295 728.472 90.8182C729.813 88.8068 731.5 87.25 733.534 86.1477C735.58 85.0341 737.869 84.4773 740.403 84.4773C742.983 84.4773 745.125 85.0511 746.83 86.1989C748.534 87.3352 749.733 88.9318 750.426 90.9886C751.131 93.0455 751.261 95.4432 750.818 98.1818C750.386 100.852 749.494 103.188 748.142 105.188C746.801 107.188 745.114 108.744 743.08 109.858C741.045 110.96 738.761 111.511 736.227 111.511ZM736.739 106.568C738.17 106.568 739.426 106.182 740.506 105.409C741.597 104.625 742.489 103.574 743.182 102.256C743.886 100.926 744.375 99.4489 744.648 97.8239C744.898 96.2557 744.903 94.8352 744.665 93.5625C744.426 92.2784 743.915 91.2614 743.131 90.5114C742.358 89.75 741.284 89.3693 739.909 89.3693C738.477 89.3693 737.21 89.767 736.108 90.5625C735.017 91.3466 734.125 92.4034 733.432 93.733C732.739 95.0511 732.261 96.5227 732 98.1477C731.739 99.7159 731.727 101.136 731.966 102.409C732.205 103.682 732.716 104.693 733.5 105.443C734.284 106.193 735.364 106.568 736.739 106.568ZM762.669 95.6591L760.146 111H753.959L758.322 84.8182H764.237L763.487 89.267H763.811C764.629 87.8011 765.777 86.6364 767.254 85.7727C768.732 84.9091 770.453 84.4773 772.419 84.4773C774.203 84.4773 775.703 84.8636 776.919 85.6364C778.135 86.3977 778.999 87.517 779.51 88.9943C780.021 90.4602 780.101 92.2386 779.749 94.3295L776.953 111H770.783L773.391 95.2841C773.686 93.5455 773.464 92.1818 772.726 91.1932C771.999 90.1932 770.828 89.6932 769.214 89.6932C768.135 89.6932 767.141 89.9318 766.232 90.4091C765.322 90.875 764.555 91.5511 763.93 92.4375C763.317 93.3239 762.896 94.3977 762.669 95.6591ZM794.714 111.511C792.089 111.511 789.919 110.966 788.203 109.875C786.487 108.773 785.283 107.216 784.589 105.205C783.908 103.182 783.794 100.801 784.249 98.0625C784.692 95.3693 785.595 93.0057 786.959 90.9716C788.322 88.9261 790.027 87.3352 792.072 86.1989C794.129 85.0511 796.402 84.4773 798.891 84.4773C800.504 84.4773 801.987 84.7386 803.339 85.2614C804.692 85.7727 805.834 86.5682 806.766 87.6477C807.697 88.7273 808.339 90.1023 808.692 91.7727C809.044 93.4318 809.027 95.4091 808.641 97.7045L808.351 99.5966H786.874L787.538 95.4375H803.084C803.288 94.2557 803.22 93.2045 802.879 92.2841C802.538 91.3523 801.97 90.6193 801.175 90.0852C800.379 89.5511 799.385 89.2841 798.192 89.2841C796.976 89.2841 795.839 89.5966 794.783 90.2216C793.737 90.8352 792.857 91.6307 792.141 92.608C791.425 93.5852 790.97 94.6136 790.777 95.6932L790.078 99.6818C789.828 101.318 789.885 102.653 790.249 103.688C790.612 104.722 791.249 105.483 792.158 105.972C793.067 106.46 794.214 106.705 795.601 106.705C796.51 106.705 797.351 106.58 798.124 106.33C798.896 106.08 799.584 105.705 800.186 105.205C800.8 104.693 801.311 104.068 801.72 103.33L807.362 103.977C806.737 105.5 805.822 106.83 804.618 107.966C803.413 109.091 801.97 109.966 800.288 110.591C798.618 111.205 796.76 111.511 794.714 111.511ZM842.297 93.9205L841.462 99H825.763L826.598 93.9205H842.297Z" fill="#025D88"/>
<path d="M328.576 300L322.504 282.648H325.324L330.268 296.64L335.212 282.648H338.044L331.96 300H328.576ZM341.451 300V287.592H344.247V300H341.451ZM341.403 285.42V282.66H344.295V285.42H341.403ZM354.274 300.24C353.082 300.24 352.03 299.988 351.118 299.484C350.214 298.972 349.506 298.244 348.994 297.3C348.49 296.356 348.238 295.232 348.238 293.928C348.238 292.656 348.466 291.528 348.922 290.544C349.386 289.552 350.054 288.772 350.926 288.204C351.806 287.636 352.866 287.352 354.106 287.352C355.33 287.352 356.358 287.612 357.19 288.132C358.022 288.652 358.654 289.38 359.086 290.316C359.518 291.244 359.734 292.332 359.734 293.58V294.468H351.154C351.146 295.172 351.258 295.796 351.49 296.34C351.722 296.884 352.066 297.312 352.522 297.624C352.978 297.928 353.542 298.08 354.214 298.08C354.902 298.08 355.498 297.928 356.002 297.624C356.514 297.312 356.854 296.84 357.022 296.208H359.686C359.542 297.072 359.198 297.804 358.654 298.404C358.118 299.004 357.462 299.46 356.686 299.772C355.918 300.084 355.114 300.24 354.274 300.24ZM351.142 292.656H356.974C356.974 292.056 356.866 291.516 356.65 291.036C356.442 290.548 356.126 290.164 355.702 289.884C355.278 289.596 354.742 289.452 354.094 289.452C353.454 289.452 352.914 289.608 352.474 289.92C352.034 290.232 351.702 290.636 351.478 291.132C351.254 291.62 351.142 292.128 351.142 292.656ZM366.227 300L362.291 287.592H364.919L367.499 296.124H367.643L370.151 287.592H372.275L374.855 296.112H374.999L377.495 287.592H380.171L376.235 300H373.715L371.171 291.732L368.687 300H366.227Z" fill="white"/>
<path d="M406 292H434" stroke="white" stroke-width="2"/>
<path d="M428 286L434 292.316L428 298" stroke="white" stroke-width="2"/>
<rect x="199.822" y="103.374" width="34.0043" height="34.0043" transform="rotate(-48.7105 199.822 103.374)" stroke="#00567F" stroke-width="4"/>
</svg>
