<svg width="1920" height="905" viewBox="0 0 1920 905" fill="none" xmlns="http://www.w3.org/2000/svg">
<g clip-path="url(#clip0_398_2996)">
<rect width="1920" height="905" fill="white"/>
<rect x="-2" width="1921" height="821" fill="url(#paint0_linear_398_2996)"/>
<path d="M836.888 382.584H811.448V395.544H836.408V410.328H811.448V435H796.088V367.8H836.888V382.584ZM852.683 382.776C847.979 382.776 844.043 378.84 844.043 374.136C844.043 369.432 847.979 365.496 852.683 365.496C857.387 365.496 861.323 369.432 861.323 374.136C861.323 378.84 857.387 382.776 852.683 382.776ZM845.483 435V387H859.883V435H845.483ZM898.549 385.656C908.245 385.656 916.501 392.568 916.501 405.528V435H902.101V407.64C902.101 401.688 898.357 398.904 893.749 398.904C888.469 398.904 884.821 401.976 884.821 408.792V435H870.421V387H884.821V391.512C887.413 387.96 892.213 385.656 898.549 385.656ZM956.076 387H972.012L954.252 435H937.932L920.172 387H936.108L946.092 417.432L956.076 387ZM1008.3 387H1022.7V435H1008.3V430.488C1005.71 434.04 1000.91 436.344 994.576 436.344C984.88 436.344 976.624 429.432 976.624 416.472V387H991.024V414.36C991.024 420.312 994.768 423.096 999.376 423.096C1004.66 423.096 1008.3 420.024 1008.3 413.208V387ZM1046.13 416.76C1047.95 421.752 1052.37 423.48 1057.65 423.48C1061.58 423.48 1064.94 421.944 1066.86 419.832L1078.38 426.456C1073.68 432.984 1066.58 436.344 1057.46 436.344C1041.04 436.344 1030.86 425.304 1030.86 411C1030.86 396.696 1041.23 385.656 1056.4 385.656C1070.42 385.656 1080.78 396.504 1080.78 411C1080.78 413.016 1080.59 414.936 1080.21 416.76H1046.13ZM1045.84 406.008H1066.48C1064.94 400.44 1060.62 398.424 1056.3 398.424C1050.83 398.424 1047.18 401.112 1045.84 406.008Z" fill="white"/>
<path d="M762.403 484V457.818H778.102V460.631H765.573V469.477H776.926V472.29H765.573V484H762.403ZM783.123 484V464.364H786.14V484H783.123ZM784.657 461.091C784.069 461.091 783.562 460.891 783.135 460.49C782.718 460.089 782.509 459.608 782.509 459.045C782.509 458.483 782.718 458.001 783.135 457.601C783.562 457.2 784.069 457 784.657 457C785.245 457 785.748 457.2 786.165 457.601C786.591 458.001 786.805 458.483 786.805 459.045C786.805 459.608 786.591 460.089 786.165 460.49C785.748 460.891 785.245 461.091 784.657 461.091ZM794.683 472.188V484H791.666V464.364H794.58V467.432H794.836C795.296 466.435 795.995 465.634 796.933 465.028C797.87 464.415 799.08 464.108 800.563 464.108C801.893 464.108 803.056 464.381 804.053 464.926C805.051 465.463 805.826 466.281 806.38 467.381C806.934 468.472 807.211 469.852 807.211 471.523V484H804.194V471.727C804.194 470.185 803.794 468.983 802.992 468.122C802.191 467.253 801.092 466.818 799.694 466.818C798.731 466.818 797.87 467.027 797.112 467.445C796.362 467.862 795.769 468.472 795.335 469.273C794.9 470.074 794.683 471.045 794.683 472.188ZM818.503 484.46C817.258 484.46 816.129 484.226 815.115 483.757C814.101 483.28 813.295 482.594 812.699 481.699C812.102 480.795 811.804 479.705 811.804 478.426C811.804 477.301 812.025 476.389 812.469 475.69C812.912 474.983 813.504 474.429 814.246 474.028C814.987 473.628 815.805 473.33 816.7 473.134C817.604 472.929 818.511 472.767 819.423 472.648C820.616 472.494 821.584 472.379 822.325 472.303C823.075 472.217 823.621 472.077 823.961 471.881C824.311 471.685 824.486 471.344 824.486 470.858V470.756C824.486 469.494 824.14 468.514 823.45 467.815C822.768 467.116 821.733 466.767 820.344 466.767C818.903 466.767 817.774 467.082 816.956 467.713C816.138 468.344 815.562 469.017 815.23 469.733L812.366 468.71C812.878 467.517 813.559 466.588 814.412 465.923C815.273 465.25 816.21 464.781 817.224 464.517C818.247 464.244 819.253 464.108 820.241 464.108C820.872 464.108 821.596 464.185 822.415 464.338C823.241 464.483 824.038 464.786 824.805 465.246C825.581 465.706 826.224 466.401 826.736 467.33C827.247 468.259 827.503 469.503 827.503 471.062V484H824.486V481.341H824.332C824.128 481.767 823.787 482.223 823.309 482.709C822.832 483.195 822.197 483.608 821.405 483.949C820.612 484.29 819.645 484.46 818.503 484.46ZM818.963 481.75C820.156 481.75 821.162 481.516 821.98 481.047C822.807 480.578 823.429 479.973 823.846 479.232C824.273 478.49 824.486 477.71 824.486 476.892V474.131C824.358 474.284 824.077 474.425 823.642 474.553C823.216 474.672 822.721 474.778 822.159 474.872C821.605 474.957 821.064 475.034 820.535 475.102C820.015 475.162 819.594 475.213 819.27 475.256C818.486 475.358 817.753 475.524 817.071 475.754C816.398 475.976 815.852 476.312 815.434 476.764C815.025 477.207 814.821 477.812 814.821 478.58C814.821 479.628 815.209 480.42 815.984 480.957C816.768 481.486 817.761 481.75 818.963 481.75ZM836.026 472.188V484H833.009V464.364H835.924V467.432H836.18C836.64 466.435 837.339 465.634 838.276 465.028C839.214 464.415 840.424 464.108 841.907 464.108C843.237 464.108 844.4 464.381 845.397 464.926C846.394 465.463 847.17 466.281 847.724 467.381C848.278 468.472 848.555 469.852 848.555 471.523V484H845.538V471.727C845.538 470.185 845.137 468.983 844.336 468.122C843.535 467.253 842.436 466.818 841.038 466.818C840.075 466.818 839.214 467.027 838.455 467.445C837.705 467.862 837.113 468.472 836.678 469.273C836.244 470.074 836.026 471.045 836.026 472.188ZM862.045 484.409C860.204 484.409 858.619 483.974 857.29 483.105C855.96 482.236 854.937 481.038 854.221 479.513C853.506 477.987 853.148 476.244 853.148 474.284C853.148 472.29 853.514 470.53 854.247 469.004C854.988 467.47 856.02 466.273 857.341 465.412C858.67 464.543 860.221 464.108 861.994 464.108C863.375 464.108 864.619 464.364 865.727 464.875C866.835 465.386 867.743 466.102 868.45 467.023C869.157 467.943 869.596 469.017 869.767 470.244H866.75C866.52 469.349 866.008 468.557 865.216 467.866C864.432 467.168 863.375 466.818 862.045 466.818C860.869 466.818 859.838 467.125 858.952 467.739C858.074 468.344 857.388 469.2 856.893 470.308C856.407 471.408 856.165 472.699 856.165 474.182C856.165 475.699 856.403 477.02 856.881 478.145C857.366 479.27 858.048 480.143 858.926 480.766C859.812 481.388 860.852 481.699 862.045 481.699C862.829 481.699 863.541 481.562 864.18 481.29C864.819 481.017 865.361 480.625 865.804 480.114C866.247 479.602 866.562 478.989 866.75 478.273H869.767C869.596 479.432 869.175 480.476 868.501 481.405C867.836 482.325 866.954 483.058 865.855 483.604C864.764 484.141 863.494 484.409 862.045 484.409ZM882.41 484.409C880.518 484.409 878.886 483.991 877.514 483.156C876.15 482.312 875.098 481.136 874.356 479.628C873.623 478.111 873.257 476.347 873.257 474.335C873.257 472.324 873.623 470.551 874.356 469.017C875.098 467.474 876.129 466.273 877.45 465.412C878.78 464.543 880.331 464.108 882.104 464.108C883.126 464.108 884.136 464.278 885.133 464.619C886.131 464.96 887.038 465.514 887.856 466.281C888.675 467.04 889.327 468.045 889.812 469.298C890.298 470.551 890.541 472.094 890.541 473.926V475.205H875.405V472.597H887.473C887.473 471.489 887.251 470.5 886.808 469.631C886.373 468.761 885.751 468.075 884.942 467.572C884.14 467.07 883.194 466.818 882.104 466.818C880.902 466.818 879.862 467.116 878.984 467.713C878.115 468.301 877.446 469.068 876.977 470.014C876.508 470.96 876.274 471.974 876.274 473.057V474.795C876.274 476.278 876.53 477.536 877.041 478.567C877.561 479.589 878.281 480.369 879.202 480.906C880.122 481.435 881.192 481.699 882.41 481.699C883.203 481.699 883.919 481.588 884.558 481.366C885.206 481.136 885.764 480.795 886.233 480.344C886.702 479.884 887.064 479.312 887.319 478.631L890.234 479.449C889.927 480.438 889.412 481.307 888.687 482.057C887.963 482.798 887.068 483.378 886.003 483.795C884.937 484.205 883.74 484.409 882.41 484.409ZM913.795 464.364V466.92H903.619V464.364H913.795ZM906.585 459.659H909.602V478.375C909.602 479.227 909.726 479.866 909.973 480.293C910.229 480.71 910.552 480.991 910.944 481.136C911.345 481.273 911.767 481.341 912.21 481.341C912.542 481.341 912.815 481.324 913.028 481.29C913.241 481.247 913.412 481.213 913.54 481.188L914.153 483.898C913.949 483.974 913.663 484.051 913.297 484.128C912.93 484.213 912.466 484.256 911.903 484.256C911.051 484.256 910.216 484.072 909.398 483.706C908.588 483.339 907.915 482.781 907.378 482.031C906.849 481.281 906.585 480.335 906.585 479.193V459.659ZM918.334 484V464.364H921.248V467.33H921.453C921.811 466.358 922.459 465.57 923.396 464.964C924.334 464.359 925.39 464.057 926.567 464.057C926.788 464.057 927.065 464.061 927.398 464.07C927.73 464.078 927.981 464.091 928.152 464.108V467.176C928.05 467.151 927.815 467.112 927.449 467.061C927.091 467.001 926.711 466.972 926.311 466.972C925.356 466.972 924.504 467.172 923.754 467.572C923.013 467.964 922.425 468.51 921.99 469.209C921.564 469.899 921.351 470.687 921.351 471.574V484H918.334ZM937.507 484.46C936.262 484.46 935.133 484.226 934.119 483.757C933.105 483.28 932.299 482.594 931.703 481.699C931.106 480.795 930.808 479.705 930.808 478.426C930.808 477.301 931.029 476.389 931.472 475.69C931.916 474.983 932.508 474.429 933.249 474.028C933.991 473.628 934.809 473.33 935.704 473.134C936.607 472.929 937.515 472.767 938.427 472.648C939.62 472.494 940.588 472.379 941.329 472.303C942.079 472.217 942.624 472.077 942.965 471.881C943.315 471.685 943.49 471.344 943.49 470.858V470.756C943.49 469.494 943.144 468.514 942.454 467.815C941.772 467.116 940.737 466.767 939.347 466.767C937.907 466.767 936.778 467.082 935.96 467.713C935.142 468.344 934.566 469.017 934.234 469.733L931.37 468.71C931.882 467.517 932.563 466.588 933.416 465.923C934.276 465.25 935.214 464.781 936.228 464.517C937.251 464.244 938.257 464.108 939.245 464.108C939.876 464.108 940.6 464.185 941.419 464.338C942.245 464.483 943.042 464.786 943.809 465.246C944.585 465.706 945.228 466.401 945.74 467.33C946.251 468.259 946.507 469.503 946.507 471.062V484H943.49V481.341H943.336C943.132 481.767 942.791 482.223 942.313 482.709C941.836 483.195 941.201 483.608 940.409 483.949C939.616 484.29 938.649 484.46 937.507 484.46ZM937.967 481.75C939.16 481.75 940.166 481.516 940.984 481.047C941.811 480.578 942.433 479.973 942.85 479.232C943.276 478.49 943.49 477.71 943.49 476.892V474.131C943.362 474.284 943.08 474.425 942.646 474.553C942.22 474.672 941.725 474.778 941.163 474.872C940.609 474.957 940.068 475.034 939.539 475.102C939.019 475.162 938.597 475.213 938.274 475.256C937.49 475.358 936.757 475.524 936.075 475.754C935.401 475.976 934.856 476.312 934.438 476.764C934.029 477.207 933.825 477.812 933.825 478.58C933.825 479.628 934.213 480.42 934.988 480.957C935.772 481.486 936.765 481.75 937.967 481.75ZM959.991 484.409C958.15 484.409 956.564 483.974 955.235 483.105C953.905 482.236 952.883 481.038 952.167 479.513C951.451 477.987 951.093 476.244 951.093 474.284C951.093 472.29 951.459 470.53 952.192 469.004C952.934 467.47 953.965 466.273 955.286 465.412C956.616 464.543 958.167 464.108 959.939 464.108C961.32 464.108 962.564 464.364 963.672 464.875C964.78 465.386 965.688 466.102 966.395 467.023C967.103 467.943 967.542 469.017 967.712 470.244H964.695C964.465 469.349 963.954 468.557 963.161 467.866C962.377 467.168 961.32 466.818 959.991 466.818C958.814 466.818 957.783 467.125 956.897 467.739C956.019 468.344 955.333 469.2 954.839 470.308C954.353 471.408 954.11 472.699 954.11 474.182C954.11 475.699 954.349 477.02 954.826 478.145C955.312 479.27 955.993 480.143 956.871 480.766C957.758 481.388 958.797 481.699 959.991 481.699C960.775 481.699 961.486 481.562 962.126 481.29C962.765 481.017 963.306 480.625 963.749 480.114C964.192 479.602 964.508 478.989 964.695 478.273H967.712C967.542 479.432 967.12 480.476 966.447 481.405C965.782 482.325 964.9 483.058 963.8 483.604C962.709 484.141 961.439 484.409 959.991 484.409ZM974.935 476.841L974.884 473.108H975.498L984.089 464.364H987.822L978.668 473.619H978.412L974.935 476.841ZM972.123 484V457.818H975.14V484H972.123ZM984.6 484L976.93 474.284L979.077 472.188L988.435 484H984.6ZM991.705 484V464.364H994.722V484H991.705ZM993.239 461.091C992.651 461.091 992.144 460.891 991.718 460.49C991.3 460.089 991.091 459.608 991.091 459.045C991.091 458.483 991.3 458.001 991.718 457.601C992.144 457.2 992.651 457 993.239 457C993.827 457 994.33 457.2 994.747 457.601C995.173 458.001 995.387 458.483 995.387 459.045C995.387 459.608 995.173 460.089 994.747 460.49C994.33 460.891 993.827 461.091 993.239 461.091ZM1003.26 472.188V484H1000.25V464.364H1003.16V467.432H1003.42C1003.88 466.435 1004.58 465.634 1005.51 465.028C1006.45 464.415 1007.66 464.108 1009.15 464.108C1010.47 464.108 1011.64 464.381 1012.64 464.926C1013.63 465.463 1014.41 466.281 1014.96 467.381C1015.52 468.472 1015.79 469.852 1015.79 471.523V484H1012.78V471.727C1012.78 470.185 1012.38 468.983 1011.57 468.122C1010.77 467.253 1009.67 466.818 1008.28 466.818C1007.31 466.818 1006.45 467.027 1005.69 467.445C1004.94 467.862 1004.35 468.472 1003.92 469.273C1003.48 470.074 1003.26 471.045 1003.26 472.188ZM1029.23 491.773C1027.78 491.773 1026.52 491.585 1025.47 491.21C1024.43 490.844 1023.55 490.358 1022.85 489.753C1022.16 489.156 1021.61 488.517 1021.2 487.835L1023.61 486.148C1023.88 486.506 1024.23 486.915 1024.64 487.375C1025.06 487.844 1025.63 488.249 1026.36 488.589C1027.09 488.939 1028.05 489.114 1029.23 489.114C1030.82 489.114 1032.13 488.73 1033.16 487.963C1034.19 487.196 1034.7 485.994 1034.7 484.358V480.369H1034.45C1034.23 480.727 1033.91 481.17 1033.5 481.699C1033.1 482.219 1032.52 482.683 1031.76 483.092C1031.01 483.493 1030 483.693 1028.72 483.693C1027.14 483.693 1025.71 483.318 1024.45 482.568C1023.2 481.818 1022.21 480.727 1021.47 479.295C1020.75 477.864 1020.39 476.125 1020.39 474.08C1020.39 472.068 1020.74 470.317 1021.45 468.825C1022.15 467.325 1023.14 466.166 1024.4 465.348C1025.66 464.521 1027.12 464.108 1028.77 464.108C1030.05 464.108 1031.06 464.321 1031.81 464.747C1032.57 465.165 1033.15 465.642 1033.55 466.179C1033.96 466.707 1034.28 467.142 1034.5 467.483H1034.81V464.364H1037.72V484.562C1037.72 486.25 1037.34 487.622 1036.57 488.679C1035.81 489.744 1034.79 490.524 1033.5 491.018C1032.22 491.521 1030.8 491.773 1029.23 491.773ZM1029.13 480.983C1030.34 480.983 1031.36 480.706 1032.2 480.152C1033.03 479.598 1033.67 478.801 1034.1 477.761C1034.54 476.722 1034.76 475.477 1034.76 474.028C1034.76 472.614 1034.54 471.365 1034.12 470.283C1033.69 469.2 1033.06 468.352 1032.22 467.739C1031.39 467.125 1030.36 466.818 1029.13 466.818C1027.85 466.818 1026.79 467.142 1025.93 467.79C1025.09 468.437 1024.46 469.307 1024.03 470.398C1023.61 471.489 1023.4 472.699 1023.4 474.028C1023.4 475.392 1023.62 476.598 1024.04 477.646C1024.48 478.686 1025.12 479.504 1025.96 480.101C1026.81 480.689 1027.87 480.983 1029.13 480.983ZM1059.15 484.46C1057.9 484.46 1056.77 484.226 1055.76 483.757C1054.75 483.28 1053.94 482.594 1053.34 481.699C1052.75 480.795 1052.45 479.705 1052.45 478.426C1052.45 477.301 1052.67 476.389 1053.11 475.69C1053.56 474.983 1054.15 474.429 1054.89 474.028C1055.63 473.628 1056.45 473.33 1057.34 473.134C1058.25 472.929 1059.16 472.767 1060.07 472.648C1061.26 472.494 1062.23 472.379 1062.97 472.303C1063.72 472.217 1064.27 472.077 1064.61 471.881C1064.96 471.685 1065.13 471.344 1065.13 470.858V470.756C1065.13 469.494 1064.78 468.514 1064.09 467.815C1063.41 467.116 1062.38 466.767 1060.99 466.767C1059.55 466.767 1058.42 467.082 1057.6 467.713C1056.78 468.344 1056.21 469.017 1055.87 469.733L1053.01 468.71C1053.52 467.517 1054.2 466.588 1055.06 465.923C1055.92 465.25 1056.85 464.781 1057.87 464.517C1058.89 464.244 1059.9 464.108 1060.89 464.108C1061.52 464.108 1062.24 464.185 1063.06 464.338C1063.89 464.483 1064.68 464.786 1065.45 465.246C1066.23 465.706 1066.87 466.401 1067.38 467.33C1067.89 468.259 1068.15 469.503 1068.15 471.062V484H1065.13V481.341H1064.98C1064.77 481.767 1064.43 482.223 1063.95 482.709C1063.48 483.195 1062.84 483.608 1062.05 483.949C1061.26 484.29 1060.29 484.46 1059.15 484.46ZM1059.61 481.75C1060.8 481.75 1061.81 481.516 1062.62 481.047C1063.45 480.578 1064.07 479.973 1064.49 479.232C1064.92 478.49 1065.13 477.71 1065.13 476.892V474.131C1065 474.284 1064.72 474.425 1064.29 474.553C1063.86 474.672 1063.37 474.778 1062.8 474.872C1062.25 474.957 1061.71 475.034 1061.18 475.102C1060.66 475.162 1060.24 475.213 1059.91 475.256C1059.13 475.358 1058.4 475.524 1057.72 475.754C1057.04 475.976 1056.5 476.312 1056.08 476.764C1055.67 477.207 1055.47 477.812 1055.47 478.58C1055.47 479.628 1055.85 480.42 1056.63 480.957C1057.41 481.486 1058.41 481.75 1059.61 481.75ZM1073.65 491.364V464.364H1076.57V467.483H1076.93C1077.15 467.142 1077.46 466.707 1077.85 466.179C1078.25 465.642 1078.82 465.165 1079.56 464.747C1080.31 464.321 1081.32 464.108 1082.6 464.108C1084.26 464.108 1085.71 464.521 1086.97 465.348C1088.24 466.175 1089.22 467.347 1089.93 468.864C1090.64 470.381 1090.99 472.17 1090.99 474.233C1090.99 476.312 1090.64 478.115 1089.93 479.641C1089.22 481.158 1088.24 482.334 1086.99 483.169C1085.73 483.996 1084.29 484.409 1082.65 484.409C1081.39 484.409 1080.38 484.2 1079.62 483.783C1078.87 483.357 1078.28 482.875 1077.87 482.338C1077.46 481.793 1077.15 481.341 1076.93 480.983H1076.67V491.364H1073.65ZM1076.62 474.182C1076.62 475.665 1076.84 476.973 1077.27 478.107C1077.71 479.232 1078.34 480.114 1079.18 480.753C1080.01 481.384 1081.03 481.699 1082.24 481.699C1083.51 481.699 1084.56 481.366 1085.4 480.702C1086.25 480.028 1086.89 479.125 1087.32 477.991C1087.75 476.849 1087.97 475.58 1087.97 474.182C1087.97 472.801 1087.76 471.557 1087.33 470.449C1086.92 469.332 1086.28 468.45 1085.43 467.803C1084.58 467.146 1083.52 466.818 1082.24 466.818C1081.02 466.818 1079.99 467.129 1079.15 467.751C1078.32 468.365 1077.69 469.226 1077.26 470.334C1076.83 471.433 1076.62 472.716 1076.62 474.182ZM1095.59 491.364V464.364H1098.51V467.483H1098.86C1099.09 467.142 1099.39 466.707 1099.78 466.179C1100.19 465.642 1100.76 465.165 1101.5 464.747C1102.25 464.321 1103.26 464.108 1104.54 464.108C1106.19 464.108 1107.65 464.521 1108.91 465.348C1110.17 466.175 1111.16 467.347 1111.87 468.864C1112.57 470.381 1112.93 472.17 1112.93 474.233C1112.93 476.312 1112.57 478.115 1111.87 479.641C1111.16 481.158 1110.18 482.334 1108.93 483.169C1107.67 483.996 1106.23 484.409 1104.59 484.409C1103.33 484.409 1102.32 484.2 1101.56 483.783C1100.8 483.357 1100.22 482.875 1099.81 482.338C1099.4 481.793 1099.09 481.341 1098.86 480.983H1098.61V491.364H1095.59ZM1098.56 474.182C1098.56 475.665 1098.77 476.973 1099.21 478.107C1099.64 479.232 1100.28 480.114 1101.11 480.753C1101.95 481.384 1102.97 481.699 1104.18 481.699C1105.44 481.699 1106.5 481.366 1107.34 480.702C1108.19 480.028 1108.83 479.125 1109.26 477.991C1109.69 476.849 1109.91 475.58 1109.91 474.182C1109.91 472.801 1109.7 471.557 1109.27 470.449C1108.85 469.332 1108.22 468.45 1107.37 467.803C1106.52 467.146 1105.46 466.818 1104.18 466.818C1102.96 466.818 1101.92 467.129 1101.09 467.751C1100.25 468.365 1099.62 469.226 1099.2 470.334C1098.77 471.433 1098.56 472.716 1098.56 474.182Z" fill="white"/>
<path d="M241.93 820.841H6.98959L-34 966H1934V820.114L1855.52 775.729H1686.56L1599.09 820.841L1218.18 824.479L1103.21 775.729H929.255L813.285 820.841H622.833L545.353 771H351.402L241.93 820.841Z" fill="white" stroke="white" stroke-width="3" stroke-dasharray="10 10"/>
<path d="M5 775H234.942L355.911 716H1108.72L1222.19 767.037H1586.6L1673.08 716H1979" stroke="white" stroke-width="3" stroke-dasharray="10 10"/>
<path d="M0 799.969H236.438L351.409 745H536.86L635.335 799.969H812.788L934.257 745H1107.21L1227.68 804L1588.59 799.969L1674.06 745.366H1849.02L1921 779.447" stroke="white" stroke-width="4" stroke-dasharray="10 10"/>
<path d="M-4 853.553H246.435L358.906 804H531.361L615.339 853.553H814.787L943.254 804H1106.71L1242.68 889L1602.58 882.128L1700.56 816.66H1833.52L1921 872.723" stroke="#004A72" stroke-width="4" stroke-dasharray="10 10"/>
<path d="M649.142 628.545H651.784V640.026C651.784 641.247 651.497 642.33 650.923 643.273C650.349 644.21 649.543 644.949 648.503 645.489C647.463 646.023 646.244 646.29 644.847 646.29C643.455 646.29 642.239 646.023 641.199 645.489C640.159 644.949 639.352 644.21 638.778 643.273C638.205 642.33 637.918 641.247 637.918 640.026V628.545H640.551V639.812C640.551 640.602 640.724 641.304 641.071 641.918C641.423 642.531 641.92 643.014 642.562 643.366C643.205 643.713 643.966 643.886 644.847 643.886C645.733 643.886 646.497 643.713 647.139 643.366C647.787 643.014 648.281 642.531 648.622 641.918C648.969 641.304 649.142 640.602 649.142 639.812V628.545ZM665.218 636.105L662.908 636.514C662.812 636.219 662.658 635.937 662.448 635.67C662.244 635.403 661.965 635.185 661.613 635.014C661.261 634.844 660.82 634.759 660.292 634.759C659.57 634.759 658.968 634.92 658.485 635.244C658.002 635.562 657.761 635.974 657.761 636.48C657.761 636.918 657.923 637.27 658.246 637.537C658.57 637.804 659.093 638.023 659.815 638.193L661.894 638.67C663.099 638.949 663.996 639.378 664.587 639.957C665.178 640.537 665.474 641.29 665.474 642.216C665.474 643 665.246 643.699 664.792 644.312C664.343 644.92 663.715 645.398 662.908 645.744C662.107 646.091 661.178 646.264 660.121 646.264C658.656 646.264 657.46 645.952 656.533 645.327C655.607 644.696 655.039 643.801 654.829 642.642L657.292 642.267C657.445 642.909 657.761 643.395 658.238 643.724C658.715 644.048 659.337 644.21 660.104 644.21C660.94 644.21 661.607 644.037 662.107 643.69C662.607 643.338 662.857 642.909 662.857 642.403C662.857 641.994 662.704 641.651 662.397 641.372C662.096 641.094 661.633 640.884 661.008 640.741L658.792 640.256C657.57 639.977 656.667 639.534 656.082 638.926C655.502 638.318 655.212 637.548 655.212 636.616C655.212 635.844 655.428 635.168 655.86 634.588C656.292 634.009 656.888 633.557 657.65 633.233C658.411 632.903 659.283 632.739 660.266 632.739C661.681 632.739 662.795 633.045 663.607 633.659C664.42 634.267 664.957 635.082 665.218 636.105ZM673.918 646.264C672.628 646.264 671.517 645.989 670.585 645.438C669.659 644.881 668.943 644.099 668.438 643.094C667.938 642.082 667.688 640.898 667.688 639.54C667.688 638.199 667.938 637.017 668.438 635.994C668.943 634.972 669.648 634.173 670.551 633.599C671.46 633.026 672.523 632.739 673.739 632.739C674.477 632.739 675.193 632.861 675.886 633.105C676.58 633.349 677.202 633.733 677.753 634.256C678.304 634.778 678.739 635.457 679.057 636.293C679.375 637.122 679.534 638.131 679.534 639.318V640.222H669.128V638.312H677.037C677.037 637.642 676.901 637.048 676.628 636.531C676.355 636.009 675.972 635.597 675.477 635.295C674.989 634.994 674.415 634.844 673.756 634.844C673.04 634.844 672.415 635.02 671.881 635.372C671.352 635.719 670.943 636.173 670.653 636.736C670.369 637.293 670.227 637.898 670.227 638.551V640.043C670.227 640.918 670.381 641.662 670.688 642.276C671 642.889 671.435 643.358 671.991 643.682C672.548 644 673.199 644.159 673.943 644.159C674.426 644.159 674.866 644.091 675.264 643.955C675.662 643.812 676.006 643.602 676.295 643.324C676.585 643.045 676.807 642.702 676.96 642.293L679.372 642.727C679.179 643.437 678.832 644.06 678.332 644.594C677.838 645.122 677.216 645.534 676.466 645.83C675.722 646.119 674.872 646.264 673.918 646.264ZM682.362 646V632.909H684.825V634.989H684.961C685.2 634.284 685.62 633.73 686.222 633.327C686.83 632.918 687.518 632.713 688.285 632.713C688.444 632.713 688.631 632.719 688.847 632.73C689.069 632.741 689.242 632.756 689.367 632.773V635.21C689.265 635.182 689.083 635.151 688.822 635.116C688.56 635.077 688.299 635.057 688.038 635.057C687.435 635.057 686.898 635.185 686.427 635.44C685.961 635.69 685.592 636.04 685.319 636.489C685.046 636.932 684.91 637.437 684.91 638.006V646H682.362ZM700.762 628.545V646H698.129V628.545H700.762ZM706.941 638.227V646H704.393V632.909H706.839V635.04H707.001C707.302 634.347 707.773 633.79 708.415 633.369C709.063 632.949 709.879 632.739 710.862 632.739C711.754 632.739 712.535 632.926 713.205 633.301C713.876 633.67 714.396 634.222 714.765 634.955C715.134 635.687 715.319 636.594 715.319 637.673V646H712.771V637.98C712.771 637.031 712.523 636.29 712.029 635.756C711.535 635.216 710.856 634.946 709.992 634.946C709.401 634.946 708.876 635.074 708.415 635.33C707.961 635.585 707.6 635.96 707.333 636.455C707.072 636.943 706.941 637.534 706.941 638.227ZM724.847 632.909V634.955H717.697V632.909H724.847ZM719.614 629.773H722.163V642.156C722.163 642.651 722.237 643.023 722.384 643.273C722.532 643.517 722.722 643.685 722.955 643.776C723.194 643.861 723.452 643.903 723.731 643.903C723.935 643.903 724.114 643.889 724.268 643.861C724.421 643.832 724.54 643.81 724.626 643.793L725.086 645.898C724.938 645.955 724.728 646.011 724.455 646.068C724.183 646.131 723.842 646.165 723.433 646.17C722.762 646.182 722.137 646.062 721.558 645.812C720.978 645.562 720.509 645.176 720.151 644.653C719.793 644.131 719.614 643.474 719.614 642.685V629.773ZM733.168 646.264C731.878 646.264 730.767 645.989 729.835 645.438C728.909 644.881 728.193 644.099 727.688 643.094C727.188 642.082 726.938 640.898 726.938 639.54C726.938 638.199 727.188 637.017 727.688 635.994C728.193 634.972 728.898 634.173 729.801 633.599C730.71 633.026 731.773 632.739 732.989 632.739C733.727 632.739 734.443 632.861 735.136 633.105C735.83 633.349 736.452 633.733 737.003 634.256C737.554 634.778 737.989 635.457 738.307 636.293C738.625 637.122 738.784 638.131 738.784 639.318V640.222H728.378V638.312H736.287C736.287 637.642 736.151 637.048 735.878 636.531C735.605 636.009 735.222 635.597 734.727 635.295C734.239 634.994 733.665 634.844 733.006 634.844C732.29 634.844 731.665 635.02 731.131 635.372C730.602 635.719 730.193 636.173 729.903 636.736C729.619 637.293 729.477 637.898 729.477 638.551V640.043C729.477 640.918 729.631 641.662 729.938 642.276C730.25 642.889 730.685 643.358 731.241 643.682C731.798 644 732.449 644.159 733.193 644.159C733.676 644.159 734.116 644.091 734.514 643.955C734.912 643.812 735.256 643.602 735.545 643.324C735.835 643.045 736.057 642.702 736.21 642.293L738.622 642.727C738.429 643.437 738.082 644.06 737.582 644.594C737.088 645.122 736.466 645.534 735.716 645.83C734.972 646.119 734.122 646.264 733.168 646.264ZM741.612 646V632.909H744.075V634.989H744.211C744.45 634.284 744.87 633.73 745.472 633.327C746.08 632.918 746.768 632.713 747.535 632.713C747.694 632.713 747.881 632.719 748.097 632.73C748.319 632.741 748.492 632.756 748.617 632.773V635.21C748.515 635.182 748.333 635.151 748.072 635.116C747.81 635.077 747.549 635.057 747.288 635.057C746.685 635.057 746.148 635.185 745.677 635.44C745.211 635.69 744.842 636.04 744.569 636.489C744.296 636.932 744.16 637.437 744.16 638.006V646H741.612ZM757.826 632.909V634.955H750.428V632.909H757.826ZM752.457 646V631.392C752.457 630.574 752.636 629.895 752.994 629.355C753.352 628.81 753.826 628.403 754.417 628.136C755.008 627.864 755.65 627.727 756.343 627.727C756.854 627.727 757.292 627.77 757.656 627.855C758.019 627.935 758.289 628.009 758.465 628.077L757.869 630.139C757.749 630.105 757.596 630.065 757.408 630.02C757.221 629.969 756.994 629.943 756.727 629.943C756.107 629.943 755.664 630.097 755.397 630.403C755.136 630.71 755.005 631.153 755.005 631.733V646H752.457ZM763.866 646.29C763.037 646.29 762.287 646.136 761.616 645.83C760.946 645.517 760.415 645.065 760.023 644.474C759.636 643.884 759.443 643.159 759.443 642.301C759.443 641.562 759.585 640.955 759.869 640.477C760.153 640 760.537 639.622 761.02 639.344C761.503 639.065 762.043 638.855 762.639 638.713C763.236 638.571 763.844 638.463 764.463 638.389C765.247 638.298 765.884 638.224 766.372 638.168C766.861 638.105 767.216 638.006 767.438 637.869C767.659 637.733 767.77 637.511 767.77 637.205V637.145C767.77 636.401 767.56 635.824 767.139 635.415C766.724 635.006 766.105 634.801 765.281 634.801C764.423 634.801 763.747 634.991 763.253 635.372C762.764 635.747 762.426 636.165 762.239 636.625L759.844 636.08C760.128 635.284 760.543 634.642 761.088 634.153C761.639 633.659 762.273 633.301 762.989 633.08C763.705 632.852 764.457 632.739 765.247 632.739C765.77 632.739 766.324 632.801 766.909 632.926C767.5 633.045 768.051 633.267 768.562 633.591C769.08 633.915 769.503 634.378 769.832 634.98C770.162 635.577 770.327 636.352 770.327 637.307V646H767.838V644.21H767.736C767.571 644.54 767.324 644.864 766.994 645.182C766.665 645.5 766.241 645.764 765.724 645.974C765.207 646.185 764.588 646.29 763.866 646.29ZM764.42 644.244C765.125 644.244 765.727 644.105 766.227 643.827C766.733 643.548 767.116 643.185 767.378 642.736C767.645 642.281 767.778 641.795 767.778 641.278V639.591C767.688 639.682 767.511 639.767 767.25 639.847C766.994 639.92 766.702 639.986 766.372 640.043C766.043 640.094 765.722 640.142 765.409 640.188C765.097 640.227 764.835 640.261 764.625 640.29C764.131 640.352 763.679 640.457 763.27 640.605C762.866 640.753 762.543 640.966 762.298 641.244C762.06 641.517 761.94 641.881 761.94 642.335C761.94 642.966 762.173 643.443 762.639 643.767C763.105 644.085 763.699 644.244 764.42 644.244ZM779.235 646.264C777.968 646.264 776.877 645.977 775.962 645.403C775.053 644.824 774.354 644.026 773.866 643.009C773.377 641.991 773.133 640.827 773.133 639.514C773.133 638.185 773.383 637.011 773.883 635.994C774.383 634.972 775.087 634.173 775.996 633.599C776.906 633.026 777.977 632.739 779.21 632.739C780.204 632.739 781.09 632.923 781.869 633.293C782.647 633.656 783.275 634.168 783.752 634.827C784.235 635.486 784.522 636.256 784.613 637.136H782.133C781.996 636.523 781.684 635.994 781.195 635.551C780.712 635.108 780.065 634.886 779.252 634.886C778.542 634.886 777.92 635.074 777.386 635.449C776.857 635.818 776.445 636.347 776.15 637.034C775.854 637.716 775.707 638.523 775.707 639.455C775.707 640.409 775.852 641.233 776.141 641.926C776.431 642.619 776.84 643.156 777.369 643.537C777.903 643.918 778.531 644.108 779.252 644.108C779.735 644.108 780.173 644.02 780.565 643.844C780.962 643.662 781.295 643.403 781.562 643.068C781.835 642.733 782.025 642.33 782.133 641.858H784.613C784.522 642.705 784.246 643.46 783.786 644.125C783.326 644.79 782.71 645.312 781.937 645.693C781.17 646.074 780.269 646.264 779.235 646.264ZM792.98 646.264C791.69 646.264 790.58 645.989 789.648 645.438C788.722 644.881 788.006 644.099 787.5 643.094C787 642.082 786.75 640.898 786.75 639.54C786.75 638.199 787 637.017 787.5 635.994C788.006 634.972 788.71 634.173 789.614 633.599C790.523 633.026 791.585 632.739 792.801 632.739C793.54 632.739 794.256 632.861 794.949 633.105C795.642 633.349 796.264 633.733 796.815 634.256C797.366 634.778 797.801 635.457 798.119 636.293C798.438 637.122 798.597 638.131 798.597 639.318V640.222H788.19V638.312H796.099C796.099 637.642 795.963 637.048 795.69 636.531C795.418 636.009 795.034 635.597 794.54 635.295C794.051 634.994 793.477 634.844 792.818 634.844C792.102 634.844 791.477 635.02 790.943 635.372C790.415 635.719 790.006 636.173 789.716 636.736C789.432 637.293 789.29 637.898 789.29 638.551V640.043C789.29 640.918 789.443 641.662 789.75 642.276C790.062 642.889 790.497 643.358 791.054 643.682C791.611 644 792.261 644.159 793.006 644.159C793.489 644.159 793.929 644.091 794.327 643.955C794.724 643.812 795.068 643.602 795.358 643.324C795.648 643.045 795.869 642.702 796.023 642.293L798.435 642.727C798.241 643.437 797.895 644.06 797.395 644.594C796.901 645.122 796.278 645.534 795.528 645.83C794.784 646.119 793.935 646.264 792.98 646.264ZM830.367 622.92V651.625H828.083V622.92H830.367ZM871.892 628.545H874.534V640.026C874.534 641.247 874.247 642.33 873.673 643.273C873.099 644.21 872.293 644.949 871.253 645.489C870.213 646.023 868.994 646.29 867.597 646.29C866.205 646.29 864.989 646.023 863.949 645.489C862.909 644.949 862.102 644.21 861.528 643.273C860.955 642.33 860.668 641.247 860.668 640.026V628.545H863.301V639.812C863.301 640.602 863.474 641.304 863.821 641.918C864.173 642.531 864.67 643.014 865.312 643.366C865.955 643.713 866.716 643.886 867.597 643.886C868.483 643.886 869.247 643.713 869.889 643.366C870.537 643.014 871.031 642.531 871.372 641.918C871.719 641.304 871.892 640.602 871.892 639.812V628.545ZM887.968 636.105L885.658 636.514C885.562 636.219 885.408 635.937 885.198 635.67C884.994 635.403 884.715 635.185 884.363 635.014C884.011 634.844 883.57 634.759 883.042 634.759C882.32 634.759 881.718 634.92 881.235 635.244C880.752 635.562 880.511 635.974 880.511 636.48C880.511 636.918 880.673 637.27 880.996 637.537C881.32 637.804 881.843 638.023 882.565 638.193L884.644 638.67C885.849 638.949 886.746 639.378 887.337 639.957C887.928 640.537 888.224 641.29 888.224 642.216C888.224 643 887.996 643.699 887.542 644.312C887.093 644.92 886.465 645.398 885.658 645.744C884.857 646.091 883.928 646.264 882.871 646.264C881.406 646.264 880.21 645.952 879.283 645.327C878.357 644.696 877.789 643.801 877.579 642.642L880.042 642.267C880.195 642.909 880.511 643.395 880.988 643.724C881.465 644.048 882.087 644.21 882.854 644.21C883.69 644.21 884.357 644.037 884.857 643.69C885.357 643.338 885.607 642.909 885.607 642.403C885.607 641.994 885.454 641.651 885.147 641.372C884.846 641.094 884.383 640.884 883.758 640.741L881.542 640.256C880.32 639.977 879.417 639.534 878.832 638.926C878.252 638.318 877.962 637.548 877.962 636.616C877.962 635.844 878.178 635.168 878.61 634.588C879.042 634.009 879.638 633.557 880.4 633.233C881.161 632.903 882.033 632.739 883.016 632.739C884.431 632.739 885.545 633.045 886.357 633.659C887.17 634.267 887.707 635.082 887.968 636.105ZM896.668 646.264C895.378 646.264 894.267 645.989 893.335 645.438C892.409 644.881 891.693 644.099 891.188 643.094C890.688 642.082 890.438 640.898 890.438 639.54C890.438 638.199 890.688 637.017 891.188 635.994C891.693 634.972 892.398 634.173 893.301 633.599C894.21 633.026 895.273 632.739 896.489 632.739C897.227 632.739 897.943 632.861 898.636 633.105C899.33 633.349 899.952 633.733 900.503 634.256C901.054 634.778 901.489 635.457 901.807 636.293C902.125 637.122 902.284 638.131 902.284 639.318V640.222H891.878V638.312H899.787C899.787 637.642 899.651 637.048 899.378 636.531C899.105 636.009 898.722 635.597 898.227 635.295C897.739 634.994 897.165 634.844 896.506 634.844C895.79 634.844 895.165 635.02 894.631 635.372C894.102 635.719 893.693 636.173 893.403 636.736C893.119 637.293 892.977 637.898 892.977 638.551V640.043C892.977 640.918 893.131 641.662 893.438 642.276C893.75 642.889 894.185 643.358 894.741 643.682C895.298 644 895.949 644.159 896.693 644.159C897.176 644.159 897.616 644.091 898.014 643.955C898.412 643.812 898.756 643.602 899.045 643.324C899.335 643.045 899.557 642.702 899.71 642.293L902.122 642.727C901.929 643.437 901.582 644.06 901.082 644.594C900.588 645.122 899.966 645.534 899.216 645.83C898.472 646.119 897.622 646.264 896.668 646.264ZM905.112 646V632.909H907.575V634.989H907.711C907.95 634.284 908.37 633.73 908.972 633.327C909.58 632.918 910.268 632.713 911.035 632.713C911.194 632.713 911.381 632.719 911.597 632.73C911.819 632.741 911.992 632.756 912.117 632.773V635.21C912.015 635.182 911.833 635.151 911.572 635.116C911.31 635.077 911.049 635.057 910.788 635.057C910.185 635.057 909.648 635.185 909.177 635.44C908.711 635.69 908.342 636.04 908.069 636.489C907.796 636.932 907.66 637.437 907.66 638.006V646H905.112ZM920.879 646V628.545H927.1C928.452 628.545 929.575 628.778 930.467 629.244C931.364 629.71 932.035 630.355 932.478 631.179C932.921 631.997 933.143 632.943 933.143 634.017C933.143 635.085 932.918 636.026 932.469 636.838C932.026 637.645 931.356 638.273 930.458 638.722C929.566 639.17 928.444 639.395 927.092 639.395H922.379V637.128H926.853C927.705 637.128 928.398 637.006 928.933 636.761C929.472 636.517 929.867 636.162 930.117 635.696C930.367 635.23 930.492 634.67 930.492 634.017C930.492 633.358 930.364 632.787 930.109 632.304C929.859 631.821 929.464 631.452 928.924 631.196C928.39 630.935 927.688 630.804 926.819 630.804H923.512V646H920.879ZM929.495 638.125L933.808 646H930.808L926.58 638.125H929.495ZM941.621 646.264C940.331 646.264 939.22 645.989 938.288 645.438C937.362 644.881 936.646 644.099 936.141 643.094C935.641 642.082 935.391 640.898 935.391 639.54C935.391 638.199 935.641 637.017 936.141 635.994C936.646 634.972 937.351 634.173 938.254 633.599C939.163 633.026 940.226 632.739 941.442 632.739C942.18 632.739 942.896 632.861 943.589 633.105C944.283 633.349 944.905 633.733 945.456 634.256C946.007 634.778 946.442 635.457 946.76 636.293C947.078 637.122 947.237 638.131 947.237 639.318V640.222H936.831V638.312H944.74C944.74 637.642 944.604 637.048 944.331 636.531C944.058 636.009 943.675 635.597 943.18 635.295C942.692 634.994 942.118 634.844 941.459 634.844C940.743 634.844 940.118 635.02 939.584 635.372C939.055 635.719 938.646 636.173 938.357 636.736C938.072 637.293 937.93 637.898 937.93 638.551V640.043C937.93 640.918 938.084 641.662 938.391 642.276C938.703 642.889 939.138 643.358 939.695 643.682C940.251 644 940.902 644.159 941.646 644.159C942.129 644.159 942.57 644.091 942.967 643.955C943.365 643.812 943.709 643.602 943.999 643.324C944.288 643.045 944.51 642.702 944.663 642.293L947.075 642.727C946.882 643.437 946.536 644.06 946.036 644.594C945.541 645.122 944.919 645.534 944.169 645.83C943.425 646.119 942.575 646.264 941.621 646.264ZM959.874 636.105L957.565 636.514C957.468 636.219 957.315 635.937 957.104 635.67C956.9 635.403 956.621 635.185 956.269 635.014C955.917 634.844 955.477 634.759 954.948 634.759C954.227 634.759 953.624 634.92 953.141 635.244C952.658 635.562 952.417 635.974 952.417 636.48C952.417 636.918 952.579 637.27 952.903 637.537C953.227 637.804 953.749 638.023 954.471 638.193L956.55 638.67C957.755 638.949 958.653 639.378 959.244 639.957C959.835 640.537 960.13 641.29 960.13 642.216C960.13 643 959.903 643.699 959.448 644.312C958.999 644.92 958.371 645.398 957.565 645.744C956.763 646.091 955.835 646.264 954.778 646.264C953.312 646.264 952.116 645.952 951.19 645.327C950.263 644.696 949.695 643.801 949.485 642.642L951.948 642.267C952.102 642.909 952.417 643.395 952.894 643.724C953.371 644.048 953.994 644.21 954.761 644.21C955.596 644.21 956.263 644.037 956.763 643.69C957.263 643.338 957.513 642.909 957.513 642.403C957.513 641.994 957.36 641.651 957.053 641.372C956.752 641.094 956.289 640.884 955.664 640.741L953.448 640.256C952.227 639.977 951.323 639.534 950.738 638.926C950.158 638.318 949.869 637.548 949.869 636.616C949.869 635.844 950.085 635.168 950.516 634.588C950.948 634.009 951.545 633.557 952.306 633.233C953.067 632.903 953.94 632.739 954.923 632.739C956.337 632.739 957.451 633.045 958.263 633.659C959.076 634.267 959.613 635.082 959.874 636.105ZM968.574 646.264C967.284 646.264 966.173 645.989 965.241 645.438C964.315 644.881 963.599 644.099 963.094 643.094C962.594 642.082 962.344 640.898 962.344 639.54C962.344 638.199 962.594 637.017 963.094 635.994C963.599 634.972 964.304 634.173 965.207 633.599C966.116 633.026 967.179 632.739 968.395 632.739C969.134 632.739 969.849 632.861 970.543 633.105C971.236 633.349 971.858 633.733 972.409 634.256C972.96 634.778 973.395 635.457 973.713 636.293C974.031 637.122 974.19 638.131 974.19 639.318V640.222H963.784V638.312H971.693C971.693 637.642 971.557 637.048 971.284 636.531C971.011 636.009 970.628 635.597 970.134 635.295C969.645 634.994 969.071 634.844 968.412 634.844C967.696 634.844 967.071 635.02 966.537 635.372C966.009 635.719 965.599 636.173 965.31 636.736C965.026 637.293 964.884 637.898 964.884 638.551V640.043C964.884 640.918 965.037 641.662 965.344 642.276C965.656 642.889 966.091 643.358 966.648 643.682C967.205 644 967.855 644.159 968.599 644.159C969.082 644.159 969.523 644.091 969.92 643.955C970.318 643.812 970.662 643.602 970.952 643.324C971.241 643.045 971.463 642.702 971.616 642.293L974.028 642.727C973.835 643.437 973.489 644.06 972.989 644.594C972.494 645.122 971.872 645.534 971.122 645.83C970.378 646.119 969.528 646.264 968.574 646.264ZM980.827 646.29C979.998 646.29 979.248 646.136 978.577 645.83C977.907 645.517 977.376 645.065 976.984 644.474C976.597 643.884 976.404 643.159 976.404 642.301C976.404 641.562 976.546 640.955 976.83 640.477C977.114 640 977.498 639.622 977.981 639.344C978.464 639.065 979.004 638.855 979.6 638.713C980.197 638.571 980.805 638.463 981.424 638.389C982.208 638.298 982.844 638.224 983.333 638.168C983.822 638.105 984.177 638.006 984.398 637.869C984.62 637.733 984.731 637.511 984.731 637.205V637.145C984.731 636.401 984.521 635.824 984.1 635.415C983.685 635.006 983.066 634.801 982.242 634.801C981.384 634.801 980.708 634.991 980.214 635.372C979.725 635.747 979.387 636.165 979.2 636.625L976.805 636.08C977.089 635.284 977.504 634.642 978.049 634.153C978.6 633.659 979.234 633.301 979.95 633.08C980.665 632.852 981.418 632.739 982.208 632.739C982.731 632.739 983.285 632.801 983.87 632.926C984.461 633.045 985.012 633.267 985.523 633.591C986.04 633.915 986.464 634.378 986.793 634.98C987.123 635.577 987.288 636.352 987.288 637.307V646H984.799V644.21H984.697C984.532 644.54 984.285 644.864 983.955 645.182C983.626 645.5 983.202 645.764 982.685 645.974C982.168 646.185 981.549 646.29 980.827 646.29ZM981.381 644.244C982.086 644.244 982.688 644.105 983.188 643.827C983.694 643.548 984.077 643.185 984.339 642.736C984.606 642.281 984.739 641.795 984.739 641.278V639.591C984.648 639.682 984.472 639.767 984.211 639.847C983.955 639.92 983.663 639.986 983.333 640.043C983.004 640.094 982.683 640.142 982.37 640.188C982.058 640.227 981.796 640.261 981.586 640.29C981.092 640.352 980.64 640.457 980.231 640.605C979.827 640.753 979.504 640.966 979.259 641.244C979.021 641.517 978.901 641.881 978.901 642.335C978.901 642.966 979.134 643.443 979.6 643.767C980.066 644.085 980.66 644.244 981.381 644.244ZM990.682 646V632.909H993.145V634.989H993.281C993.52 634.284 993.94 633.73 994.543 633.327C995.151 632.918 995.838 632.713 996.605 632.713C996.764 632.713 996.952 632.719 997.168 632.73C997.389 632.741 997.562 632.756 997.688 632.773V635.21C997.585 635.182 997.403 635.151 997.142 635.116C996.881 635.077 996.619 635.057 996.358 635.057C995.756 635.057 995.219 635.185 994.747 635.44C994.281 635.69 993.912 636.04 993.639 636.489C993.366 636.932 993.23 637.437 993.23 638.006V646H990.682ZM1004.94 646.264C1003.67 646.264 1002.58 645.977 1001.67 645.403C1000.76 644.824 1000.06 644.026 999.569 643.009C999.08 641.991 998.836 640.827 998.836 639.514C998.836 638.185 999.086 637.011 999.586 635.994C1000.09 634.972 1000.79 634.173 1001.7 633.599C1002.61 633.026 1003.68 632.739 1004.91 632.739C1005.91 632.739 1006.79 632.923 1007.57 633.293C1008.35 633.656 1008.98 634.168 1009.46 634.827C1009.94 635.486 1010.23 636.256 1010.32 637.136H1007.84C1007.7 636.523 1007.39 635.994 1006.9 635.551C1006.42 635.108 1005.77 634.886 1004.96 634.886C1004.25 634.886 1003.62 635.074 1003.09 635.449C1002.56 635.818 1002.15 636.347 1001.85 637.034C1001.56 637.716 1001.41 638.523 1001.41 639.455C1001.41 640.409 1001.55 641.233 1001.84 641.926C1002.13 642.619 1002.54 643.156 1003.07 643.537C1003.61 643.918 1004.23 644.108 1004.96 644.108C1005.44 644.108 1005.88 644.02 1006.27 643.844C1006.67 643.662 1007 643.403 1007.26 643.068C1007.54 642.733 1007.73 642.33 1007.84 641.858H1010.32C1010.23 642.705 1009.95 643.46 1009.49 644.125C1009.03 644.79 1008.41 645.312 1007.64 645.693C1006.87 646.074 1005.97 646.264 1004.94 646.264ZM1015.59 638.227V646H1013.04V628.545H1015.56V635.04H1015.72C1016.02 634.335 1016.49 633.776 1017.12 633.361C1017.75 632.946 1018.58 632.739 1019.6 632.739C1020.49 632.739 1021.28 632.923 1021.95 633.293C1022.62 633.662 1023.15 634.213 1023.52 634.946C1023.89 635.673 1024.08 636.582 1024.08 637.673V646H1021.53V637.98C1021.53 637.02 1021.28 636.276 1020.79 635.747C1020.29 635.213 1019.61 634.946 1018.73 634.946C1018.12 634.946 1017.58 635.074 1017.11 635.33C1016.63 635.585 1016.26 635.96 1015.99 636.455C1015.72 636.943 1015.59 637.534 1015.59 638.227ZM1056.42 622.92V651.625H1054.14V622.92H1056.42ZM1097.95 628.545H1100.59V640.026C1100.59 641.247 1100.3 642.33 1099.73 643.273C1099.15 644.21 1098.35 644.949 1097.31 645.489C1096.27 646.023 1095.05 646.29 1093.65 646.29C1092.26 646.29 1091.04 646.023 1090 645.489C1088.96 644.949 1088.16 644.21 1087.58 643.273C1087.01 642.33 1086.72 641.247 1086.72 640.026V628.545H1089.36V639.812C1089.36 640.602 1089.53 641.304 1089.88 641.918C1090.23 642.531 1090.73 643.014 1091.37 643.366C1092.01 643.713 1092.77 643.886 1093.65 643.886C1094.54 643.886 1095.3 643.713 1095.94 643.366C1096.59 643.014 1097.09 642.531 1097.43 641.918C1097.77 641.304 1097.95 640.602 1097.95 639.812V628.545ZM1114.02 636.105L1111.71 636.514C1111.62 636.219 1111.46 635.937 1111.25 635.67C1111.05 635.403 1110.77 635.185 1110.42 635.014C1110.07 634.844 1109.63 634.759 1109.1 634.759C1108.38 634.759 1107.77 634.92 1107.29 635.244C1106.81 635.562 1106.57 635.974 1106.57 636.48C1106.57 636.918 1106.73 637.27 1107.05 637.537C1107.38 637.804 1107.9 638.023 1108.62 638.193L1110.7 638.67C1111.9 638.949 1112.8 639.378 1113.39 639.957C1113.98 640.537 1114.28 641.29 1114.28 642.216C1114.28 643 1114.05 643.699 1113.6 644.312C1113.15 644.92 1112.52 645.398 1111.71 645.744C1110.91 646.091 1109.98 646.264 1108.93 646.264C1107.46 646.264 1106.26 645.952 1105.34 645.327C1104.41 644.696 1103.84 643.801 1103.63 642.642L1106.1 642.267C1106.25 642.909 1106.57 643.395 1107.04 643.724C1107.52 644.048 1108.14 644.21 1108.91 644.21C1109.74 644.21 1110.41 644.037 1110.91 643.69C1111.41 643.338 1111.66 642.909 1111.66 642.403C1111.66 641.994 1111.51 641.651 1111.2 641.372C1110.9 641.094 1110.44 640.884 1109.81 640.741L1107.6 640.256C1106.38 639.977 1105.47 639.534 1104.89 638.926C1104.31 638.318 1104.02 637.548 1104.02 636.616C1104.02 635.844 1104.23 635.168 1104.66 634.588C1105.1 634.009 1105.69 633.557 1106.45 633.233C1107.22 632.903 1108.09 632.739 1109.07 632.739C1110.49 632.739 1111.6 633.045 1112.41 633.659C1113.22 634.267 1113.76 635.082 1114.02 636.105ZM1122.72 646.264C1121.43 646.264 1120.32 645.989 1119.39 645.438C1118.46 644.881 1117.75 644.099 1117.24 643.094C1116.74 642.082 1116.49 640.898 1116.49 639.54C1116.49 638.199 1116.74 637.017 1117.24 635.994C1117.75 634.972 1118.45 634.173 1119.36 633.599C1120.26 633.026 1121.33 632.739 1122.54 632.739C1123.28 632.739 1124 632.861 1124.69 633.105C1125.38 633.349 1126.01 633.733 1126.56 634.256C1127.11 634.778 1127.54 635.457 1127.86 636.293C1128.18 637.122 1128.34 638.131 1128.34 639.318V640.222H1117.93V638.312H1125.84C1125.84 637.642 1125.71 637.048 1125.43 636.531C1125.16 636.009 1124.78 635.597 1124.28 635.295C1123.79 634.994 1123.22 634.844 1122.56 634.844C1121.84 634.844 1121.22 635.02 1120.69 635.372C1120.16 635.719 1119.75 636.173 1119.46 636.736C1119.17 637.293 1119.03 637.898 1119.03 638.551V640.043C1119.03 640.918 1119.19 641.662 1119.49 642.276C1119.8 642.889 1120.24 643.358 1120.8 643.682C1121.35 644 1122 644.159 1122.75 644.159C1123.23 644.159 1123.67 644.091 1124.07 643.955C1124.47 643.812 1124.81 643.602 1125.1 643.324C1125.39 643.045 1125.61 642.702 1125.76 642.293L1128.18 642.727C1127.98 643.437 1127.64 644.06 1127.14 644.594C1126.64 645.122 1126.02 645.534 1125.27 645.83C1124.53 646.119 1123.68 646.264 1122.72 646.264ZM1131.17 646V632.909H1133.63V634.989H1133.77C1134 634.284 1134.42 633.73 1135.03 633.327C1135.63 632.918 1136.32 632.713 1137.09 632.713C1137.25 632.713 1137.44 632.719 1137.65 632.73C1137.87 632.741 1138.05 632.756 1138.17 632.773V635.21C1138.07 635.182 1137.89 635.151 1137.63 635.116C1137.37 635.077 1137.1 635.057 1136.84 635.057C1136.24 635.057 1135.7 635.185 1135.23 635.44C1134.77 635.69 1134.4 636.04 1134.12 636.489C1133.85 636.932 1133.71 637.437 1133.71 638.006V646H1131.17ZM1152.37 646.264C1151.08 646.264 1149.97 645.989 1149.04 645.438C1148.11 644.881 1147.4 644.099 1146.89 643.094C1146.39 642.082 1146.14 640.898 1146.14 639.54C1146.14 638.199 1146.39 637.017 1146.89 635.994C1147.4 634.972 1148.1 634.173 1149 633.599C1149.91 633.026 1150.98 632.739 1152.19 632.739C1152.93 632.739 1153.65 632.861 1154.34 633.105C1155.03 633.349 1155.65 633.733 1156.21 634.256C1156.76 634.778 1157.19 635.457 1157.51 636.293C1157.83 637.122 1157.99 638.131 1157.99 639.318V640.222H1147.58V638.312H1155.49C1155.49 637.642 1155.35 637.048 1155.08 636.531C1154.81 636.009 1154.42 635.597 1153.93 635.295C1153.44 634.994 1152.87 634.844 1152.21 634.844C1151.49 634.844 1150.87 635.02 1150.33 635.372C1149.81 635.719 1149.4 636.173 1149.11 636.736C1148.82 637.293 1148.68 637.898 1148.68 638.551V640.043C1148.68 640.918 1148.83 641.662 1149.14 642.276C1149.45 642.889 1149.89 643.358 1150.44 643.682C1151 644 1151.65 644.159 1152.4 644.159C1152.88 644.159 1153.32 644.091 1153.72 643.955C1154.12 643.812 1154.46 643.602 1154.75 643.324C1155.04 643.045 1155.26 642.702 1155.41 642.293L1157.83 642.727C1157.63 643.437 1157.29 644.06 1156.79 644.594C1156.29 645.122 1155.67 645.534 1154.92 645.83C1154.17 646.119 1153.33 646.264 1152.37 646.264ZM1162.52 632.909L1165.41 638.006L1168.33 632.909H1171.11L1167.03 639.455L1171.15 646H1168.36L1165.41 641.108L1162.47 646H1159.67L1163.75 639.455L1159.73 632.909H1162.52ZM1173.73 650.909V632.909H1176.22V635.031H1176.43C1176.58 634.759 1176.79 634.443 1177.07 634.085C1177.35 633.727 1177.73 633.415 1178.23 633.148C1178.72 632.875 1179.38 632.739 1180.19 632.739C1181.25 632.739 1182.19 633.006 1183.02 633.54C1183.85 634.074 1184.5 634.844 1184.97 635.849C1185.45 636.855 1185.69 638.065 1185.69 639.48C1185.69 640.895 1185.45 642.108 1184.98 643.119C1184.51 644.125 1183.86 644.901 1183.04 645.446C1182.21 645.986 1181.27 646.256 1180.21 646.256C1179.42 646.256 1178.77 646.122 1178.26 645.855C1177.76 645.588 1177.37 645.276 1177.09 644.918C1176.8 644.56 1176.58 644.241 1176.43 643.963H1176.28V650.909H1173.73ZM1176.23 639.455C1176.23 640.375 1176.36 641.182 1176.63 641.875C1176.89 642.568 1177.28 643.111 1177.79 643.503C1178.29 643.889 1178.91 644.082 1179.64 644.082C1180.4 644.082 1181.04 643.881 1181.55 643.477C1182.06 643.068 1182.45 642.514 1182.71 641.815C1182.98 641.116 1183.11 640.33 1183.11 639.455C1183.11 638.591 1182.98 637.815 1182.72 637.128C1182.46 636.44 1182.08 635.898 1181.56 635.5C1181.05 635.102 1180.41 634.903 1179.64 634.903C1178.9 634.903 1178.28 635.094 1177.77 635.474C1177.26 635.855 1176.88 636.386 1176.62 637.068C1176.36 637.75 1176.23 638.545 1176.23 639.455ZM1194.18 646.264C1192.89 646.264 1191.78 645.989 1190.85 645.438C1189.92 644.881 1189.21 644.099 1188.7 643.094C1188.2 642.082 1187.95 640.898 1187.95 639.54C1187.95 638.199 1188.2 637.017 1188.7 635.994C1189.21 634.972 1189.91 634.173 1190.82 633.599C1191.73 633.026 1192.79 632.739 1194 632.739C1194.74 632.739 1195.46 632.861 1196.15 633.105C1196.85 633.349 1197.47 633.733 1198.02 634.256C1198.57 634.778 1199 635.457 1199.32 636.293C1199.64 637.122 1199.8 638.131 1199.8 639.318V640.222H1189.39V638.312H1197.3C1197.3 637.642 1197.17 637.048 1196.89 636.531C1196.62 636.009 1196.24 635.597 1195.74 635.295C1195.25 634.994 1194.68 634.844 1194.02 634.844C1193.31 634.844 1192.68 635.02 1192.15 635.372C1191.62 635.719 1191.21 636.173 1190.92 636.736C1190.63 637.293 1190.49 637.898 1190.49 638.551V640.043C1190.49 640.918 1190.65 641.662 1190.95 642.276C1191.27 642.889 1191.7 643.358 1192.26 643.682C1192.81 644 1193.46 644.159 1194.21 644.159C1194.69 644.159 1195.13 644.091 1195.53 643.955C1195.93 643.812 1196.27 643.602 1196.56 643.324C1196.85 643.045 1197.07 642.702 1197.23 642.293L1199.64 642.727C1199.44 643.437 1199.1 644.06 1198.6 644.594C1198.1 645.122 1197.48 645.534 1196.73 645.83C1195.99 646.119 1195.14 646.264 1194.18 646.264ZM1202.63 646V632.909H1205.09V634.989H1205.23C1205.47 634.284 1205.89 633.73 1206.49 633.327C1207.1 632.918 1207.78 632.713 1208.55 632.713C1208.71 632.713 1208.9 632.719 1209.11 632.73C1209.33 632.741 1209.51 632.756 1209.63 632.773V635.21C1209.53 635.182 1209.35 635.151 1209.09 635.116C1208.83 635.077 1208.56 635.057 1208.3 635.057C1207.7 635.057 1207.16 635.185 1206.69 635.44C1206.23 635.69 1205.86 636.04 1205.58 636.489C1205.31 636.932 1205.18 637.437 1205.18 638.006V646H1202.63ZM1211.84 646V632.909H1214.39V646H1211.84ZM1213.12 630.889C1212.68 630.889 1212.3 630.741 1211.98 630.446C1211.67 630.145 1211.51 629.787 1211.51 629.372C1211.51 628.952 1211.67 628.594 1211.98 628.298C1212.3 627.997 1212.68 627.847 1213.12 627.847C1213.57 627.847 1213.95 627.997 1214.26 628.298C1214.58 628.594 1214.74 628.952 1214.74 629.372C1214.74 629.787 1214.58 630.145 1214.26 630.446C1213.95 630.741 1213.57 630.889 1213.12 630.889ZM1223.46 646.264C1222.17 646.264 1221.06 645.989 1220.12 645.438C1219.2 644.881 1218.48 644.099 1217.98 643.094C1217.48 642.082 1217.23 640.898 1217.23 639.54C1217.23 638.199 1217.48 637.017 1217.98 635.994C1218.48 634.972 1219.19 634.173 1220.09 633.599C1221 633.026 1222.06 632.739 1223.28 632.739C1224.02 632.739 1224.73 632.861 1225.43 633.105C1226.12 633.349 1226.74 633.733 1227.29 634.256C1227.84 634.778 1228.28 635.457 1228.6 636.293C1228.91 637.122 1229.07 638.131 1229.07 639.318V640.222H1218.67V638.312H1226.58C1226.58 637.642 1226.44 637.048 1226.17 636.531C1225.89 636.009 1225.51 635.597 1225.02 635.295C1224.53 634.994 1223.95 634.844 1223.29 634.844C1222.58 634.844 1221.95 635.02 1221.42 635.372C1220.89 635.719 1220.48 636.173 1220.19 636.736C1219.91 637.293 1219.77 637.898 1219.77 638.551V640.043C1219.77 640.918 1219.92 641.662 1220.23 642.276C1220.54 642.889 1220.97 643.358 1221.53 643.682C1222.09 644 1222.74 644.159 1223.48 644.159C1223.97 644.159 1224.41 644.091 1224.8 643.955C1225.2 643.812 1225.54 643.602 1225.83 643.324C1226.12 643.045 1226.35 642.702 1226.5 642.293L1228.91 642.727C1228.72 643.437 1228.37 644.06 1227.87 644.594C1227.38 645.122 1226.75 645.534 1226 645.83C1225.26 646.119 1224.41 646.264 1223.46 646.264ZM1234.45 638.227V646H1231.9V632.909H1234.35V635.04H1234.51C1234.81 634.347 1235.28 633.79 1235.92 633.369C1236.57 632.949 1237.39 632.739 1238.37 632.739C1239.26 632.739 1240.04 632.926 1240.71 633.301C1241.38 633.67 1241.9 634.222 1242.27 634.955C1242.64 635.687 1242.83 636.594 1242.83 637.673V646H1240.28V637.98C1240.28 637.031 1240.03 636.29 1239.54 635.756C1239.04 635.216 1238.36 634.946 1237.5 634.946C1236.91 634.946 1236.38 635.074 1235.92 635.33C1235.47 635.585 1235.11 635.96 1234.84 636.455C1234.58 636.943 1234.45 637.534 1234.45 638.227ZM1251.76 646.264C1250.49 646.264 1249.4 645.977 1248.49 645.403C1247.58 644.824 1246.88 644.026 1246.39 643.009C1245.9 641.991 1245.66 640.827 1245.66 639.514C1245.66 638.185 1245.91 637.011 1246.41 635.994C1246.91 634.972 1247.61 634.173 1248.52 633.599C1249.43 633.026 1250.5 632.739 1251.73 632.739C1252.73 632.739 1253.61 632.923 1254.39 633.293C1255.17 633.656 1255.8 634.168 1256.28 634.827C1256.76 635.486 1257.05 636.256 1257.14 637.136H1254.66C1254.52 636.523 1254.21 635.994 1253.72 635.551C1253.24 635.108 1252.59 634.886 1251.78 634.886C1251.07 634.886 1250.44 635.074 1249.91 635.449C1249.38 635.818 1248.97 636.347 1248.67 637.034C1248.38 637.716 1248.23 638.523 1248.23 639.455C1248.23 640.409 1248.38 641.233 1248.66 641.926C1248.95 642.619 1249.36 643.156 1249.89 643.537C1250.43 643.918 1251.05 644.108 1251.78 644.108C1252.26 644.108 1252.7 644.02 1253.09 643.844C1253.49 643.662 1253.82 643.403 1254.09 643.068C1254.36 642.733 1254.55 642.33 1254.66 641.858H1257.14C1257.05 642.705 1256.77 643.46 1256.31 644.125C1255.85 644.79 1255.23 645.312 1254.46 645.693C1253.69 646.074 1252.79 646.264 1251.76 646.264ZM1265.5 646.264C1264.21 646.264 1263.1 645.989 1262.17 645.438C1261.25 644.881 1260.53 644.099 1260.02 643.094C1259.52 642.082 1259.27 640.898 1259.27 639.54C1259.27 638.199 1259.52 637.017 1260.02 635.994C1260.53 634.972 1261.23 634.173 1262.14 633.599C1263.05 633.026 1264.11 632.739 1265.32 632.739C1266.06 632.739 1266.78 632.861 1267.47 633.105C1268.17 633.349 1268.79 633.733 1269.34 634.256C1269.89 634.778 1270.32 635.457 1270.64 636.293C1270.96 637.122 1271.12 638.131 1271.12 639.318V640.222H1260.71V638.312H1268.62C1268.62 637.642 1268.49 637.048 1268.21 636.531C1267.94 636.009 1267.56 635.597 1267.06 635.295C1266.57 634.994 1266 634.844 1265.34 634.844C1264.63 634.844 1264 635.02 1263.47 635.372C1262.94 635.719 1262.53 636.173 1262.24 636.736C1261.96 637.293 1261.81 637.898 1261.81 638.551V640.043C1261.81 640.918 1261.97 641.662 1262.27 642.276C1262.59 642.889 1263.02 643.358 1263.58 643.682C1264.13 644 1264.78 644.159 1265.53 644.159C1266.01 644.159 1266.45 644.091 1266.85 643.955C1267.25 643.812 1267.59 643.602 1267.88 643.324C1268.17 643.045 1268.39 642.702 1268.55 642.293L1270.96 642.727C1270.76 643.437 1270.42 644.06 1269.92 644.594C1269.42 645.122 1268.8 645.534 1268.05 645.83C1267.31 646.119 1266.46 646.264 1265.5 646.264Z" fill="white"/>
<g clip-path="url(#clip1_398_2996)">
<path d="M309.769 444.736L310.963 452.135C311.014 452.428 311.014 452.733 310.963 453.025C310.696 455.059 309.921 462.077 301.866 468.738C295.144 474.294 285.577 474.764 277.7 471.039C276.734 470.582 275.781 470.048 274.866 469.438C273.24 468.344 271.919 466.832 271.017 465.09L267.383 457.526L309.743 444.749L309.769 444.736Z" fill="#046BAB" stroke="#231F20" stroke-width="0.25" stroke-miterlimit="10"/>
<path d="M292.672 462.437C301.421 459.008 306.148 450.187 303.23 442.734C300.313 435.282 290.855 432.019 282.107 435.448C273.358 438.877 268.631 447.698 271.548 455.151C274.466 462.604 283.923 465.866 292.672 462.437Z" fill="#BA2157" stroke="#231F20" stroke-miterlimit="10"/>
<path d="M278.477 466.132L280.065 470.836" stroke="#0C3078" stroke-linecap="round" stroke-linejoin="round"/>
<path d="M281.75 466.844L283.427 471.84" stroke="#0C3078" stroke-linecap="round" stroke-linejoin="round"/>
<path d="M284.828 467.226L286.531 472.146" stroke="#0C3078" stroke-linecap="round" stroke-linejoin="round"/>
<path d="M288.141 466.997L289.843 472.235" stroke="#0C3078" stroke-linecap="round" stroke-linejoin="round"/>
<path d="M291.586 466.425L293.441 471.802" stroke="#0C3078" stroke-linecap="round" stroke-linejoin="round"/>
<path d="M294.93 465.37L296.785 470.747" stroke="#0C3078" stroke-linecap="round" stroke-linejoin="round"/>
<path d="M298 464.009L300.122 468.738" stroke="#0C3078" stroke-linecap="round" stroke-linejoin="round"/>
<path d="M300.656 462.28L303.261 466.476" stroke="#0C3078" stroke-linecap="round" stroke-linejoin="round"/>
<path d="M302.945 460.475L305.652 463.984" stroke="#0C3078" stroke-linecap="round" stroke-linejoin="round"/>
<path d="M305.219 458.212L307.734 461.187" stroke="#0C3078" stroke-linecap="round" stroke-linejoin="round"/>
<path d="M306.961 455.784L308.93 458.136" stroke="#0C3078" stroke-linecap="round" stroke-linejoin="round"/>
<path d="M308.453 453.076L309.419 454.856" stroke="#0C3078" stroke-linecap="round" stroke-linejoin="round"/>
<path d="M294.748 465.993C306.28 461.473 312.51 449.844 308.664 440.018C304.817 430.192 292.35 425.89 280.818 430.41C269.286 434.93 263.056 446.559 266.902 456.385C270.749 466.211 283.216 470.513 294.748 465.993Z" fill="#0088C4" stroke="#231F20" stroke-width="0.25" stroke-miterlimit="10"/>
<path d="M293.282 461.222C302.05 457.785 306.787 448.942 303.862 441.47C300.937 433.997 291.457 430.725 282.689 434.162C273.921 437.598 269.184 446.442 272.109 453.914C275.034 461.387 284.514 464.658 293.282 461.222Z" fill="#046BAB" stroke="#231F20" stroke-width="0.25" stroke-miterlimit="10"/>
<path d="M301.36 437.477C301.36 437.477 292.975 427.803 279.113 436.003C279.113 436.003 266.839 443.147 272.9 455.542C272.9 455.542 270.981 428.604 301.36 437.477Z" fill="#0C3078"/>
<path opacity="0.13" d="M272.911 435.316L298.97 463.895C298.97 463.895 304.192 461.174 305.984 456.547L278.514 431.451C278.514 431.451 275.541 432.468 272.898 435.303L272.911 435.316Z" fill="#7F1C45"/>
<path d="M297.079 446.999L293.509 444.126L291.59 446.503C291.108 447.114 290.65 447.597 290.244 447.991C289.837 448.385 289.443 448.665 289.087 448.868C288.732 449.071 288.376 449.186 288.046 449.211C287.715 449.237 287.385 449.211 287.042 449.097L287.232 455.847L284.069 455.911L283.688 443.44L286.864 443.389L286.927 445.792C287.41 446.173 288.02 445.881 288.782 444.952L291.044 442.13L287.042 438.914L288.884 436.625L298.922 444.711L297.079 446.999Z" fill="#0088C4"/>
<path d="M288.887 436.624L287.047 438.911L297.083 446.994L298.923 444.706L288.887 436.624Z" fill="#0088C4"/>
<path d="M286.168 439.559L284.328 441.847L294.364 449.93L296.205 447.642L286.168 439.559Z" fill="#0088C4"/>
<path d="M373.856 454.5L379.739 464.264C379.967 464.658 380.145 465.077 380.26 465.509C381.035 468.535 383.906 478.871 376.333 492.83C370.006 504.462 356.767 510.564 343.553 509.763C341.927 509.661 340.288 509.458 338.636 509.102C335.714 508.479 333.007 507.106 330.746 505.148L321.344 496.529L373.856 454.5Z" fill="#046BAB" stroke="#231F20" stroke-width="0.25" stroke-miterlimit="10"/>
<path d="M359.766 489.114C370.158 479.325 371.83 464.212 363.499 455.357C355.169 446.502 339.991 447.26 329.598 457.048C319.206 466.837 317.534 481.951 325.865 490.805C334.196 499.66 349.374 498.903 359.766 489.114Z" fill="#BA2157" stroke="#231F20" stroke-miterlimit="10"/>
<path d="M337.164 503.318L342.208 509.395" stroke="#0C3078" stroke-linecap="round" stroke-linejoin="round"/>
<path d="M342.203 503.318L347.235 509.395" stroke="#0C3078" stroke-linecap="round" stroke-linejoin="round"/>
<path d="M347.234 502.53L352.583 508.962" stroke="#0C3078" stroke-linecap="round" stroke-linejoin="round"/>
<path d="M351.812 501.347L357.149 507.678" stroke="#0C3078" stroke-linecap="round" stroke-linejoin="round"/>
<path d="M356.359 499.135L361.861 505.911" stroke="#0C3078" stroke-linecap="round" stroke-linejoin="round"/>
<path d="M360.875 496.338L366.681 503.241" stroke="#0C3078" stroke-linecap="round" stroke-linejoin="round"/>
<path d="M364.969 492.88L370.775 499.796" stroke="#0C3078" stroke-linecap="round" stroke-linejoin="round"/>
<path d="M368.484 489.117L374.291 494.914" stroke="#0C3078" stroke-linecap="round" stroke-linejoin="round"/>
<path d="M371.203 485.062L377.365 489.791" stroke="#0C3078" stroke-linecap="round" stroke-linejoin="round"/>
<path d="M373.344 481.083L379.252 484.744" stroke="#0C3078" stroke-linecap="round" stroke-linejoin="round"/>
<path d="M375.219 476.443L380.53 479.405" stroke="#0C3078" stroke-linecap="round" stroke-linejoin="round"/>
<path d="M376.219 471.853L381.009 474.574" stroke="#0C3078" stroke-linecap="round" stroke-linejoin="round"/>
<path d="M376.719 466.997L380.734 469.183" stroke="#0C3078" stroke-linecap="round" stroke-linejoin="round"/>
<path d="M364.711 492.97C378.415 480.062 380.618 460.133 369.632 448.457C358.647 436.78 338.633 437.778 324.929 450.685C311.226 463.592 309.023 483.522 320.008 495.198C330.994 506.875 351.008 505.877 364.711 492.97Z" fill="#0088C4" stroke="#231F20" stroke-width="0.25" stroke-miterlimit="10"/>
<path d="M359.94 487.066C370.363 477.249 372.04 462.091 363.685 453.211C355.331 444.331 340.108 445.091 329.685 454.909C319.262 464.726 317.585 479.884 325.94 488.764C334.294 497.644 349.517 496.884 359.94 487.066Z" fill="#046BAB" stroke="#231F20" stroke-width="0.25" stroke-miterlimit="10"/>
<path d="M357.884 449.021C357.884 449.021 340.566 440.122 325.675 459.56C325.675 459.56 312.41 476.582 327.975 490.63C327.975 490.63 310.022 453.712 357.884 449.021Z" fill="#0C3078"/>
<path opacity="0.13" d="M316.528 462.09L369.46 487.63C369.46 487.63 375.292 480.816 375.203 473.29L322.259 453.458C322.259 453.458 318.65 456.572 316.516 462.077L316.528 462.09Z" fill="#082B71"/>
<path d="M357.24 464.874L350.582 462.84L349.235 467.276C348.892 468.408 348.536 469.361 348.18 470.124C347.825 470.887 347.444 471.523 347.037 472.018C346.63 472.514 346.211 472.857 345.754 473.086C345.296 473.315 344.813 473.455 344.28 473.506L348.371 482.926L343.937 484.82L336.352 467.442L340.799 465.573L342.247 468.916C343.136 469.171 343.848 468.433 344.381 466.679L345.982 461.416L338.524 459.14L339.833 454.869L358.574 460.577L357.265 464.848L357.24 464.874Z" fill="#0088C4"/>
<path d="M339.804 454.885L338.5 459.166L357.241 464.881L358.545 460.6L339.804 454.885Z" fill="#0088C4"/>
<path d="M337.632 460.534L336.328 464.815L355.069 470.53L356.373 466.249L337.632 460.534Z" fill="#0088C4"/>
<path d="M23.4392 362.687C37.733 361.263 73.8422 358.466 106.47 362.458C110.752 362.979 114.754 364.835 117.943 367.734L154.23 400.597L120.815 432.621L121.361 479.583H28.4198L28.585 436.244C28.585 436.244 2.62745 431.858 -21.043 442.41C-21.043 442.41 -22.0595 389.448 8.99296 367.912C13.2747 364.95 18.268 363.195 23.4519 362.674L23.4392 362.687Z" fill="#0088C4" stroke="#231F20" stroke-miterlimit="10"/>
<path d="M28.5715 436.244C28.5715 436.244 27.9235 415.789 33.2726 400.05" stroke="#231F20" stroke-linecap="round" stroke-linejoin="round"/>
<path d="M119.188 392.918L120.814 432.621" stroke="#231F20" stroke-miterlimit="10" stroke-linecap="round"/>
<path d="M94.2018 301.385L94.0875 338.545C94.0875 338.545 92.7915 352.339 81.5979 352.021V360.602C81.5979 360.602 52.6673 360.322 45.3108 361.034C45.3108 361.034 46.9371 345.741 47.801 336.32L37.9669 327.879C35.6799 325.921 34.0917 323.188 33.7741 320.188C33.4564 317.187 34.3967 313.475 39.4789 311.53C39.4789 311.53 45.6411 309.903 54.1792 321.052C54.1792 321.052 61.7136 312.992 63.1113 301.728L94.1891 301.36L94.2018 301.385Z" fill="#FBC4A5" stroke="#231F20" stroke-linecap="round" stroke-linejoin="round"/>
<path d="M81.6151 352.021C81.6151 352.021 74.9701 352.453 66.1016 347.914" stroke="#231F20" stroke-linecap="round" stroke-linejoin="round"/>
<path d="M94.206 301.385C94.206 301.385 92.2621 275.959 60.2567 278.667C60.2567 278.667 48.2499 280.32 40.8172 294.838C38.5175 299.326 37.4375 304.322 37.4375 309.356V312.56C37.4375 312.56 43.5997 307.767 54.1961 321.065C54.1961 321.065 62.2261 311.746 63.1282 301.741L94.206 301.372V301.385Z" fill="#231F20" stroke="#231F20" stroke-miterlimit="10"/>
<path d="M40.2451 297.291C50.9041 297.291 59.5449 288.862 59.5449 278.464C59.5449 268.065 50.9041 259.636 40.2451 259.636C29.5861 259.636 20.9453 268.065 20.9453 278.464C20.9453 288.862 29.5861 297.291 40.2451 297.291Z" fill="#231F20" stroke="#231F20" stroke-miterlimit="10"/>
<path d="M66.5781 314.263C66.5781 314.263 72.2575 308.631 78.7501 314.263" stroke="#231F20" stroke-width="2" stroke-linecap="round" stroke-linejoin="round"/>
<path d="M84.5312 314.263C84.5312 314.263 90.2106 308.631 96.7032 314.263" stroke="#231F20" stroke-width="2" stroke-linecap="round" stroke-linejoin="round"/>
<path d="M74.076 325.045C75.4131 324.954 76.396 323.392 76.2713 321.557C76.1466 319.722 74.9615 318.308 73.6243 318.399C72.2871 318.49 71.3042 320.051 71.429 321.886C71.5537 323.722 72.7388 325.136 74.076 325.045Z" fill="#231F20" stroke="#231F20" stroke-miterlimit="10"/>
<path d="M89.1072 325.042C90.4444 324.951 91.4273 323.389 91.3026 321.554C91.1778 319.718 89.9927 318.304 88.6556 318.395C87.3184 318.486 86.3355 320.048 86.4602 321.883C86.5849 323.718 87.77 325.133 89.1072 325.042Z" fill="#231F20" stroke="#231F20" stroke-miterlimit="10"/>
<path d="M279.959 430.383C278.968 428.375 277.418 426.684 275.461 425.616C272.234 423.849 266.707 421.751 259.427 422.514C257.927 422.667 256.441 423.01 254.992 423.442L235.311 429.608L188.949 429.392L151.175 403.318L121.812 431.553L158.824 456C158.824 456 168.506 463.361 178.835 461.416L218.388 455.631C219.823 455.415 221.284 455.326 222.733 455.339L230.623 455.428C232.275 455.441 233.914 455.606 235.527 455.911C237.865 456.369 243.036 457.132 254.205 458.072C254.84 458.123 255.882 458.25 256.504 458.365C264.928 459.776 266.351 460.373 271.268 461.2C271.268 461.2 273.149 461.734 275.232 461.543C277.1 461.378 278.815 460.246 279.425 458.479C279.883 457.132 279.705 455.441 277.164 454.055C277.164 454.055 270.239 449.834 256.225 445.563L263.467 434.045C263.467 434.045 267.546 436.181 272.424 436.804" fill="#FBC4A5"/>
<path d="M279.959 430.383C278.968 428.375 277.418 426.684 275.461 425.616C272.234 423.849 266.707 421.751 259.427 422.514C257.927 422.667 256.441 423.01 254.992 423.442L235.311 429.608L188.949 429.392L151.175 403.318L121.812 431.553L158.824 456C158.824 456 168.506 463.361 178.835 461.416L218.388 455.631C219.823 455.415 221.284 455.326 222.733 455.339L230.623 455.428C232.275 455.441 233.914 455.606 235.527 455.911C237.865 456.369 243.036 457.132 254.205 458.072C254.84 458.123 255.882 458.25 256.504 458.365C264.928 459.776 266.351 460.373 271.268 461.2C271.268 461.2 273.149 461.734 275.232 461.543C277.1 461.378 278.815 460.246 279.425 458.479C279.883 457.132 279.705 455.441 277.164 454.055C277.164 454.055 270.239 449.834 256.225 445.563L263.467 434.045C263.467 434.045 267.545 436.181 272.424 436.804" stroke="#231F20" stroke-linecap="round" stroke-linejoin="round"/>
<path d="M135.406 427.218L164.21 448.855C164.21 448.855 173.904 455.123 184.717 453.724L205.058 450.597" stroke="white" stroke-linecap="round" stroke-linejoin="round"/>
<path d="M106.289 395.626L108.017 453.928" stroke="#68D1FF" stroke-width="2" stroke-linecap="round" stroke-linejoin="round"/>
<path d="M244.828 471.141C244.828 471.141 282.03 480.015 275.105 519.4" stroke="#4D2968" stroke-width="3" stroke-linecap="round" stroke-linejoin="round"/>
<path d="M81.6215 324.751L85.6745 336.765C85.6745 336.765 85.7889 337.744 78.75 336.765" stroke="#231F20" stroke-width="0.75" stroke-linecap="round" stroke-linejoin="round"/>
<path d="M71.0703 337.096C71.0703 337.096 73.2557 343.783 81.6159 341.634" stroke="#231F20" stroke-width="0.75" stroke-linecap="round" stroke-linejoin="round"/>
<path d="M91.1607 297.063C91.1607 297.063 85.405 278.502 61.5312 279.646L91.1607 297.063Z" fill="#231F20"/>
<path d="M91.1607 297.063C91.1607 297.063 85.405 278.502 61.5312 279.646" stroke="#414042" stroke-linecap="round" stroke-linejoin="round"/>
<path d="M40.25 319.565C40.25 319.565 46.7426 321.726 49.9825 331.133L40.25 319.565Z" fill="#FBC4A5"/>
<path d="M40.25 319.565C40.25 319.565 46.7426 321.726 49.9825 331.133" stroke="#231F20" stroke-linecap="round" stroke-linejoin="round"/>
<path d="M47.2721 342.054C47.2721 342.054 52.5703 360.093 81.6152 360.602L45.3281 361.034L47.2721 342.054Z" fill="#D88C65" stroke="#231F20" stroke-linecap="round" stroke-linejoin="round"/>
<path d="M-20.1526 490.999L-9.00981 500.279C-8.56512 500.648 -8.18395 501.08 -7.86631 501.563C-5.66824 504.881 2.10757 516.107 -1.19588 536.054C-3.94028 552.695 -17.3193 565.56 -33.5443 570.124C-35.5391 570.684 -37.6101 571.129 -39.7319 571.383C-43.5055 571.853 -47.3298 571.332 -50.862 569.921L-65.7656 563.488L-20.1653 490.999H-20.1526Z" fill="#046BAB" stroke="#231F20" stroke-width="0.25" stroke-miterlimit="10"/>
<path d="M-15.0974 541.131C-4.00588 519.884 -9.67177 495 -27.7525 485.55C-45.8332 476.1 -69.4819 485.664 -80.5734 506.91C-91.6648 528.156 -85.999 553.041 -67.9183 562.49C-49.8376 571.94 -26.1888 562.377 -15.0974 541.131Z" fill="#0088C4" stroke="#0088C4" stroke-width="0.25" stroke-miterlimit="10"/>
<path d="M229.992 749.644C229.992 749.644 236.929 766.807 251.147 756.636C251.147 756.636 250.181 744.292 247.526 736.779C247.526 736.779 236.815 742.677 229.992 749.657V749.644Z" fill="#391F54" stroke="#231F20" stroke-miterlimit="10"/>
<path d="M114.217 727.562C114.217 727.562 95.5909 739.779 87.6754 724.218C87.6754 724.218 86.786 717.747 90.0005 713.285L96.3533 700.839C96.3533 700.839 109.999 716.209 114.217 727.574V727.562Z" fill="#1C112C" stroke="#231F20" stroke-miterlimit="10"/>
<path d="M121.167 463.348H239.214C239.214 463.348 275.946 464.569 285.996 493.427C290.723 506.992 287.534 522.069 278.271 533.053L114.217 727.574C114.217 727.574 95.616 681.261 40.2578 667.417L196.397 521.141L108.156 526.341L121.167 463.374V463.348Z" fill="#085093" stroke="#231F20" stroke-miterlimit="10"/>
<path d="M33.4102 479.012V504.769C33.4102 504.769 29.9543 548.692 81.2086 548.908L183.933 545.883L230.004 749.074C230.004 749.074 268.069 710.121 343.757 716.618L243.408 502.608C243.408 502.608 232.164 474.258 186.741 474.258L33.3594 475.554L33.4102 479.012Z" fill="#085093" stroke="#231F20" stroke-miterlimit="10"/>
<path d="M343.746 717.175C343.746 717.175 395.001 724.32 436.307 707.869C436.307 707.869 453.396 701.589 452.316 721.714C452.316 721.714 454.259 764.989 423.766 768.027C423.766 768.027 396.729 765.866 375.968 792.69C375.968 792.69 369.488 801.119 350.925 806.471C346.529 807.742 341.993 808.467 337.432 808.848C330.126 809.459 314.384 812.383 305.464 826.011C305.464 826.011 293.788 846.568 262.647 846.352C262.647 846.352 244.973 846.504 242.521 826.189C241.848 820.582 242.534 814.9 244.249 809.522C247.908 797.979 256.421 765.573 247.527 736.753C247.527 736.753 285.364 711.327 343.759 717.175H343.746Z" fill="#0088C4" stroke="#231F20" stroke-miterlimit="10"/>
<path d="M96.3389 700.839L89.9861 713.285C89.9861 713.285 82.7185 722.159 93.1625 737.948L119.831 784.694C119.831 784.694 131.076 802.873 115.944 805.467L98.6386 806.763C98.6386 806.763 76.5817 813.692 64.4733 779.71C64.4733 779.71 59.3911 764.022 43.2804 760.882C43.2804 760.882 28.6817 750.826 24.7938 733.079C24.7938 733.079 20.0419 713.285 3.81687 705.492C3.81687 705.492 -12.2938 695.322 -9.05387 680.714C-9.05387 680.714 -5.91561 664.912 40.2565 667.404C40.2565 667.404 73.6213 674.523 96.3516 700.826L96.3389 700.839Z" fill="#0088C4" stroke="#231F20" stroke-miterlimit="10"/>
<path d="M-5.16662 437.376V479.583C-5.16662 479.583 -6.99622 502.733 23.5988 503.597C23.5988 503.597 76.9114 503.597 93.4541 505.759L127.95 511.39C127.95 511.39 131.647 512.039 132.104 509.242C132.104 509.242 132.625 506.725 129.957 505.632L116.006 502.542L136.704 505.632C138.635 505.924 140.643 505.339 141.977 503.915C142.18 503.699 142.358 503.47 142.536 503.203C143.273 502.085 143.565 500.673 143.095 499.415C142.714 498.398 141.85 497.266 139.855 496.783L119.501 494.914L145.166 495.22C146.474 495.232 147.681 495.258 148.825 494.622C149.409 494.304 149.981 493.656 150.362 493.173C151.646 491.495 151.125 488.965 149.32 487.859C148.634 487.439 148.38 487.172 146.436 486.88L119.996 486.473L142.536 484.642C142.536 484.642 145.699 484.363 145.941 481.032C145.941 481.032 145.979 478.07 140.744 478.273L114.952 480.79L122.601 474.256C123.299 473.658 123.846 472.87 124.049 471.955C124.1 471.701 124.138 471.434 124.151 471.154C124.227 469.196 122.347 467.721 120.441 468.154C119.513 468.357 118.535 468.802 116.909 469.794L109.616 474.688C107.913 475.832 106.033 476.684 104.038 477.205C100.315 478.184 94.1021 479.456 89.0452 478.604L30.9426 470.328L28.6048 437.363C28.6048 437.363 26.0129 432.646 -5.12851 437.363L-5.16662 437.376Z" fill="#FBC4A5" stroke="#231F20" stroke-linecap="round" stroke-linejoin="round"/>
<path d="M2.19531 447.126V483.486C2.19531 483.486 3.49129 494.304 18.2043 495.169H37.4533" stroke="white" stroke-linecap="round" stroke-linejoin="round"/>
<path d="M161.789 490.363H194.658C194.658 490.363 218.443 490.834 234.452 525.031L305.769 687.757" stroke="#227BCD" stroke-width="3" stroke-linecap="round" stroke-linejoin="round"/>
<path d="M192.932 616.336L116.812 706.954" stroke="#227BCD" stroke-width="3" stroke-linecap="round" stroke-linejoin="round"/>
<path d="M95.7191 796.708C115.502 798.004 111.614 788.266 111.614 788.266C110.635 776.583 87.5494 739.575 87.5494 739.575C87.5494 739.575 76.9021 727.231 84.0427 706.954" stroke="#68D1FF" stroke-width="2" stroke-linecap="round" stroke-linejoin="round"/>
<path d="M341.102 723.239C341.102 723.239 381.518 734.923 427.804 718.917C427.804 718.917 446.837 710.298 444.245 732.138" stroke="#68D1FF" stroke-width="2" stroke-linecap="round" stroke-linejoin="round"/>
</g>
<path d="M986.454 189.716C986.454 189.716 950.179 190.194 934.072 217.546C929.973 224.508 927.962 232.126 927.962 239.797L927.809 337C927.809 337 908.828 332.536 894.062 320.915C886.19 314.714 881.804 306.246 881.804 297.442V270.869H829C829 270.869 830.322 253.933 848.038 238.787C854.837 232.994 864.356 229.681 874.354 229.663H881.344C881.344 229.663 885.807 153.772 985.937 152L986.416 189.698L986.454 189.716Z" fill="white"/>
<path d="M977.97 216.873C977.97 216.873 962.667 223.268 953.397 235.97C949.49 241.32 947.498 247.68 947.498 254.128V337L1015.22 247.662C1018.44 243.428 1019.44 238.025 1017.69 233.1C1017.63 232.923 1017.56 232.728 1017.48 232.533L977.95 284.404V216.873H977.97Z" fill="white"/>
<path d="M1032.27 230.036C1039.85 230.036 1046 224.349 1046 217.334C1046 210.319 1039.85 204.632 1032.27 204.632C1024.68 204.632 1018.54 210.319 1018.54 217.334C1018.54 224.349 1024.68 230.036 1032.27 230.036Z" fill="white"/>
</g>
<defs>
<linearGradient id="paint0_linear_398_2996" x1="939.5" y1="9.69589e-08" x2="950.202" y2="821.108" gradientUnits="userSpaceOnUse">
<stop offset="0.0001" stop-color="#0088C4"/>
<stop offset="1" stop-color="#09115C"/>
</linearGradient>
<clipPath id="clip0_398_2996">
<rect width="1920" height="905" fill="white"/>
</clipPath>
<clipPath id="clip1_398_2996">
<rect width="608" height="588" fill="white" transform="translate(-155 259)"/>
</clipPath>
</defs>
</svg>
