<svg width="1920" height="865" viewBox="0 0 1920 865" fill="none" xmlns="http://www.w3.org/2000/svg">
<g clip-path="url(#clip0_721_254)">
<rect width="1920" height="865" fill="white"/>
<rect y="-37" width="1921" height="821" fill="url(#paint0_linear_721_254)"/>
<path d="M885.944 407.792H873.224V414.272H885.704V421.664H873.224V434H865.544V400.4H885.944V407.792ZM893.842 407.888C891.49 407.888 889.522 405.92 889.522 403.568C889.522 401.216 891.49 399.248 893.842 399.248C896.194 399.248 898.162 401.216 898.162 403.568C898.162 405.92 896.194 407.888 893.842 407.888ZM890.242 434V410H897.442V434H890.242ZM916.774 409.328C921.622 409.328 925.75 412.784 925.75 419.264V434H918.55V420.32C918.55 417.344 916.678 415.952 914.374 415.952C911.734 415.952 909.91 417.488 909.91 420.896V434H902.71V410H909.91V412.256C911.206 410.48 913.606 409.328 916.774 409.328ZM945.538 410H953.506L944.626 434H936.466L927.586 410H935.554L940.546 425.216L945.538 410ZM971.652 410H978.852V434H971.652V431.744C970.356 433.52 967.956 434.672 964.788 434.672C959.94 434.672 955.812 431.216 955.812 424.736V410H963.012V423.68C963.012 426.656 964.884 428.048 967.188 428.048C969.828 428.048 971.652 426.512 971.652 423.104V410ZM990.564 424.88C991.476 427.376 993.684 428.24 996.324 428.24C998.292 428.24 999.972 427.472 1000.93 426.416L1006.69 429.728C1004.34 432.992 1000.79 434.672 996.228 434.672C988.02 434.672 982.932 429.152 982.932 422C982.932 414.848 988.116 409.328 995.7 409.328C1002.71 409.328 1007.89 414.752 1007.89 422C1007.89 423.008 1007.8 423.968 1007.6 424.88H990.564ZM990.42 419.504H1000.74C999.972 416.72 997.812 415.712 995.652 415.712C992.916 415.712 991.092 417.056 990.42 419.504Z" fill="white"/>
<path d="M819.602 478V460.545H830.068V462.42H821.716V468.318H829.284V470.193H821.716V478H819.602ZM833.415 478V464.909H835.426V478H833.415ZM834.438 462.727C834.046 462.727 833.708 462.594 833.424 462.327C833.145 462.06 833.006 461.739 833.006 461.364C833.006 460.989 833.145 460.668 833.424 460.401C833.708 460.134 834.046 460 834.438 460C834.83 460 835.165 460.134 835.444 460.401C835.728 460.668 835.87 460.989 835.87 461.364C835.87 461.739 835.728 462.06 835.444 462.327C835.165 462.594 834.83 462.727 834.438 462.727ZM841.122 470.125V478H839.11V464.909H841.054V466.955H841.224C841.531 466.29 841.997 465.756 842.622 465.352C843.247 464.943 844.054 464.739 845.042 464.739C845.929 464.739 846.704 464.92 847.369 465.284C848.034 465.642 848.551 466.188 848.92 466.92C849.289 467.648 849.474 468.568 849.474 469.682V478H847.463V469.818C847.463 468.79 847.196 467.989 846.662 467.415C846.127 466.835 845.395 466.545 844.463 466.545C843.821 466.545 843.247 466.685 842.741 466.963C842.241 467.241 841.846 467.648 841.556 468.182C841.267 468.716 841.122 469.364 841.122 470.125ZM857.002 478.307C856.172 478.307 855.419 478.151 854.743 477.838C854.067 477.52 853.53 477.062 853.132 476.466C852.735 475.864 852.536 475.136 852.536 474.284C852.536 473.534 852.684 472.926 852.979 472.46C853.275 471.989 853.669 471.619 854.164 471.352C854.658 471.085 855.203 470.886 855.8 470.756C856.402 470.619 857.007 470.511 857.615 470.432C858.411 470.33 859.056 470.253 859.55 470.202C860.05 470.145 860.414 470.051 860.641 469.92C860.874 469.79 860.99 469.562 860.99 469.239V469.17C860.99 468.33 860.76 467.676 860.3 467.21C859.846 466.744 859.155 466.511 858.229 466.511C857.269 466.511 856.516 466.722 855.971 467.142C855.425 467.562 855.042 468.011 854.82 468.489L852.911 467.807C853.252 467.011 853.706 466.392 854.275 465.949C854.848 465.5 855.473 465.187 856.15 465.011C856.831 464.83 857.502 464.739 858.161 464.739C858.581 464.739 859.064 464.79 859.61 464.892C860.161 464.989 860.692 465.19 861.203 465.497C861.721 465.804 862.15 466.267 862.49 466.886C862.831 467.506 863.002 468.335 863.002 469.375V478H860.99V476.227H860.888C860.752 476.511 860.525 476.815 860.206 477.139C859.888 477.463 859.465 477.739 858.936 477.966C858.408 478.193 857.763 478.307 857.002 478.307ZM857.309 476.5C858.104 476.5 858.775 476.344 859.32 476.031C859.871 475.719 860.286 475.315 860.564 474.821C860.848 474.327 860.99 473.807 860.99 473.261V471.42C860.905 471.523 860.718 471.616 860.428 471.702C860.144 471.781 859.814 471.852 859.439 471.915C859.07 471.972 858.709 472.023 858.357 472.068C858.01 472.108 857.729 472.142 857.513 472.17C856.99 472.239 856.502 472.349 856.047 472.503C855.598 472.651 855.235 472.875 854.956 473.176C854.684 473.472 854.547 473.875 854.547 474.386C854.547 475.085 854.806 475.614 855.323 475.972C855.846 476.324 856.507 476.5 857.309 476.5ZM868.684 470.125V478H866.673V464.909H868.616V466.955H868.787C869.093 466.29 869.559 465.756 870.184 465.352C870.809 464.943 871.616 464.739 872.605 464.739C873.491 464.739 874.267 464.92 874.931 465.284C875.596 465.642 876.113 466.188 876.483 466.92C876.852 467.648 877.037 468.568 877.037 469.682V478H875.025V469.818C875.025 468.79 874.758 467.989 874.224 467.415C873.69 466.835 872.957 466.545 872.025 466.545C871.383 466.545 870.809 466.685 870.304 466.963C869.804 467.241 869.409 467.648 869.119 468.182C868.829 468.716 868.684 469.364 868.684 470.125ZM886.03 478.273C884.803 478.273 883.746 477.983 882.86 477.403C881.973 476.824 881.292 476.026 880.814 475.009C880.337 473.991 880.098 472.83 880.098 471.523C880.098 470.193 880.343 469.02 880.831 468.003C881.326 466.98 882.013 466.182 882.894 465.608C883.78 465.028 884.814 464.739 885.996 464.739C886.917 464.739 887.746 464.909 888.485 465.25C889.223 465.591 889.828 466.068 890.3 466.682C890.772 467.295 891.064 468.011 891.178 468.83H889.167C889.013 468.233 888.672 467.705 888.144 467.244C887.621 466.778 886.917 466.545 886.03 466.545C885.246 466.545 884.559 466.75 883.968 467.159C883.382 467.562 882.925 468.134 882.596 468.872C882.272 469.605 882.11 470.466 882.11 471.455C882.11 472.466 882.269 473.347 882.587 474.097C882.911 474.847 883.365 475.429 883.951 475.844C884.542 476.259 885.235 476.466 886.03 476.466C886.553 476.466 887.027 476.375 887.453 476.193C887.88 476.011 888.24 475.75 888.536 475.409C888.831 475.068 889.042 474.659 889.167 474.182H891.178C891.064 474.955 890.783 475.651 890.334 476.27C889.891 476.884 889.303 477.372 888.57 477.736C887.843 478.094 886.996 478.273 886.03 478.273ZM899.607 478.273C898.346 478.273 897.257 477.994 896.343 477.438C895.434 476.875 894.732 476.091 894.238 475.085C893.749 474.074 893.505 472.898 893.505 471.557C893.505 470.216 893.749 469.034 894.238 468.011C894.732 466.983 895.419 466.182 896.3 465.608C897.186 465.028 898.221 464.739 899.402 464.739C900.084 464.739 900.757 464.852 901.422 465.08C902.087 465.307 902.692 465.676 903.238 466.188C903.783 466.693 904.218 467.364 904.542 468.199C904.865 469.034 905.027 470.062 905.027 471.284V472.136H894.936V470.398H902.982C902.982 469.659 902.834 469 902.539 468.42C902.249 467.841 901.834 467.384 901.294 467.048C900.76 466.713 900.13 466.545 899.402 466.545C898.601 466.545 897.908 466.744 897.323 467.142C896.743 467.534 896.297 468.045 895.985 468.676C895.672 469.307 895.516 469.983 895.516 470.705V471.864C895.516 472.852 895.686 473.69 896.027 474.378C896.374 475.06 896.854 475.58 897.468 475.938C898.081 476.29 898.794 476.466 899.607 476.466C900.135 476.466 900.613 476.392 901.039 476.244C901.471 476.091 901.843 475.864 902.155 475.562C902.468 475.256 902.709 474.875 902.88 474.42L904.823 474.966C904.618 475.625 904.275 476.205 903.792 476.705C903.309 477.199 902.712 477.585 902.002 477.864C901.292 478.136 900.493 478.273 899.607 478.273ZM920.53 464.909V466.614H913.746V464.909H920.53ZM915.723 461.773H917.735V474.25C917.735 474.818 917.817 475.244 917.982 475.528C918.152 475.807 918.368 475.994 918.63 476.091C918.897 476.182 919.178 476.227 919.473 476.227C919.695 476.227 919.877 476.216 920.019 476.193C920.161 476.165 920.275 476.142 920.36 476.125L920.769 477.932C920.632 477.983 920.442 478.034 920.198 478.085C919.953 478.142 919.644 478.17 919.269 478.17C918.701 478.17 918.144 478.048 917.598 477.804C917.059 477.56 916.61 477.188 916.252 476.688C915.9 476.188 915.723 475.557 915.723 474.795V461.773ZM923.556 478V464.909H925.499V466.886H925.635C925.874 466.239 926.306 465.713 926.931 465.31C927.556 464.906 928.26 464.705 929.044 464.705C929.192 464.705 929.377 464.707 929.598 464.713C929.82 464.719 929.988 464.727 930.101 464.739V466.784C930.033 466.767 929.877 466.741 929.632 466.707C929.394 466.668 929.141 466.648 928.874 466.648C928.238 466.648 927.669 466.781 927.169 467.048C926.675 467.31 926.283 467.673 925.993 468.139C925.709 468.599 925.567 469.125 925.567 469.716V478H923.556ZM936.338 478.307C935.508 478.307 934.755 478.151 934.079 477.838C933.403 477.52 932.866 477.062 932.468 476.466C932.071 475.864 931.872 475.136 931.872 474.284C931.872 473.534 932.02 472.926 932.315 472.46C932.61 471.989 933.005 471.619 933.5 471.352C933.994 471.085 934.539 470.886 935.136 470.756C935.738 470.619 936.343 470.511 936.951 470.432C937.747 470.33 938.392 470.253 938.886 470.202C939.386 470.145 939.75 470.051 939.977 469.92C940.21 469.79 940.326 469.562 940.326 469.239V469.17C940.326 468.33 940.096 467.676 939.636 467.21C939.181 466.744 938.491 466.511 937.565 466.511C936.605 466.511 935.852 466.722 935.306 467.142C934.761 467.562 934.377 468.011 934.156 468.489L932.247 467.807C932.588 467.011 933.042 466.392 933.61 465.949C934.184 465.5 934.809 465.187 935.485 465.011C936.167 464.83 936.838 464.739 937.497 464.739C937.917 464.739 938.4 464.79 938.946 464.892C939.497 464.989 940.028 465.19 940.539 465.497C941.056 465.804 941.485 466.267 941.826 466.886C942.167 467.506 942.338 468.335 942.338 469.375V478H940.326V476.227H940.224C940.088 476.511 939.86 476.815 939.542 477.139C939.224 477.463 938.801 477.739 938.272 477.966C937.744 478.193 937.099 478.307 936.338 478.307ZM936.645 476.5C937.44 476.5 938.11 476.344 938.656 476.031C939.207 475.719 939.622 475.315 939.9 474.821C940.184 474.327 940.326 473.807 940.326 473.261V471.42C940.241 471.523 940.054 471.616 939.764 471.702C939.48 471.781 939.15 471.852 938.775 471.915C938.406 471.972 938.045 472.023 937.693 472.068C937.346 472.108 937.065 472.142 936.849 472.17C936.326 472.239 935.838 472.349 935.383 472.503C934.934 472.651 934.571 472.875 934.292 473.176C934.02 473.472 933.883 473.875 933.883 474.386C933.883 475.085 934.142 475.614 934.659 475.972C935.181 476.324 935.843 476.5 936.645 476.5ZM951.327 478.273C950.1 478.273 949.043 477.983 948.157 477.403C947.27 476.824 946.588 476.026 946.111 475.009C945.634 473.991 945.395 472.83 945.395 471.523C945.395 470.193 945.64 469.02 946.128 468.003C946.623 466.98 947.31 466.182 948.191 465.608C949.077 465.028 950.111 464.739 951.293 464.739C952.213 464.739 953.043 464.909 953.782 465.25C954.52 465.591 955.125 466.068 955.597 466.682C956.069 467.295 956.361 468.011 956.475 468.83H954.463C954.31 468.233 953.969 467.705 953.441 467.244C952.918 466.778 952.213 466.545 951.327 466.545C950.543 466.545 949.855 466.75 949.265 467.159C948.679 467.562 948.222 468.134 947.892 468.872C947.569 469.605 947.407 470.466 947.407 471.455C947.407 472.466 947.566 473.347 947.884 474.097C948.208 474.847 948.662 475.429 949.248 475.844C949.838 476.259 950.532 476.466 951.327 476.466C951.85 476.466 952.324 476.375 952.75 476.193C953.176 476.011 953.537 475.75 953.833 475.409C954.128 475.068 954.338 474.659 954.463 474.182H956.475C956.361 474.955 956.08 475.651 955.631 476.27C955.188 476.884 954.6 477.372 953.867 477.736C953.14 478.094 952.293 478.273 951.327 478.273ZM961.29 473.227L961.256 470.739H961.665L967.392 464.909H969.881L963.779 471.08H963.608L961.29 473.227ZM959.415 478V460.545H961.426V478H959.415ZM967.733 478L962.62 471.523L964.051 470.125L970.29 478H967.733ZM972.47 478V464.909H974.481V478H972.47ZM973.493 462.727C973.1 462.727 972.762 462.594 972.478 462.327C972.2 462.06 972.061 461.739 972.061 461.364C972.061 460.989 972.2 460.668 972.478 460.401C972.762 460.134 973.1 460 973.493 460C973.885 460 974.22 460.134 974.498 460.401C974.782 460.668 974.924 460.989 974.924 461.364C974.924 461.739 974.782 462.06 974.498 462.327C974.22 462.594 973.885 462.727 973.493 462.727ZM980.176 470.125V478H978.165V464.909H980.108V466.955H980.279C980.586 466.29 981.051 465.756 981.676 465.352C982.301 464.943 983.108 464.739 984.097 464.739C984.983 464.739 985.759 464.92 986.424 465.284C987.088 465.642 987.605 466.188 987.975 466.92C988.344 467.648 988.529 468.568 988.529 469.682V478H986.517V469.818C986.517 468.79 986.25 467.989 985.716 467.415C985.182 466.835 984.449 466.545 983.517 466.545C982.875 466.545 982.301 466.685 981.796 466.963C981.296 467.241 980.901 467.648 980.611 468.182C980.321 468.716 980.176 469.364 980.176 470.125ZM997.488 483.182C996.517 483.182 995.681 483.057 994.983 482.807C994.284 482.562 993.701 482.239 993.235 481.835C992.775 481.438 992.409 481.011 992.136 480.557L993.738 479.432C993.92 479.67 994.15 479.943 994.429 480.25C994.707 480.562 995.088 480.832 995.571 481.06C996.059 481.293 996.699 481.409 997.488 481.409C998.545 481.409 999.417 481.153 1000.1 480.642C1000.79 480.131 1001.14 479.33 1001.14 478.239V475.58H1000.97C1000.82 475.818 1000.61 476.114 1000.33 476.466C1000.07 476.812 999.681 477.122 999.176 477.395C998.676 477.662 998 477.795 997.147 477.795C996.091 477.795 995.142 477.545 994.301 477.045C993.466 476.545 992.804 475.818 992.315 474.864C991.832 473.909 991.591 472.75 991.591 471.386C991.591 470.045 991.826 468.878 992.298 467.884C992.77 466.884 993.426 466.111 994.267 465.565C995.108 465.014 996.079 464.739 997.181 464.739C998.034 464.739 998.71 464.881 999.21 465.165C999.716 465.443 1000.1 465.761 1000.37 466.119C1000.64 466.472 1000.85 466.761 1001 466.989H1001.2V464.909H1003.15V478.375C1003.15 479.5 1002.89 480.415 1002.38 481.119C1001.87 481.83 1001.19 482.349 1000.33 482.679C999.483 483.014 998.534 483.182 997.488 483.182ZM997.42 475.989C998.227 475.989 998.909 475.804 999.466 475.435C1000.02 475.065 1000.45 474.534 1000.74 473.841C1001.03 473.148 1001.17 472.318 1001.17 471.352C1001.17 470.409 1001.03 469.577 1000.74 468.855C1000.46 468.134 1000.04 467.568 999.483 467.159C998.926 466.75 998.238 466.545 997.42 466.545C996.568 466.545 995.858 466.761 995.289 467.193C994.727 467.625 994.304 468.205 994.02 468.932C993.741 469.659 993.602 470.466 993.602 471.352C993.602 472.261 993.744 473.065 994.028 473.764C994.318 474.457 994.744 475.003 995.306 475.401C995.875 475.793 996.579 475.989 997.42 475.989ZM1017.43 478.307C1016.6 478.307 1015.85 478.151 1015.17 477.838C1014.5 477.52 1013.96 477.062 1013.56 476.466C1013.16 475.864 1012.97 475.136 1012.97 474.284C1012.97 473.534 1013.11 472.926 1013.41 472.46C1013.7 471.989 1014.1 471.619 1014.59 471.352C1015.09 471.085 1015.63 470.886 1016.23 470.756C1016.83 470.619 1017.44 470.511 1018.05 470.432C1018.84 470.33 1019.49 470.253 1019.98 470.202C1020.48 470.145 1020.84 470.051 1021.07 469.92C1021.3 469.79 1021.42 469.562 1021.42 469.239V469.17C1021.42 468.33 1021.19 467.676 1020.73 467.21C1020.28 466.744 1019.58 466.511 1018.66 466.511C1017.7 466.511 1016.95 466.722 1016.4 467.142C1015.85 467.562 1015.47 468.011 1015.25 468.489L1013.34 467.807C1013.68 467.011 1014.14 466.392 1014.7 465.949C1015.28 465.5 1015.9 465.187 1016.58 465.011C1017.26 464.83 1017.93 464.739 1018.59 464.739C1019.01 464.739 1019.49 464.79 1020.04 464.892C1020.59 464.989 1021.12 465.19 1021.63 465.497C1022.15 465.804 1022.58 466.267 1022.92 466.886C1023.26 467.506 1023.43 468.335 1023.43 469.375V478H1021.42V476.227H1021.32C1021.18 476.511 1020.95 476.815 1020.64 477.139C1020.32 477.463 1019.89 477.739 1019.37 477.966C1018.84 478.193 1018.19 478.307 1017.43 478.307ZM1017.74 476.5C1018.53 476.5 1019.2 476.344 1019.75 476.031C1020.3 475.719 1020.72 475.315 1020.99 474.821C1021.28 474.327 1021.42 473.807 1021.42 473.261V471.42C1021.33 471.523 1021.15 471.616 1020.86 471.702C1020.57 471.781 1020.24 471.852 1019.87 471.915C1019.5 471.972 1019.14 472.023 1018.79 472.068C1018.44 472.108 1018.16 472.142 1017.94 472.17C1017.42 472.239 1016.93 472.349 1016.48 472.503C1016.03 472.651 1015.66 472.875 1015.39 473.176C1015.11 473.472 1014.98 473.875 1014.98 474.386C1014.98 475.085 1015.24 475.614 1015.75 475.972C1016.28 476.324 1016.94 476.5 1017.74 476.5ZM1027.1 482.909V464.909H1029.05V466.989H1029.28C1029.43 466.761 1029.64 466.472 1029.9 466.119C1030.17 465.761 1030.55 465.443 1031.04 465.165C1031.54 464.881 1032.22 464.739 1033.07 464.739C1034.17 464.739 1035.14 465.014 1035.98 465.565C1036.82 466.116 1037.48 466.898 1037.95 467.909C1038.42 468.92 1038.66 470.114 1038.66 471.489C1038.66 472.875 1038.42 474.077 1037.95 475.094C1037.48 476.105 1036.83 476.889 1035.99 477.446C1035.16 477.997 1034.19 478.273 1033.1 478.273C1032.26 478.273 1031.59 478.134 1031.08 477.855C1030.58 477.571 1030.19 477.25 1029.92 476.892C1029.64 476.528 1029.43 476.227 1029.28 475.989H1029.11V482.909H1027.1ZM1029.08 471.455C1029.08 472.443 1029.22 473.315 1029.51 474.071C1029.8 474.821 1030.23 475.409 1030.78 475.835C1031.34 476.256 1032.02 476.466 1032.83 476.466C1033.67 476.466 1034.37 476.244 1034.94 475.801C1035.5 475.352 1035.93 474.75 1036.21 473.994C1036.5 473.233 1036.65 472.386 1036.65 471.455C1036.65 470.534 1036.51 469.705 1036.22 468.966C1035.94 468.222 1035.52 467.634 1034.95 467.202C1034.39 466.764 1033.68 466.545 1032.83 466.545C1032.01 466.545 1031.32 466.753 1030.77 467.168C1030.21 467.577 1029.79 468.151 1029.51 468.889C1029.22 469.622 1029.08 470.477 1029.08 471.455ZM1041.73 482.909V464.909H1043.67V466.989H1043.91C1044.06 466.761 1044.26 466.472 1044.52 466.119C1044.79 465.761 1045.17 465.443 1045.67 465.165C1046.17 464.881 1046.84 464.739 1047.69 464.739C1048.8 464.739 1049.77 465.014 1050.61 465.565C1051.45 466.116 1052.11 466.898 1052.58 467.909C1053.05 468.92 1053.28 470.114 1053.28 471.489C1053.28 472.875 1053.05 474.077 1052.58 475.094C1052.11 476.105 1051.45 476.889 1050.62 477.446C1049.78 477.997 1048.82 478.273 1047.73 478.273C1046.89 478.273 1046.21 478.134 1045.71 477.855C1045.2 477.571 1044.81 477.25 1044.54 476.892C1044.27 476.528 1044.06 476.227 1043.91 475.989H1043.74V482.909H1041.73ZM1043.7 471.455C1043.7 472.443 1043.85 473.315 1044.14 474.071C1044.43 474.821 1044.85 475.409 1045.41 475.835C1045.97 476.256 1046.65 476.466 1047.45 476.466C1048.3 476.466 1049 476.244 1049.56 475.801C1050.13 475.352 1050.55 474.75 1050.84 473.994C1051.13 473.233 1051.27 472.386 1051.27 471.455C1051.27 470.534 1051.13 469.705 1050.85 468.966C1050.57 468.222 1050.15 467.634 1049.58 467.202C1049.01 466.764 1048.31 466.545 1047.45 466.545C1046.64 466.545 1045.95 466.753 1045.39 467.168C1044.84 467.577 1044.42 468.151 1044.13 468.889C1043.85 469.622 1043.7 470.477 1043.7 471.455Z" fill="white"/>
<path d="M247.93 782.187H12.9896L-28 940H1940V781.396L1861.52 733.142H1692.56L1605.09 782.187L1224.18 786.142L1109.21 733.142H935.255L819.285 782.187H628.833L551.353 728H357.402L247.93 782.187Z" fill="white" stroke="white" stroke-width="3" stroke-dasharray="10 10"/>
<path d="M11 732H240.942L361.911 673H1114.72L1228.19 724.037H1592.6L1679.08 673H1985" stroke="white" stroke-width="3" stroke-dasharray="10 10"/>
<path d="M6 756.969H242.438L357.409 702H542.86L641.335 756.969H818.788L940.257 702H1113.21L1233.68 761L1594.59 756.969L1680.06 702.366H1855.02L1927 736.447" stroke="white" stroke-width="4" stroke-dasharray="10 10"/>
<path d="M2 810.553H252.435L364.906 761H537.361L621.339 810.553H820.787L949.254 761H1112.71L1248.68 846L1608.58 839.128L1706.56 773.66H1839.52L1927 829.723" stroke="#004A72" stroke-width="4" stroke-dasharray="10 10"/>
<path d="M640.142 606.545H642.784V618.026C642.784 619.247 642.497 620.33 641.923 621.273C641.349 622.21 640.543 622.949 639.503 623.489C638.463 624.023 637.244 624.29 635.847 624.29C634.455 624.29 633.239 624.023 632.199 623.489C631.159 622.949 630.352 622.21 629.778 621.273C629.205 620.33 628.918 619.247 628.918 618.026V606.545H631.551V617.812C631.551 618.602 631.724 619.304 632.071 619.918C632.423 620.531 632.92 621.014 633.562 621.366C634.205 621.713 634.966 621.886 635.847 621.886C636.733 621.886 637.497 621.713 638.139 621.366C638.787 621.014 639.281 620.531 639.622 619.918C639.969 619.304 640.142 618.602 640.142 617.812V606.545ZM656.218 614.105L653.908 614.514C653.812 614.219 653.658 613.937 653.448 613.67C653.244 613.403 652.965 613.185 652.613 613.014C652.261 612.844 651.82 612.759 651.292 612.759C650.57 612.759 649.968 612.92 649.485 613.244C649.002 613.562 648.761 613.974 648.761 614.48C648.761 614.918 648.923 615.27 649.246 615.537C649.57 615.804 650.093 616.023 650.815 616.193L652.894 616.67C654.099 616.949 654.996 617.378 655.587 617.957C656.178 618.537 656.474 619.29 656.474 620.216C656.474 621 656.246 621.699 655.792 622.312C655.343 622.92 654.715 623.398 653.908 623.744C653.107 624.091 652.178 624.264 651.121 624.264C649.656 624.264 648.46 623.952 647.533 623.327C646.607 622.696 646.039 621.801 645.829 620.642L648.292 620.267C648.445 620.909 648.761 621.395 649.238 621.724C649.715 622.048 650.337 622.21 651.104 622.21C651.94 622.21 652.607 622.037 653.107 621.69C653.607 621.338 653.857 620.909 653.857 620.403C653.857 619.994 653.704 619.651 653.397 619.372C653.096 619.094 652.633 618.884 652.008 618.741L649.792 618.256C648.57 617.977 647.667 617.534 647.082 616.926C646.502 616.318 646.212 615.548 646.212 614.616C646.212 613.844 646.428 613.168 646.86 612.588C647.292 612.009 647.888 611.557 648.65 611.233C649.411 610.903 650.283 610.739 651.266 610.739C652.681 610.739 653.795 611.045 654.607 611.659C655.42 612.267 655.957 613.082 656.218 614.105ZM664.918 624.264C663.628 624.264 662.517 623.989 661.585 623.438C660.659 622.881 659.943 622.099 659.438 621.094C658.938 620.082 658.688 618.898 658.688 617.54C658.688 616.199 658.938 615.017 659.438 613.994C659.943 612.972 660.648 612.173 661.551 611.599C662.46 611.026 663.523 610.739 664.739 610.739C665.477 610.739 666.193 610.861 666.886 611.105C667.58 611.349 668.202 611.733 668.753 612.256C669.304 612.778 669.739 613.457 670.057 614.293C670.375 615.122 670.534 616.131 670.534 617.318V618.222H660.128V616.312H668.037C668.037 615.642 667.901 615.048 667.628 614.531C667.355 614.009 666.972 613.597 666.477 613.295C665.989 612.994 665.415 612.844 664.756 612.844C664.04 612.844 663.415 613.02 662.881 613.372C662.352 613.719 661.943 614.173 661.653 614.736C661.369 615.293 661.227 615.898 661.227 616.551V618.043C661.227 618.918 661.381 619.662 661.688 620.276C662 620.889 662.435 621.358 662.991 621.682C663.548 622 664.199 622.159 664.943 622.159C665.426 622.159 665.866 622.091 666.264 621.955C666.662 621.812 667.006 621.602 667.295 621.324C667.585 621.045 667.807 620.702 667.96 620.293L670.372 620.727C670.179 621.437 669.832 622.06 669.332 622.594C668.838 623.122 668.216 623.534 667.466 623.83C666.722 624.119 665.872 624.264 664.918 624.264ZM673.362 624V610.909H675.825V612.989H675.961C676.2 612.284 676.62 611.73 677.222 611.327C677.83 610.918 678.518 610.713 679.285 610.713C679.444 610.713 679.631 610.719 679.847 610.73C680.069 610.741 680.242 610.756 680.367 610.773V613.21C680.265 613.182 680.083 613.151 679.822 613.116C679.56 613.077 679.299 613.057 679.038 613.057C678.435 613.057 677.898 613.185 677.427 613.44C676.961 613.69 676.592 614.04 676.319 614.489C676.046 614.932 675.91 615.437 675.91 616.006V624H673.362ZM691.762 606.545V624H689.129V606.545H691.762ZM697.941 616.227V624H695.393V610.909H697.839V613.04H698.001C698.302 612.347 698.773 611.79 699.415 611.369C700.063 610.949 700.879 610.739 701.862 610.739C702.754 610.739 703.535 610.926 704.205 611.301C704.876 611.67 705.396 612.222 705.765 612.955C706.134 613.687 706.319 614.594 706.319 615.673V624H703.771V615.98C703.771 615.031 703.523 614.29 703.029 613.756C702.535 613.216 701.856 612.946 700.992 612.946C700.401 612.946 699.876 613.074 699.415 613.33C698.961 613.585 698.6 613.96 698.333 614.455C698.072 614.943 697.941 615.534 697.941 616.227ZM715.847 610.909V612.955H708.697V610.909H715.847ZM710.614 607.773H713.163V620.156C713.163 620.651 713.237 621.023 713.384 621.273C713.532 621.517 713.722 621.685 713.955 621.776C714.194 621.861 714.452 621.903 714.731 621.903C714.935 621.903 715.114 621.889 715.268 621.861C715.421 621.832 715.54 621.81 715.626 621.793L716.086 623.898C715.938 623.955 715.728 624.011 715.455 624.068C715.183 624.131 714.842 624.165 714.433 624.17C713.762 624.182 713.137 624.062 712.558 623.812C711.978 623.562 711.509 623.176 711.151 622.653C710.793 622.131 710.614 621.474 710.614 620.685V607.773ZM724.168 624.264C722.878 624.264 721.767 623.989 720.835 623.438C719.909 622.881 719.193 622.099 718.688 621.094C718.188 620.082 717.938 618.898 717.938 617.54C717.938 616.199 718.188 615.017 718.688 613.994C719.193 612.972 719.898 612.173 720.801 611.599C721.71 611.026 722.773 610.739 723.989 610.739C724.727 610.739 725.443 610.861 726.136 611.105C726.83 611.349 727.452 611.733 728.003 612.256C728.554 612.778 728.989 613.457 729.307 614.293C729.625 615.122 729.784 616.131 729.784 617.318V618.222H719.378V616.312H727.287C727.287 615.642 727.151 615.048 726.878 614.531C726.605 614.009 726.222 613.597 725.727 613.295C725.239 612.994 724.665 612.844 724.006 612.844C723.29 612.844 722.665 613.02 722.131 613.372C721.602 613.719 721.193 614.173 720.903 614.736C720.619 615.293 720.477 615.898 720.477 616.551V618.043C720.477 618.918 720.631 619.662 720.938 620.276C721.25 620.889 721.685 621.358 722.241 621.682C722.798 622 723.449 622.159 724.193 622.159C724.676 622.159 725.116 622.091 725.514 621.955C725.912 621.812 726.256 621.602 726.545 621.324C726.835 621.045 727.057 620.702 727.21 620.293L729.622 620.727C729.429 621.437 729.082 622.06 728.582 622.594C728.088 623.122 727.466 623.534 726.716 623.83C725.972 624.119 725.122 624.264 724.168 624.264ZM732.612 624V610.909H735.075V612.989H735.211C735.45 612.284 735.87 611.73 736.472 611.327C737.08 610.918 737.768 610.713 738.535 610.713C738.694 610.713 738.881 610.719 739.097 610.73C739.319 610.741 739.492 610.756 739.617 610.773V613.21C739.515 613.182 739.333 613.151 739.072 613.116C738.81 613.077 738.549 613.057 738.288 613.057C737.685 613.057 737.148 613.185 736.677 613.44C736.211 613.69 735.842 614.04 735.569 614.489C735.296 614.932 735.16 615.437 735.16 616.006V624H732.612ZM748.826 610.909V612.955H741.428V610.909H748.826ZM743.457 624V609.392C743.457 608.574 743.636 607.895 743.994 607.355C744.352 606.81 744.826 606.403 745.417 606.136C746.008 605.864 746.65 605.727 747.343 605.727C747.854 605.727 748.292 605.77 748.656 605.855C749.019 605.935 749.289 606.009 749.465 606.077L748.869 608.139C748.749 608.105 748.596 608.065 748.408 608.02C748.221 607.969 747.994 607.943 747.727 607.943C747.107 607.943 746.664 608.097 746.397 608.403C746.136 608.71 746.005 609.153 746.005 609.733V624H743.457ZM754.866 624.29C754.037 624.29 753.287 624.136 752.616 623.83C751.946 623.517 751.415 623.065 751.023 622.474C750.636 621.884 750.443 621.159 750.443 620.301C750.443 619.562 750.585 618.955 750.869 618.477C751.153 618 751.537 617.622 752.02 617.344C752.503 617.065 753.043 616.855 753.639 616.713C754.236 616.571 754.844 616.463 755.463 616.389C756.247 616.298 756.884 616.224 757.372 616.168C757.861 616.105 758.216 616.006 758.438 615.869C758.659 615.733 758.77 615.511 758.77 615.205V615.145C758.77 614.401 758.56 613.824 758.139 613.415C757.724 613.006 757.105 612.801 756.281 612.801C755.423 612.801 754.747 612.991 754.253 613.372C753.764 613.747 753.426 614.165 753.239 614.625L750.844 614.08C751.128 613.284 751.543 612.642 752.088 612.153C752.639 611.659 753.273 611.301 753.989 611.08C754.705 610.852 755.457 610.739 756.247 610.739C756.77 610.739 757.324 610.801 757.909 610.926C758.5 611.045 759.051 611.267 759.562 611.591C760.08 611.915 760.503 612.378 760.832 612.98C761.162 613.577 761.327 614.352 761.327 615.307V624H758.838V622.21H758.736C758.571 622.54 758.324 622.864 757.994 623.182C757.665 623.5 757.241 623.764 756.724 623.974C756.207 624.185 755.588 624.29 754.866 624.29ZM755.42 622.244C756.125 622.244 756.727 622.105 757.227 621.827C757.733 621.548 758.116 621.185 758.378 620.736C758.645 620.281 758.778 619.795 758.778 619.278V617.591C758.688 617.682 758.511 617.767 758.25 617.847C757.994 617.92 757.702 617.986 757.372 618.043C757.043 618.094 756.722 618.142 756.409 618.188C756.097 618.227 755.835 618.261 755.625 618.29C755.131 618.352 754.679 618.457 754.27 618.605C753.866 618.753 753.543 618.966 753.298 619.244C753.06 619.517 752.94 619.881 752.94 620.335C752.94 620.966 753.173 621.443 753.639 621.767C754.105 622.085 754.699 622.244 755.42 622.244ZM770.235 624.264C768.968 624.264 767.877 623.977 766.962 623.403C766.053 622.824 765.354 622.026 764.866 621.009C764.377 619.991 764.133 618.827 764.133 617.514C764.133 616.185 764.383 615.011 764.883 613.994C765.383 612.972 766.087 612.173 766.996 611.599C767.906 611.026 768.977 610.739 770.21 610.739C771.204 610.739 772.09 610.923 772.869 611.293C773.647 611.656 774.275 612.168 774.752 612.827C775.235 613.486 775.522 614.256 775.613 615.136H773.133C772.996 614.523 772.684 613.994 772.195 613.551C771.712 613.108 771.065 612.886 770.252 612.886C769.542 612.886 768.92 613.074 768.386 613.449C767.857 613.818 767.445 614.347 767.15 615.034C766.854 615.716 766.707 616.523 766.707 617.455C766.707 618.409 766.852 619.233 767.141 619.926C767.431 620.619 767.84 621.156 768.369 621.537C768.903 621.918 769.531 622.108 770.252 622.108C770.735 622.108 771.173 622.02 771.565 621.844C771.962 621.662 772.295 621.403 772.562 621.068C772.835 620.733 773.025 620.33 773.133 619.858H775.613C775.522 620.705 775.246 621.46 774.786 622.125C774.326 622.79 773.71 623.312 772.937 623.693C772.17 624.074 771.269 624.264 770.235 624.264ZM783.98 624.264C782.69 624.264 781.58 623.989 780.648 623.438C779.722 622.881 779.006 622.099 778.5 621.094C778 620.082 777.75 618.898 777.75 617.54C777.75 616.199 778 615.017 778.5 613.994C779.006 612.972 779.71 612.173 780.614 611.599C781.523 611.026 782.585 610.739 783.801 610.739C784.54 610.739 785.256 610.861 785.949 611.105C786.642 611.349 787.264 611.733 787.815 612.256C788.366 612.778 788.801 613.457 789.119 614.293C789.438 615.122 789.597 616.131 789.597 617.318V618.222H779.19V616.312H787.099C787.099 615.642 786.963 615.048 786.69 614.531C786.418 614.009 786.034 613.597 785.54 613.295C785.051 612.994 784.477 612.844 783.818 612.844C783.102 612.844 782.477 613.02 781.943 613.372C781.415 613.719 781.006 614.173 780.716 614.736C780.432 615.293 780.29 615.898 780.29 616.551V618.043C780.29 618.918 780.443 619.662 780.75 620.276C781.062 620.889 781.497 621.358 782.054 621.682C782.611 622 783.261 622.159 784.006 622.159C784.489 622.159 784.929 622.091 785.327 621.955C785.724 621.812 786.068 621.602 786.358 621.324C786.648 621.045 786.869 620.702 787.023 620.293L789.435 620.727C789.241 621.437 788.895 622.06 788.395 622.594C787.901 623.122 787.278 623.534 786.528 623.83C785.784 624.119 784.935 624.264 783.98 624.264ZM821.367 600.92V629.625H819.083V600.92H821.367ZM862.892 606.545H865.534V618.026C865.534 619.247 865.247 620.33 864.673 621.273C864.099 622.21 863.293 622.949 862.253 623.489C861.213 624.023 859.994 624.29 858.597 624.29C857.205 624.29 855.989 624.023 854.949 623.489C853.909 622.949 853.102 622.21 852.528 621.273C851.955 620.33 851.668 619.247 851.668 618.026V606.545H854.301V617.812C854.301 618.602 854.474 619.304 854.821 619.918C855.173 620.531 855.67 621.014 856.312 621.366C856.955 621.713 857.716 621.886 858.597 621.886C859.483 621.886 860.247 621.713 860.889 621.366C861.537 621.014 862.031 620.531 862.372 619.918C862.719 619.304 862.892 618.602 862.892 617.812V606.545ZM878.968 614.105L876.658 614.514C876.562 614.219 876.408 613.937 876.198 613.67C875.994 613.403 875.715 613.185 875.363 613.014C875.011 612.844 874.57 612.759 874.042 612.759C873.32 612.759 872.718 612.92 872.235 613.244C871.752 613.562 871.511 613.974 871.511 614.48C871.511 614.918 871.673 615.27 871.996 615.537C872.32 615.804 872.843 616.023 873.565 616.193L875.644 616.67C876.849 616.949 877.746 617.378 878.337 617.957C878.928 618.537 879.224 619.29 879.224 620.216C879.224 621 878.996 621.699 878.542 622.312C878.093 622.92 877.465 623.398 876.658 623.744C875.857 624.091 874.928 624.264 873.871 624.264C872.406 624.264 871.21 623.952 870.283 623.327C869.357 622.696 868.789 621.801 868.579 620.642L871.042 620.267C871.195 620.909 871.511 621.395 871.988 621.724C872.465 622.048 873.087 622.21 873.854 622.21C874.69 622.21 875.357 622.037 875.857 621.69C876.357 621.338 876.607 620.909 876.607 620.403C876.607 619.994 876.454 619.651 876.147 619.372C875.846 619.094 875.383 618.884 874.758 618.741L872.542 618.256C871.32 617.977 870.417 617.534 869.832 616.926C869.252 616.318 868.962 615.548 868.962 614.616C868.962 613.844 869.178 613.168 869.61 612.588C870.042 612.009 870.638 611.557 871.4 611.233C872.161 610.903 873.033 610.739 874.016 610.739C875.431 610.739 876.545 611.045 877.357 611.659C878.17 612.267 878.707 613.082 878.968 614.105ZM887.668 624.264C886.378 624.264 885.267 623.989 884.335 623.438C883.409 622.881 882.693 622.099 882.188 621.094C881.688 620.082 881.438 618.898 881.438 617.54C881.438 616.199 881.688 615.017 882.188 613.994C882.693 612.972 883.398 612.173 884.301 611.599C885.21 611.026 886.273 610.739 887.489 610.739C888.227 610.739 888.943 610.861 889.636 611.105C890.33 611.349 890.952 611.733 891.503 612.256C892.054 612.778 892.489 613.457 892.807 614.293C893.125 615.122 893.284 616.131 893.284 617.318V618.222H882.878V616.312H890.787C890.787 615.642 890.651 615.048 890.378 614.531C890.105 614.009 889.722 613.597 889.227 613.295C888.739 612.994 888.165 612.844 887.506 612.844C886.79 612.844 886.165 613.02 885.631 613.372C885.102 613.719 884.693 614.173 884.403 614.736C884.119 615.293 883.977 615.898 883.977 616.551V618.043C883.977 618.918 884.131 619.662 884.438 620.276C884.75 620.889 885.185 621.358 885.741 621.682C886.298 622 886.949 622.159 887.693 622.159C888.176 622.159 888.616 622.091 889.014 621.955C889.412 621.812 889.756 621.602 890.045 621.324C890.335 621.045 890.557 620.702 890.71 620.293L893.122 620.727C892.929 621.437 892.582 622.06 892.082 622.594C891.588 623.122 890.966 623.534 890.216 623.83C889.472 624.119 888.622 624.264 887.668 624.264ZM896.112 624V610.909H898.575V612.989H898.711C898.95 612.284 899.37 611.73 899.972 611.327C900.58 610.918 901.268 610.713 902.035 610.713C902.194 610.713 902.381 610.719 902.597 610.73C902.819 610.741 902.992 610.756 903.117 610.773V613.21C903.015 613.182 902.833 613.151 902.572 613.116C902.31 613.077 902.049 613.057 901.788 613.057C901.185 613.057 900.648 613.185 900.177 613.44C899.711 613.69 899.342 614.04 899.069 614.489C898.796 614.932 898.66 615.437 898.66 616.006V624H896.112ZM911.879 624V606.545H918.1C919.452 606.545 920.575 606.778 921.467 607.244C922.364 607.71 923.035 608.355 923.478 609.179C923.921 609.997 924.143 610.943 924.143 612.017C924.143 613.085 923.918 614.026 923.469 614.838C923.026 615.645 922.356 616.273 921.458 616.722C920.566 617.17 919.444 617.395 918.092 617.395H913.379V615.128H917.853C918.705 615.128 919.398 615.006 919.933 614.761C920.472 614.517 920.867 614.162 921.117 613.696C921.367 613.23 921.492 612.67 921.492 612.017C921.492 611.358 921.364 610.787 921.109 610.304C920.859 609.821 920.464 609.452 919.924 609.196C919.39 608.935 918.688 608.804 917.819 608.804H914.512V624H911.879ZM920.495 616.125L924.808 624H921.808L917.58 616.125H920.495ZM932.621 624.264C931.331 624.264 930.22 623.989 929.288 623.438C928.362 622.881 927.646 622.099 927.141 621.094C926.641 620.082 926.391 618.898 926.391 617.54C926.391 616.199 926.641 615.017 927.141 613.994C927.646 612.972 928.351 612.173 929.254 611.599C930.163 611.026 931.226 610.739 932.442 610.739C933.18 610.739 933.896 610.861 934.589 611.105C935.283 611.349 935.905 611.733 936.456 612.256C937.007 612.778 937.442 613.457 937.76 614.293C938.078 615.122 938.237 616.131 938.237 617.318V618.222H927.831V616.312H935.74C935.74 615.642 935.604 615.048 935.331 614.531C935.058 614.009 934.675 613.597 934.18 613.295C933.692 612.994 933.118 612.844 932.459 612.844C931.743 612.844 931.118 613.02 930.584 613.372C930.055 613.719 929.646 614.173 929.357 614.736C929.072 615.293 928.93 615.898 928.93 616.551V618.043C928.93 618.918 929.084 619.662 929.391 620.276C929.703 620.889 930.138 621.358 930.695 621.682C931.251 622 931.902 622.159 932.646 622.159C933.129 622.159 933.57 622.091 933.967 621.955C934.365 621.812 934.709 621.602 934.999 621.324C935.288 621.045 935.51 620.702 935.663 620.293L938.075 620.727C937.882 621.437 937.536 622.06 937.036 622.594C936.541 623.122 935.919 623.534 935.169 623.83C934.425 624.119 933.575 624.264 932.621 624.264ZM950.874 614.105L948.565 614.514C948.468 614.219 948.315 613.937 948.104 613.67C947.9 613.403 947.621 613.185 947.269 613.014C946.917 612.844 946.477 612.759 945.948 612.759C945.227 612.759 944.624 612.92 944.141 613.244C943.658 613.562 943.417 613.974 943.417 614.48C943.417 614.918 943.579 615.27 943.903 615.537C944.227 615.804 944.749 616.023 945.471 616.193L947.55 616.67C948.755 616.949 949.653 617.378 950.244 617.957C950.835 618.537 951.13 619.29 951.13 620.216C951.13 621 950.903 621.699 950.448 622.312C949.999 622.92 949.371 623.398 948.565 623.744C947.763 624.091 946.835 624.264 945.778 624.264C944.312 624.264 943.116 623.952 942.19 623.327C941.263 622.696 940.695 621.801 940.485 620.642L942.948 620.267C943.102 620.909 943.417 621.395 943.894 621.724C944.371 622.048 944.994 622.21 945.761 622.21C946.596 622.21 947.263 622.037 947.763 621.69C948.263 621.338 948.513 620.909 948.513 620.403C948.513 619.994 948.36 619.651 948.053 619.372C947.752 619.094 947.289 618.884 946.664 618.741L944.448 618.256C943.227 617.977 942.323 617.534 941.738 616.926C941.158 616.318 940.869 615.548 940.869 614.616C940.869 613.844 941.085 613.168 941.516 612.588C941.948 612.009 942.545 611.557 943.306 611.233C944.067 610.903 944.94 610.739 945.923 610.739C947.337 610.739 948.451 611.045 949.263 611.659C950.076 612.267 950.613 613.082 950.874 614.105ZM959.574 624.264C958.284 624.264 957.173 623.989 956.241 623.438C955.315 622.881 954.599 622.099 954.094 621.094C953.594 620.082 953.344 618.898 953.344 617.54C953.344 616.199 953.594 615.017 954.094 613.994C954.599 612.972 955.304 612.173 956.207 611.599C957.116 611.026 958.179 610.739 959.395 610.739C960.134 610.739 960.849 610.861 961.543 611.105C962.236 611.349 962.858 611.733 963.409 612.256C963.96 612.778 964.395 613.457 964.713 614.293C965.031 615.122 965.19 616.131 965.19 617.318V618.222H954.784V616.312H962.693C962.693 615.642 962.557 615.048 962.284 614.531C962.011 614.009 961.628 613.597 961.134 613.295C960.645 612.994 960.071 612.844 959.412 612.844C958.696 612.844 958.071 613.02 957.537 613.372C957.009 613.719 956.599 614.173 956.31 614.736C956.026 615.293 955.884 615.898 955.884 616.551V618.043C955.884 618.918 956.037 619.662 956.344 620.276C956.656 620.889 957.091 621.358 957.648 621.682C958.205 622 958.855 622.159 959.599 622.159C960.082 622.159 960.523 622.091 960.92 621.955C961.318 621.812 961.662 621.602 961.952 621.324C962.241 621.045 962.463 620.702 962.616 620.293L965.028 620.727C964.835 621.437 964.489 622.06 963.989 622.594C963.494 623.122 962.872 623.534 962.122 623.83C961.378 624.119 960.528 624.264 959.574 624.264ZM971.827 624.29C970.998 624.29 970.248 624.136 969.577 623.83C968.907 623.517 968.376 623.065 967.984 622.474C967.597 621.884 967.404 621.159 967.404 620.301C967.404 619.562 967.546 618.955 967.83 618.477C968.114 618 968.498 617.622 968.981 617.344C969.464 617.065 970.004 616.855 970.6 616.713C971.197 616.571 971.805 616.463 972.424 616.389C973.208 616.298 973.844 616.224 974.333 616.168C974.822 616.105 975.177 616.006 975.398 615.869C975.62 615.733 975.731 615.511 975.731 615.205V615.145C975.731 614.401 975.521 613.824 975.1 613.415C974.685 613.006 974.066 612.801 973.242 612.801C972.384 612.801 971.708 612.991 971.214 613.372C970.725 613.747 970.387 614.165 970.2 614.625L967.805 614.08C968.089 613.284 968.504 612.642 969.049 612.153C969.6 611.659 970.234 611.301 970.95 611.08C971.665 610.852 972.418 610.739 973.208 610.739C973.731 610.739 974.285 610.801 974.87 610.926C975.461 611.045 976.012 611.267 976.523 611.591C977.04 611.915 977.464 612.378 977.793 612.98C978.123 613.577 978.288 614.352 978.288 615.307V624H975.799V622.21H975.697C975.532 622.54 975.285 622.864 974.955 623.182C974.626 623.5 974.202 623.764 973.685 623.974C973.168 624.185 972.549 624.29 971.827 624.29ZM972.381 622.244C973.086 622.244 973.688 622.105 974.188 621.827C974.694 621.548 975.077 621.185 975.339 620.736C975.606 620.281 975.739 619.795 975.739 619.278V617.591C975.648 617.682 975.472 617.767 975.211 617.847C974.955 617.92 974.663 617.986 974.333 618.043C974.004 618.094 973.683 618.142 973.37 618.188C973.058 618.227 972.796 618.261 972.586 618.29C972.092 618.352 971.64 618.457 971.231 618.605C970.827 618.753 970.504 618.966 970.259 619.244C970.021 619.517 969.901 619.881 969.901 620.335C969.901 620.966 970.134 621.443 970.6 621.767C971.066 622.085 971.66 622.244 972.381 622.244ZM981.682 624V610.909H984.145V612.989H984.281C984.52 612.284 984.94 611.73 985.543 611.327C986.151 610.918 986.838 610.713 987.605 610.713C987.764 610.713 987.952 610.719 988.168 610.73C988.389 610.741 988.562 610.756 988.688 610.773V613.21C988.585 613.182 988.403 613.151 988.142 613.116C987.881 613.077 987.619 613.057 987.358 613.057C986.756 613.057 986.219 613.185 985.747 613.44C985.281 613.69 984.912 614.04 984.639 614.489C984.366 614.932 984.23 615.437 984.23 616.006V624H981.682ZM995.938 624.264C994.671 624.264 993.58 623.977 992.665 623.403C991.756 622.824 991.058 622.026 990.569 621.009C990.08 619.991 989.836 618.827 989.836 617.514C989.836 616.185 990.086 615.011 990.586 613.994C991.086 612.972 991.79 612.173 992.7 611.599C993.609 611.026 994.68 610.739 995.913 610.739C996.907 610.739 997.793 610.923 998.572 611.293C999.35 611.656 999.978 612.168 1000.46 612.827C1000.94 613.486 1001.23 614.256 1001.32 615.136H998.836C998.7 614.523 998.387 613.994 997.898 613.551C997.415 613.108 996.768 612.886 995.955 612.886C995.245 612.886 994.623 613.074 994.089 613.449C993.56 613.818 993.148 614.347 992.853 615.034C992.558 615.716 992.41 616.523 992.41 617.455C992.41 618.409 992.555 619.233 992.844 619.926C993.134 620.619 993.543 621.156 994.072 621.537C994.606 621.918 995.234 622.108 995.955 622.108C996.438 622.108 996.876 622.02 997.268 621.844C997.665 621.662 997.998 621.403 998.265 621.068C998.538 620.733 998.728 620.33 998.836 619.858H1001.32C1001.23 620.705 1000.95 621.46 1000.49 622.125C1000.03 622.79 999.413 623.312 998.64 623.693C997.873 624.074 996.972 624.264 995.938 624.264ZM1006.59 616.227V624H1004.04V606.545H1006.56V613.04H1006.72C1007.02 612.335 1007.49 611.776 1008.12 611.361C1008.75 610.946 1009.58 610.739 1010.6 610.739C1011.49 610.739 1012.28 610.923 1012.95 611.293C1013.62 611.662 1014.15 612.213 1014.52 612.946C1014.89 613.673 1015.08 614.582 1015.08 615.673V624H1012.53V615.98C1012.53 615.02 1012.28 614.276 1011.79 613.747C1011.29 613.213 1010.61 612.946 1009.73 612.946C1009.12 612.946 1008.58 613.074 1008.11 613.33C1007.63 613.585 1007.26 613.96 1006.99 614.455C1006.72 614.943 1006.59 615.534 1006.59 616.227ZM1047.42 600.92V629.625H1045.14V600.92H1047.42ZM1088.95 606.545H1091.59V618.026C1091.59 619.247 1091.3 620.33 1090.73 621.273C1090.15 622.21 1089.35 622.949 1088.31 623.489C1087.27 624.023 1086.05 624.29 1084.65 624.29C1083.26 624.29 1082.04 624.023 1081 623.489C1079.96 622.949 1079.16 622.21 1078.58 621.273C1078.01 620.33 1077.72 619.247 1077.72 618.026V606.545H1080.36V617.812C1080.36 618.602 1080.53 619.304 1080.88 619.918C1081.23 620.531 1081.73 621.014 1082.37 621.366C1083.01 621.713 1083.77 621.886 1084.65 621.886C1085.54 621.886 1086.3 621.713 1086.94 621.366C1087.59 621.014 1088.09 620.531 1088.43 619.918C1088.77 619.304 1088.95 618.602 1088.95 617.812V606.545ZM1105.02 614.105L1102.71 614.514C1102.62 614.219 1102.46 613.937 1102.25 613.67C1102.05 613.403 1101.77 613.185 1101.42 613.014C1101.07 612.844 1100.63 612.759 1100.1 612.759C1099.38 612.759 1098.77 612.92 1098.29 613.244C1097.81 613.562 1097.57 613.974 1097.57 614.48C1097.57 614.918 1097.73 615.27 1098.05 615.537C1098.38 615.804 1098.9 616.023 1099.62 616.193L1101.7 616.67C1102.9 616.949 1103.8 617.378 1104.39 617.957C1104.98 618.537 1105.28 619.29 1105.28 620.216C1105.28 621 1105.05 621.699 1104.6 622.312C1104.15 622.92 1103.52 623.398 1102.71 623.744C1101.91 624.091 1100.98 624.264 1099.93 624.264C1098.46 624.264 1097.26 623.952 1096.34 623.327C1095.41 622.696 1094.84 621.801 1094.63 620.642L1097.1 620.267C1097.25 620.909 1097.57 621.395 1098.04 621.724C1098.52 622.048 1099.14 622.21 1099.91 622.21C1100.74 622.21 1101.41 622.037 1101.91 621.69C1102.41 621.338 1102.66 620.909 1102.66 620.403C1102.66 619.994 1102.51 619.651 1102.2 619.372C1101.9 619.094 1101.44 618.884 1100.81 618.741L1098.6 618.256C1097.38 617.977 1096.47 617.534 1095.89 616.926C1095.31 616.318 1095.02 615.548 1095.02 614.616C1095.02 613.844 1095.23 613.168 1095.66 612.588C1096.1 612.009 1096.69 611.557 1097.45 611.233C1098.22 610.903 1099.09 610.739 1100.07 610.739C1101.49 610.739 1102.6 611.045 1103.41 611.659C1104.22 612.267 1104.76 613.082 1105.02 614.105ZM1113.72 624.264C1112.43 624.264 1111.32 623.989 1110.39 623.438C1109.46 622.881 1108.75 622.099 1108.24 621.094C1107.74 620.082 1107.49 618.898 1107.49 617.54C1107.49 616.199 1107.74 615.017 1108.24 613.994C1108.75 612.972 1109.45 612.173 1110.36 611.599C1111.26 611.026 1112.33 610.739 1113.54 610.739C1114.28 610.739 1115 610.861 1115.69 611.105C1116.38 611.349 1117.01 611.733 1117.56 612.256C1118.11 612.778 1118.54 613.457 1118.86 614.293C1119.18 615.122 1119.34 616.131 1119.34 617.318V618.222H1108.93V616.312H1116.84C1116.84 615.642 1116.71 615.048 1116.43 614.531C1116.16 614.009 1115.78 613.597 1115.28 613.295C1114.79 612.994 1114.22 612.844 1113.56 612.844C1112.84 612.844 1112.22 613.02 1111.69 613.372C1111.16 613.719 1110.75 614.173 1110.46 614.736C1110.17 615.293 1110.03 615.898 1110.03 616.551V618.043C1110.03 618.918 1110.19 619.662 1110.49 620.276C1110.8 620.889 1111.24 621.358 1111.8 621.682C1112.35 622 1113 622.159 1113.75 622.159C1114.23 622.159 1114.67 622.091 1115.07 621.955C1115.47 621.812 1115.81 621.602 1116.1 621.324C1116.39 621.045 1116.61 620.702 1116.76 620.293L1119.18 620.727C1118.98 621.437 1118.64 622.06 1118.14 622.594C1117.64 623.122 1117.02 623.534 1116.27 623.83C1115.53 624.119 1114.68 624.264 1113.72 624.264ZM1122.17 624V610.909H1124.63V612.989H1124.77C1125 612.284 1125.42 611.73 1126.03 611.327C1126.63 610.918 1127.32 610.713 1128.09 610.713C1128.25 610.713 1128.44 610.719 1128.65 610.73C1128.87 610.741 1129.05 610.756 1129.17 610.773V613.21C1129.07 613.182 1128.89 613.151 1128.63 613.116C1128.37 613.077 1128.1 613.057 1127.84 613.057C1127.24 613.057 1126.7 613.185 1126.23 613.44C1125.77 613.69 1125.4 614.04 1125.12 614.489C1124.85 614.932 1124.71 615.437 1124.71 616.006V624H1122.17ZM1143.37 624.264C1142.08 624.264 1140.97 623.989 1140.04 623.438C1139.11 622.881 1138.4 622.099 1137.89 621.094C1137.39 620.082 1137.14 618.898 1137.14 617.54C1137.14 616.199 1137.39 615.017 1137.89 613.994C1138.4 612.972 1139.1 612.173 1140 611.599C1140.91 611.026 1141.98 610.739 1143.19 610.739C1143.93 610.739 1144.65 610.861 1145.34 611.105C1146.03 611.349 1146.65 611.733 1147.21 612.256C1147.76 612.778 1148.19 613.457 1148.51 614.293C1148.83 615.122 1148.99 616.131 1148.99 617.318V618.222H1138.58V616.312H1146.49C1146.49 615.642 1146.35 615.048 1146.08 614.531C1145.81 614.009 1145.42 613.597 1144.93 613.295C1144.44 612.994 1143.87 612.844 1143.21 612.844C1142.49 612.844 1141.87 613.02 1141.33 613.372C1140.81 613.719 1140.4 614.173 1140.11 614.736C1139.82 615.293 1139.68 615.898 1139.68 616.551V618.043C1139.68 618.918 1139.83 619.662 1140.14 620.276C1140.45 620.889 1140.89 621.358 1141.44 621.682C1142 622 1142.65 622.159 1143.4 622.159C1143.88 622.159 1144.32 622.091 1144.72 621.955C1145.12 621.812 1145.46 621.602 1145.75 621.324C1146.04 621.045 1146.26 620.702 1146.41 620.293L1148.83 620.727C1148.63 621.437 1148.29 622.06 1147.79 622.594C1147.29 623.122 1146.67 623.534 1145.92 623.83C1145.17 624.119 1144.33 624.264 1143.37 624.264ZM1153.52 610.909L1156.41 616.006L1159.33 610.909H1162.11L1158.03 617.455L1162.15 624H1159.36L1156.41 619.108L1153.47 624H1150.67L1154.75 617.455L1150.73 610.909H1153.52ZM1164.73 628.909V610.909H1167.22V613.031H1167.43C1167.58 612.759 1167.79 612.443 1168.07 612.085C1168.35 611.727 1168.73 611.415 1169.23 611.148C1169.72 610.875 1170.38 610.739 1171.19 610.739C1172.25 610.739 1173.19 611.006 1174.02 611.54C1174.85 612.074 1175.5 612.844 1175.97 613.849C1176.45 614.855 1176.69 616.065 1176.69 617.48C1176.69 618.895 1176.45 620.108 1175.98 621.119C1175.51 622.125 1174.86 622.901 1174.04 623.446C1173.21 623.986 1172.27 624.256 1171.21 624.256C1170.42 624.256 1169.77 624.122 1169.26 623.855C1168.76 623.588 1168.37 623.276 1168.09 622.918C1167.8 622.56 1167.58 622.241 1167.43 621.963H1167.28V628.909H1164.73ZM1167.23 617.455C1167.23 618.375 1167.36 619.182 1167.63 619.875C1167.89 620.568 1168.28 621.111 1168.79 621.503C1169.29 621.889 1169.91 622.082 1170.64 622.082C1171.4 622.082 1172.04 621.881 1172.55 621.477C1173.06 621.068 1173.45 620.514 1173.71 619.815C1173.98 619.116 1174.11 618.33 1174.11 617.455C1174.11 616.591 1173.98 615.815 1173.72 615.128C1173.46 614.44 1173.08 613.898 1172.56 613.5C1172.05 613.102 1171.41 612.903 1170.64 612.903C1169.9 612.903 1169.28 613.094 1168.77 613.474C1168.26 613.855 1167.88 614.386 1167.62 615.068C1167.36 615.75 1167.23 616.545 1167.23 617.455ZM1185.18 624.264C1183.89 624.264 1182.78 623.989 1181.85 623.438C1180.92 622.881 1180.21 622.099 1179.7 621.094C1179.2 620.082 1178.95 618.898 1178.95 617.54C1178.95 616.199 1179.2 615.017 1179.7 613.994C1180.21 612.972 1180.91 612.173 1181.82 611.599C1182.73 611.026 1183.79 610.739 1185 610.739C1185.74 610.739 1186.46 610.861 1187.15 611.105C1187.85 611.349 1188.47 611.733 1189.02 612.256C1189.57 612.778 1190 613.457 1190.32 614.293C1190.64 615.122 1190.8 616.131 1190.8 617.318V618.222H1180.39V616.312H1188.3C1188.3 615.642 1188.17 615.048 1187.89 614.531C1187.62 614.009 1187.24 613.597 1186.74 613.295C1186.25 612.994 1185.68 612.844 1185.02 612.844C1184.31 612.844 1183.68 613.02 1183.15 613.372C1182.62 613.719 1182.21 614.173 1181.92 614.736C1181.63 615.293 1181.49 615.898 1181.49 616.551V618.043C1181.49 618.918 1181.65 619.662 1181.95 620.276C1182.27 620.889 1182.7 621.358 1183.26 621.682C1183.81 622 1184.46 622.159 1185.21 622.159C1185.69 622.159 1186.13 622.091 1186.53 621.955C1186.93 621.812 1187.27 621.602 1187.56 621.324C1187.85 621.045 1188.07 620.702 1188.23 620.293L1190.64 620.727C1190.44 621.437 1190.1 622.06 1189.6 622.594C1189.1 623.122 1188.48 623.534 1187.73 623.83C1186.99 624.119 1186.14 624.264 1185.18 624.264ZM1193.63 624V610.909H1196.09V612.989H1196.23C1196.47 612.284 1196.89 611.73 1197.49 611.327C1198.1 610.918 1198.78 610.713 1199.55 610.713C1199.71 610.713 1199.9 610.719 1200.11 610.73C1200.33 610.741 1200.51 610.756 1200.63 610.773V613.21C1200.53 613.182 1200.35 613.151 1200.09 613.116C1199.83 613.077 1199.56 613.057 1199.3 613.057C1198.7 613.057 1198.16 613.185 1197.69 613.44C1197.23 613.69 1196.86 614.04 1196.58 614.489C1196.31 614.932 1196.18 615.437 1196.18 616.006V624H1193.63ZM1202.84 624V610.909H1205.39V624H1202.84ZM1204.12 608.889C1203.68 608.889 1203.3 608.741 1202.98 608.446C1202.67 608.145 1202.51 607.787 1202.51 607.372C1202.51 606.952 1202.67 606.594 1202.98 606.298C1203.3 605.997 1203.68 605.847 1204.12 605.847C1204.57 605.847 1204.95 605.997 1205.26 606.298C1205.58 606.594 1205.74 606.952 1205.74 607.372C1205.74 607.787 1205.58 608.145 1205.26 608.446C1204.95 608.741 1204.57 608.889 1204.12 608.889ZM1214.46 624.264C1213.17 624.264 1212.06 623.989 1211.12 623.438C1210.2 622.881 1209.48 622.099 1208.98 621.094C1208.48 620.082 1208.23 618.898 1208.23 617.54C1208.23 616.199 1208.48 615.017 1208.98 613.994C1209.48 612.972 1210.19 612.173 1211.09 611.599C1212 611.026 1213.06 610.739 1214.28 610.739C1215.02 610.739 1215.73 610.861 1216.43 611.105C1217.12 611.349 1217.74 611.733 1218.29 612.256C1218.84 612.778 1219.28 613.457 1219.6 614.293C1219.91 615.122 1220.07 616.131 1220.07 617.318V618.222H1209.67V616.312H1217.58C1217.58 615.642 1217.44 615.048 1217.17 614.531C1216.89 614.009 1216.51 613.597 1216.02 613.295C1215.53 612.994 1214.95 612.844 1214.29 612.844C1213.58 612.844 1212.95 613.02 1212.42 613.372C1211.89 613.719 1211.48 614.173 1211.19 614.736C1210.91 615.293 1210.77 615.898 1210.77 616.551V618.043C1210.77 618.918 1210.92 619.662 1211.23 620.276C1211.54 620.889 1211.97 621.358 1212.53 621.682C1213.09 622 1213.74 622.159 1214.48 622.159C1214.97 622.159 1215.41 622.091 1215.8 621.955C1216.2 621.812 1216.54 621.602 1216.83 621.324C1217.12 621.045 1217.35 620.702 1217.5 620.293L1219.91 620.727C1219.72 621.437 1219.37 622.06 1218.87 622.594C1218.38 623.122 1217.75 623.534 1217 623.83C1216.26 624.119 1215.41 624.264 1214.46 624.264ZM1225.45 616.227V624H1222.9V610.909H1225.35V613.04H1225.51C1225.81 612.347 1226.28 611.79 1226.92 611.369C1227.57 610.949 1228.39 610.739 1229.37 610.739C1230.26 610.739 1231.04 610.926 1231.71 611.301C1232.38 611.67 1232.9 612.222 1233.27 612.955C1233.64 613.687 1233.83 614.594 1233.83 615.673V624H1231.28V615.98C1231.28 615.031 1231.03 614.29 1230.54 613.756C1230.04 613.216 1229.36 612.946 1228.5 612.946C1227.91 612.946 1227.38 613.074 1226.92 613.33C1226.47 613.585 1226.11 613.96 1225.84 614.455C1225.58 614.943 1225.45 615.534 1225.45 616.227ZM1242.76 624.264C1241.49 624.264 1240.4 623.977 1239.49 623.403C1238.58 622.824 1237.88 622.026 1237.39 621.009C1236.9 619.991 1236.66 618.827 1236.66 617.514C1236.66 616.185 1236.91 615.011 1237.41 613.994C1237.91 612.972 1238.61 612.173 1239.52 611.599C1240.43 611.026 1241.5 610.739 1242.73 610.739C1243.73 610.739 1244.61 610.923 1245.39 611.293C1246.17 611.656 1246.8 612.168 1247.28 612.827C1247.76 613.486 1248.05 614.256 1248.14 615.136H1245.66C1245.52 614.523 1245.21 613.994 1244.72 613.551C1244.24 613.108 1243.59 612.886 1242.78 612.886C1242.07 612.886 1241.44 613.074 1240.91 613.449C1240.38 613.818 1239.97 614.347 1239.67 615.034C1239.38 615.716 1239.23 616.523 1239.23 617.455C1239.23 618.409 1239.38 619.233 1239.66 619.926C1239.95 620.619 1240.36 621.156 1240.89 621.537C1241.43 621.918 1242.05 622.108 1242.78 622.108C1243.26 622.108 1243.7 622.02 1244.09 621.844C1244.49 621.662 1244.82 621.403 1245.09 621.068C1245.36 620.733 1245.55 620.33 1245.66 619.858H1248.14C1248.05 620.705 1247.77 621.46 1247.31 622.125C1246.85 622.79 1246.23 623.312 1245.46 623.693C1244.69 624.074 1243.79 624.264 1242.76 624.264ZM1256.5 624.264C1255.21 624.264 1254.1 623.989 1253.17 623.438C1252.25 622.881 1251.53 622.099 1251.02 621.094C1250.52 620.082 1250.27 618.898 1250.27 617.54C1250.27 616.199 1250.52 615.017 1251.02 613.994C1251.53 612.972 1252.23 612.173 1253.14 611.599C1254.05 611.026 1255.11 610.739 1256.32 610.739C1257.06 610.739 1257.78 610.861 1258.47 611.105C1259.17 611.349 1259.79 611.733 1260.34 612.256C1260.89 612.778 1261.32 613.457 1261.64 614.293C1261.96 615.122 1262.12 616.131 1262.12 617.318V618.222H1251.71V616.312H1259.62C1259.62 615.642 1259.49 615.048 1259.21 614.531C1258.94 614.009 1258.56 613.597 1258.06 613.295C1257.57 612.994 1257 612.844 1256.34 612.844C1255.63 612.844 1255 613.02 1254.47 613.372C1253.94 613.719 1253.53 614.173 1253.24 614.736C1252.96 615.293 1252.81 615.898 1252.81 616.551V618.043C1252.81 618.918 1252.97 619.662 1253.27 620.276C1253.59 620.889 1254.02 621.358 1254.58 621.682C1255.13 622 1255.78 622.159 1256.53 622.159C1257.01 622.159 1257.45 622.091 1257.85 621.955C1258.25 621.812 1258.59 621.602 1258.88 621.324C1259.17 621.045 1259.39 620.702 1259.55 620.293L1261.96 620.727C1261.76 621.437 1261.42 622.06 1260.92 622.594C1260.42 623.122 1259.8 623.534 1259.05 623.83C1258.31 624.119 1257.46 624.264 1256.5 624.264Z" fill="white"/>
<g clip-path="url(#clip1_721_254)">
<path d="M315.769 401.736L316.963 409.135C317.014 409.428 317.014 409.733 316.963 410.025C316.696 412.059 315.921 419.077 307.866 425.738C301.144 431.294 291.577 431.764 283.7 428.039C282.734 427.582 281.781 427.048 280.866 426.438C279.24 425.344 277.919 423.831 277.017 422.09L273.383 414.526L315.743 401.749L315.769 401.736Z" fill="#046BAB" stroke="#231F20" stroke-width="0.25" stroke-miterlimit="10"/>
<path d="M298.672 419.438C307.421 416.009 312.148 407.188 309.23 399.735C306.313 392.282 296.855 389.02 288.107 392.449C279.358 395.878 274.631 404.699 277.548 412.152C280.466 419.605 289.923 422.867 298.672 419.438Z" fill="#BA2157" stroke="#231F20" stroke-miterlimit="10"/>
<path d="M284.477 423.133L286.065 427.837" stroke="#0C3078" stroke-linecap="round" stroke-linejoin="round"/>
<path d="M287.75 423.845L289.427 428.841" stroke="#0C3078" stroke-linecap="round" stroke-linejoin="round"/>
<path d="M290.828 424.226L292.531 429.146" stroke="#0C3078" stroke-linecap="round" stroke-linejoin="round"/>
<path d="M294.141 423.997L295.843 429.235" stroke="#0C3078" stroke-linecap="round" stroke-linejoin="round"/>
<path d="M297.586 423.425L299.441 428.802" stroke="#0C3078" stroke-linecap="round" stroke-linejoin="round"/>
<path d="M300.93 422.37L302.785 427.748" stroke="#0C3078" stroke-linecap="round" stroke-linejoin="round"/>
<path d="M304 421.01L306.122 425.739" stroke="#0C3078" stroke-linecap="round" stroke-linejoin="round"/>
<path d="M306.656 419.28L309.261 423.476" stroke="#0C3078" stroke-linecap="round" stroke-linejoin="round"/>
<path d="M308.945 417.476L311.652 420.984" stroke="#0C3078" stroke-linecap="round" stroke-linejoin="round"/>
<path d="M311.219 415.212L313.734 418.187" stroke="#0C3078" stroke-linecap="round" stroke-linejoin="round"/>
<path d="M312.961 412.784L314.93 415.136" stroke="#0C3078" stroke-linecap="round" stroke-linejoin="round"/>
<path d="M314.453 410.076L315.419 411.856" stroke="#0C3078" stroke-linecap="round" stroke-linejoin="round"/>
<path d="M300.748 422.993C312.28 418.473 318.51 406.844 314.664 397.018C310.817 387.192 298.35 382.89 286.818 387.41C275.286 391.93 269.056 403.559 272.902 413.385C276.749 423.211 289.216 427.513 300.748 422.993Z" fill="#0088C4" stroke="#231F20" stroke-width="0.25" stroke-miterlimit="10"/>
<path d="M299.282 418.222C308.05 414.786 312.787 405.943 309.862 398.47C306.937 390.998 297.457 387.726 288.689 391.162C279.921 394.599 275.184 403.442 278.109 410.915C281.034 418.387 290.514 421.659 299.282 418.222Z" fill="#046BAB" stroke="#231F20" stroke-width="0.25" stroke-miterlimit="10"/>
<path d="M307.36 394.478C307.36 394.478 298.975 384.803 285.113 393.003C285.113 393.003 272.839 400.148 278.9 412.543C278.9 412.543 276.981 385.604 307.36 394.478Z" fill="#0C3078"/>
<path opacity="0.13" d="M278.911 392.316L304.97 420.895C304.97 420.895 310.192 418.174 311.984 413.547L284.514 388.451C284.514 388.451 281.541 389.468 278.898 392.303L278.911 392.316Z" fill="#7F1C45"/>
<path d="M303.079 404L299.509 401.127L297.59 403.504C297.108 404.114 296.65 404.597 296.244 404.991C295.837 405.385 295.443 405.665 295.087 405.869C294.732 406.072 294.376 406.186 294.046 406.212C293.715 406.237 293.385 406.212 293.042 406.097L293.232 412.848L290.069 412.912L289.688 400.44L292.864 400.389L292.927 402.792C293.41 403.173 294.02 402.881 294.782 401.953L297.044 399.131L293.042 395.914L294.884 393.626L304.922 401.711L303.079 404Z" fill="#0088C4"/>
<path d="M294.887 393.623L293.047 395.911L303.083 403.994L304.923 401.706L294.887 393.623Z" fill="#0088C4"/>
<path d="M292.168 396.559L290.328 398.847L300.364 406.929L302.205 404.642L292.168 396.559Z" fill="#0088C4"/>
<path d="M379.856 411.5L385.739 421.264C385.967 421.658 386.145 422.077 386.26 422.509C387.035 425.535 389.906 435.871 382.333 449.83C376.006 461.462 362.767 467.564 349.553 466.763C347.927 466.662 346.288 466.458 344.636 466.102C341.714 465.479 339.007 464.106 336.746 462.148L327.344 453.529L379.856 411.5Z" fill="#046BAB" stroke="#231F20" stroke-width="0.25" stroke-miterlimit="10"/>
<path d="M365.766 446.114C376.158 436.325 377.83 421.211 369.499 412.357C361.169 403.502 345.991 404.26 335.598 414.048C325.206 423.837 323.534 438.951 331.865 447.805C340.196 456.66 355.374 455.902 365.766 446.114Z" fill="#BA2157" stroke="#231F20" stroke-miterlimit="10"/>
<path d="M343.164 460.317L348.208 466.394" stroke="#0C3078" stroke-linecap="round" stroke-linejoin="round"/>
<path d="M348.203 460.317L353.235 466.394" stroke="#0C3078" stroke-linecap="round" stroke-linejoin="round"/>
<path d="M353.234 459.529L358.583 465.962" stroke="#0C3078" stroke-linecap="round" stroke-linejoin="round"/>
<path d="M357.812 458.348L363.149 464.679" stroke="#0C3078" stroke-linecap="round" stroke-linejoin="round"/>
<path d="M362.359 456.135L367.861 462.911" stroke="#0C3078" stroke-linecap="round" stroke-linejoin="round"/>
<path d="M366.875 453.338L372.681 460.241" stroke="#0C3078" stroke-linecap="round" stroke-linejoin="round"/>
<path d="M370.969 449.881L376.775 456.797" stroke="#0C3078" stroke-linecap="round" stroke-linejoin="round"/>
<path d="M374.484 446.117L380.291 451.914" stroke="#0C3078" stroke-linecap="round" stroke-linejoin="round"/>
<path d="M377.203 442.062L383.365 446.791" stroke="#0C3078" stroke-linecap="round" stroke-linejoin="round"/>
<path d="M379.344 438.083L385.252 441.744" stroke="#0C3078" stroke-linecap="round" stroke-linejoin="round"/>
<path d="M381.219 433.442L386.53 436.405" stroke="#0C3078" stroke-linecap="round" stroke-linejoin="round"/>
<path d="M382.219 428.854L387.009 431.574" stroke="#0C3078" stroke-linecap="round" stroke-linejoin="round"/>
<path d="M382.719 423.997L386.734 426.184" stroke="#0C3078" stroke-linecap="round" stroke-linejoin="round"/>
<path d="M370.711 449.97C384.415 437.062 386.618 417.133 375.632 405.456C364.647 393.78 344.633 394.778 330.929 407.685C317.226 420.592 315.023 440.521 326.008 452.198C336.994 463.875 357.008 462.877 370.711 449.97Z" fill="#0088C4" stroke="#231F20" stroke-width="0.25" stroke-miterlimit="10"/>
<path d="M365.94 444.067C376.363 434.249 378.04 419.092 369.685 410.212C361.331 401.331 346.108 402.091 335.685 411.909C325.262 421.727 323.585 436.884 331.94 445.764C340.294 454.645 355.517 453.885 365.94 444.067Z" fill="#046BAB" stroke="#231F20" stroke-width="0.25" stroke-miterlimit="10"/>
<path d="M363.884 406.02C363.884 406.02 346.566 397.121 331.675 416.559C331.675 416.559 318.41 433.582 333.975 447.63C333.975 447.63 316.022 410.712 363.884 406.02Z" fill="#0C3078"/>
<path opacity="0.13" d="M322.528 419.089L375.46 444.629C375.46 444.629 381.292 437.815 381.203 430.289L328.259 410.457C328.259 410.457 324.65 413.572 322.516 419.076L322.528 419.089Z" fill="#082B71"/>
<path d="M363.24 421.873L356.582 419.839L355.235 424.276C354.892 425.407 354.536 426.361 354.18 427.124C353.825 427.886 353.444 428.522 353.037 429.018C352.63 429.514 352.211 429.857 351.754 430.086C351.296 430.315 350.813 430.455 350.28 430.505L354.371 439.926L349.937 441.82L342.352 424.441L346.799 422.572L348.247 425.916C349.136 426.17 349.848 425.433 350.381 423.678L351.982 418.415L344.524 416.14L345.833 411.868L364.574 417.576L363.265 421.848L363.24 421.873Z" fill="#0088C4"/>
<path d="M345.804 411.885L344.5 416.166L363.241 421.881L364.545 417.601L345.804 411.885Z" fill="#0088C4"/>
<path d="M343.632 417.534L342.328 421.814L361.069 427.53L362.373 423.249L343.632 417.534Z" fill="#0088C4"/>
<path d="M29.4392 319.687C43.733 318.263 79.8422 315.466 112.47 319.458C116.752 319.979 120.754 321.835 123.943 324.734L160.23 357.597L126.815 389.621L127.361 436.583H34.4198L34.585 393.244C34.585 393.244 8.62745 388.858 -15.043 399.41C-15.043 399.41 -16.0595 346.448 14.993 324.912C19.2747 321.95 24.268 320.195 29.4519 319.674L29.4392 319.687Z" fill="#0088C4" stroke="#231F20" stroke-miterlimit="10"/>
<path d="M34.5715 393.245C34.5715 393.245 33.9235 372.789 39.2726 357.051" stroke="#231F20" stroke-linecap="round" stroke-linejoin="round"/>
<path d="M125.188 349.918L126.814 389.621" stroke="#231F20" stroke-miterlimit="10" stroke-linecap="round"/>
<path d="M100.202 258.385L100.087 295.545C100.087 295.545 98.7915 309.338 87.5979 309.021V317.602C87.5979 317.602 58.6673 317.322 51.3108 318.034C51.3108 318.034 52.9371 302.74 53.801 293.32L43.9669 284.879C41.6799 282.921 40.0917 280.188 39.7741 277.187C39.4564 274.187 40.3967 270.475 45.4789 268.53C45.4789 268.53 51.6411 266.902 60.1792 278.052C60.1792 278.052 67.7136 269.992 69.1113 258.728L100.189 258.359L100.202 258.385Z" fill="#FBC4A5" stroke="#231F20" stroke-linecap="round" stroke-linejoin="round"/>
<path d="M87.6151 309.02C87.6151 309.02 80.9701 309.453 72.1016 304.914" stroke="#231F20" stroke-linecap="round" stroke-linejoin="round"/>
<path d="M100.206 258.385C100.206 258.385 98.2621 232.959 66.2567 235.667C66.2567 235.667 54.2499 237.319 46.8172 251.838C44.5175 256.325 43.4375 261.322 43.4375 266.356V269.56C43.4375 269.56 49.5997 264.767 60.1961 278.064C60.1961 278.064 68.2261 268.746 69.1282 258.741L100.206 258.372V258.385Z" fill="#231F20" stroke="#231F20" stroke-miterlimit="10"/>
<path d="M46.2451 254.292C56.9041 254.292 65.5449 245.862 65.5449 235.464C65.5449 225.065 56.9041 216.636 46.2451 216.636C35.5861 216.636 26.9453 225.065 26.9453 235.464C26.9453 245.862 35.5861 254.292 46.2451 254.292Z" fill="#231F20" stroke="#231F20" stroke-miterlimit="10"/>
<path d="M72.5781 271.263C72.5781 271.263 78.2575 265.631 84.7501 271.263" stroke="#231F20" stroke-width="2" stroke-linecap="round" stroke-linejoin="round"/>
<path d="M90.5312 271.263C90.5312 271.263 96.2106 265.631 102.703 271.263" stroke="#231F20" stroke-width="2" stroke-linecap="round" stroke-linejoin="round"/>
<path d="M80.076 282.045C81.4131 281.954 82.396 280.392 82.2713 278.557C82.1466 276.722 80.9615 275.308 79.6243 275.399C78.2871 275.49 77.3042 277.051 77.429 278.887C77.5537 280.722 78.7388 282.136 80.076 282.045Z" fill="#231F20" stroke="#231F20" stroke-miterlimit="10"/>
<path d="M95.1072 282.042C96.4444 281.951 97.4273 280.39 97.3026 278.554C97.1778 276.719 95.9927 275.305 94.6556 275.396C93.3184 275.487 92.3355 277.048 92.4602 278.884C92.5849 280.719 93.77 282.133 95.1072 282.042Z" fill="#231F20" stroke="#231F20" stroke-miterlimit="10"/>
<path d="M285.959 387.383C284.968 385.375 283.418 383.684 281.461 382.616C278.234 380.849 272.707 378.751 265.427 379.514C263.927 379.667 262.441 380.01 260.992 380.442L241.311 386.608L194.949 386.392L157.175 360.317L127.812 388.553L164.824 413C164.824 413 174.506 420.361 184.835 418.416L224.388 412.631C225.823 412.415 227.284 412.326 228.733 412.339L236.623 412.428C238.275 412.441 239.914 412.606 241.527 412.911C243.865 413.369 249.036 414.131 260.205 415.072C260.84 415.123 261.882 415.25 262.504 415.365C270.928 416.776 272.351 417.373 277.268 418.2C277.268 418.2 279.149 418.733 281.232 418.543C283.1 418.377 284.815 417.246 285.425 415.479C285.883 414.131 285.705 412.441 283.164 411.055C283.164 411.055 276.239 406.834 262.225 402.563L269.467 391.045C269.467 391.045 273.546 393.18 278.424 393.803" fill="#FBC4A5"/>
<path d="M285.959 387.383C284.968 385.375 283.418 383.684 281.461 382.616C278.234 380.849 272.707 378.751 265.427 379.514C263.927 379.667 262.441 380.01 260.992 380.442L241.311 386.608L194.949 386.392L157.175 360.317L127.812 388.553L164.824 413C164.824 413 174.506 420.361 184.835 418.416L224.388 412.631C225.823 412.415 227.284 412.326 228.733 412.339L236.623 412.428C238.275 412.441 239.914 412.606 241.527 412.911C243.865 413.369 249.036 414.131 260.205 415.072C260.84 415.123 261.882 415.25 262.504 415.365C270.928 416.776 272.351 417.373 277.268 418.2C277.268 418.2 279.149 418.733 281.232 418.543C283.1 418.377 284.815 417.246 285.425 415.479C285.883 414.131 285.705 412.441 283.164 411.055C283.164 411.055 276.239 406.834 262.225 402.563L269.467 391.045C269.467 391.045 273.545 393.18 278.424 393.803" stroke="#231F20" stroke-linecap="round" stroke-linejoin="round"/>
<path d="M141.406 384.218L170.21 405.855C170.21 405.855 179.904 412.123 190.717 410.724L211.058 407.597" stroke="white" stroke-linecap="round" stroke-linejoin="round"/>
<path d="M112.289 352.626L114.017 410.928" stroke="#68D1FF" stroke-width="2" stroke-linecap="round" stroke-linejoin="round"/>
<path d="M250.828 428.142C250.828 428.142 288.03 437.015 281.105 476.4" stroke="#4D2968" stroke-width="3" stroke-linecap="round" stroke-linejoin="round"/>
<path d="M87.6215 281.752L91.6745 293.766C91.6745 293.766 91.7889 294.745 84.75 293.766" stroke="#231F20" stroke-width="0.75" stroke-linecap="round" stroke-linejoin="round"/>
<path d="M77.0703 294.096C77.0703 294.096 79.2557 300.783 87.6159 298.634" stroke="#231F20" stroke-width="0.75" stroke-linecap="round" stroke-linejoin="round"/>
<path d="M97.1607 254.062C97.1607 254.062 91.405 235.501 67.5312 236.646L97.1607 254.062Z" fill="#231F20"/>
<path d="M97.1607 254.062C97.1607 254.062 91.405 235.501 67.5312 236.646" stroke="#414042" stroke-linecap="round" stroke-linejoin="round"/>
<path d="M46.25 276.564C46.25 276.564 52.7426 278.726 55.9825 288.133L46.25 276.564Z" fill="#FBC4A5"/>
<path d="M46.25 276.564C46.25 276.564 52.7426 278.726 55.9825 288.133" stroke="#231F20" stroke-linecap="round" stroke-linejoin="round"/>
<path d="M53.2721 299.054C53.2721 299.054 58.5703 317.093 87.6152 317.602L51.3281 318.034L53.2721 299.054Z" fill="#D88C65" stroke="#231F20" stroke-linecap="round" stroke-linejoin="round"/>
<path d="M-14.1526 447.999L-3.00981 457.279C-2.56512 457.648 -2.18395 458.08 -1.86631 458.563C0.331757 461.882 8.10757 473.107 4.80412 493.054C2.05972 509.695 -11.3193 522.561 -27.5443 527.124C-29.5391 527.684 -31.6101 528.129 -33.7319 528.383C-37.5055 528.853 -41.3298 528.332 -44.862 526.921L-59.7656 520.488L-14.1653 447.999H-14.1526Z" fill="#046BAB" stroke="#231F20" stroke-width="0.25" stroke-miterlimit="10"/>
<path d="M-8.84375 497.872L1.02849 503.758" stroke="#152E73" stroke-linecap="round" stroke-linejoin="round"/>
<path d="M-6.1875 491.871L3.21463 496.422" stroke="#152E73" stroke-linecap="round" stroke-linejoin="round"/>
<path d="M-4.60938 485.858L4.79276 488.973" stroke="#152E73" stroke-linecap="round" stroke-linejoin="round"/>
<path d="M-3.67188 480.176L4.95521 482.121" stroke="#152E73" stroke-linecap="round" stroke-linejoin="round"/>
<path d="M-3.38281 473.818L4.25324 475.166" stroke="#152E73" stroke-linecap="round" stroke-linejoin="round"/>
<path d="M-4.07812 467.882L2.80831 469.153" stroke="#152E73" stroke-linecap="round" stroke-linejoin="round"/>
<path d="M-5.5 461.844L0.230209 462.797" stroke="#152E73" stroke-linecap="round" stroke-linejoin="round"/>
<path d="M-9.09735 498.131C1.99412 476.884 -3.67177 452 -21.7525 442.55C-39.8332 433.1 -63.4819 442.663 -74.5734 463.91C-85.6648 485.156 -79.999 510.04 -61.9183 519.49C-43.8376 528.94 -20.1888 519.377 -9.09735 498.131Z" fill="#0088C4" stroke="#0088C4" stroke-width="0.25" stroke-miterlimit="10"/>
<path d="M235.992 706.644C235.992 706.644 242.929 723.806 257.147 713.636C257.147 713.636 256.181 701.292 253.526 693.778C253.526 693.778 242.815 699.677 235.992 706.657V706.644Z" fill="#391F54" stroke="#231F20" stroke-miterlimit="10"/>
<path d="M120.217 684.562C120.217 684.562 101.591 696.779 93.6754 681.218C93.6754 681.218 92.786 674.747 96.0005 670.285L102.353 657.839C102.353 657.839 115.999 673.209 120.217 684.574V684.562Z" fill="#1C112C" stroke="#231F20" stroke-miterlimit="10"/>
<path d="M127.167 420.349H245.214C245.214 420.349 281.946 421.569 291.996 450.427C296.723 463.992 293.534 479.07 284.271 490.054L120.217 684.575C120.217 684.575 101.616 638.262 46.2578 624.417L202.397 478.142L114.156 483.341L127.167 420.374V420.349Z" fill="#085093" stroke="#231F20" stroke-miterlimit="10"/>
<path d="M39.4102 436.012V461.769C39.4102 461.769 35.9543 505.692 87.2086 505.908L189.933 502.883L236.004 706.074C236.004 706.074 274.069 667.121 349.757 673.618L249.408 459.608C249.408 459.608 238.164 431.258 192.741 431.258L39.3594 432.555L39.4102 436.012Z" fill="#085093" stroke="#231F20" stroke-miterlimit="10"/>
<path d="M349.746 674.176C349.746 674.176 401.001 681.32 442.307 664.87C442.307 664.87 459.396 658.59 458.316 678.714C458.316 678.714 460.259 721.989 429.766 725.028C429.766 725.028 402.729 722.866 381.968 749.691C381.968 749.691 375.488 758.119 356.925 763.472C352.529 764.743 347.993 765.468 343.432 765.849C336.126 766.459 320.384 769.383 311.464 783.011C311.464 783.011 299.788 803.568 268.647 803.352C268.647 803.352 250.973 803.505 248.521 783.189C247.848 777.583 248.534 771.9 250.249 766.523C253.908 754.979 262.421 722.574 253.527 693.754C253.527 693.754 291.364 668.328 349.759 674.176H349.746Z" fill="#0088C4" stroke="#231F20" stroke-miterlimit="10"/>
<path d="M102.339 657.839L95.9861 670.285C95.9861 670.285 88.7185 679.159 99.1625 694.948L125.831 741.694C125.831 741.694 137.076 759.874 121.944 762.467L104.639 763.764C104.639 763.764 82.5817 770.692 70.4733 736.711C70.4733 736.711 65.3911 721.023 49.2804 717.883C49.2804 717.883 34.6817 707.827 30.7938 690.079C30.7938 690.079 26.0419 670.285 9.81687 662.492C9.81687 662.492 -6.2938 652.322 -3.05387 637.715C-3.05387 637.715 0.0843916 621.912 46.2565 624.404C46.2565 624.404 79.6213 631.523 102.352 657.827L102.339 657.839Z" fill="#0088C4" stroke="#231F20" stroke-miterlimit="10"/>
<path d="M0.833378 394.376V436.583C0.833378 436.583 -0.996217 459.733 29.5988 460.597C29.5988 460.597 82.9114 460.597 99.4541 462.759L133.95 468.39C133.95 468.39 137.647 469.039 138.104 466.242C138.104 466.242 138.625 463.725 135.957 462.631L122.006 459.542L142.704 462.631C144.635 462.924 146.643 462.339 147.977 460.915C148.18 460.699 148.358 460.47 148.536 460.203C149.273 459.085 149.565 457.673 149.095 456.415C148.714 455.398 147.85 454.266 145.855 453.783L125.501 451.914L151.166 452.22C152.474 452.232 153.681 452.258 154.825 451.622C155.409 451.304 155.981 450.656 156.362 450.173C157.646 448.495 157.125 445.965 155.32 444.859C154.634 444.439 154.38 444.172 152.436 443.88L125.996 443.473L148.536 441.642C148.536 441.642 151.699 441.363 151.941 438.032C151.941 438.032 151.979 435.07 146.744 435.273L120.952 437.79L128.601 431.256C129.299 430.658 129.846 429.87 130.049 428.955C130.1 428.701 130.138 428.434 130.151 428.154C130.227 426.196 128.347 424.721 126.441 425.154C125.513 425.357 124.535 425.802 122.909 426.794L115.616 431.688C113.913 432.832 112.033 433.684 110.038 434.205C106.315 435.184 100.102 436.455 95.0452 435.604L36.9426 427.328L34.6048 394.363C34.6048 394.363 32.0129 389.646 0.871494 394.363L0.833378 394.376Z" fill="#FBC4A5" stroke="#231F20" stroke-linecap="round" stroke-linejoin="round"/>
<path d="M8.19531 404.126V440.485C8.19531 440.485 9.49129 451.304 24.2043 452.168H43.4533" stroke="white" stroke-linecap="round" stroke-linejoin="round"/>
<path d="M167.789 447.363H200.658C200.658 447.363 224.443 447.834 240.452 482.032L311.769 644.757" stroke="#227BCD" stroke-width="3" stroke-linecap="round" stroke-linejoin="round"/>
<path d="M198.932 573.336L122.812 663.954" stroke="#227BCD" stroke-width="3" stroke-linecap="round" stroke-linejoin="round"/>
<path d="M101.719 753.708C121.502 755.004 117.614 745.266 117.614 745.266C116.635 733.583 93.5494 696.576 93.5494 696.576C93.5494 696.576 82.9021 684.231 90.0427 663.954" stroke="#68D1FF" stroke-width="2" stroke-linecap="round" stroke-linejoin="round"/>
<path d="M347.102 680.239C347.102 680.239 387.518 691.922 433.804 675.916C433.804 675.916 452.837 667.297 450.245 689.138" stroke="#68D1FF" stroke-width="2" stroke-linecap="round" stroke-linejoin="round"/>
</g>
<path d="M967.132 292.629C967.132 292.629 944.063 292.916 933.82 309.328C931.213 313.505 929.934 318.076 929.934 322.678L929.837 381C929.837 381 917.766 378.321 908.376 371.349C903.37 367.629 900.58 362.548 900.58 357.265V341.321H867C867 341.321 867.84 331.16 879.107 322.072C883.431 318.596 889.484 316.609 895.842 316.598H900.288C900.288 316.598 903.126 271.063 966.803 270L967.108 292.619L967.132 292.629Z" fill="white"/>
<path d="M961.736 308.924C961.736 308.924 952.005 312.761 946.109 320.382C943.625 323.592 942.358 327.408 942.358 331.277V381L985.427 327.397C987.473 324.857 988.106 321.615 986.998 318.66C986.961 318.554 986.913 318.437 986.864 318.32L961.724 349.442V308.924H961.736Z" fill="white"/>
<path d="M996.267 316.821C1001.09 316.821 1005 313.409 1005 309.2C1005 304.991 1001.09 301.579 996.267 301.579C991.444 301.579 987.534 304.991 987.534 309.2C987.534 313.409 991.444 316.821 996.267 316.821Z" fill="white"/>
</g>
<defs>
<linearGradient id="paint0_linear_721_254" x1="941.5" y1="-37" x2="952.202" y2="784.108" gradientUnits="userSpaceOnUse">
<stop offset="0.0001" stop-color="#0088C4"/>
<stop offset="1" stop-color="#09115C"/>
</linearGradient>
<clipPath id="clip0_721_254">
<rect width="1920" height="865" fill="white"/>
</clipPath>
<clipPath id="clip1_721_254">
<rect width="608" height="588" fill="white" transform="translate(-149 216)"/>
</clipPath>
</defs>
</svg>
