<svg width="1920" height="178" viewBox="0 0 1920 178" fill="none" xmlns="http://www.w3.org/2000/svg">
<rect width="1920" height="178" fill="white"/>
<path d="M141.564 102C141.3 102 141.084 101.916 140.916 101.748C140.748 101.58 140.664 101.364 140.664 101.1V77.7C140.664 77.436 140.748 77.22 140.916 77.052C141.084 76.884 141.3 76.8 141.564 76.8H145.488C145.752 76.8 145.968 76.884 146.136 77.052C146.304 77.22 146.388 77.436 146.388 77.7V86.7H156.144V77.7C156.144 77.436 156.228 77.22 156.396 77.052C156.564 76.884 156.78 76.8 157.044 76.8H160.968C161.232 76.8 161.448 76.884 161.616 77.052C161.784 77.22 161.868 77.436 161.868 77.7V101.1C161.868 101.364 161.784 101.58 161.616 101.748C161.448 101.916 161.232 102 160.968 102H157.044C156.78 102 156.564 101.916 156.396 101.748C156.228 101.58 156.144 101.364 156.144 101.1V91.812H146.388V101.1C146.388 101.364 146.304 101.58 146.136 101.748C145.968 101.916 145.752 102 145.488 102H141.564ZM167.675 102C167.435 102 167.231 101.916 167.063 101.748C166.895 101.58 166.811 101.364 166.811 101.1V84.18C166.811 83.916 166.895 83.7 167.063 83.532C167.231 83.364 167.435 83.28 167.675 83.28H171.275C171.539 83.28 171.755 83.364 171.923 83.532C172.091 83.7 172.175 83.916 172.175 84.18V101.1C172.175 101.364 172.091 101.58 171.923 101.748C171.755 101.916 171.539 102 171.275 102H167.675ZM167.567 80.4C167.327 80.4 167.123 80.316 166.955 80.148C166.787 79.98 166.703 79.764 166.703 79.5V76.62C166.703 76.356 166.787 76.14 166.955 75.972C167.123 75.78 167.327 75.684 167.567 75.684H171.347C171.611 75.684 171.827 75.78 171.995 75.972C172.187 76.14 172.283 76.356 172.283 76.62V79.5C172.283 79.764 172.187 79.98 171.995 80.148C171.827 80.316 171.611 80.4 171.347 80.4H167.567ZM185.474 109.92C183.698 109.92 182.222 109.68 181.046 109.2C179.87 108.744 178.934 108.18 178.238 107.508C177.566 106.86 177.086 106.212 176.798 105.564C176.51 104.916 176.354 104.412 176.33 104.052C176.306 103.788 176.39 103.572 176.582 103.404C176.774 103.236 176.99 103.152 177.23 103.152H181.082C181.298 103.152 181.478 103.2 181.622 103.296C181.79 103.416 181.922 103.608 182.018 103.872C182.138 104.16 182.306 104.46 182.522 104.772C182.738 105.108 183.062 105.384 183.494 105.6C183.95 105.816 184.55 105.924 185.294 105.924C186.134 105.924 186.83 105.804 187.382 105.564C187.934 105.324 188.342 104.916 188.606 104.34C188.894 103.764 189.038 102.984 189.038 102V99.588C188.462 100.212 187.73 100.728 186.842 101.136C185.978 101.544 184.91 101.748 183.638 101.748C182.39 101.748 181.286 101.556 180.326 101.172C179.39 100.764 178.61 100.2 177.986 99.48C177.362 98.736 176.882 97.848 176.546 96.816C176.21 95.784 176.018 94.62 175.97 93.324C175.946 92.676 175.946 92.04 175.97 91.416C176.018 90.168 176.21 89.028 176.546 87.996C176.882 86.964 177.362 86.076 177.986 85.332C178.61 84.564 179.39 83.976 180.326 83.568C181.286 83.136 182.39 82.92 183.638 82.92C184.958 82.92 186.086 83.172 187.022 83.676C187.958 84.18 188.726 84.804 189.326 85.548V84.18C189.326 83.94 189.41 83.736 189.578 83.568C189.746 83.376 189.95 83.28 190.19 83.28H193.718C193.958 83.28 194.162 83.376 194.33 83.568C194.522 83.736 194.618 83.94 194.618 84.18L194.654 101.496C194.654 103.296 194.306 104.82 193.61 106.068C192.914 107.316 191.882 108.264 190.514 108.912C189.17 109.584 187.49 109.92 185.474 109.92ZM185.294 97.536C186.158 97.536 186.854 97.344 187.382 96.96C187.934 96.552 188.342 96.048 188.606 95.448C188.87 94.824 189.014 94.176 189.038 93.504C189.062 93.24 189.074 92.868 189.074 92.388C189.074 91.884 189.062 91.5 189.038 91.236C189.014 90.564 188.87 89.928 188.606 89.328C188.342 88.704 187.934 88.2 187.382 87.816C186.854 87.432 186.158 87.24 185.294 87.24C184.382 87.24 183.662 87.444 183.134 87.852C182.606 88.236 182.222 88.752 181.982 89.4C181.742 90.048 181.598 90.756 181.55 91.524C181.526 92.1 181.526 92.664 181.55 93.216C181.598 94.008 181.742 94.728 181.982 95.376C182.222 96.024 182.606 96.552 183.134 96.96C183.662 97.344 184.382 97.536 185.294 97.536ZM200.09 102C199.826 102 199.61 101.916 199.442 101.748C199.274 101.58 199.19 101.364 199.19 101.1V77.34C199.19 77.076 199.274 76.86 199.442 76.692C199.61 76.524 199.826 76.44 200.09 76.44H203.978C204.218 76.44 204.422 76.524 204.59 76.692C204.758 76.86 204.842 77.076 204.842 77.34V85.44C205.49 84.672 206.282 84.06 207.218 83.604C208.154 83.148 209.282 82.92 210.602 82.92C212.018 82.92 213.266 83.244 214.346 83.892C215.45 84.516 216.314 85.44 216.938 86.664C217.562 87.864 217.874 89.328 217.874 91.056V101.1C217.874 101.364 217.79 101.58 217.622 101.748C217.454 101.916 217.238 102 216.974 102H213.05C212.81 102 212.606 101.916 212.438 101.748C212.27 101.58 212.186 101.364 212.186 101.1V91.272C212.186 90 211.874 89.016 211.25 88.32C210.626 87.6 209.738 87.24 208.586 87.24C207.458 87.24 206.546 87.6 205.85 88.32C205.178 89.016 204.842 90 204.842 91.272V101.1C204.842 101.364 204.758 101.58 204.59 101.748C204.422 101.916 204.218 102 203.978 102H200.09ZM231.423 102C231.159 102 230.943 101.916 230.775 101.748C230.607 101.58 230.523 101.364 230.523 101.1V77.7C230.523 77.436 230.607 77.22 230.775 77.052C230.943 76.884 231.159 76.8 231.423 76.8H247.479C247.743 76.8 247.959 76.884 248.127 77.052C248.295 77.22 248.379 77.436 248.379 77.7V80.76C248.379 81.024 248.295 81.24 248.127 81.408C247.959 81.576 247.743 81.66 247.479 81.66H236.139V87.744H246.759C247.023 87.744 247.239 87.828 247.407 87.996C247.575 88.164 247.659 88.38 247.659 88.644V91.704C247.659 91.944 247.575 92.148 247.407 92.316C247.239 92.484 247.023 92.568 246.759 92.568H236.139V101.1C236.139 101.364 236.055 101.58 235.887 101.748C235.719 101.916 235.503 102 235.239 102H231.423ZM252.929 102C252.689 102 252.485 101.916 252.317 101.748C252.149 101.58 252.065 101.364 252.065 101.1V84.18C252.065 83.916 252.149 83.7 252.317 83.532C252.485 83.364 252.689 83.28 252.929 83.28H256.529C256.793 83.28 257.009 83.364 257.177 83.532C257.345 83.7 257.429 83.916 257.429 84.18V101.1C257.429 101.364 257.345 101.58 257.177 101.748C257.009 101.916 256.793 102 256.529 102H252.929ZM252.821 80.4C252.581 80.4 252.377 80.316 252.209 80.148C252.041 79.98 251.957 79.764 251.957 79.5V76.62C251.957 76.356 252.041 76.14 252.209 75.972C252.377 75.78 252.581 75.684 252.821 75.684H256.601C256.865 75.684 257.081 75.78 257.249 75.972C257.441 76.14 257.537 76.356 257.537 76.62V79.5C257.537 79.764 257.441 79.98 257.249 80.148C257.081 80.316 256.865 80.4 256.601 80.4H252.821ZM268.892 102.36C267.692 102.36 266.624 102.168 265.688 101.784C264.752 101.376 263.96 100.8 263.312 100.056C262.664 99.288 262.172 98.388 261.836 97.356C261.5 96.3 261.296 95.136 261.224 93.864C261.2 93.408 261.188 93 261.188 92.64C261.188 92.256 261.2 91.848 261.224 91.416C261.272 90.168 261.464 89.028 261.8 87.996C262.16 86.964 262.652 86.076 263.276 85.332C263.924 84.564 264.716 83.976 265.652 83.568C266.612 83.136 267.692 82.92 268.892 82.92C270.14 82.92 271.208 83.136 272.096 83.568C272.984 83.976 273.716 84.516 274.292 85.188V77.34C274.292 77.076 274.376 76.86 274.544 76.692C274.712 76.524 274.928 76.44 275.192 76.44H278.9C279.14 76.44 279.344 76.524 279.512 76.692C279.68 76.86 279.764 77.076 279.764 77.34V101.1C279.764 101.364 279.68 101.58 279.512 101.748C279.344 101.916 279.14 102 278.9 102H275.444C275.204 102 275 101.916 274.832 101.748C274.664 101.58 274.58 101.364 274.58 101.1V99.876C273.98 100.596 273.224 101.196 272.312 101.676C271.4 102.132 270.26 102.36 268.892 102.36ZM270.548 98.04C271.436 98.04 272.144 97.836 272.672 97.428C273.224 97.02 273.62 96.504 273.86 95.88C274.124 95.256 274.268 94.584 274.292 93.864C274.34 93.408 274.364 92.952 274.364 92.496C274.364 92.04 274.34 91.596 274.292 91.164C274.268 90.492 274.124 89.868 273.86 89.292C273.596 88.692 273.188 88.2 272.636 87.816C272.108 87.432 271.412 87.24 270.548 87.24C269.636 87.24 268.916 87.444 268.388 87.852C267.86 88.236 267.476 88.752 267.236 89.4C267.02 90.048 266.888 90.756 266.84 91.524C266.768 92.268 266.768 93.012 266.84 93.756C266.888 94.524 267.02 95.232 267.236 95.88C267.476 96.528 267.86 97.056 268.388 97.464C268.916 97.848 269.636 98.04 270.548 98.04ZM292.69 102.36C289.93 102.36 287.734 101.592 286.102 100.056C284.494 98.52 283.642 96.288 283.546 93.36C283.546 93.168 283.546 92.916 283.546 92.604C283.546 92.268 283.546 92.004 283.546 91.812C283.642 89.964 284.062 88.38 284.806 87.06C285.55 85.716 286.594 84.696 287.938 84C289.282 83.28 290.854 82.92 292.654 82.92C294.67 82.92 296.35 83.34 297.694 84.18C299.062 84.996 300.082 86.124 300.754 87.564C301.45 88.98 301.798 90.612 301.798 92.46V93.288C301.798 93.528 301.702 93.732 301.51 93.9C301.342 94.068 301.138 94.152 300.898 94.152H289.126C289.126 94.176 289.126 94.224 289.126 94.296C289.126 94.344 289.126 94.392 289.126 94.44C289.15 95.208 289.294 95.916 289.558 96.564C289.846 97.188 290.242 97.692 290.746 98.076C291.274 98.46 291.898 98.652 292.618 98.652C293.218 98.652 293.71 98.568 294.094 98.4C294.478 98.232 294.79 98.028 295.03 97.788C295.294 97.548 295.486 97.344 295.606 97.176C295.822 96.936 295.99 96.792 296.11 96.744C296.254 96.672 296.47 96.636 296.758 96.636H300.502C300.742 96.636 300.934 96.708 301.078 96.852C301.246 96.972 301.318 97.152 301.294 97.392C301.27 97.776 301.066 98.256 300.682 98.832C300.322 99.384 299.782 99.936 299.062 100.488C298.342 101.016 297.442 101.46 296.362 101.82C295.306 102.18 294.082 102.36 292.69 102.36ZM289.126 90.876H296.182V90.804C296.182 89.94 296.038 89.196 295.75 88.572C295.486 87.924 295.09 87.42 294.562 87.06C294.034 86.7 293.398 86.52 292.654 86.52C291.91 86.52 291.274 86.7 290.746 87.06C290.218 87.42 289.81 87.924 289.522 88.572C289.258 89.196 289.126 89.94 289.126 90.804V90.876ZM306.297 102C306.033 102 305.817 101.916 305.649 101.748C305.481 101.58 305.397 101.364 305.397 101.1V77.34C305.397 77.076 305.481 76.86 305.649 76.692C305.817 76.524 306.033 76.44 306.297 76.44H309.897C310.137 76.44 310.341 76.524 310.509 76.692C310.677 76.86 310.761 77.076 310.761 77.34V101.1C310.761 101.364 310.677 101.58 310.509 101.748C310.341 101.916 310.137 102 309.897 102H306.297ZM316.175 102C315.935 102 315.731 101.916 315.563 101.748C315.395 101.58 315.311 101.364 315.311 101.1V84.18C315.311 83.916 315.395 83.7 315.563 83.532C315.731 83.364 315.935 83.28 316.175 83.28H319.775C320.039 83.28 320.255 83.364 320.423 83.532C320.591 83.7 320.675 83.916 320.675 84.18V101.1C320.675 101.364 320.591 101.58 320.423 101.748C320.255 101.916 320.039 102 319.775 102H316.175ZM316.067 80.4C315.827 80.4 315.623 80.316 315.455 80.148C315.287 79.98 315.203 79.764 315.203 79.5V76.62C315.203 76.356 315.287 76.14 315.455 75.972C315.623 75.78 315.827 75.684 316.067 75.684H319.847C320.111 75.684 320.327 75.78 320.495 75.972C320.687 76.14 320.783 76.356 320.783 76.62V79.5C320.783 79.764 320.687 79.98 320.495 80.148C320.327 80.316 320.111 80.4 319.847 80.4H316.067ZM334.19 102C332.702 102 331.43 101.76 330.374 101.28C329.318 100.776 328.514 100.008 327.962 98.976C327.434 97.944 327.17 96.648 327.17 95.088V87.528H324.362C324.098 87.528 323.882 87.444 323.714 87.276C323.546 87.108 323.462 86.892 323.462 86.628V84.18C323.462 83.916 323.546 83.7 323.714 83.532C323.882 83.364 324.098 83.28 324.362 83.28H327.17V77.34C327.17 77.076 327.254 76.86 327.422 76.692C327.614 76.524 327.83 76.44 328.07 76.44H331.598C331.862 76.44 332.078 76.524 332.246 76.692C332.414 76.86 332.498 77.076 332.498 77.34V83.28H336.998C337.238 83.28 337.442 83.364 337.61 83.532C337.778 83.7 337.862 83.916 337.862 84.18V86.628C337.862 86.892 337.778 87.108 337.61 87.276C337.442 87.444 337.238 87.528 336.998 87.528H332.498V94.656C332.498 95.568 332.654 96.288 332.966 96.816C333.302 97.32 333.878 97.572 334.694 97.572H337.322C337.562 97.572 337.766 97.656 337.934 97.824C338.102 97.992 338.186 98.196 338.186 98.436V101.1C338.186 101.364 338.102 101.58 337.934 101.748C337.766 101.916 337.562 102 337.322 102H334.19ZM344.747 108.84C344.555 108.84 344.375 108.768 344.207 108.624C344.063 108.48 343.991 108.3 343.991 108.084C343.991 108.036 344.003 107.964 344.027 107.868C344.051 107.796 344.087 107.7 344.135 107.58L346.943 100.848L340.031 84.54C339.959 84.348 339.923 84.192 339.923 84.072C339.947 83.856 340.031 83.676 340.175 83.532C340.319 83.364 340.499 83.28 340.715 83.28H344.207C344.519 83.28 344.747 83.364 344.891 83.532C345.035 83.676 345.143 83.832 345.215 84L349.679 95.16L354.251 84C354.347 83.808 354.467 83.64 354.611 83.496C354.755 83.352 354.983 83.28 355.295 83.28H358.715C358.931 83.28 359.111 83.364 359.255 83.532C359.423 83.676 359.507 83.844 359.507 84.036C359.507 84.156 359.459 84.324 359.363 84.54L349.175 108.12C349.103 108.312 348.983 108.48 348.815 108.624C348.671 108.768 348.443 108.84 348.131 108.84H344.747ZM378.884 102.36C376.58 102.36 374.648 102.024 373.088 101.352C371.552 100.68 370.388 99.804 369.596 98.724C368.804 97.644 368.384 96.492 368.336 95.268C368.336 95.076 368.408 94.908 368.552 94.764C368.696 94.596 368.876 94.512 369.092 94.512H372.944C373.256 94.512 373.496 94.584 373.664 94.728C373.832 94.848 373.988 95.004 374.132 95.196C374.3 95.604 374.564 96 374.924 96.384C375.308 96.768 375.824 97.092 376.472 97.356C377.12 97.596 377.924 97.716 378.884 97.716C380.444 97.716 381.608 97.464 382.376 96.96C383.168 96.456 383.564 95.772 383.564 94.908C383.564 94.284 383.348 93.78 382.916 93.396C382.508 93.012 381.848 92.664 380.936 92.352C380.048 92.04 378.86 91.704 377.372 91.344C375.572 90.96 374.036 90.468 372.764 89.868C371.516 89.244 370.568 88.452 369.92 87.492C369.296 86.508 368.984 85.296 368.984 83.856C368.984 82.416 369.38 81.144 370.172 80.04C370.964 78.912 372.08 78.036 373.52 77.412C374.96 76.764 376.676 76.44 378.668 76.44C380.276 76.44 381.692 76.656 382.916 77.088C384.164 77.52 385.196 78.084 386.012 78.78C386.852 79.476 387.488 80.22 387.92 81.012C388.352 81.804 388.58 82.572 388.604 83.316C388.604 83.508 388.532 83.688 388.388 83.856C388.244 84 388.064 84.072 387.848 84.072H383.816C383.576 84.072 383.36 84.024 383.168 83.928C382.976 83.832 382.82 83.664 382.7 83.424C382.556 82.8 382.124 82.26 381.404 81.804C380.708 81.324 379.796 81.084 378.668 81.084C377.492 81.084 376.556 81.3 375.86 81.732C375.188 82.164 374.852 82.824 374.852 83.712C374.852 84.288 375.02 84.78 375.356 85.188C375.716 85.572 376.304 85.92 377.12 86.232C377.96 86.52 379.064 86.844 380.432 87.204C382.544 87.636 384.26 88.152 385.58 88.752C386.9 89.352 387.872 90.132 388.496 91.092C389.12 92.028 389.432 93.216 389.432 94.656C389.432 96.264 388.976 97.644 388.064 98.796C387.176 99.948 385.94 100.836 384.356 101.46C382.796 102.06 380.972 102.36 378.884 102.36ZM401.217 102.36C399.465 102.36 397.917 102.036 396.573 101.388C395.253 100.74 394.209 99.804 393.441 98.58C392.673 97.332 392.253 95.844 392.181 94.116C392.157 93.732 392.145 93.252 392.145 92.676C392.145 92.076 392.157 91.584 392.181 91.2C392.253 89.448 392.661 87.96 393.405 86.736C394.173 85.488 395.229 84.54 396.573 83.892C397.917 83.244 399.465 82.92 401.217 82.92C402.825 82.92 404.193 83.148 405.321 83.604C406.449 84.036 407.373 84.588 408.093 85.26C408.813 85.932 409.341 86.64 409.677 87.384C410.037 88.104 410.229 88.74 410.253 89.292C410.277 89.532 410.193 89.748 410.001 89.94C409.833 90.108 409.629 90.192 409.389 90.192H405.537C405.297 90.192 405.105 90.132 404.961 90.012C404.841 89.868 404.721 89.676 404.601 89.436C404.265 88.596 403.833 87.996 403.305 87.636C402.777 87.276 402.117 87.096 401.325 87.096C400.245 87.096 399.393 87.444 398.769 88.14C398.145 88.836 397.809 89.916 397.761 91.38C397.737 92.316 397.737 93.168 397.761 93.936C397.833 95.424 398.169 96.504 398.769 97.176C399.393 97.848 400.245 98.184 401.325 98.184C402.165 98.184 402.837 98.004 403.341 97.644C403.845 97.284 404.265 96.684 404.601 95.844C404.697 95.604 404.817 95.424 404.961 95.304C405.105 95.16 405.297 95.088 405.537 95.088H409.389C409.629 95.088 409.833 95.184 410.001 95.376C410.193 95.544 410.277 95.748 410.253 95.988C410.229 96.396 410.109 96.876 409.893 97.428C409.701 97.98 409.377 98.544 408.921 99.12C408.489 99.696 407.925 100.236 407.229 100.74C406.533 101.22 405.681 101.616 404.673 101.928C403.689 102.216 402.537 102.36 401.217 102.36ZM414.648 102C414.408 102 414.204 101.916 414.036 101.748C413.868 101.58 413.784 101.364 413.784 101.1V84.18C413.784 83.94 413.868 83.736 414.036 83.568C414.204 83.376 414.408 83.28 414.648 83.28H418.176C418.416 83.28 418.62 83.376 418.788 83.568C418.98 83.736 419.076 83.94 419.076 84.18V85.62C419.676 84.876 420.408 84.3 421.272 83.892C422.16 83.484 423.18 83.28 424.332 83.28H425.88C426.12 83.28 426.324 83.364 426.492 83.532C426.66 83.7 426.744 83.916 426.744 84.18V87.276C426.744 87.54 426.66 87.756 426.492 87.924C426.324 88.092 426.12 88.176 425.88 88.176H422.712C421.656 88.176 420.828 88.476 420.228 89.076C419.628 89.652 419.328 90.48 419.328 91.56V101.1C419.328 101.364 419.244 101.58 419.076 101.748C418.908 101.916 418.692 102 418.428 102H414.648ZM437.569 102.36C434.809 102.36 432.613 101.592 430.981 100.056C429.373 98.52 428.521 96.288 428.425 93.36C428.425 93.168 428.425 92.916 428.425 92.604C428.425 92.268 428.425 92.004 428.425 91.812C428.521 89.964 428.941 88.38 429.685 87.06C430.429 85.716 431.473 84.696 432.817 84C434.161 83.28 435.733 82.92 437.533 82.92C439.549 82.92 441.229 83.34 442.573 84.18C443.941 84.996 444.961 86.124 445.633 87.564C446.329 88.98 446.677 90.612 446.677 92.46V93.288C446.677 93.528 446.581 93.732 446.389 93.9C446.221 94.068 446.017 94.152 445.777 94.152H434.005C434.005 94.176 434.005 94.224 434.005 94.296C434.005 94.344 434.005 94.392 434.005 94.44C434.029 95.208 434.173 95.916 434.437 96.564C434.725 97.188 435.121 97.692 435.625 98.076C436.153 98.46 436.777 98.652 437.497 98.652C438.097 98.652 438.589 98.568 438.973 98.4C439.357 98.232 439.669 98.028 439.909 97.788C440.173 97.548 440.365 97.344 440.485 97.176C440.701 96.936 440.869 96.792 440.989 96.744C441.133 96.672 441.349 96.636 441.637 96.636H445.381C445.621 96.636 445.813 96.708 445.957 96.852C446.125 96.972 446.197 97.152 446.173 97.392C446.149 97.776 445.945 98.256 445.561 98.832C445.201 99.384 444.661 99.936 443.941 100.488C443.221 101.016 442.321 101.46 441.241 101.82C440.185 102.18 438.961 102.36 437.569 102.36ZM434.005 90.876H441.061V90.804C441.061 89.94 440.917 89.196 440.629 88.572C440.365 87.924 439.969 87.42 439.441 87.06C438.913 86.7 438.277 86.52 437.533 86.52C436.789 86.52 436.153 86.7 435.625 87.06C435.097 87.42 434.689 87.924 434.401 88.572C434.137 89.196 434.005 89.94 434.005 90.804V90.876ZM458.628 102.36C455.868 102.36 453.672 101.592 452.04 100.056C450.432 98.52 449.58 96.288 449.484 93.36C449.484 93.168 449.484 92.916 449.484 92.604C449.484 92.268 449.484 92.004 449.484 91.812C449.58 89.964 450 88.38 450.744 87.06C451.488 85.716 452.532 84.696 453.876 84C455.22 83.28 456.792 82.92 458.592 82.92C460.608 82.92 462.288 83.34 463.632 84.18C465 84.996 466.02 86.124 466.692 87.564C467.388 88.98 467.736 90.612 467.736 92.46V93.288C467.736 93.528 467.64 93.732 467.448 93.9C467.28 94.068 467.076 94.152 466.836 94.152H455.064C455.064 94.176 455.064 94.224 455.064 94.296C455.064 94.344 455.064 94.392 455.064 94.44C455.088 95.208 455.232 95.916 455.496 96.564C455.784 97.188 456.18 97.692 456.684 98.076C457.212 98.46 457.836 98.652 458.556 98.652C459.156 98.652 459.648 98.568 460.032 98.4C460.416 98.232 460.728 98.028 460.968 97.788C461.232 97.548 461.424 97.344 461.544 97.176C461.76 96.936 461.928 96.792 462.048 96.744C462.192 96.672 462.408 96.636 462.696 96.636H466.44C466.68 96.636 466.872 96.708 467.016 96.852C467.184 96.972 467.256 97.152 467.232 97.392C467.208 97.776 467.004 98.256 466.62 98.832C466.26 99.384 465.72 99.936 465 100.488C464.28 101.016 463.38 101.46 462.3 101.82C461.244 102.18 460.02 102.36 458.628 102.36ZM455.064 90.876H462.12V90.804C462.12 89.94 461.976 89.196 461.688 88.572C461.424 87.924 461.028 87.42 460.5 87.06C459.972 86.7 459.336 86.52 458.592 86.52C457.848 86.52 457.212 86.7 456.684 87.06C456.156 87.42 455.748 87.924 455.46 88.572C455.196 89.196 455.064 89.94 455.064 90.804V90.876ZM472.198 102C471.958 102 471.754 101.916 471.586 101.748C471.418 101.58 471.334 101.364 471.334 101.1V84.18C471.334 83.916 471.418 83.7 471.586 83.532C471.754 83.364 471.958 83.28 472.198 83.28H475.726C475.99 83.28 476.206 83.364 476.374 83.532C476.542 83.7 476.626 83.916 476.626 84.18V85.584C477.25 84.816 478.054 84.18 479.038 83.676C480.022 83.172 481.222 82.92 482.638 82.92C484.054 82.92 485.29 83.244 486.346 83.892C487.426 84.516 488.266 85.44 488.866 86.664C489.49 87.864 489.802 89.328 489.802 91.056V101.1C489.802 101.364 489.706 101.58 489.514 101.748C489.346 101.916 489.142 102 488.902 102H485.086C484.822 102 484.606 101.916 484.438 101.748C484.27 101.58 484.186 101.364 484.186 101.1V91.272C484.186 90 483.874 89.016 483.25 88.32C482.65 87.6 481.762 87.24 480.586 87.24C479.458 87.24 478.558 87.6 477.886 88.32C477.214 89.016 476.878 90 476.878 91.272V101.1C476.878 101.364 476.794 101.58 476.626 101.748C476.458 101.916 476.254 102 476.014 102H472.198ZM501.496 102.36C500.008 102.36 498.724 102.192 497.644 101.856C496.588 101.496 495.724 101.064 495.052 100.56C494.404 100.056 493.912 99.552 493.576 99.048C493.264 98.52 493.096 98.076 493.072 97.716C493.048 97.452 493.132 97.236 493.324 97.068C493.516 96.9 493.708 96.816 493.9 96.816H497.392C497.464 96.816 497.536 96.828 497.608 96.852C497.68 96.876 497.752 96.936 497.824 97.032C498.136 97.248 498.46 97.5 498.796 97.788C499.132 98.052 499.516 98.28 499.948 98.472C500.404 98.664 500.968 98.76 501.64 98.76C502.432 98.76 503.104 98.604 503.656 98.292C504.208 97.956 504.484 97.488 504.484 96.888C504.484 96.456 504.352 96.096 504.088 95.808C503.848 95.52 503.38 95.256 502.684 95.016C501.988 94.776 500.956 94.512 499.588 94.224C498.292 93.936 497.188 93.552 496.276 93.072C495.364 92.592 494.68 91.992 494.224 91.272C493.768 90.528 493.54 89.64 493.54 88.608C493.54 87.672 493.828 86.772 494.404 85.908C495.004 85.044 495.88 84.336 497.032 83.784C498.184 83.208 499.624 82.92 501.352 82.92C502.672 82.92 503.824 83.088 504.808 83.424C505.816 83.736 506.656 84.144 507.328 84.648C508 85.128 508.504 85.632 508.84 86.16C509.2 86.664 509.392 87.108 509.416 87.492C509.44 87.732 509.368 87.936 509.2 88.104C509.032 88.272 508.84 88.356 508.624 88.356H505.42C505.3 88.356 505.192 88.344 505.096 88.32C505 88.272 504.916 88.212 504.844 88.14C504.556 87.948 504.256 87.732 503.944 87.492C503.656 87.228 503.308 87 502.9 86.808C502.492 86.616 501.964 86.52 501.316 86.52C500.524 86.52 499.912 86.7 499.48 87.06C499.072 87.396 498.868 87.828 498.868 88.356C498.868 88.692 498.976 89.004 499.192 89.292C499.408 89.58 499.852 89.844 500.524 90.084C501.196 90.324 502.216 90.576 503.584 90.84C505.216 91.128 506.512 91.56 507.472 92.136C508.432 92.712 509.116 93.384 509.524 94.152C509.956 94.896 510.172 95.7 510.172 96.564C510.172 97.692 509.836 98.7 509.164 99.588C508.492 100.452 507.508 101.136 506.212 101.64C504.94 102.12 503.368 102.36 501.496 102.36Z" fill="#01589F"/>
</svg>
