<svg width="1920" height="235" viewBox="0 0 1920 235" fill="none" xmlns="http://www.w3.org/2000/svg">
<rect width="1920" height="235" fill="white"/>
<rect x="90.5" y="89.5" width="37" height="37" rx="18.5" stroke="#237660" stroke-dasharray="2 2"/>
<path d="M155.96 121C155.667 121 155.427 120.907 155.24 120.72C155.053 120.533 154.96 120.293 154.96 120V94C154.96 93.7067 155.053 93.4667 155.24 93.28C155.427 93.0933 155.667 93 155.96 93H174.08C174.373 93 174.613 93.0933 174.8 93.28C174.987 93.4667 175.08 93.7067 175.08 94V97.2C175.08 97.4667 174.987 97.6933 174.8 97.88C174.613 98.0667 174.373 98.16 174.08 98.16H161.12V104.44H173.2C173.493 104.44 173.733 104.533 173.92 104.72C174.107 104.907 174.2 105.147 174.2 105.44V108.4C174.2 108.667 174.107 108.893 173.92 109.08C173.733 109.267 173.493 109.36 173.2 109.36H161.12V115.84H174.4C174.693 115.84 174.933 115.933 175.12 116.12C175.307 116.307 175.4 116.547 175.4 116.84V120C175.4 120.293 175.307 120.533 175.12 120.72C174.933 120.907 174.693 121 174.4 121H155.96ZM180.275 121C180.009 121 179.769 120.907 179.555 120.72C179.369 120.533 179.275 120.293 179.275 120V94C179.275 93.7067 179.369 93.4667 179.555 93.28C179.769 93.0933 180.009 93 180.275 93H183.995C184.395 93 184.689 93.1067 184.875 93.32C185.089 93.5333 185.235 93.6933 185.315 93.8L192.675 107.36L200.115 93.8C200.169 93.6933 200.289 93.5333 200.475 93.32C200.689 93.1067 200.995 93 201.395 93H205.115C205.409 93 205.649 93.0933 205.835 93.28C206.022 93.4667 206.115 93.7067 206.115 94V120C206.115 120.293 206.022 120.533 205.835 120.72C205.649 120.907 205.409 121 205.115 121H201.035C200.769 121 200.542 120.907 200.355 120.72C200.169 120.533 200.075 120.293 200.075 120V103.84L194.995 113.36C194.862 113.6 194.689 113.813 194.475 114C194.262 114.187 193.982 114.28 193.635 114.28H191.755C191.409 114.28 191.129 114.187 190.915 114C190.702 113.813 190.529 113.6 190.395 113.36L185.315 103.84V120C185.315 120.293 185.222 120.533 185.035 120.72C184.849 120.907 184.622 121 184.355 121H180.275ZM212.169 121C211.875 121 211.635 120.907 211.449 120.72C211.262 120.533 211.169 120.293 211.169 120V94C211.169 93.7067 211.262 93.4667 211.449 93.28C211.635 93.0933 211.875 93 212.169 93H223.089C225.249 93 227.115 93.3333 228.689 94C230.289 94.6667 231.529 95.68 232.409 97.04C233.315 98.3733 233.769 100.04 233.769 102.04C233.769 104.067 233.315 105.747 232.409 107.08C231.529 108.387 230.289 109.36 228.689 110C227.115 110.64 225.249 110.96 223.089 110.96H217.729V120C217.729 120.293 217.635 120.533 217.449 120.72C217.262 120.907 217.022 121 216.729 121H212.169ZM217.609 106H222.889C224.249 106 225.302 105.667 226.049 105C226.822 104.333 227.209 103.333 227.209 102C227.209 100.827 226.862 99.8667 226.169 99.12C225.502 98.3733 224.409 98 222.889 98H217.609V106ZM233.493 121C233.253 121 233.053 120.92 232.893 120.76C232.733 120.573 232.653 120.373 232.653 120.16C232.653 120.027 232.666 119.907 232.693 119.8L242.213 94.08C242.293 93.7867 242.453 93.5333 242.693 93.32C242.933 93.1067 243.266 93 243.693 93H248.813C249.239 93 249.573 93.1067 249.813 93.32C250.053 93.5333 250.213 93.7867 250.293 94.08L259.813 119.8C259.839 119.907 259.853 120.027 259.853 120.16C259.853 120.373 259.773 120.573 259.613 120.76C259.453 120.92 259.253 121 259.013 121H254.853C254.453 121 254.159 120.907 253.973 120.72C253.786 120.533 253.666 120.36 253.613 120.2L251.893 115.72H240.613L238.893 120.2C238.839 120.36 238.719 120.533 238.533 120.72C238.346 120.907 238.053 121 237.653 121H233.493ZM242.093 110.56H250.373L246.253 99.04L242.093 110.56ZM266.686 121C266.393 121 266.153 120.907 265.966 120.72C265.779 120.533 265.686 120.293 265.686 120V98.56H258.406C258.139 98.56 257.913 98.4667 257.726 98.28C257.539 98.0933 257.446 97.8667 257.446 97.6V94C257.446 93.7067 257.539 93.4667 257.726 93.28C257.913 93.0933 258.139 93 258.406 93H279.366C279.659 93 279.899 93.0933 280.086 93.28C280.273 93.4667 280.366 93.7067 280.366 94V97.6C280.366 97.8667 280.273 98.0933 280.086 98.28C279.899 98.4667 279.659 98.56 279.366 98.56H272.126V120C272.126 120.293 272.033 120.533 271.846 120.72C271.659 120.907 271.419 121 271.126 121H266.686ZM284.333 121C284.04 121 283.8 120.907 283.613 120.72C283.427 120.533 283.333 120.293 283.333 120V94C283.333 93.7067 283.427 93.4667 283.613 93.28C283.8 93.0933 284.04 93 284.333 93H288.693C288.987 93 289.227 93.0933 289.413 93.28C289.6 93.4667 289.693 93.7067 289.693 94V104H300.533V94C300.533 93.7067 300.627 93.4667 300.813 93.28C301 93.0933 301.24 93 301.533 93H305.893C306.187 93 306.427 93.0933 306.613 93.28C306.8 93.4667 306.893 93.7067 306.893 94V120C306.893 120.293 306.8 120.533 306.613 120.72C306.427 120.907 306.187 121 305.893 121H301.533C301.24 121 301 120.907 300.813 120.72C300.627 120.533 300.533 120.293 300.533 120V109.68H289.693V120C289.693 120.293 289.6 120.533 289.413 120.72C289.227 120.907 288.987 121 288.693 121H284.333ZM312.946 121C312.652 121 312.412 120.907 312.226 120.72C312.039 120.533 311.946 120.293 311.946 120V94C311.946 93.7067 312.039 93.4667 312.226 93.28C312.412 93.0933 312.652 93 312.946 93H317.466C317.759 93 317.999 93.0933 318.186 93.28C318.372 93.4667 318.466 93.7067 318.466 94V120C318.466 120.293 318.372 120.533 318.186 120.72C317.999 120.907 317.759 121 317.466 121H312.946ZM323.047 121C322.754 121 322.514 120.907 322.327 120.72C322.141 120.507 322.047 120.267 322.047 120V116.64C322.047 116.267 322.127 115.96 322.287 115.72C322.447 115.48 322.567 115.307 322.647 115.2L336.087 98.32H323.407C323.141 98.32 322.914 98.2267 322.727 98.04C322.541 97.8533 322.447 97.6267 322.447 97.36V94C322.447 93.7067 322.541 93.4667 322.727 93.28C322.914 93.0933 323.141 93 323.407 93H343.047C343.341 93 343.581 93.0933 343.767 93.28C343.981 93.4667 344.087 93.7067 344.087 94V97.32C344.087 97.6133 344.034 97.88 343.927 98.12C343.821 98.3333 343.701 98.52 343.567 98.68L330.487 115.64H343.527C343.821 115.64 344.061 115.733 344.247 115.92C344.434 116.107 344.527 116.347 344.527 116.64V120C344.527 120.293 344.434 120.533 344.247 120.72C344.061 120.907 343.821 121 343.527 121H323.047ZM349.076 121C348.783 121 348.543 120.907 348.356 120.72C348.17 120.533 348.076 120.293 348.076 120V94C348.076 93.7067 348.17 93.4667 348.356 93.28C348.543 93.0933 348.783 93 349.076 93H353.596C353.89 93 354.13 93.0933 354.316 93.28C354.503 93.4667 354.596 93.7067 354.596 94V120C354.596 120.293 354.503 120.533 354.316 120.72C354.13 120.907 353.89 121 353.596 121H349.076ZM360.618 121C360.325 121 360.085 120.907 359.898 120.72C359.711 120.533 359.618 120.293 359.618 120V94C359.618 93.7067 359.711 93.4667 359.898 93.28C360.085 93.0933 360.325 93 360.618 93H364.258C364.658 93 364.951 93.0933 365.138 93.28C365.325 93.4667 365.445 93.6133 365.498 93.72L376.178 110.4V94C376.178 93.7067 376.271 93.4667 376.458 93.28C376.645 93.0933 376.871 93 377.138 93H381.218C381.511 93 381.751 93.0933 381.938 93.28C382.125 93.4667 382.218 93.7067 382.218 94V120C382.218 120.267 382.125 120.507 381.938 120.72C381.751 120.907 381.511 121 381.218 121H377.538C377.138 121 376.845 120.907 376.658 120.72C376.498 120.507 376.378 120.36 376.298 120.28L365.658 104.12V120C365.658 120.293 365.565 120.533 365.378 120.72C365.191 120.907 364.951 121 364.658 121H360.618ZM398.494 121.4C395.987 121.4 393.84 120.987 392.054 120.16C390.294 119.307 388.92 118.08 387.934 116.48C386.974 114.853 386.454 112.893 386.374 110.6C386.347 109.453 386.334 108.227 386.334 106.92C386.334 105.613 386.347 104.373 386.374 103.2C386.454 100.96 386.974 99.0533 387.934 97.48C388.92 95.9067 390.307 94.7067 392.094 93.88C393.907 93.0267 396.04 92.6 398.494 92.6C400.467 92.6 402.2 92.8533 403.694 93.36C405.187 93.8667 406.44 94.5333 407.454 95.36C408.467 96.16 409.24 97.04 409.774 98C410.307 98.96 410.587 99.88 410.614 100.76C410.614 101 410.534 101.213 410.374 101.4C410.214 101.56 410 101.64 409.734 101.64H404.774C404.507 101.64 404.294 101.587 404.134 101.48C404 101.373 403.88 101.213 403.774 101C403.587 100.52 403.28 100.04 402.854 99.56C402.454 99.0533 401.907 98.6267 401.214 98.28C400.52 97.9333 399.614 97.76 398.494 97.76C396.814 97.76 395.48 98.2 394.494 99.08C393.534 99.96 393.014 101.4 392.934 103.4C392.854 105.693 392.854 108.027 392.934 110.4C393.014 112.48 393.547 113.973 394.534 114.88C395.547 115.787 396.894 116.24 398.574 116.24C399.667 116.24 400.64 116.053 401.494 115.68C402.374 115.28 403.067 114.667 403.574 113.84C404.08 113.013 404.334 111.96 404.334 110.68V109.68H399.974C399.707 109.68 399.48 109.587 399.294 109.4C399.107 109.187 399.014 108.947 399.014 108.68V106.12C399.014 105.827 399.107 105.587 399.294 105.4C399.48 105.213 399.707 105.12 399.974 105.12H409.774C410.067 105.12 410.307 105.213 410.494 105.4C410.68 105.587 410.774 105.827 410.774 106.12V110.48C410.774 112.773 410.267 114.733 409.254 116.36C408.267 117.987 406.84 119.24 404.974 120.12C403.134 120.973 400.974 121.4 398.494 121.4ZM426.89 121C426.463 121 426.116 120.88 425.85 120.64C425.61 120.4 425.463 120.107 425.41 119.76L420.85 94.12C420.823 94.0667 420.81 94.0133 420.81 93.96C420.81 93.9067 420.81 93.8667 420.81 93.84C420.81 93.6267 420.89 93.44 421.05 93.28C421.21 93.0933 421.41 93 421.65 93H425.85C426.543 93 426.93 93.28 427.01 93.84L430.01 110.76L433.25 100.24C433.33 100.027 433.463 99.8 433.65 99.56C433.836 99.32 434.143 99.2 434.57 99.2H437.09C437.516 99.2 437.823 99.32 438.01 99.56C438.196 99.8 438.316 100.027 438.37 100.24L441.65 110.72L444.61 93.84C444.69 93.28 445.09 93 445.81 93H450.01C450.25 93 450.45 93.0933 450.61 93.28C450.77 93.44 450.85 93.6267 450.85 93.84C450.85 93.8667 450.85 93.9067 450.85 93.96C450.85 94.0133 450.836 94.0667 450.81 94.12L446.25 119.76C446.196 120.107 446.036 120.4 445.77 120.64C445.53 120.88 445.196 121 444.77 121H441.53C441.103 121 440.77 120.893 440.53 120.68C440.316 120.44 440.17 120.2 440.09 119.96L435.81 107.56L431.57 119.96C431.49 120.2 431.33 120.44 431.09 120.68C430.876 120.893 430.543 121 430.09 121H426.89ZM455.379 121C455.086 121 454.846 120.907 454.659 120.72C454.473 120.533 454.379 120.293 454.379 120V94C454.379 93.7067 454.473 93.4667 454.659 93.28C454.846 93.0933 455.086 93 455.379 93H459.899C460.193 93 460.433 93.0933 460.619 93.28C460.806 93.4667 460.899 93.7067 460.899 94V120C460.899 120.293 460.806 120.533 460.619 120.72C460.433 120.907 460.193 121 459.899 121H455.379ZM473.081 121C472.788 121 472.548 120.907 472.361 120.72C472.175 120.533 472.081 120.293 472.081 120V98.56H464.801C464.535 98.56 464.308 98.4667 464.121 98.28C463.935 98.0933 463.841 97.8667 463.841 97.6V94C463.841 93.7067 463.935 93.4667 464.121 93.28C464.308 93.0933 464.535 93 464.801 93H485.761C486.055 93 486.295 93.0933 486.481 93.28C486.668 93.4667 486.761 93.7067 486.761 94V97.6C486.761 97.8667 486.668 98.0933 486.481 98.28C486.295 98.4667 486.055 98.56 485.761 98.56H478.521V120C478.521 120.293 478.428 120.533 478.241 120.72C478.055 120.907 477.815 121 477.521 121H473.081ZM490.729 121C490.435 121 490.195 120.907 490.009 120.72C489.822 120.533 489.729 120.293 489.729 120V94C489.729 93.7067 489.822 93.4667 490.009 93.28C490.195 93.0933 490.435 93 490.729 93H495.089C495.382 93 495.622 93.0933 495.809 93.28C495.995 93.4667 496.089 93.7067 496.089 94V104H506.929V94C506.929 93.7067 507.022 93.4667 507.209 93.28C507.395 93.0933 507.635 93 507.929 93H512.289C512.582 93 512.822 93.0933 513.009 93.28C513.195 93.4667 513.289 93.7067 513.289 94V120C513.289 120.293 513.195 120.533 513.009 120.72C512.822 120.907 512.582 121 512.289 121H507.929C507.635 121 507.395 120.907 507.209 120.72C507.022 120.533 506.929 120.293 506.929 120V109.68H496.089V120C496.089 120.293 495.995 120.533 495.809 120.72C495.622 120.907 495.382 121 495.089 121H490.729ZM537.729 121.4C535.382 121.4 533.329 121.013 531.569 120.24C529.809 119.44 528.449 118.227 527.489 116.6C526.529 114.947 526.049 112.853 526.049 110.32V94C526.049 93.7067 526.142 93.4667 526.329 93.28C526.516 93.0933 526.756 93 527.049 93H531.409C531.702 93 531.942 93.0933 532.129 93.28C532.316 93.4667 532.409 93.7067 532.409 94V110.28C532.409 112.253 532.876 113.72 533.809 114.68C534.742 115.64 536.049 116.12 537.729 116.12C539.382 116.12 540.676 115.64 541.609 114.68C542.542 113.72 543.009 112.253 543.009 110.28V94C543.009 93.7067 543.102 93.4667 543.289 93.28C543.502 93.0933 543.742 93 544.009 93H548.409C548.676 93 548.902 93.0933 549.089 93.28C549.276 93.4667 549.369 93.7067 549.369 94V110.32C549.369 112.853 548.889 114.947 547.929 116.6C546.969 118.227 545.622 119.44 543.889 120.24C542.156 121.013 540.102 121.4 537.729 121.4ZM564.239 121.4C561.679 121.4 559.532 121.027 557.799 120.28C556.092 119.533 554.799 118.56 553.919 117.36C553.039 116.16 552.572 114.88 552.519 113.52C552.519 113.307 552.599 113.12 552.759 112.96C552.919 112.773 553.119 112.68 553.359 112.68H557.639C557.986 112.68 558.252 112.76 558.439 112.92C558.626 113.053 558.799 113.227 558.959 113.44C559.146 113.893 559.439 114.333 559.839 114.76C560.266 115.187 560.839 115.547 561.559 115.84C562.279 116.107 563.172 116.24 564.239 116.24C565.972 116.24 567.266 115.96 568.119 115.4C568.999 114.84 569.439 114.08 569.439 113.12C569.439 112.427 569.199 111.867 568.719 111.44C568.266 111.013 567.532 110.627 566.519 110.28C565.532 109.933 564.212 109.56 562.559 109.16C560.559 108.733 558.852 108.187 557.439 107.52C556.052 106.827 554.999 105.947 554.279 104.88C553.586 103.787 553.239 102.44 553.239 100.84C553.239 99.24 553.679 97.8267 554.559 96.6C555.439 95.3467 556.679 94.3733 558.279 93.68C559.879 92.96 561.786 92.6 563.999 92.6C565.786 92.6 567.359 92.84 568.719 93.32C570.106 93.8 571.252 94.4267 572.159 95.2C573.092 95.9733 573.799 96.8 574.279 97.68C574.759 98.56 575.012 99.4133 575.039 100.24C575.039 100.453 574.959 100.653 574.799 100.84C574.639 101 574.439 101.08 574.199 101.08H569.719C569.452 101.08 569.212 101.027 568.999 100.92C568.786 100.813 568.612 100.627 568.479 100.36C568.319 99.6667 567.839 99.0667 567.039 98.56C566.266 98.0267 565.252 97.76 563.999 97.76C562.692 97.76 561.652 98 560.879 98.48C560.132 98.96 559.759 99.6933 559.759 100.68C559.759 101.32 559.946 101.867 560.319 102.32C560.719 102.747 561.372 103.133 562.279 103.48C563.212 103.8 564.439 104.16 565.959 104.56C568.306 105.04 570.212 105.613 571.679 106.28C573.146 106.947 574.226 107.813 574.919 108.88C575.612 109.92 575.959 111.24 575.959 112.84C575.959 114.627 575.452 116.16 574.439 117.44C573.452 118.72 572.079 119.707 570.319 120.4C568.586 121.067 566.559 121.4 564.239 121.4ZM580.373 121C580.079 121 579.839 120.907 579.653 120.72C579.466 120.533 579.373 120.293 579.373 120V94C579.373 93.7067 579.466 93.4667 579.653 93.28C579.839 93.0933 580.079 93 580.373 93H598.493C598.786 93 599.026 93.0933 599.213 93.28C599.399 93.4667 599.493 93.7067 599.493 94V97.2C599.493 97.4667 599.399 97.6933 599.213 97.88C599.026 98.0667 598.786 98.16 598.493 98.16H585.533V104.44H597.613C597.906 104.44 598.146 104.533 598.333 104.72C598.519 104.907 598.613 105.147 598.613 105.44V108.4C598.613 108.667 598.519 108.893 598.333 109.08C598.146 109.267 597.906 109.36 597.613 109.36H585.533V115.84H598.813C599.106 115.84 599.346 115.933 599.533 116.12C599.719 116.307 599.813 116.547 599.813 116.84V120C599.813 120.293 599.719 120.533 599.533 120.72C599.346 120.907 599.106 121 598.813 121H580.373ZM604.688 121C604.395 121 604.155 120.907 603.968 120.72C603.781 120.533 603.688 120.293 603.688 120V94C603.688 93.7067 603.781 93.4667 603.968 93.28C604.155 93.0933 604.395 93 604.688 93H615.288C618.621 93 621.248 93.7733 623.168 95.32C625.088 96.84 626.048 99.04 626.048 101.92C626.048 103.867 625.581 105.493 624.648 106.8C623.715 108.107 622.461 109.08 620.888 109.72L626.528 119.72C626.608 119.88 626.648 120.027 626.648 120.16C626.648 120.373 626.568 120.573 626.408 120.76C626.248 120.92 626.048 121 625.808 121H621.368C620.888 121 620.528 120.88 620.288 120.64C620.048 120.373 619.875 120.133 619.768 119.92L614.888 110.76H610.048V120C610.048 120.293 609.955 120.533 609.768 120.72C609.581 120.907 609.341 121 609.048 121H604.688ZM610.048 105.68H615.168C616.635 105.68 617.715 105.347 618.408 104.68C619.128 104.013 619.488 103.08 619.488 101.88C619.488 100.68 619.141 99.7333 618.448 99.04C617.755 98.3467 616.661 98 615.168 98H610.048V105.68ZM640.154 121.4C637.594 121.4 635.447 121.027 633.714 120.28C632.007 119.533 630.714 118.56 629.834 117.36C628.954 116.16 628.487 114.88 628.434 113.52C628.434 113.307 628.514 113.12 628.674 112.96C628.834 112.773 629.034 112.68 629.274 112.68H633.554C633.9 112.68 634.167 112.76 634.354 112.92C634.54 113.053 634.714 113.227 634.874 113.44C635.06 113.893 635.354 114.333 635.754 114.76C636.18 115.187 636.754 115.547 637.474 115.84C638.194 116.107 639.087 116.24 640.154 116.24C641.887 116.24 643.18 115.96 644.034 115.4C644.914 114.84 645.354 114.08 645.354 113.12C645.354 112.427 645.114 111.867 644.634 111.44C644.18 111.013 643.447 110.627 642.434 110.28C641.447 109.933 640.127 109.56 638.474 109.16C636.474 108.733 634.767 108.187 633.354 107.52C631.967 106.827 630.914 105.947 630.194 104.88C629.5 103.787 629.154 102.44 629.154 100.84C629.154 99.24 629.594 97.8267 630.474 96.6C631.354 95.3467 632.594 94.3733 634.194 93.68C635.794 92.96 637.7 92.6 639.914 92.6C641.7 92.6 643.274 92.84 644.634 93.32C646.02 93.8 647.167 94.4267 648.074 95.2C649.007 95.9733 649.714 96.8 650.194 97.68C650.674 98.56 650.927 99.4133 650.954 100.24C650.954 100.453 650.874 100.653 650.714 100.84C650.554 101 650.354 101.08 650.114 101.08H645.634C645.367 101.08 645.127 101.027 644.914 100.92C644.7 100.813 644.527 100.627 644.394 100.36C644.234 99.6667 643.754 99.0667 642.954 98.56C642.18 98.0267 641.167 97.76 639.914 97.76C638.607 97.76 637.567 98 636.794 98.48C636.047 98.96 635.674 99.6933 635.674 100.68C635.674 101.32 635.86 101.867 636.234 102.32C636.634 102.747 637.287 103.133 638.194 103.48C639.127 103.8 640.354 104.16 641.874 104.56C644.22 105.04 646.127 105.613 647.594 106.28C649.06 106.947 650.14 107.813 650.834 108.88C651.527 109.92 651.874 111.24 651.874 112.84C651.874 114.627 651.367 116.16 650.354 117.44C649.367 118.72 647.994 119.707 646.234 120.4C644.5 121.067 642.474 121.4 640.154 121.4Z" fill="#237660"/>
<rect x="95.5" y="94.5" width="27" height="27" rx="13.5" fill="#237660" stroke="#237660"/>
</svg>
