<svg width="1920" height="156" viewBox="0 0 1920 156" fill="none" xmlns="http://www.w3.org/2000/svg">
<rect width="1920" height="156" fill="white"/>
<path d="M729.448 89C729.228 89 729.041 88.923 728.887 88.769C728.733 88.615 728.656 88.428 728.656 88.208V69.959H722.551C722.331 69.959 722.144 69.882 721.99 69.728C721.836 69.574 721.759 69.387 721.759 69.167V66.725C721.759 66.483 721.836 66.285 721.99 66.131C722.144 65.977 722.331 65.9 722.551 65.9H739.381C739.623 65.9 739.821 65.977 739.975 66.131C740.129 66.285 740.206 66.483 740.206 66.725V69.167C740.206 69.387 740.129 69.574 739.975 69.728C739.821 69.882 739.623 69.959 739.381 69.959H733.309V88.208C733.309 88.428 733.232 88.615 733.078 88.769C732.924 88.923 732.726 89 732.484 89H729.448ZM746.993 89.33C745.233 89.33 743.748 89.022 742.538 88.406C741.35 87.79 740.437 86.921 739.799 85.799C739.183 84.677 738.831 83.368 738.743 81.872C738.721 81.476 738.71 80.992 738.71 80.42C738.71 79.848 738.721 79.364 738.743 78.968C738.831 77.45 739.194 76.141 739.832 75.041C740.492 73.919 741.416 73.05 742.604 72.434C743.814 71.818 745.277 71.51 746.993 71.51C748.709 71.51 750.161 71.818 751.349 72.434C752.559 73.05 753.483 73.919 754.121 75.041C754.781 76.141 755.155 77.45 755.243 78.968C755.265 79.364 755.276 79.848 755.276 80.42C755.276 80.992 755.265 81.476 755.243 81.872C755.155 83.368 754.792 84.677 754.154 85.799C753.538 86.921 752.625 87.79 751.415 88.406C750.227 89.022 748.753 89.33 746.993 89.33ZM746.993 86.063C748.159 86.063 749.061 85.7 749.699 84.974C750.337 84.226 750.689 83.137 750.755 81.707C750.777 81.377 750.788 80.948 750.788 80.42C750.788 79.892 750.777 79.463 750.755 79.133C750.689 77.725 750.337 76.647 749.699 75.899C749.061 75.151 748.159 74.777 746.993 74.777C745.827 74.777 744.925 75.151 744.287 75.899C743.649 76.647 743.297 77.725 743.231 79.133C743.209 79.463 743.198 79.892 743.198 80.42C743.198 80.948 743.209 81.377 743.231 81.707C743.297 83.137 743.649 84.226 744.287 84.974C744.925 85.7 745.827 86.063 746.993 86.063ZM771.279 89C770.927 89 770.652 88.912 770.454 88.736C770.256 88.56 770.113 88.34 770.025 88.076L762.963 66.89C762.919 66.78 762.897 66.681 762.897 66.593C762.897 66.395 762.963 66.23 763.095 66.098C763.227 65.966 763.392 65.9 763.59 65.9H766.494C766.802 65.9 767.033 65.988 767.187 66.164C767.363 66.318 767.473 66.472 767.517 66.626L773.094 83.621L778.638 66.626C778.704 66.472 778.814 66.318 778.968 66.164C779.144 65.988 779.386 65.9 779.694 65.9H782.598C782.774 65.9 782.928 65.966 783.06 66.098C783.214 66.23 783.291 66.395 783.291 66.593C783.291 66.681 783.269 66.78 783.225 66.89L776.163 88.076C776.075 88.34 775.932 88.56 775.734 88.736C775.536 88.912 775.261 89 774.909 89H771.279ZM786.228 89C786.008 89 785.821 88.923 785.667 88.769C785.513 88.615 785.436 88.428 785.436 88.208V72.632C785.436 72.412 785.513 72.225 785.667 72.071C785.821 71.917 786.008 71.84 786.228 71.84H788.967C789.209 71.84 789.396 71.917 789.528 72.071C789.682 72.225 789.759 72.412 789.759 72.632V88.208C789.759 88.428 789.682 88.615 789.528 88.769C789.396 88.923 789.209 89 788.967 89H786.228ZM786.096 69.002C785.854 69.002 785.656 68.936 785.502 68.804C785.37 68.65 785.304 68.452 785.304 68.21V65.834C785.304 65.614 785.37 65.427 785.502 65.273C785.656 65.119 785.854 65.042 786.096 65.042H789.099C789.341 65.042 789.539 65.119 789.693 65.273C789.847 65.427 789.924 65.614 789.924 65.834V68.21C789.924 68.452 789.847 68.65 789.693 68.804C789.539 68.936 789.341 69.002 789.099 69.002H786.096ZM800.803 89.33C798.361 89.33 796.425 88.626 794.995 87.218C793.565 85.81 792.795 83.808 792.685 81.212C792.663 80.992 792.652 80.717 792.652 80.387C792.652 80.035 792.663 79.76 792.685 79.562C792.773 77.912 793.147 76.482 793.807 75.272C794.489 74.062 795.424 73.138 796.612 72.5C797.8 71.84 799.197 71.51 800.803 71.51C802.585 71.51 804.081 71.884 805.291 72.632C806.501 73.358 807.414 74.381 808.03 75.701C808.646 76.999 808.954 78.506 808.954 80.222V80.915C808.954 81.135 808.877 81.322 808.723 81.476C808.569 81.63 808.371 81.707 808.129 81.707H797.173C797.173 81.707 797.173 81.74 797.173 81.806C797.173 81.872 797.173 81.927 797.173 81.971C797.195 82.741 797.338 83.456 797.602 84.116C797.888 84.754 798.295 85.271 798.823 85.667C799.373 86.063 800.022 86.261 800.77 86.261C801.386 86.261 801.903 86.173 802.321 85.997C802.739 85.799 803.08 85.579 803.344 85.337C803.608 85.095 803.795 84.897 803.905 84.743C804.103 84.479 804.257 84.325 804.367 84.281C804.499 84.215 804.686 84.182 804.928 84.182H807.766C807.986 84.182 808.162 84.248 808.294 84.38C808.448 84.512 808.514 84.677 808.492 84.875C808.47 85.227 808.283 85.656 807.931 86.162C807.601 86.668 807.117 87.163 806.479 87.647C805.841 88.131 805.038 88.538 804.07 88.868C803.124 89.176 802.035 89.33 800.803 89.33ZM797.173 78.935H804.466V78.836C804.466 77.978 804.323 77.23 804.037 76.592C803.751 75.954 803.333 75.448 802.783 75.074C802.233 74.7 801.573 74.513 800.803 74.513C800.033 74.513 799.373 74.7 798.823 75.074C798.273 75.448 797.855 75.954 797.569 76.592C797.305 77.23 797.173 77.978 797.173 78.836V78.935ZM815.934 89C815.626 89 815.395 88.923 815.241 88.769C815.087 88.615 814.955 88.417 814.845 88.175L810.126 72.863C810.104 72.753 810.093 72.654 810.093 72.566C810.093 72.368 810.159 72.203 810.291 72.071C810.445 71.917 810.61 71.84 810.786 71.84H813.228C813.492 71.84 813.701 71.917 813.855 72.071C814.009 72.203 814.097 72.335 814.119 72.467L817.353 83.39L820.785 72.566C820.829 72.412 820.928 72.258 821.082 72.104C821.236 71.928 821.467 71.84 821.775 71.84H823.425C823.733 71.84 823.964 71.928 824.118 72.104C824.272 72.258 824.371 72.412 824.415 72.566L827.847 83.39L831.081 72.467C831.103 72.335 831.18 72.203 831.312 72.071C831.466 71.917 831.675 71.84 831.939 71.84H834.381C834.579 71.84 834.744 71.917 834.876 72.071C835.03 72.203 835.107 72.368 835.107 72.566C835.107 72.654 835.085 72.753 835.041 72.863L830.322 88.175C830.256 88.417 830.135 88.615 829.959 88.769C829.805 88.923 829.574 89 829.266 89H827.121C826.813 89 826.571 88.923 826.395 88.769C826.219 88.615 826.098 88.417 826.032 88.175L822.6 77.747L819.168 88.175C819.08 88.417 818.948 88.615 818.772 88.769C818.618 88.923 818.376 89 818.046 89H815.934ZM844.854 89C844.634 89 844.447 88.923 844.293 88.769C844.139 88.615 844.062 88.428 844.062 88.208V66.692C844.062 66.472 844.139 66.285 844.293 66.131C844.447 65.977 844.634 65.9 844.854 65.9H847.956C848.198 65.9 848.385 65.977 848.517 66.131C848.671 66.285 848.748 66.472 848.748 66.692V88.208C848.748 88.428 848.671 88.615 848.517 88.769C848.385 88.923 848.198 89 847.956 89H844.854ZM853.593 89C853.373 89 853.186 88.923 853.032 88.769C852.878 88.615 852.801 88.428 852.801 88.208V72.632C852.801 72.412 852.878 72.225 853.032 72.071C853.186 71.917 853.373 71.84 853.593 71.84H856.299C856.519 71.84 856.706 71.917 856.86 72.071C857.014 72.225 857.091 72.412 857.091 72.632V73.985C857.663 73.281 858.389 72.698 859.269 72.236C860.171 71.752 861.282 71.51 862.602 71.51C863.944 71.51 865.11 71.818 866.1 72.434C867.09 73.028 867.849 73.875 868.377 74.975C868.927 76.075 869.202 77.395 869.202 78.935V88.208C869.202 88.428 869.125 88.615 868.971 88.769C868.817 88.923 868.63 89 868.41 89H865.506C865.286 89 865.099 88.923 864.945 88.769C864.791 88.615 864.714 88.428 864.714 88.208V79.133C864.714 77.857 864.395 76.856 863.757 76.13C863.141 75.404 862.239 75.041 861.051 75.041C859.907 75.041 858.994 75.404 858.312 76.13C857.63 76.856 857.289 77.857 857.289 79.133V88.208C857.289 88.428 857.212 88.615 857.058 88.769C856.904 88.923 856.717 89 856.497 89H853.593ZM880.671 89C880.451 89 880.264 88.923 880.11 88.769C879.956 88.615 879.879 88.428 879.879 88.208V66.725C879.879 66.483 879.956 66.285 880.11 66.131C880.264 65.977 880.451 65.9 880.671 65.9H888.723C890.945 65.9 892.771 66.241 894.201 66.923C895.653 67.605 896.742 68.617 897.468 69.959C898.216 71.301 898.601 72.94 898.623 74.876C898.667 75.844 898.689 76.702 898.689 77.45C898.689 78.198 898.667 79.045 898.623 79.991C898.579 82.037 898.205 83.731 897.501 85.073C896.797 86.393 895.73 87.383 894.3 88.043C892.892 88.681 891.088 89 888.888 89H880.671ZM884.466 85.205H888.723C889.955 85.205 890.956 85.029 891.726 84.677C892.496 84.325 893.057 83.764 893.409 82.994C893.783 82.202 893.981 81.168 894.003 79.892C894.025 79.232 894.036 78.66 894.036 78.176C894.058 77.67 894.058 77.175 894.036 76.691C894.036 76.185 894.025 75.613 894.003 74.975C893.959 73.171 893.508 71.84 892.65 70.982C891.792 70.124 890.428 69.695 888.558 69.695H884.466V85.205ZM909.352 89.33C906.91 89.33 904.974 88.626 903.544 87.218C902.114 85.81 901.344 83.808 901.234 81.212C901.212 80.992 901.201 80.717 901.201 80.387C901.201 80.035 901.212 79.76 901.234 79.562C901.322 77.912 901.696 76.482 902.356 75.272C903.038 74.062 903.973 73.138 905.161 72.5C906.349 71.84 907.746 71.51 909.352 71.51C911.134 71.51 912.63 71.884 913.84 72.632C915.05 73.358 915.963 74.381 916.579 75.701C917.195 76.999 917.503 78.506 917.503 80.222V80.915C917.503 81.135 917.426 81.322 917.272 81.476C917.118 81.63 916.92 81.707 916.678 81.707H905.722C905.722 81.707 905.722 81.74 905.722 81.806C905.722 81.872 905.722 81.927 905.722 81.971C905.744 82.741 905.887 83.456 906.151 84.116C906.437 84.754 906.844 85.271 907.372 85.667C907.922 86.063 908.571 86.261 909.319 86.261C909.935 86.261 910.452 86.173 910.87 85.997C911.288 85.799 911.629 85.579 911.893 85.337C912.157 85.095 912.344 84.897 912.454 84.743C912.652 84.479 912.806 84.325 912.916 84.281C913.048 84.215 913.235 84.182 913.477 84.182H916.315C916.535 84.182 916.711 84.248 916.843 84.38C916.997 84.512 917.063 84.677 917.041 84.875C917.019 85.227 916.832 85.656 916.48 86.162C916.15 86.668 915.666 87.163 915.028 87.647C914.39 88.131 913.587 88.538 912.619 88.868C911.673 89.176 910.584 89.33 909.352 89.33ZM905.722 78.935H913.015V78.836C913.015 77.978 912.872 77.23 912.586 76.592C912.3 75.954 911.882 75.448 911.332 75.074C910.782 74.7 910.122 74.513 909.352 74.513C908.582 74.513 907.922 74.7 907.372 75.074C906.822 75.448 906.404 75.954 906.118 76.592C905.854 77.23 905.722 77.978 905.722 78.836V78.935ZM927.971 89C926.651 89 925.54 88.769 924.638 88.307C923.736 87.845 923.065 87.163 922.625 86.261C922.185 85.337 921.965 84.193 921.965 82.829V75.338H919.358C919.138 75.338 918.951 75.261 918.797 75.107C918.643 74.953 918.566 74.766 918.566 74.546V72.632C918.566 72.412 918.643 72.225 918.797 72.071C918.951 71.917 919.138 71.84 919.358 71.84H921.965V66.362C921.965 66.142 922.031 65.955 922.163 65.801C922.317 65.647 922.515 65.57 922.757 65.57H925.43C925.65 65.57 925.837 65.647 925.991 65.801C926.145 65.955 926.222 66.142 926.222 66.362V71.84H930.347C930.567 71.84 930.754 71.917 930.908 72.071C931.062 72.225 931.139 72.412 931.139 72.632V74.546C931.139 74.766 931.062 74.953 930.908 75.107C930.754 75.261 930.567 75.338 930.347 75.338H926.222V82.499C926.222 83.401 926.376 84.105 926.684 84.611C927.014 85.117 927.575 85.37 928.367 85.37H930.644C930.864 85.37 931.051 85.447 931.205 85.601C931.359 85.755 931.436 85.942 931.436 86.162V88.208C931.436 88.428 931.359 88.615 931.205 88.769C931.051 88.923 930.864 89 930.644 89H927.971ZM938.62 89.33C937.476 89.33 936.442 89.11 935.518 88.67C934.594 88.208 933.857 87.603 933.307 86.855C932.779 86.085 932.515 85.227 932.515 84.281C932.515 82.741 933.131 81.52 934.363 80.618C935.617 79.694 937.267 79.078 939.313 78.77L943.834 78.11V77.417C943.834 76.493 943.603 75.778 943.141 75.272C942.679 74.766 941.887 74.513 940.765 74.513C939.973 74.513 939.324 74.678 938.818 75.008C938.334 75.316 937.971 75.734 937.729 76.262C937.553 76.548 937.3 76.691 936.97 76.691H934.363C934.121 76.691 933.934 76.625 933.802 76.493C933.692 76.361 933.637 76.185 933.637 75.965C933.659 75.613 933.802 75.184 934.066 74.678C934.33 74.172 934.748 73.688 935.32 73.226C935.892 72.742 936.629 72.335 937.531 72.005C938.433 71.675 939.522 71.51 940.798 71.51C942.184 71.51 943.35 71.686 944.296 72.038C945.264 72.368 946.034 72.819 946.606 73.391C947.178 73.963 947.596 74.634 947.86 75.404C948.124 76.174 948.256 76.988 948.256 77.846V88.208C948.256 88.428 948.179 88.615 948.025 88.769C947.871 88.923 947.684 89 947.464 89H944.791C944.549 89 944.351 88.923 944.197 88.769C944.065 88.615 943.999 88.428 943.999 88.208V86.921C943.713 87.339 943.328 87.735 942.844 88.109C942.36 88.461 941.766 88.758 941.062 89C940.38 89.22 939.566 89.33 938.62 89.33ZM939.742 86.195C940.512 86.195 941.205 86.03 941.821 85.7C942.459 85.37 942.954 84.864 943.306 84.182C943.68 83.478 943.867 82.598 943.867 81.542V80.849L940.567 81.377C939.269 81.575 938.301 81.894 937.663 82.334C937.025 82.774 936.706 83.313 936.706 83.951C936.706 84.435 936.849 84.853 937.135 85.205C937.443 85.535 937.828 85.788 938.29 85.964C938.752 86.118 939.236 86.195 939.742 86.195ZM952.556 89C952.336 89 952.149 88.923 951.995 88.769C951.841 88.615 951.764 88.428 951.764 88.208V72.632C951.764 72.412 951.841 72.225 951.995 72.071C952.149 71.917 952.336 71.84 952.556 71.84H955.295C955.537 71.84 955.724 71.917 955.856 72.071C956.01 72.225 956.087 72.412 956.087 72.632V88.208C956.087 88.428 956.01 88.615 955.856 88.769C955.724 88.923 955.537 89 955.295 89H952.556ZM952.424 69.002C952.182 69.002 951.984 68.936 951.83 68.804C951.698 68.65 951.632 68.452 951.632 68.21V65.834C951.632 65.614 951.698 65.427 951.83 65.273C951.984 65.119 952.182 65.042 952.424 65.042H955.427C955.669 65.042 955.867 65.119 956.021 65.273C956.175 65.427 956.252 65.614 956.252 65.834V68.21C956.252 68.452 956.175 68.65 956.021 68.804C955.867 68.936 955.669 69.002 955.427 69.002H952.424ZM960.564 89C960.344 89 960.157 88.923 960.003 88.769C959.849 88.615 959.772 88.428 959.772 88.208V66.362C959.772 66.142 959.849 65.955 960.003 65.801C960.157 65.647 960.344 65.57 960.564 65.57H963.303C963.523 65.57 963.71 65.647 963.864 65.801C964.018 65.955 964.095 66.142 964.095 66.362V88.208C964.095 88.428 964.018 88.615 963.864 88.769C963.71 88.923 963.523 89 963.303 89H960.564ZM975.749 89C975.529 89 975.342 88.923 975.188 88.769C975.034 88.615 974.957 88.428 974.957 88.208V66.692C974.957 66.472 975.034 66.285 975.188 66.131C975.342 65.977 975.529 65.9 975.749 65.9H978.818C979.038 65.9 979.225 65.977 979.379 66.131C979.533 66.285 979.61 66.472 979.61 66.692V85.073H990.071C990.313 85.073 990.511 85.15 990.665 85.304C990.819 85.458 990.896 85.656 990.896 85.898V88.208C990.896 88.428 990.819 88.615 990.665 88.769C990.511 88.923 990.313 89 990.071 89H975.749ZM1000.11 89.33C997.67 89.33 995.734 88.626 994.304 87.218C992.874 85.81 992.104 83.808 991.994 81.212C991.972 80.992 991.961 80.717 991.961 80.387C991.961 80.035 991.972 79.76 991.994 79.562C992.082 77.912 992.456 76.482 993.116 75.272C993.798 74.062 994.733 73.138 995.921 72.5C997.109 71.84 998.506 71.51 1000.11 71.51C1001.89 71.51 1003.39 71.884 1004.6 72.632C1005.81 73.358 1006.72 74.381 1007.34 75.701C1007.95 76.999 1008.26 78.506 1008.26 80.222V80.915C1008.26 81.135 1008.19 81.322 1008.03 81.476C1007.88 81.63 1007.68 81.707 1007.44 81.707H996.482C996.482 81.707 996.482 81.74 996.482 81.806C996.482 81.872 996.482 81.927 996.482 81.971C996.504 82.741 996.647 83.456 996.911 84.116C997.197 84.754 997.604 85.271 998.132 85.667C998.682 86.063 999.331 86.261 1000.08 86.261C1000.69 86.261 1001.21 86.173 1001.63 85.997C1002.05 85.799 1002.39 85.579 1002.65 85.337C1002.92 85.095 1003.1 84.897 1003.21 84.743C1003.41 84.479 1003.57 84.325 1003.68 84.281C1003.81 84.215 1003.99 84.182 1004.24 84.182H1007.07C1007.29 84.182 1007.47 84.248 1007.6 84.38C1007.76 84.512 1007.82 84.677 1007.8 84.875C1007.78 85.227 1007.59 85.656 1007.24 86.162C1006.91 86.668 1006.43 87.163 1005.79 87.647C1005.15 88.131 1004.35 88.538 1003.38 88.868C1002.43 89.176 1001.34 89.33 1000.11 89.33ZM996.482 78.935H1003.77V78.836C1003.77 77.978 1003.63 77.23 1003.35 76.592C1003.06 75.954 1002.64 75.448 1002.09 75.074C1001.54 74.7 1000.88 74.513 1000.11 74.513C999.342 74.513 998.682 74.7 998.132 75.074C997.582 75.448 997.164 75.954 996.878 76.592C996.614 77.23 996.482 77.978 996.482 78.836V78.935ZM1018.73 89C1017.41 89 1016.3 88.769 1015.4 88.307C1014.5 87.845 1013.82 87.163 1013.38 86.261C1012.94 85.337 1012.72 84.193 1012.72 82.829V75.338H1010.12C1009.9 75.338 1009.71 75.261 1009.56 75.107C1009.4 74.953 1009.33 74.766 1009.33 74.546V72.632C1009.33 72.412 1009.4 72.225 1009.56 72.071C1009.71 71.917 1009.9 71.84 1010.12 71.84H1012.72V66.362C1012.72 66.142 1012.79 65.955 1012.92 65.801C1013.08 65.647 1013.27 65.57 1013.52 65.57H1016.19C1016.41 65.57 1016.6 65.647 1016.75 65.801C1016.9 65.955 1016.98 66.142 1016.98 66.362V71.84H1021.11C1021.33 71.84 1021.51 71.917 1021.67 72.071C1021.82 72.225 1021.9 72.412 1021.9 72.632V74.546C1021.9 74.766 1021.82 74.953 1021.67 75.107C1021.51 75.261 1021.33 75.338 1021.11 75.338H1016.98V82.499C1016.98 83.401 1017.14 84.105 1017.44 84.611C1017.77 85.117 1018.33 85.37 1019.13 85.37H1021.4C1021.62 85.37 1021.81 85.447 1021.96 85.601C1022.12 85.755 1022.2 85.942 1022.2 86.162V88.208C1022.2 88.428 1022.12 88.615 1021.96 88.769C1021.81 88.923 1021.62 89 1021.4 89H1018.73ZM1024.43 72.929C1024.23 72.929 1024.08 72.863 1023.97 72.731C1023.86 72.599 1023.81 72.423 1023.84 72.203L1024.73 66.626C1024.77 66.34 1024.87 66.098 1025.02 65.9C1025.2 65.68 1025.45 65.57 1025.78 65.57H1028.82C1028.99 65.57 1029.14 65.636 1029.25 65.768C1029.36 65.878 1029.41 66.01 1029.41 66.164C1029.41 66.318 1029.38 66.472 1029.31 66.626L1027.2 72.071C1027.11 72.291 1026.98 72.489 1026.81 72.665C1026.65 72.841 1026.42 72.929 1026.11 72.929H1024.43ZM1037.16 89.33C1035.84 89.33 1034.71 89.176 1033.77 88.868C1032.84 88.56 1032.08 88.175 1031.49 87.713C1030.89 87.251 1030.45 86.789 1030.17 86.327C1029.88 85.865 1029.73 85.48 1029.71 85.172C1029.68 84.93 1029.75 84.743 1029.9 84.611C1030.08 84.457 1030.27 84.38 1030.47 84.38H1033.07C1033.16 84.38 1033.24 84.391 1033.3 84.413C1033.37 84.435 1033.46 84.501 1033.57 84.611C1033.85 84.853 1034.15 85.106 1034.46 85.37C1034.79 85.634 1035.17 85.865 1035.61 86.063C1036.05 86.239 1036.6 86.327 1037.26 86.327C1038.12 86.327 1038.84 86.162 1039.41 85.832C1040 85.48 1040.3 84.985 1040.3 84.347C1040.3 83.885 1040.17 83.511 1039.9 83.225C1039.66 82.939 1039.2 82.686 1038.52 82.466C1037.84 82.224 1036.87 81.971 1035.61 81.707C1034.38 81.421 1033.36 81.058 1032.54 80.618C1031.73 80.178 1031.13 79.628 1030.73 78.968C1030.33 78.308 1030.14 77.538 1030.14 76.658C1030.14 75.8 1030.39 74.986 1030.89 74.216C1031.42 73.424 1032.19 72.775 1033.2 72.269C1034.24 71.763 1035.51 71.51 1037.03 71.51C1038.22 71.51 1039.25 71.664 1040.13 71.972C1041.01 72.258 1041.74 72.621 1042.31 73.061C1042.91 73.501 1043.36 73.952 1043.67 74.414C1043.97 74.854 1044.14 75.239 1044.16 75.569C1044.18 75.811 1044.12 76.009 1043.96 76.163C1043.81 76.295 1043.63 76.361 1043.43 76.361H1040.99C1040.88 76.361 1040.78 76.339 1040.7 76.295C1040.61 76.251 1040.52 76.196 1040.43 76.13C1040.19 75.91 1039.93 75.679 1039.64 75.437C1039.35 75.195 1039 74.986 1038.58 74.81C1038.19 74.612 1037.66 74.513 1037 74.513C1036.16 74.513 1035.53 74.7 1035.09 75.074C1034.65 75.426 1034.43 75.877 1034.43 76.427C1034.43 76.801 1034.52 77.131 1034.72 77.417C1034.94 77.681 1035.37 77.934 1036.01 78.176C1036.65 78.418 1037.62 78.671 1038.91 78.935C1040.39 79.199 1041.55 79.595 1042.41 80.123C1043.29 80.629 1043.91 81.223 1044.26 81.905C1044.63 82.565 1044.82 83.302 1044.82 84.116C1044.82 85.106 1044.52 85.997 1043.93 86.789C1043.36 87.581 1042.5 88.208 1041.36 88.67C1040.23 89.11 1038.84 89.33 1037.16 89.33ZM1063.62 89.33C1061.58 89.33 1059.84 88.978 1058.41 88.274C1057 87.548 1055.92 86.525 1055.17 85.205C1054.43 83.863 1054.01 82.257 1053.92 80.387C1053.9 79.485 1053.89 78.517 1053.89 77.483C1053.89 76.449 1053.9 75.459 1053.92 74.513C1054.01 72.665 1054.43 71.07 1055.17 69.728C1055.94 68.386 1057.03 67.363 1058.44 66.659C1059.87 65.933 1061.6 65.57 1063.62 65.57C1065.12 65.57 1066.46 65.768 1067.65 66.164C1068.84 66.56 1069.85 67.11 1070.68 67.814C1071.52 68.496 1072.17 69.299 1072.63 70.223C1073.09 71.147 1073.34 72.148 1073.36 73.226C1073.38 73.424 1073.31 73.589 1073.16 73.721C1073.03 73.853 1072.86 73.919 1072.66 73.919H1069.53C1069.29 73.919 1069.09 73.864 1068.94 73.754C1068.78 73.622 1068.67 73.413 1068.61 73.127C1068.25 71.675 1067.65 70.685 1066.79 70.157C1065.93 69.629 1064.87 69.365 1063.59 69.365C1062.12 69.365 1060.94 69.783 1060.06 70.619C1059.18 71.433 1058.71 72.786 1058.64 74.678C1058.57 76.482 1058.57 78.33 1058.64 80.222C1058.71 82.114 1059.18 83.478 1060.06 84.314C1060.94 85.128 1062.12 85.535 1063.59 85.535C1064.87 85.535 1065.93 85.271 1066.79 84.743C1067.65 84.193 1068.25 83.203 1068.61 81.773C1068.67 81.465 1068.78 81.256 1068.94 81.146C1069.09 81.036 1069.29 80.981 1069.53 80.981H1072.66C1072.86 80.981 1073.03 81.047 1073.16 81.179C1073.31 81.311 1073.38 81.476 1073.36 81.674C1073.34 82.752 1073.09 83.753 1072.63 84.677C1072.17 85.601 1071.52 86.415 1070.68 87.119C1069.85 87.801 1068.84 88.34 1067.65 88.736C1066.46 89.132 1065.12 89.33 1063.62 89.33ZM1083.74 89.33C1081.98 89.33 1080.49 89.022 1079.28 88.406C1078.1 87.79 1077.18 86.921 1076.55 85.799C1075.93 84.677 1075.58 83.368 1075.49 81.872C1075.47 81.476 1075.46 80.992 1075.46 80.42C1075.46 79.848 1075.47 79.364 1075.49 78.968C1075.58 77.45 1075.94 76.141 1076.58 75.041C1077.24 73.919 1078.16 73.05 1079.35 72.434C1080.56 71.818 1082.02 71.51 1083.74 71.51C1085.46 71.51 1086.91 71.818 1088.1 72.434C1089.31 73.05 1090.23 73.919 1090.87 75.041C1091.53 76.141 1091.9 77.45 1091.99 78.968C1092.01 79.364 1092.02 79.848 1092.02 80.42C1092.02 80.992 1092.01 81.476 1091.99 81.872C1091.9 83.368 1091.54 84.677 1090.9 85.799C1090.28 86.921 1089.37 87.79 1088.16 88.406C1086.97 89.022 1085.5 89.33 1083.74 89.33ZM1083.74 86.063C1084.91 86.063 1085.81 85.7 1086.45 84.974C1087.08 84.226 1087.44 83.137 1087.5 81.707C1087.52 81.377 1087.53 80.948 1087.53 80.42C1087.53 79.892 1087.52 79.463 1087.5 79.133C1087.44 77.725 1087.08 76.647 1086.45 75.899C1085.81 75.151 1084.91 74.777 1083.74 74.777C1082.57 74.777 1081.67 75.151 1081.03 75.899C1080.4 76.647 1080.04 77.725 1079.98 79.133C1079.96 79.463 1079.94 79.892 1079.94 80.42C1079.94 80.948 1079.96 81.377 1079.98 81.707C1080.04 83.137 1080.4 84.226 1081.03 84.974C1081.67 85.7 1082.57 86.063 1083.74 86.063ZM1095.74 89C1095.52 89 1095.34 88.923 1095.18 88.769C1095.03 88.615 1094.95 88.428 1094.95 88.208V72.632C1094.95 72.412 1095.03 72.225 1095.18 72.071C1095.34 71.917 1095.52 71.84 1095.74 71.84H1098.45C1098.67 71.84 1098.86 71.917 1099.01 72.071C1099.17 72.225 1099.24 72.412 1099.24 72.632V73.985C1099.81 73.281 1100.54 72.698 1101.42 72.236C1102.32 71.752 1103.43 71.51 1104.75 71.51C1106.1 71.51 1107.26 71.818 1108.25 72.434C1109.24 73.028 1110 73.875 1110.53 74.975C1111.08 76.075 1111.35 77.395 1111.35 78.935V88.208C1111.35 88.428 1111.28 88.615 1111.12 88.769C1110.97 88.923 1110.78 89 1110.56 89H1107.66C1107.44 89 1107.25 88.923 1107.1 88.769C1106.94 88.615 1106.87 88.428 1106.87 88.208V79.133C1106.87 77.857 1106.55 76.856 1105.91 76.13C1105.29 75.404 1104.39 75.041 1103.2 75.041C1102.06 75.041 1101.15 75.404 1100.46 76.13C1099.78 76.856 1099.44 77.857 1099.44 79.133V88.208C1099.44 88.428 1099.36 88.615 1099.21 88.769C1099.06 88.923 1098.87 89 1098.65 89H1095.74ZM1115.61 89C1115.39 89 1115.2 88.923 1115.05 88.769C1114.9 88.615 1114.82 88.428 1114.82 88.208V72.632C1114.82 72.412 1114.9 72.225 1115.05 72.071C1115.2 71.917 1115.39 71.84 1115.61 71.84H1118.32C1118.54 71.84 1118.72 71.917 1118.88 72.071C1119.03 72.225 1119.11 72.412 1119.11 72.632V73.985C1119.68 73.281 1120.41 72.698 1121.29 72.236C1122.19 71.752 1123.3 71.51 1124.62 71.51C1125.96 71.51 1127.13 71.818 1128.12 72.434C1129.11 73.028 1129.87 73.875 1130.4 74.975C1130.95 76.075 1131.22 77.395 1131.22 78.935V88.208C1131.22 88.428 1131.14 88.615 1130.99 88.769C1130.84 88.923 1130.65 89 1130.43 89H1127.52C1127.3 89 1127.12 88.923 1126.96 88.769C1126.81 88.615 1126.73 88.428 1126.73 88.208V79.133C1126.73 77.857 1126.41 76.856 1125.78 76.13C1125.16 75.404 1124.26 75.041 1123.07 75.041C1121.93 75.041 1121.01 75.404 1120.33 76.13C1119.65 76.856 1119.31 77.857 1119.31 79.133V88.208C1119.31 88.428 1119.23 88.615 1119.08 88.769C1118.92 88.923 1118.74 89 1118.52 89H1115.61ZM1142.08 89.33C1139.64 89.33 1137.7 88.626 1136.27 87.218C1134.84 85.81 1134.07 83.808 1133.96 81.212C1133.94 80.992 1133.93 80.717 1133.93 80.387C1133.93 80.035 1133.94 79.76 1133.96 79.562C1134.05 77.912 1134.42 76.482 1135.08 75.272C1135.76 74.062 1136.7 73.138 1137.89 72.5C1139.07 71.84 1140.47 71.51 1142.08 71.51C1143.86 71.51 1145.36 71.884 1146.57 72.632C1147.78 73.358 1148.69 74.381 1149.3 75.701C1149.92 76.999 1150.23 78.506 1150.23 80.222V80.915C1150.23 81.135 1150.15 81.322 1150 81.476C1149.84 81.63 1149.65 81.707 1149.4 81.707H1138.45C1138.45 81.707 1138.45 81.74 1138.45 81.806C1138.45 81.872 1138.45 81.927 1138.45 81.971C1138.47 82.741 1138.61 83.456 1138.88 84.116C1139.16 84.754 1139.57 85.271 1140.1 85.667C1140.65 86.063 1141.3 86.261 1142.04 86.261C1142.66 86.261 1143.18 86.173 1143.6 85.997C1144.01 85.799 1144.35 85.579 1144.62 85.337C1144.88 85.095 1145.07 84.897 1145.18 84.743C1145.38 84.479 1145.53 84.325 1145.64 84.281C1145.77 84.215 1145.96 84.182 1146.2 84.182H1149.04C1149.26 84.182 1149.44 84.248 1149.57 84.38C1149.72 84.512 1149.79 84.677 1149.77 84.875C1149.74 85.227 1149.56 85.656 1149.21 86.162C1148.88 86.668 1148.39 87.163 1147.75 87.647C1147.12 88.131 1146.31 88.538 1145.34 88.868C1144.4 89.176 1143.31 89.33 1142.08 89.33ZM1138.45 78.935H1145.74V78.836C1145.74 77.978 1145.6 77.23 1145.31 76.592C1145.03 75.954 1144.61 75.448 1144.06 75.074C1143.51 74.7 1142.85 74.513 1142.08 74.513C1141.31 74.513 1140.65 74.7 1140.1 75.074C1139.55 75.448 1139.13 75.954 1138.84 76.592C1138.58 77.23 1138.45 77.978 1138.45 78.836V78.935ZM1160.43 89.33C1158.85 89.33 1157.45 89.033 1156.24 88.439C1155.05 87.845 1154.12 86.987 1153.43 85.865C1152.77 84.721 1152.41 83.346 1152.35 81.74C1152.32 81.41 1152.31 80.981 1152.31 80.453C1152.31 79.903 1152.32 79.452 1152.35 79.1C1152.41 77.494 1152.77 76.13 1153.43 75.008C1154.12 73.864 1155.05 72.995 1156.24 72.401C1157.45 71.807 1158.85 71.51 1160.43 71.51C1161.84 71.51 1163.04 71.708 1164.03 72.104C1165.02 72.5 1165.83 72.995 1166.47 73.589C1167.11 74.183 1167.58 74.81 1167.89 75.47C1168.22 76.108 1168.39 76.691 1168.42 77.219C1168.44 77.461 1168.36 77.659 1168.19 77.813C1168.03 77.945 1167.84 78.011 1167.62 78.011H1164.72C1164.5 78.011 1164.32 77.956 1164.19 77.846C1164.08 77.736 1163.97 77.571 1163.86 77.351C1163.53 76.471 1163.09 75.855 1162.54 75.503C1162.01 75.129 1161.33 74.942 1160.5 74.942C1159.4 74.942 1158.52 75.294 1157.86 75.998C1157.22 76.68 1156.88 77.769 1156.83 79.265C1156.79 80.101 1156.79 80.871 1156.83 81.575C1156.88 83.093 1157.22 84.193 1157.86 84.875C1158.52 85.557 1159.4 85.898 1160.5 85.898C1161.35 85.898 1162.05 85.722 1162.58 85.37C1163.1 84.996 1163.53 84.369 1163.86 83.489C1163.97 83.269 1164.08 83.104 1164.19 82.994C1164.32 82.884 1164.5 82.829 1164.72 82.829H1167.62C1167.84 82.829 1168.03 82.906 1168.19 83.06C1168.36 83.192 1168.44 83.379 1168.42 83.621C1168.39 84.017 1168.28 84.468 1168.09 84.974C1167.91 85.458 1167.61 85.964 1167.2 86.492C1166.8 86.998 1166.29 87.471 1165.68 87.911C1165.06 88.329 1164.31 88.67 1163.43 88.934C1162.58 89.198 1161.57 89.33 1160.43 89.33ZM1178.89 89C1177.57 89 1176.46 88.769 1175.55 88.307C1174.65 87.845 1173.98 87.163 1173.54 86.261C1173.1 85.337 1172.88 84.193 1172.88 82.829V75.338H1170.27C1170.05 75.338 1169.87 75.261 1169.71 75.107C1169.56 74.953 1169.48 74.766 1169.48 74.546V72.632C1169.48 72.412 1169.56 72.225 1169.71 72.071C1169.87 71.917 1170.05 71.84 1170.27 71.84H1172.88V66.362C1172.88 66.142 1172.95 65.955 1173.08 65.801C1173.23 65.647 1173.43 65.57 1173.67 65.57H1176.35C1176.57 65.57 1176.75 65.647 1176.91 65.801C1177.06 65.955 1177.14 66.142 1177.14 66.362V71.84H1181.26C1181.48 71.84 1181.67 71.917 1181.82 72.071C1181.98 72.225 1182.06 72.412 1182.06 72.632V74.546C1182.06 74.766 1181.98 74.953 1181.82 75.107C1181.67 75.261 1181.48 75.338 1181.26 75.338H1177.14V82.499C1177.14 83.401 1177.29 84.105 1177.6 84.611C1177.93 85.117 1178.49 85.37 1179.28 85.37H1181.56C1181.78 85.37 1181.97 85.447 1182.12 85.601C1182.28 85.755 1182.35 85.942 1182.35 86.162V88.208C1182.35 88.428 1182.28 88.615 1182.12 88.769C1181.97 88.923 1181.78 89 1181.56 89H1178.89ZM1192.26 82.598C1192.04 82.598 1191.85 82.532 1191.7 82.4C1191.54 82.246 1191.47 82.048 1191.47 81.806V66.692C1191.47 66.472 1191.54 66.285 1191.7 66.131C1191.85 65.977 1192.04 65.9 1192.26 65.9H1194.93C1195.17 65.9 1195.36 65.977 1195.49 66.131C1195.65 66.285 1195.72 66.472 1195.72 66.692V81.806C1195.72 82.048 1195.65 82.246 1195.49 82.4C1195.36 82.532 1195.17 82.598 1194.93 82.598H1192.26ZM1192.06 89C1191.82 89 1191.62 88.923 1191.47 88.769C1191.34 88.615 1191.27 88.428 1191.27 88.208V85.139C1191.27 84.897 1191.34 84.699 1191.47 84.545C1191.62 84.391 1191.82 84.314 1192.06 84.314H1195.13C1195.37 84.314 1195.57 84.391 1195.72 84.545C1195.88 84.699 1195.96 84.897 1195.96 85.139V88.208C1195.96 88.428 1195.88 88.615 1195.72 88.769C1195.57 88.923 1195.37 89 1195.13 89H1192.06Z" fill="black"/>
</svg>
