<svg width="1920" height="675" viewBox="0 0 1920 675" fill="none" xmlns="http://www.w3.org/2000/svg">
<rect width="1920" height="675" fill="white"/>
<path d="M133.552 142V107.296H142.048V122.248L153.4 107.296H162.64L152.632 120.64L164.08 142H155.224L146.776 126.592L142.048 132.472V142H133.552ZM176.956 142.48C174.444 142.48 172.228 141.96 170.308 140.92C168.404 139.88 166.916 138.416 165.844 136.528C164.788 134.64 164.26 132.424 164.26 129.88C164.26 127.464 164.74 125.264 165.7 123.28C166.676 121.28 168.084 119.688 169.924 118.504C171.764 117.304 173.98 116.704 176.572 116.704C179.196 116.704 181.388 117.256 183.148 118.36C184.908 119.448 186.228 120.952 187.108 122.872C188.004 124.776 188.452 126.96 188.452 129.424V131.464H172.3C172.284 132.6 172.46 133.56 172.828 134.344C173.196 135.112 173.716 135.696 174.388 136.096C175.06 136.496 175.844 136.696 176.74 136.696C177.764 136.696 178.668 136.488 179.452 136.072C180.252 135.64 180.836 134.896 181.204 133.84H188.5C188.228 135.648 187.508 137.2 186.34 138.496C185.188 139.776 183.78 140.76 182.116 141.448C180.452 142.136 178.732 142.48 176.956 142.48ZM172.276 126.76H180.868C180.868 125.944 180.708 125.2 180.388 124.528C180.068 123.84 179.588 123.296 178.948 122.896C178.324 122.496 177.532 122.296 176.572 122.296C175.724 122.296 174.972 122.512 174.316 122.944C173.676 123.36 173.172 123.912 172.804 124.6C172.452 125.272 172.276 125.992 172.276 126.76ZM195.675 149.92C193.867 149.92 192.579 149.76 191.811 149.44C191.043 149.12 190.659 148.96 190.659 148.96V143.776L193.059 143.896C194.211 143.976 195.123 143.936 195.795 143.776C196.467 143.616 196.971 143.392 197.307 143.104C197.643 142.832 197.867 142.552 197.979 142.264C198.107 141.992 198.187 141.8 198.219 141.688L198.507 140.752L188.859 117.184H196.923L202.251 132.016L207.699 117.184H215.691L205.827 141.352C204.851 143.704 203.843 145.496 202.803 146.728C201.763 147.976 200.651 148.816 199.467 149.248C198.299 149.696 197.035 149.92 195.675 149.92ZM241.186 142.48C239.426 142.48 237.698 142.264 236.002 141.832C234.306 141.384 232.746 140.72 231.322 139.84C229.914 138.944 228.754 137.824 227.842 136.48C226.93 135.136 226.394 133.56 226.234 131.752H234.586C234.794 132.696 235.202 133.496 235.81 134.152C236.418 134.792 237.218 135.288 238.21 135.64C239.202 135.976 240.354 136.144 241.666 136.144C242.594 136.144 243.498 136.024 244.378 135.784C245.258 135.528 245.986 135.128 246.562 134.584C247.138 134.04 247.426 133.32 247.426 132.424C247.426 131.336 247.002 130.552 246.154 130.072C245.306 129.576 244.226 129.192 242.914 128.92L236.698 127.672C234.746 127.288 233.058 126.68 231.634 125.848C230.226 125.016 229.138 123.92 228.37 122.56C227.618 121.2 227.242 119.56 227.242 117.64C227.242 115.384 227.866 113.456 229.114 111.856C230.362 110.24 232.05 109.008 234.178 108.16C236.322 107.296 238.73 106.864 241.402 106.864C244.346 106.864 246.85 107.328 248.914 108.256C250.978 109.184 252.554 110.464 253.642 112.096C254.73 113.712 255.298 115.544 255.346 117.592H247.186C247.09 116.552 246.778 115.72 246.25 115.096C245.722 114.456 245.026 113.984 244.162 113.68C243.298 113.376 242.298 113.224 241.162 113.224C239.258 113.224 237.89 113.592 237.058 114.328C236.226 115.064 235.81 115.88 235.81 116.776C235.81 117.672 236.138 118.408 236.794 118.984C237.45 119.56 238.538 119.992 240.058 120.28L245.65 121.36C247.986 121.76 249.882 122.44 251.338 123.4C252.81 124.344 253.89 125.512 254.578 126.904C255.282 128.28 255.634 129.84 255.634 131.584C255.634 133.76 255.002 135.664 253.738 137.296C252.49 138.928 250.786 140.2 248.626 141.112C246.466 142.024 243.986 142.48 241.186 142.48ZM270.176 142.312C267.792 142.312 265.944 142.016 264.632 141.424C263.336 140.816 262.432 139.992 261.92 138.952C261.424 137.896 261.176 136.704 261.176 135.376V122.776H257.144V117.184H261.464L263.552 109.576H269.336V117.136H274.784V122.776H269.336L269.36 135.016C269.36 135.512 269.432 135.88 269.576 136.12C269.736 136.36 269.952 136.52 270.224 136.6C270.496 136.68 270.824 136.72 271.208 136.72H274.832V141.64C274.496 141.784 273.976 141.928 273.272 142.072C272.568 142.232 271.536 142.312 270.176 142.312ZM285.811 142.48C284.243 142.48 282.811 142.184 281.515 141.592C280.235 140.984 279.219 140.104 278.467 138.952C277.715 137.8 277.339 136.392 277.339 134.728C277.339 132.024 278.379 129.944 280.459 128.488C282.539 127.032 285.803 126.296 290.251 126.28L292.771 126.256V124.984C292.771 124.008 292.491 123.28 291.931 122.8C291.387 122.304 290.531 122.064 289.363 122.08C288.531 122.096 287.691 122.296 286.843 122.68C285.995 123.048 285.395 123.736 285.043 124.744H278.347C278.443 122.872 278.995 121.344 280.003 120.16C281.011 118.976 282.355 118.104 284.035 117.544C285.731 116.984 287.627 116.704 289.723 116.704C292.443 116.704 294.595 117.032 296.179 117.688C297.763 118.328 298.891 119.232 299.563 120.4C300.251 121.552 300.595 122.912 300.595 124.48V142H293.803L293.107 137.896C292.323 139.64 291.339 140.84 290.155 141.496C288.971 142.152 287.523 142.48 285.811 142.48ZM288.619 137.224C289.163 137.224 289.683 137.128 290.179 136.936C290.675 136.744 291.115 136.48 291.499 136.144C291.883 135.792 292.187 135.408 292.411 134.992C292.635 134.576 292.755 134.128 292.771 133.648V130.264L290.755 130.288C289.923 130.288 289.059 130.4 288.163 130.624C287.283 130.848 286.539 131.224 285.931 131.752C285.323 132.264 285.019 132.976 285.019 133.888C285.019 134.928 285.379 135.744 286.099 136.336C286.819 136.928 287.659 137.224 288.619 137.224ZM316.616 150.208C311.96 150.208 308.456 149.648 306.104 148.528C303.768 147.424 302.6 146.016 302.6 144.304C302.6 143.472 302.824 142.784 303.272 142.24C303.736 141.696 304.272 141.264 304.88 140.944C305.488 140.624 306.048 140.392 306.56 140.248C307.072 140.088 307.384 139.984 307.496 139.936C307.24 139.808 306.848 139.6 306.32 139.312C305.808 139.024 305.328 138.616 304.88 138.088C304.432 137.56 304.208 136.872 304.208 136.024C304.208 135.08 304.648 134.216 305.528 133.432C306.424 132.632 307.784 132.096 309.608 131.824C307.896 131.04 306.608 129.968 305.744 128.608C304.88 127.248 304.448 125.896 304.448 124.552C304.448 122.904 304.992 121.504 306.08 120.352C307.184 119.184 308.656 118.304 310.496 117.712C312.336 117.104 314.384 116.8 316.64 116.8C318.368 116.8 319.776 116.984 320.864 117.352C321.952 117.704 322.96 118.144 323.888 118.672C324.304 118.512 324.824 118.312 325.448 118.072C326.072 117.816 326.744 117.552 327.464 117.28C328.2 116.992 328.92 116.704 329.624 116.416C330.344 116.112 331.008 115.84 331.616 115.6L331.568 121.624L327.32 122.248C327.448 122.648 327.544 123.072 327.608 123.52C327.688 123.952 327.728 124.288 327.728 124.528C327.728 125.936 327.288 127.28 326.408 128.56C325.544 129.84 324.24 130.888 322.496 131.704C320.768 132.504 318.632 132.904 316.088 132.904C315.752 132.904 315.28 132.896 314.672 132.88C314.064 132.848 313.576 132.816 313.208 132.784C312.616 132.832 312.208 132.92 311.984 133.048C311.76 133.16 311.648 133.312 311.648 133.504C311.648 133.872 312.008 134.104 312.728 134.2C313.448 134.28 314.472 134.368 315.8 134.464C316.28 134.48 316.968 134.512 317.864 134.56C318.776 134.608 319.776 134.672 320.864 134.752C324.096 134.976 326.48 135.76 328.016 137.104C329.552 138.448 330.32 140.088 330.32 142.024C330.32 144.392 329.176 146.344 326.888 147.88C324.616 149.432 321.192 150.208 316.616 150.208ZM317.912 145.792C319.704 145.792 320.928 145.6 321.584 145.216C322.24 144.832 322.568 144.304 322.568 143.632C322.568 142.992 322.272 142.472 321.68 142.072C321.088 141.672 320.24 141.44 319.136 141.376L314.048 141.04C313.248 140.992 312.584 141.08 312.056 141.304C311.544 141.528 311.168 141.824 310.928 142.192C310.688 142.56 310.568 142.944 310.568 143.344C310.568 144.256 311.16 144.888 312.344 145.24C313.544 145.608 315.4 145.792 317.912 145.792ZM316.352 128.488C317.456 128.488 318.344 128.152 319.016 127.48C319.688 126.808 320.024 125.92 320.024 124.816C320.024 123.696 319.688 122.768 319.016 122.032C318.344 121.296 317.456 120.928 316.352 120.928C315.248 120.928 314.352 121.304 313.664 122.056C312.976 122.792 312.632 123.712 312.632 124.816C312.632 125.904 312.968 126.792 313.64 127.48C314.312 128.152 315.216 128.488 316.352 128.488ZM345.204 142.48C342.692 142.48 340.476 141.96 338.556 140.92C336.652 139.88 335.164 138.416 334.092 136.528C333.036 134.64 332.508 132.424 332.508 129.88C332.508 127.464 332.988 125.264 333.948 123.28C334.924 121.28 336.332 119.688 338.172 118.504C340.012 117.304 342.228 116.704 344.82 116.704C347.444 116.704 349.636 117.256 351.396 118.36C353.156 119.448 354.476 120.952 355.356 122.872C356.252 124.776 356.7 126.96 356.7 129.424V131.464H340.548C340.532 132.6 340.708 133.56 341.076 134.344C341.444 135.112 341.964 135.696 342.636 136.096C343.308 136.496 344.092 136.696 344.988 136.696C346.012 136.696 346.916 136.488 347.7 136.072C348.5 135.64 349.084 134.896 349.452 133.84H356.748C356.476 135.648 355.756 137.2 354.588 138.496C353.436 139.776 352.028 140.76 350.364 141.448C348.7 142.136 346.98 142.48 345.204 142.48ZM340.524 126.76H349.116C349.116 125.944 348.956 125.2 348.636 124.528C348.316 123.84 347.836 123.296 347.196 122.896C346.572 122.496 345.78 122.296 344.82 122.296C343.972 122.296 343.22 122.512 342.564 122.944C341.924 123.36 341.42 123.912 341.052 124.6C340.7 125.272 340.524 125.992 340.524 126.76ZM370.625 142.48C368.897 142.48 367.209 142.192 365.561 141.616C363.913 141.04 362.505 140.12 361.337 138.856C360.169 137.592 359.417 135.944 359.081 133.912H366.089C366.297 134.76 366.673 135.408 367.217 135.856C367.761 136.304 368.337 136.608 368.945 136.768C369.569 136.928 370.113 137.008 370.577 137.008C371.761 137.008 372.721 136.84 373.457 136.504C374.193 136.168 374.561 135.656 374.561 134.968C374.561 134.392 374.329 133.944 373.865 133.624C373.417 133.288 372.625 133.024 371.489 132.832L367.481 132.088C365.193 131.656 363.353 130.864 361.961 129.712C360.569 128.544 359.865 126.896 359.849 124.768C359.833 123.248 360.241 121.88 361.073 120.664C361.905 119.448 363.129 118.488 364.745 117.784C366.361 117.064 368.337 116.704 370.673 116.704C373.905 116.704 376.473 117.408 378.377 118.816C380.281 120.224 381.241 122.168 381.257 124.648H374.537C374.361 123.8 373.905 123.16 373.169 122.728C372.449 122.28 371.585 122.056 370.577 122.056C369.553 122.056 368.689 122.232 367.985 122.584C367.297 122.92 366.953 123.432 366.953 124.12C366.953 124.648 367.257 125.072 367.865 125.392C368.473 125.712 369.441 126 370.769 126.256L374.393 127C375.881 127.368 377.089 127.864 378.017 128.488C378.945 129.096 379.657 129.76 380.153 130.48C380.665 131.2 381.009 131.92 381.185 132.64C381.377 133.344 381.473 133.968 381.473 134.512C381.473 136.224 381.001 137.672 380.057 138.856C379.129 140.04 377.841 140.944 376.193 141.568C374.561 142.176 372.705 142.48 370.625 142.48Z" fill="#329D9C"/>
<rect x="234" y="300" width="255" height="166" rx="70" fill="#329D9C"/>
<path d="M289.438 396V369.972H299.518C301.39 369.972 302.956 370.26 304.216 370.836C305.476 371.4 306.418 372.216 307.042 373.284C307.666 374.34 307.978 375.606 307.978 377.082C307.978 378.498 307.726 379.674 307.222 380.61C306.73 381.546 306.1 382.302 305.332 382.878C304.564 383.442 303.766 383.88 302.938 384.192L308.05 396H304.522L299.77 384.786H292.768V396H289.438ZM292.768 382.032H298.438C300.394 382.032 301.906 381.636 302.974 380.844C304.042 380.04 304.576 378.852 304.576 377.28C304.576 375.744 304.096 374.598 303.136 373.842C302.188 373.074 300.886 372.69 299.23 372.69H292.768V382.032ZM319.594 396.36C317.866 396.36 316.342 395.982 315.022 395.226C313.702 394.47 312.67 393.384 311.926 391.968C311.182 390.552 310.81 388.854 310.81 386.874C310.81 384.918 311.146 383.202 311.818 381.726C312.49 380.25 313.462 379.098 314.734 378.27C316.018 377.442 317.56 377.028 319.36 377.028C321.112 377.028 322.594 377.406 323.806 378.162C325.018 378.918 325.936 379.986 326.56 381.366C327.196 382.734 327.514 384.36 327.514 386.244V387.468H314.176C314.176 388.644 314.368 389.712 314.752 390.672C315.148 391.62 315.742 392.376 316.534 392.94C317.326 393.504 318.328 393.786 319.54 393.786C320.728 393.786 321.748 393.51 322.6 392.958C323.464 392.406 324.016 391.608 324.256 390.564H327.388C327.172 391.824 326.668 392.886 325.876 393.75C325.096 394.614 324.154 395.268 323.05 395.712C321.958 396.144 320.806 396.36 319.594 396.36ZM314.194 385.218H324.31C324.31 384.15 324.13 383.19 323.77 382.338C323.41 381.474 322.858 380.796 322.114 380.304C321.382 379.8 320.458 379.548 319.342 379.548C318.178 379.548 317.212 379.83 316.444 380.394C315.676 380.946 315.106 381.66 314.734 382.536C314.362 383.4 314.182 384.294 314.194 385.218ZM337.917 396.36C336.621 396.36 335.415 396.162 334.299 395.766C333.195 395.358 332.277 394.728 331.545 393.876C330.813 393.012 330.357 391.914 330.177 390.582H333.201C333.357 391.314 333.657 391.926 334.101 392.418C334.545 392.898 335.091 393.264 335.739 393.516C336.399 393.756 337.119 393.876 337.899 393.876C339.159 393.876 340.173 393.642 340.941 393.174C341.709 392.706 342.093 391.986 342.093 391.014C342.093 390.33 341.889 389.784 341.481 389.376C341.085 388.956 340.461 388.65 339.609 388.458L335.757 387.504C334.257 387.144 333.057 386.58 332.157 385.812C331.269 385.044 330.819 383.97 330.807 382.59C330.807 381.498 331.071 380.538 331.599 379.71C332.127 378.882 332.913 378.228 333.957 377.748C335.013 377.268 336.327 377.028 337.899 377.028C339.927 377.028 341.559 377.484 342.795 378.396C344.031 379.296 344.679 380.622 344.739 382.374H341.787C341.667 381.486 341.271 380.784 340.599 380.268C339.927 379.74 339.015 379.476 337.863 379.476C336.687 379.476 335.721 379.716 334.965 380.196C334.221 380.664 333.849 381.396 333.849 382.392C333.849 383.052 334.113 383.574 334.641 383.958C335.181 384.33 335.961 384.642 336.981 384.894L340.725 385.83C341.577 386.058 342.285 386.358 342.849 386.73C343.413 387.102 343.857 387.516 344.181 387.972C344.505 388.428 344.733 388.908 344.865 389.412C345.009 389.904 345.081 390.378 345.081 390.834C345.081 391.974 344.799 392.958 344.235 393.786C343.671 394.602 342.855 395.238 341.787 395.694C340.719 396.138 339.429 396.36 337.917 396.36ZM356.506 396.36C354.778 396.36 353.254 395.982 351.934 395.226C350.614 394.47 349.582 393.384 348.838 391.968C348.094 390.552 347.722 388.854 347.722 386.874C347.722 384.918 348.058 383.202 348.73 381.726C349.402 380.25 350.374 379.098 351.646 378.27C352.93 377.442 354.472 377.028 356.272 377.028C358.024 377.028 359.506 377.406 360.718 378.162C361.93 378.918 362.848 379.986 363.472 381.366C364.108 382.734 364.426 384.36 364.426 386.244V387.468H351.088C351.088 388.644 351.28 389.712 351.664 390.672C352.06 391.62 352.654 392.376 353.446 392.94C354.238 393.504 355.24 393.786 356.452 393.786C357.64 393.786 358.66 393.51 359.512 392.958C360.376 392.406 360.928 391.608 361.168 390.564H364.3C364.084 391.824 363.58 392.886 362.788 393.75C362.008 394.614 361.066 395.268 359.962 395.712C358.87 396.144 357.718 396.36 356.506 396.36ZM351.106 385.218H361.222C361.222 384.15 361.042 383.19 360.682 382.338C360.322 381.474 359.77 380.796 359.026 380.304C358.294 379.8 357.37 379.548 356.254 379.548C355.09 379.548 354.124 379.83 353.356 380.394C352.588 380.946 352.018 381.66 351.646 382.536C351.274 383.4 351.094 384.294 351.106 385.218ZM373.247 396.36C372.035 396.36 370.967 396.15 370.043 395.73C369.131 395.298 368.411 394.68 367.883 393.876C367.367 393.072 367.109 392.1 367.109 390.96C367.109 388.896 367.829 387.36 369.269 386.352C370.709 385.344 373.019 384.804 376.199 384.732L379.511 384.642V383.184C379.511 382.044 379.169 381.144 378.485 380.484C377.801 379.812 376.745 379.476 375.317 379.476C374.249 379.488 373.307 379.74 372.491 380.232C371.675 380.724 371.153 381.528 370.925 382.644H367.991C368.063 381.432 368.399 380.412 368.999 379.584C369.611 378.744 370.469 378.108 371.573 377.676C372.677 377.244 373.979 377.028 375.479 377.028C377.099 377.028 378.443 377.256 379.511 377.712C380.591 378.168 381.395 378.84 381.923 379.728C382.463 380.616 382.733 381.708 382.733 383.004V396H379.889L379.637 392.508C378.929 393.96 378.017 394.968 376.901 395.532C375.797 396.084 374.579 396.36 373.247 396.36ZM374.237 393.966C374.873 393.966 375.497 393.852 376.109 393.624C376.733 393.396 377.297 393.09 377.801 392.706C378.317 392.31 378.731 391.872 379.043 391.392C379.355 390.9 379.511 390.396 379.511 389.88V386.694L376.757 386.748C375.329 386.772 374.141 386.916 373.193 387.18C372.245 387.444 371.531 387.858 371.051 388.422C370.571 388.986 370.331 389.724 370.331 390.636C370.331 391.68 370.697 392.496 371.429 393.084C372.161 393.672 373.097 393.966 374.237 393.966ZM387.134 396V377.388H390.302V380.97C390.614 380.082 391.052 379.35 391.616 378.774C392.18 378.186 392.822 377.748 393.542 377.46C394.274 377.172 395.03 377.028 395.81 377.028C396.086 377.028 396.356 377.046 396.62 377.082C396.884 377.118 397.088 377.178 397.232 377.262V380.484C397.052 380.4 396.818 380.346 396.53 380.322C396.254 380.286 396.02 380.268 395.828 380.268C395.084 380.22 394.388 380.268 393.74 380.412C393.092 380.544 392.522 380.778 392.03 381.114C391.538 381.45 391.148 381.894 390.86 382.446C390.584 382.986 390.446 383.646 390.446 384.426V396H387.134ZM407.611 396.36C405.931 396.36 404.443 395.994 403.147 395.262C401.863 394.53 400.855 393.45 400.123 392.022C399.403 390.594 399.043 388.842 399.043 386.766C399.043 384.822 399.373 383.124 400.033 381.672C400.705 380.208 401.677 379.068 402.949 378.252C404.233 377.436 405.787 377.028 407.611 377.028C408.943 377.028 410.137 377.286 411.193 377.802C412.261 378.306 413.137 379.026 413.821 379.962C414.505 380.898 414.925 382.002 415.081 383.274H412.129C412.021 382.626 411.769 382.032 411.373 381.492C410.989 380.952 410.479 380.52 409.843 380.196C409.219 379.872 408.481 379.71 407.629 379.71C406.033 379.71 404.731 380.286 403.723 381.438C402.727 382.59 402.229 384.354 402.229 386.73C402.229 388.878 402.685 390.6 403.597 391.896C404.521 393.18 405.877 393.822 407.665 393.822C408.517 393.822 409.261 393.66 409.897 393.336C410.533 393 411.043 392.562 411.427 392.022C411.811 391.47 412.057 390.882 412.165 390.258H415.063C414.907 391.506 414.481 392.586 413.785 393.498C413.101 394.41 412.225 395.118 411.157 395.622C410.101 396.114 408.919 396.36 407.611 396.36ZM418.702 396V369.252H421.942V380.124C422.254 379.608 422.674 379.128 423.202 378.684C423.73 378.228 424.372 377.862 425.128 377.586C425.884 377.298 426.76 377.154 427.756 377.154C428.968 377.154 430.066 377.382 431.05 377.838C432.034 378.282 432.814 378.918 433.39 379.746C433.966 380.574 434.254 381.558 434.254 382.698V396H430.924V383.364C430.924 382.248 430.54 381.39 429.772 380.79C429.016 380.178 428.026 379.872 426.802 379.872C425.974 379.872 425.194 380.01 424.462 380.286C423.73 380.55 423.136 380.958 422.68 381.51C422.236 382.05 422.014 382.74 422.014 383.58V396H418.702Z" fill="white"/>
<rect x="523" y="300" width="255" height="166" rx="70" fill="#329D9C"/>
<path d="M600.938 396V369.972C601.022 369.972 601.274 369.978 601.694 369.99C602.126 369.99 602.648 369.99 603.26 369.99C603.872 369.978 604.508 369.978 605.168 369.99C605.828 369.99 606.434 369.996 606.986 370.008C610.178 370.056 612.764 370.578 614.744 371.574C616.736 372.558 618.194 373.992 619.118 375.876C620.054 377.76 620.522 380.076 620.522 382.824C620.522 385.704 620.018 388.122 619.01 390.078C618.014 392.034 616.49 393.51 614.438 394.506C612.398 395.502 609.8 396 606.644 396H600.938ZM604.358 393.138H606.644C608.792 393.138 610.64 392.808 612.188 392.148C613.736 391.476 614.924 390.39 615.752 388.89C616.592 387.39 617.012 385.386 617.012 382.878C617.012 380.37 616.604 378.384 615.788 376.92C614.984 375.456 613.82 374.412 612.296 373.788C610.772 373.152 608.936 372.834 606.788 372.834H604.358V393.138ZM632.289 396.36C630.561 396.36 629.037 395.982 627.717 395.226C626.397 394.47 625.365 393.384 624.621 391.968C623.877 390.552 623.505 388.854 623.505 386.874C623.505 384.918 623.841 383.202 624.513 381.726C625.185 380.25 626.157 379.098 627.429 378.27C628.713 377.442 630.255 377.028 632.055 377.028C633.807 377.028 635.289 377.406 636.501 378.162C637.713 378.918 638.631 379.986 639.255 381.366C639.891 382.734 640.209 384.36 640.209 386.244V387.468H626.871C626.871 388.644 627.063 389.712 627.447 390.672C627.843 391.62 628.437 392.376 629.229 392.94C630.021 393.504 631.023 393.786 632.235 393.786C633.423 393.786 634.443 393.51 635.295 392.958C636.159 392.406 636.711 391.608 636.951 390.564H640.083C639.867 391.824 639.363 392.886 638.571 393.75C637.791 394.614 636.849 395.268 635.745 395.712C634.653 396.144 633.501 396.36 632.289 396.36ZM626.889 385.218H637.005C637.005 384.15 636.825 383.19 636.465 382.338C636.105 381.474 635.553 380.796 634.809 380.304C634.077 379.8 633.153 379.548 632.037 379.548C630.873 379.548 629.907 379.83 629.139 380.394C628.371 380.946 627.801 381.66 627.429 382.536C627.057 383.4 626.877 384.294 626.889 385.218ZM645.662 396V379.818H641.72V377.388H645.662V374.508C645.662 373.032 646.034 371.91 646.778 371.142C647.534 370.362 648.662 369.972 650.162 369.972H653.672L653.69 372.33H650.918C650.15 372.33 649.628 372.534 649.352 372.942C649.076 373.35 648.938 373.968 648.938 374.796V377.388H653.51V379.818H648.992V396H645.662ZM657.524 396V377.388H660.746V396H657.524ZM657.434 373.446V369.99H660.836V373.446H657.434ZM665.765 396V377.388H668.987V380.088C669.287 379.572 669.701 379.086 670.229 378.63C670.769 378.174 671.417 377.808 672.173 377.532C672.941 377.256 673.823 377.118 674.819 377.118C675.995 377.118 677.075 377.352 678.059 377.82C679.055 378.288 679.847 379.02 680.435 380.016C681.035 381 681.335 382.272 681.335 383.832V396H678.005V384.156C678.005 382.704 677.621 381.63 676.853 380.934C676.097 380.226 675.113 379.872 673.901 379.872C673.061 379.872 672.275 380.01 671.543 380.286C670.811 380.55 670.217 380.958 669.761 381.51C669.305 382.05 669.077 382.734 669.077 383.562V396H665.765ZM693.616 396.36C691.888 396.36 690.364 395.982 689.044 395.226C687.724 394.47 686.692 393.384 685.948 391.968C685.204 390.552 684.832 388.854 684.832 386.874C684.832 384.918 685.168 383.202 685.84 381.726C686.512 380.25 687.484 379.098 688.756 378.27C690.04 377.442 691.582 377.028 693.382 377.028C695.134 377.028 696.616 377.406 697.828 378.162C699.04 378.918 699.958 379.986 700.582 381.366C701.218 382.734 701.536 384.36 701.536 386.244V387.468H688.198C688.198 388.644 688.39 389.712 688.774 390.672C689.17 391.62 689.764 392.376 690.556 392.94C691.348 393.504 692.35 393.786 693.562 393.786C694.75 393.786 695.77 393.51 696.622 392.958C697.486 392.406 698.038 391.608 698.278 390.564H701.41C701.194 391.824 700.69 392.886 699.898 393.75C699.118 394.614 698.176 395.268 697.072 395.712C695.98 396.144 694.828 396.36 693.616 396.36ZM688.216 385.218H698.332C698.332 384.15 698.152 383.19 697.792 382.338C697.432 381.474 696.88 380.796 696.136 380.304C695.404 379.8 694.48 379.548 693.364 379.548C692.2 379.548 691.234 379.83 690.466 380.394C689.698 380.946 689.128 381.66 688.756 382.536C688.384 383.4 688.204 384.294 688.216 385.218Z" fill="white"/>
<rect x="812" y="300" width="255" height="166" rx="70" fill="#329D9C"/>
<path d="M877.938 396V369.972H881.268V396H877.938ZM893.197 396.36C890.773 396.36 888.853 395.532 887.437 393.876C886.033 392.22 885.331 389.802 885.331 386.622C885.331 384.69 885.613 383.004 886.177 381.564C886.741 380.124 887.587 379.008 888.715 378.216C889.843 377.424 891.247 377.028 892.927 377.028C893.827 377.028 894.619 377.142 895.303 377.37C895.987 377.598 896.581 377.886 897.085 378.234C897.589 378.582 897.997 378.942 898.309 379.314C898.633 379.686 898.873 380.028 899.029 380.34V369.252H902.395V396H899.839L899.479 392.184C899.359 392.544 899.167 392.964 898.903 393.444C898.639 393.912 898.267 394.374 897.787 394.83C897.319 395.274 896.707 395.64 895.951 395.928C895.195 396.216 894.277 396.36 893.197 396.36ZM893.791 393.804C895.663 393.804 897.001 393.234 897.805 392.094C898.621 390.942 899.029 389.064 899.029 386.46C899.017 385.008 898.837 383.772 898.489 382.752C898.141 381.732 897.589 380.958 896.833 380.43C896.089 379.89 895.093 379.62 893.845 379.62C892.321 379.62 891.079 380.166 890.119 381.258C889.159 382.35 888.679 384.084 888.679 386.46C888.679 388.788 889.111 390.594 889.975 391.878C890.839 393.162 892.111 393.804 893.791 393.804ZM914.966 396.36C913.238 396.36 911.714 395.982 910.394 395.226C909.074 394.47 908.042 393.384 907.298 391.968C906.554 390.552 906.182 388.854 906.182 386.874C906.182 384.918 906.518 383.202 907.19 381.726C907.862 380.25 908.834 379.098 910.106 378.27C911.39 377.442 912.932 377.028 914.732 377.028C916.484 377.028 917.966 377.406 919.178 378.162C920.39 378.918 921.308 379.986 921.932 381.366C922.568 382.734 922.886 384.36 922.886 386.244V387.468H909.548C909.548 388.644 909.74 389.712 910.124 390.672C910.52 391.62 911.114 392.376 911.906 392.94C912.698 393.504 913.7 393.786 914.912 393.786C916.1 393.786 917.12 393.51 917.972 392.958C918.836 392.406 919.388 391.608 919.628 390.564H922.76C922.544 391.824 922.04 392.886 921.248 393.75C920.468 394.614 919.526 395.268 918.422 395.712C917.33 396.144 916.178 396.36 914.966 396.36ZM909.566 385.218H919.682C919.682 384.15 919.502 383.19 919.142 382.338C918.782 381.474 918.23 380.796 917.486 380.304C916.754 379.8 915.83 379.548 914.714 379.548C913.55 379.548 912.584 379.83 911.816 380.394C911.048 380.946 910.478 381.66 910.106 382.536C909.734 383.4 909.554 384.294 909.566 385.218ZM931.707 396.36C930.495 396.36 929.427 396.15 928.503 395.73C927.591 395.298 926.871 394.68 926.343 393.876C925.827 393.072 925.569 392.1 925.569 390.96C925.569 388.896 926.289 387.36 927.729 386.352C929.169 385.344 931.479 384.804 934.659 384.732L937.971 384.642V383.184C937.971 382.044 937.629 381.144 936.945 380.484C936.261 379.812 935.205 379.476 933.777 379.476C932.709 379.488 931.767 379.74 930.951 380.232C930.135 380.724 929.613 381.528 929.385 382.644H926.451C926.523 381.432 926.859 380.412 927.459 379.584C928.071 378.744 928.929 378.108 930.033 377.676C931.137 377.244 932.439 377.028 933.939 377.028C935.559 377.028 936.903 377.256 937.971 377.712C939.051 378.168 939.855 378.84 940.383 379.728C940.923 380.616 941.193 381.708 941.193 383.004V396H938.349L938.097 392.508C937.389 393.96 936.477 394.968 935.361 395.532C934.257 396.084 933.039 396.36 931.707 396.36ZM932.697 393.966C933.333 393.966 933.957 393.852 934.569 393.624C935.193 393.396 935.757 393.09 936.261 392.706C936.777 392.31 937.191 391.872 937.503 391.392C937.815 390.9 937.971 390.396 937.971 389.88V386.694L935.217 386.748C933.789 386.772 932.601 386.916 931.653 387.18C930.705 387.444 929.991 387.858 929.511 388.422C929.031 388.986 928.791 389.724 928.791 390.636C928.791 391.68 929.157 392.496 929.889 393.084C930.621 393.672 931.557 393.966 932.697 393.966ZM951.642 396.09C950.358 396.09 949.362 395.916 948.654 395.568C947.946 395.22 947.448 394.704 947.16 394.02C946.884 393.336 946.746 392.496 946.746 391.5V379.818H943.722V377.388H946.836L947.646 371.97H950.094V377.37H954.288V379.818H950.094V391.392C950.094 392.052 950.16 392.538 950.292 392.85C950.436 393.15 950.67 393.342 950.994 393.426C951.318 393.51 951.774 393.552 952.362 393.552H954.396V395.784C954.168 395.868 953.82 395.94 953.352 396C952.896 396.06 952.326 396.09 951.642 396.09ZM958.111 396V377.388H961.333V396H958.111ZM958.021 373.446V369.99H961.423V373.446H958.021ZM973.575 396.36C971.859 396.36 970.359 395.994 969.075 395.262C967.803 394.518 966.813 393.432 966.105 392.004C965.397 390.576 965.043 388.83 965.043 386.766C965.043 384.822 965.373 383.118 966.033 381.654C966.693 380.19 967.659 379.056 968.931 378.252C970.203 377.436 971.757 377.028 973.593 377.028C975.309 377.028 976.797 377.406 978.057 378.162C979.317 378.906 980.295 380.004 980.991 381.456C981.699 382.908 982.053 384.678 982.053 386.766C982.053 388.662 981.729 390.33 981.081 391.77C980.433 393.21 979.479 394.338 978.219 395.154C976.971 395.958 975.423 396.36 973.575 396.36ZM973.593 393.732C974.697 393.732 975.633 393.45 976.401 392.886C977.169 392.322 977.751 391.512 978.147 390.456C978.555 389.4 978.759 388.146 978.759 386.694C978.759 385.362 978.579 384.168 978.219 383.112C977.871 382.044 977.319 381.198 976.563 380.574C975.807 379.95 974.817 379.638 973.593 379.638C972.465 379.638 971.511 379.92 970.731 380.484C969.951 381.036 969.357 381.84 968.949 382.896C968.553 383.952 968.355 385.218 968.355 386.694C968.355 388.002 968.529 389.19 968.877 390.258C969.237 391.326 969.801 392.172 970.569 392.796C971.349 393.42 972.357 393.732 973.593 393.732ZM985.687 396V377.388H988.909V380.088C989.209 379.572 989.623 379.086 990.151 378.63C990.691 378.174 991.339 377.808 992.095 377.532C992.863 377.256 993.745 377.118 994.741 377.118C995.917 377.118 996.997 377.352 997.981 377.82C998.977 378.288 999.769 379.02 1000.36 380.016C1000.96 381 1001.26 382.272 1001.26 383.832V396H997.927V384.156C997.927 382.704 997.543 381.63 996.775 380.934C996.019 380.226 995.035 379.872 993.823 379.872C992.983 379.872 992.197 380.01 991.465 380.286C990.733 380.55 990.139 380.958 989.683 381.51C989.227 382.05 988.999 382.734 988.999 383.562V396H985.687Z" fill="white"/>
<rect x="1101" y="300" width="255" height="166" rx="70" fill="#329D9C"/>
<path d="M1137.44 396V369.972H1146.24C1148.1 369.972 1149.76 370.284 1151.21 370.908C1152.66 371.532 1153.8 372.456 1154.63 373.68C1155.47 374.904 1155.89 376.41 1155.89 378.198C1155.89 379.926 1155.5 381.402 1154.72 382.626C1153.95 383.85 1152.88 384.78 1151.5 385.416C1150.12 386.052 1148.51 386.37 1146.69 386.37H1140.86V396H1137.44ZM1140.84 383.562H1146.62C1148.41 383.562 1149.86 383.064 1150.97 382.068C1152.09 381.072 1152.65 379.716 1152.65 378C1152.65 376.272 1152.07 374.964 1150.92 374.076C1149.77 373.188 1148.28 372.744 1146.46 372.744H1140.84V383.562ZM1158.88 396V377.388H1162.05V380.97C1162.36 380.082 1162.8 379.35 1163.37 378.774C1163.93 378.186 1164.57 377.748 1165.29 377.46C1166.02 377.172 1166.78 377.028 1167.56 377.028C1167.84 377.028 1168.11 377.046 1168.37 377.082C1168.63 377.118 1168.84 377.178 1168.98 377.262V380.484C1168.8 380.4 1168.57 380.346 1168.28 380.322C1168 380.286 1167.77 380.268 1167.58 380.268C1166.83 380.22 1166.14 380.268 1165.49 380.412C1164.84 380.544 1164.27 380.778 1163.78 381.114C1163.29 381.45 1162.9 381.894 1162.61 382.446C1162.33 382.986 1162.2 383.646 1162.2 384.426V396H1158.88ZM1179.33 396.36C1177.61 396.36 1176.11 395.994 1174.83 395.262C1173.55 394.518 1172.56 393.432 1171.86 392.004C1171.15 390.576 1170.79 388.83 1170.79 386.766C1170.79 384.822 1171.12 383.118 1171.78 381.654C1172.44 380.19 1173.41 379.056 1174.68 378.252C1175.95 377.436 1177.51 377.028 1179.34 377.028C1181.06 377.028 1182.55 377.406 1183.81 378.162C1185.07 378.906 1186.05 380.004 1186.74 381.456C1187.45 382.908 1187.8 384.678 1187.8 386.766C1187.8 388.662 1187.48 390.33 1186.83 391.77C1186.18 393.21 1185.23 394.338 1183.97 395.154C1182.72 395.958 1181.17 396.36 1179.33 396.36ZM1179.34 393.732C1180.45 393.732 1181.38 393.45 1182.15 392.886C1182.92 392.322 1183.5 391.512 1183.9 390.456C1184.31 389.4 1184.51 388.146 1184.51 386.694C1184.51 385.362 1184.33 384.168 1183.97 383.112C1183.62 382.044 1183.07 381.198 1182.31 380.574C1181.56 379.95 1180.57 379.638 1179.34 379.638C1178.22 379.638 1177.26 379.92 1176.48 380.484C1175.7 381.036 1175.11 381.84 1174.7 382.896C1174.3 383.952 1174.11 385.218 1174.11 386.694C1174.11 388.002 1174.28 389.19 1174.63 390.258C1174.99 391.326 1175.55 392.172 1176.32 392.796C1177.1 393.42 1178.11 393.732 1179.34 393.732ZM1197.41 396.09C1196.13 396.09 1195.13 395.916 1194.43 395.568C1193.72 395.22 1193.22 394.704 1192.93 394.02C1192.66 393.336 1192.52 392.496 1192.52 391.5V379.818H1189.49V377.388H1192.61L1193.42 371.97H1195.87V377.37H1200.06V379.818H1195.87V391.392C1195.87 392.052 1195.93 392.538 1196.06 392.85C1196.21 393.15 1196.44 393.342 1196.77 393.426C1197.09 393.51 1197.55 393.552 1198.13 393.552H1200.17V395.784C1199.94 395.868 1199.59 395.94 1199.12 396C1198.67 396.06 1198.1 396.09 1197.41 396.09ZM1210.75 396.36C1209.04 396.36 1207.54 395.994 1206.25 395.262C1204.98 394.518 1203.99 393.432 1203.28 392.004C1202.57 390.576 1202.22 388.83 1202.22 386.766C1202.22 384.822 1202.55 383.118 1203.21 381.654C1203.87 380.19 1204.84 379.056 1206.11 378.252C1207.38 377.436 1208.93 377.028 1210.77 377.028C1212.49 377.028 1213.97 377.406 1215.23 378.162C1216.49 378.906 1217.47 380.004 1218.17 381.456C1218.88 382.908 1219.23 384.678 1219.23 386.766C1219.23 388.662 1218.91 390.33 1218.26 391.77C1217.61 393.21 1216.66 394.338 1215.4 395.154C1214.15 395.958 1212.6 396.36 1210.75 396.36ZM1210.77 393.732C1211.87 393.732 1212.81 393.45 1213.58 392.886C1214.35 392.322 1214.93 391.512 1215.32 390.456C1215.73 389.4 1215.94 388.146 1215.94 386.694C1215.94 385.362 1215.76 384.168 1215.4 383.112C1215.05 382.044 1214.5 381.198 1213.74 380.574C1212.98 379.95 1211.99 379.638 1210.77 379.638C1209.64 379.638 1208.69 379.92 1207.91 380.484C1207.13 381.036 1206.53 381.84 1206.13 382.896C1205.73 383.952 1205.53 385.218 1205.53 386.694C1205.53 388.002 1205.71 389.19 1206.05 390.258C1206.41 391.326 1206.98 392.172 1207.75 392.796C1208.53 393.42 1209.53 393.732 1210.77 393.732ZM1228.84 396.09C1227.56 396.09 1226.56 395.916 1225.85 395.568C1225.15 395.22 1224.65 394.704 1224.36 394.02C1224.08 393.336 1223.95 392.496 1223.95 391.5V379.818H1220.92V377.388H1224.04L1224.85 371.97H1227.29V377.37H1231.49V379.818H1227.29V391.392C1227.29 392.052 1227.36 392.538 1227.49 392.85C1227.64 393.15 1227.87 393.342 1228.19 393.426C1228.52 393.51 1228.97 393.552 1229.56 393.552H1231.6V395.784C1231.37 395.868 1231.02 395.94 1230.55 396C1230.1 396.06 1229.53 396.09 1228.84 396.09ZM1237.07 401.94C1235.98 401.94 1235.23 401.862 1234.82 401.706C1234.42 401.55 1234.21 401.472 1234.21 401.472V399.312L1236.12 399.348C1236.8 399.372 1237.37 399.324 1237.83 399.204C1238.29 399.084 1238.65 398.922 1238.93 398.718C1239.2 398.514 1239.41 398.286 1239.56 398.034C1239.71 397.782 1239.84 397.542 1239.94 397.314L1240.58 395.55L1233.31 377.388H1236.68L1242.17 391.752L1247.62 377.388H1250.88L1243.05 397.404C1242.56 398.58 1242.01 399.498 1241.41 400.158C1240.82 400.818 1240.16 401.28 1239.43 401.544C1238.71 401.808 1237.93 401.94 1237.07 401.94ZM1253.69 401.796V377.388H1257.01L1257.04 380.628C1257.26 380.244 1257.53 379.842 1257.87 379.422C1258.22 379.002 1258.64 378.612 1259.13 378.252C1259.63 377.892 1260.22 377.598 1260.88 377.37C1261.55 377.142 1262.31 377.028 1263.16 377.028C1264.65 377.028 1265.96 377.37 1267.09 378.054C1268.23 378.726 1269.11 379.758 1269.75 381.15C1270.39 382.542 1270.7 384.306 1270.7 386.442C1270.7 388.578 1270.39 390.384 1269.77 391.86C1269.16 393.324 1268.27 394.44 1267.1 395.208C1265.94 395.976 1264.54 396.36 1262.89 396.36C1262.06 396.36 1261.33 396.24 1260.68 396C1260.04 395.772 1259.48 395.472 1259 395.1C1258.54 394.716 1258.14 394.308 1257.82 393.876C1257.5 393.444 1257.25 393.03 1257.04 392.634V401.796H1253.69ZM1262.26 393.768C1263.8 393.768 1265.05 393.186 1266.02 392.022C1267 390.846 1267.48 389.022 1267.48 386.55C1267.48 384.426 1267.04 382.74 1266.15 381.492C1265.26 380.244 1263.97 379.62 1262.26 379.62C1260.53 379.62 1259.23 380.262 1258.34 381.546C1257.45 382.818 1257.01 384.486 1257.01 386.55C1257.01 387.882 1257.2 389.094 1257.6 390.186C1258 391.278 1258.58 392.148 1259.36 392.796C1260.14 393.444 1261.11 393.768 1262.26 393.768ZM1274.44 396V377.388H1277.66V396H1274.44ZM1274.35 373.446V369.99H1277.75V373.446H1274.35ZM1282.66 396V377.388H1285.88V380.088C1286.18 379.572 1286.6 379.086 1287.13 378.63C1287.67 378.174 1288.31 377.808 1289.07 377.532C1289.84 377.256 1290.72 377.118 1291.72 377.118C1292.89 377.118 1293.97 377.352 1294.96 377.82C1295.95 378.288 1296.74 379.02 1297.33 380.016C1297.93 381 1298.23 382.272 1298.23 383.832V396H1294.9V384.156C1294.9 382.704 1294.52 381.63 1293.75 380.934C1292.99 380.226 1292.01 379.872 1290.8 379.872C1289.96 379.872 1289.17 380.01 1288.44 380.286C1287.71 380.55 1287.11 380.958 1286.66 381.51C1286.2 382.05 1285.97 382.734 1285.97 383.562V396H1282.66ZM1310.51 402.156C1307.6 402.156 1305.32 401.73 1303.69 400.878C1302.06 400.038 1301.24 398.832 1301.24 397.26C1301.24 396.588 1301.4 396.018 1301.71 395.55C1302.02 395.07 1302.39 394.674 1302.83 394.362C1303.26 394.05 1303.66 393.804 1304.03 393.624C1304.4 393.432 1304.65 393.294 1304.77 393.21C1304.55 393.09 1304.3 392.94 1304 392.76C1303.7 392.58 1303.43 392.34 1303.19 392.04C1302.96 391.74 1302.84 391.35 1302.84 390.87C1302.84 390.282 1303.12 389.742 1303.67 389.25C1304.22 388.758 1305.05 388.392 1306.14 388.152C1305.05 387.6 1304.19 386.868 1303.58 385.956C1302.97 385.044 1302.66 384.054 1302.66 382.986C1302.66 381.786 1302.99 380.742 1303.64 379.854C1304.28 378.966 1305.21 378.288 1306.43 377.82C1307.64 377.34 1309.08 377.1 1310.76 377.1C1311.98 377.1 1312.99 377.244 1313.81 377.532C1314.63 377.808 1315.4 378.204 1316.11 378.72C1316.3 378.636 1316.61 378.51 1317.03 378.342C1317.45 378.162 1317.9 377.97 1318.4 377.766C1318.9 377.562 1319.37 377.37 1319.8 377.19C1320.24 376.998 1320.6 376.854 1320.86 376.758L1320.84 379.836L1317.59 380.448C1317.78 380.832 1317.93 381.252 1318.04 381.708C1318.14 382.164 1318.2 382.59 1318.2 382.986C1318.2 384.078 1317.91 385.068 1317.33 385.956C1316.77 386.844 1315.91 387.552 1314.76 388.08C1313.61 388.608 1312.17 388.872 1310.44 388.872C1310.3 388.872 1310.11 388.872 1309.88 388.872C1309.67 388.86 1309.48 388.848 1309.32 388.836C1308.05 388.872 1307.18 389.016 1306.7 389.268C1306.23 389.508 1305.99 389.778 1305.99 390.078C1305.99 390.426 1306.26 390.666 1306.8 390.798C1307.34 390.93 1308.26 391.044 1309.54 391.14C1310.01 391.164 1310.58 391.194 1311.27 391.23C1311.96 391.266 1312.74 391.314 1313.59 391.374C1315.53 391.494 1317.03 391.992 1318.09 392.868C1319.15 393.744 1319.67 394.926 1319.67 396.414C1319.67 398.106 1318.92 399.486 1317.41 400.554C1315.91 401.622 1313.61 402.156 1310.51 402.156ZM1311.11 400.014C1312.82 400.014 1314.14 399.756 1315.05 399.24C1315.97 398.724 1316.43 397.944 1316.43 396.9C1316.43 396.156 1316.15 395.55 1315.59 395.082C1315.02 394.602 1314.17 394.326 1313.03 394.254L1307.81 393.912C1307.34 393.888 1306.86 394.008 1306.35 394.272C1305.85 394.524 1305.42 394.878 1305.08 395.334C1304.73 395.79 1304.55 396.306 1304.55 396.882C1304.55 397.866 1305.09 398.634 1306.16 399.186C1307.22 399.738 1308.87 400.014 1311.11 400.014ZM1310.55 386.73C1311.88 386.73 1312.95 386.418 1313.77 385.794C1314.6 385.17 1315.01 384.246 1315.01 383.022C1315.01 381.762 1314.6 380.802 1313.77 380.142C1312.95 379.482 1311.88 379.152 1310.55 379.152C1309.18 379.152 1308.08 379.488 1307.24 380.16C1306.41 380.82 1305.99 381.774 1305.99 383.022C1305.99 384.198 1306.39 385.11 1307.18 385.758C1307.99 386.406 1309.11 386.73 1310.55 386.73Z" fill="white"/>
<rect x="1390" y="300" width="255" height="166" rx="70" fill="#329D9C"/>
<path d="M1492.23 396V373.032H1483.83V369.972H1503.52V373.032H1495.58V396H1492.23ZM1511.71 396.36C1509.98 396.36 1508.45 395.982 1507.13 395.226C1505.81 394.47 1504.78 393.384 1504.04 391.968C1503.29 390.552 1502.92 388.854 1502.92 386.874C1502.92 384.918 1503.26 383.202 1503.93 381.726C1504.6 380.25 1505.57 379.098 1506.85 378.27C1508.13 377.442 1509.67 377.028 1511.47 377.028C1513.22 377.028 1514.71 377.406 1515.92 378.162C1517.13 378.918 1518.05 379.986 1518.67 381.366C1519.31 382.734 1519.63 384.36 1519.63 386.244V387.468H1506.29C1506.29 388.644 1506.48 389.712 1506.86 390.672C1507.26 391.62 1507.85 392.376 1508.65 392.94C1509.44 393.504 1510.44 393.786 1511.65 393.786C1512.84 393.786 1513.86 393.51 1514.71 392.958C1515.58 392.406 1516.13 391.608 1516.37 390.564H1519.5C1519.28 391.824 1518.78 392.886 1517.99 393.75C1517.21 394.614 1516.27 395.268 1515.16 395.712C1514.07 396.144 1512.92 396.36 1511.71 396.36ZM1506.31 385.218H1516.42C1516.42 384.15 1516.24 383.19 1515.88 382.338C1515.52 381.474 1514.97 380.796 1514.23 380.304C1513.49 379.8 1512.57 379.548 1511.45 379.548C1510.29 379.548 1509.32 379.83 1508.56 380.394C1507.79 380.946 1507.22 381.66 1506.85 382.536C1506.47 383.4 1506.29 384.294 1506.31 385.218ZM1530.03 396.36C1528.73 396.36 1527.53 396.162 1526.41 395.766C1525.31 395.358 1524.39 394.728 1523.66 393.876C1522.93 393.012 1522.47 391.914 1522.29 390.582H1525.31C1525.47 391.314 1525.77 391.926 1526.21 392.418C1526.66 392.898 1527.2 393.264 1527.85 393.516C1528.51 393.756 1529.23 393.876 1530.01 393.876C1531.27 393.876 1532.29 393.642 1533.05 393.174C1533.82 392.706 1534.21 391.986 1534.21 391.014C1534.21 390.33 1534 389.784 1533.59 389.376C1533.2 388.956 1532.57 388.65 1531.72 388.458L1527.87 387.504C1526.37 387.144 1525.17 386.58 1524.27 385.812C1523.38 385.044 1522.93 383.97 1522.92 382.59C1522.92 381.498 1523.18 380.538 1523.71 379.71C1524.24 378.882 1525.03 378.228 1526.07 377.748C1527.13 377.268 1528.44 377.028 1530.01 377.028C1532.04 377.028 1533.67 377.484 1534.91 378.396C1536.14 379.296 1536.79 380.622 1536.85 382.374H1533.9C1533.78 381.486 1533.38 380.784 1532.71 380.268C1532.04 379.74 1531.13 379.476 1529.98 379.476C1528.8 379.476 1527.83 379.716 1527.08 380.196C1526.33 380.664 1525.96 381.396 1525.96 382.392C1525.96 383.052 1526.23 383.574 1526.75 383.958C1527.29 384.33 1528.07 384.642 1529.09 384.894L1532.84 385.83C1533.69 386.058 1534.4 386.358 1534.96 386.73C1535.53 387.102 1535.97 387.516 1536.29 387.972C1536.62 388.428 1536.85 388.908 1536.98 389.412C1537.12 389.904 1537.19 390.378 1537.19 390.834C1537.19 391.974 1536.91 392.958 1536.35 393.786C1535.78 394.602 1534.97 395.238 1533.9 395.694C1532.83 396.138 1531.54 396.36 1530.03 396.36ZM1547.19 396.09C1545.9 396.09 1544.91 395.916 1544.2 395.568C1543.49 395.22 1542.99 394.704 1542.71 394.02C1542.43 393.336 1542.29 392.496 1542.29 391.5V379.818H1539.27V377.388H1542.38L1543.19 371.97H1545.64V377.37H1549.83V379.818H1545.64V391.392C1545.64 392.052 1545.71 392.538 1545.84 392.85C1545.98 393.15 1546.22 393.342 1546.54 393.426C1546.86 393.51 1547.32 393.552 1547.91 393.552H1549.94V395.784C1549.71 395.868 1549.37 395.94 1548.9 396C1548.44 396.06 1547.87 396.09 1547.19 396.09Z" fill="white"/>
<path d="M520.061 384.061C520.646 383.475 520.646 382.525 520.061 381.939L510.515 372.393C509.929 371.808 508.979 371.808 508.393 372.393C507.808 372.979 507.808 373.929 508.393 374.515L516.879 383L508.393 391.485C507.808 392.071 507.808 393.021 508.393 393.607C508.979 394.192 509.929 394.192 510.515 393.607L520.061 384.061ZM496 384.5H519V381.5H496V384.5Z" fill="#006867"/>
<path d="M809.061 384.061C809.646 383.475 809.646 382.525 809.061 381.939L799.515 372.393C798.929 371.808 797.979 371.808 797.393 372.393C796.808 372.979 796.808 373.929 797.393 374.515L805.879 383L797.393 391.485C796.808 392.071 796.808 393.021 797.393 393.607C797.979 394.192 798.929 394.192 799.515 393.607L809.061 384.061ZM785 384.5H808V381.5H785V384.5Z" fill="#006867"/>
<path d="M1097.06 384.061C1097.65 383.475 1097.65 382.525 1097.06 381.939L1087.51 372.393C1086.93 371.808 1085.98 371.808 1085.39 372.393C1084.81 372.979 1084.81 373.929 1085.39 374.515L1093.88 383L1085.39 391.485C1084.81 392.071 1084.81 393.021 1085.39 393.607C1085.98 394.192 1086.93 394.192 1087.51 393.607L1097.06 384.061ZM1073 384.5H1096V381.5H1073V384.5Z" fill="#006867"/>
<path d="M1385.06 384.061C1385.65 383.475 1385.65 382.525 1385.06 381.939L1375.51 372.393C1374.93 371.808 1373.98 371.808 1373.39 372.393C1372.81 372.979 1372.81 373.929 1373.39 374.515L1381.88 383L1373.39 391.485C1372.81 392.071 1372.81 393.021 1373.39 393.607C1373.98 394.192 1374.93 394.192 1375.51 393.607L1385.06 384.061ZM1361 384.5H1384V381.5H1361V384.5Z" fill="#006867"/>
</svg>
