<svg width="1920" height="211" viewBox="0 0 1920 211" fill="none" xmlns="http://www.w3.org/2000/svg">
<rect width="1920" height="211" fill="white"/>
<path d="M159.24 129V94.296H168.576V129H159.24ZM177.437 129V94.296C177.693 94.296 178.333 94.296 179.357 94.296C180.381 94.296 181.565 94.296 182.909 94.296C184.269 94.28 185.589 94.28 186.869 94.296C188.149 94.296 189.165 94.312 189.917 94.344C194.093 94.488 197.501 95.304 200.141 96.792C202.797 98.28 204.749 100.288 205.997 102.816C207.245 105.344 207.869 108.248 207.869 111.528C207.869 114.904 207.221 117.912 205.925 120.552C204.629 123.176 202.653 125.24 199.997 126.744C197.341 128.248 193.965 129 189.869 129H177.437ZM186.773 121.656H190.157C191.341 121.656 192.541 121.328 193.757 120.672C194.989 120 196.021 118.912 196.853 117.408C197.701 115.904 198.125 113.896 198.125 111.384C198.125 109.256 197.789 107.472 197.117 106.032C196.461 104.576 195.533 103.48 194.333 102.744C193.133 102.008 191.741 101.64 190.157 101.64H186.773V121.656ZM215.556 129V94.296H241.188L241.14 102.024H224.964V107.784H238.5V115.32H224.892V121.224H241.236V129H215.556ZM247.029 129L259.317 94.296H268.869L281.157 129H271.941L269.637 122.28H258.693L256.341 129H247.029ZM260.661 114.312H267.525L264.117 103.224L260.661 114.312ZM290.769 129V102.504H280.929V94.296H310.065V102.504H300.129V129H290.769ZM316.412 129V94.296H325.748V129H316.412ZM350.257 129.48C346.817 129.48 343.833 128.752 341.305 127.296C338.793 125.824 336.849 123.76 335.473 121.104C334.097 118.448 333.409 115.32 333.409 111.72C333.409 108.104 334.105 104.96 335.497 102.288C336.905 99.6 338.873 97.52 341.401 96.048C343.929 94.56 346.881 93.816 350.257 93.816C353.617 93.816 356.553 94.56 359.065 96.048C361.577 97.52 363.529 99.6 364.921 102.288C366.313 104.96 367.009 108.104 367.009 111.72C367.009 115.304 366.321 118.432 364.945 121.104C363.585 123.76 361.649 125.824 359.137 127.296C356.625 128.752 353.665 129.48 350.257 129.48ZM350.257 121.992C351.537 121.992 352.673 121.672 353.665 121.032C354.673 120.376 355.457 119.312 356.017 117.84C356.593 116.352 356.881 114.36 356.881 111.864C356.881 109.288 356.593 107.232 356.017 105.696C355.457 104.144 354.673 103.024 353.665 102.336C352.673 101.648 351.537 101.304 350.257 101.304C348.977 101.304 347.833 101.648 346.825 102.336C345.833 103.024 345.049 104.144 344.473 105.696C343.897 107.232 343.609 109.288 343.609 111.864C343.609 114.36 343.897 116.352 344.473 117.84C345.049 119.312 345.833 120.376 346.825 121.032C347.833 121.672 348.977 121.992 350.257 121.992ZM374.696 129V94.296H384.104L397.64 113.64V94.296H406.976V129H398.552L384.032 108.312V129H374.696Z" fill="#006463"/>
</svg>
