<svg width="1920" height="176" viewBox="0 0 1920 176" fill="none" xmlns="http://www.w3.org/2000/svg">
<g clip-path="url(#clip0_608_707)">
<rect width="1920" height="176" fill="white"/>
<path d="M578.241 41.4205V39.5455H591.332V41.4205H585.843V57H583.73V41.4205H578.241ZM596.333 49.125V57H594.321V39.5455H596.333V45.9545H596.503C596.81 45.2784 597.27 44.7415 597.884 44.3438C598.503 43.9403 599.327 43.7386 600.355 43.7386C601.248 43.7386 602.029 43.9176 602.699 44.2756C603.37 44.6278 603.89 45.1705 604.259 45.9034C604.634 46.6307 604.821 47.5568 604.821 48.6818V57H602.81V48.8182C602.81 47.7784 602.54 46.9744 602 46.4062C601.466 45.8324 600.725 45.5455 599.776 45.5455C599.117 45.5455 598.526 45.6847 598.003 45.9631C597.486 46.2415 597.077 46.6477 596.776 47.1818C596.48 47.7159 596.333 48.3636 596.333 49.125ZM608.501 57V43.9091H610.512V57H608.501ZM609.524 41.7273C609.132 41.7273 608.794 41.5938 608.51 41.3267C608.231 41.0597 608.092 40.7386 608.092 40.3636C608.092 39.9886 608.231 39.6676 608.51 39.4006C608.794 39.1335 609.132 39 609.524 39C609.916 39 610.251 39.1335 610.529 39.4006C610.814 39.6676 610.956 39.9886 610.956 40.3636C610.956 40.7386 610.814 41.0597 610.529 41.3267C610.251 41.5938 609.916 41.7273 609.524 41.7273ZM623.469 46.8409L621.662 47.3523C621.549 47.0511 621.381 46.7585 621.159 46.4744C620.944 46.1847 620.648 45.946 620.273 45.7585C619.898 45.571 619.418 45.4773 618.833 45.4773C618.032 45.4773 617.364 45.6619 616.83 46.0312C616.301 46.3949 616.037 46.858 616.037 47.4205C616.037 47.9205 616.219 48.3153 616.583 48.6051C616.946 48.8949 617.515 49.1364 618.287 49.3295L620.23 49.8068C621.401 50.0909 622.273 50.5256 622.847 51.1108C623.421 51.6903 623.708 52.4375 623.708 53.3523C623.708 54.1023 623.492 54.7727 623.06 55.3636C622.634 55.9545 622.037 56.4205 621.27 56.7614C620.503 57.1023 619.611 57.2727 618.594 57.2727C617.259 57.2727 616.154 56.983 615.279 56.4034C614.404 55.8239 613.85 54.9773 613.617 53.8636L615.526 53.3864C615.708 54.0909 616.051 54.6193 616.557 54.9716C617.069 55.3239 617.736 55.5 618.56 55.5C619.498 55.5 620.242 55.3011 620.793 54.9034C621.35 54.5 621.628 54.017 621.628 53.4545C621.628 53 621.469 52.6193 621.151 52.3125C620.833 52 620.344 51.767 619.685 51.6136L617.503 51.1023C616.304 50.8182 615.424 50.3778 614.861 49.7812C614.304 49.179 614.026 48.4261 614.026 47.5227C614.026 46.7841 614.233 46.1307 614.648 45.5625C615.069 44.9943 615.64 44.5483 616.361 44.2244C617.088 43.9006 617.912 43.7386 618.833 43.7386C620.128 43.7386 621.145 44.0227 621.884 44.5909C622.628 45.1591 623.157 45.9091 623.469 46.8409ZM633.485 57V43.9091H635.497V57H633.485ZM634.508 41.7273C634.116 41.7273 633.778 41.5938 633.494 41.3267C633.216 41.0597 633.076 40.7386 633.076 40.3636C633.076 39.9886 633.216 39.6676 633.494 39.4006C633.778 39.1335 634.116 39 634.508 39C634.9 39 635.235 39.1335 635.514 39.4006C635.798 39.6676 635.94 39.9886 635.94 40.3636C635.94 40.7386 635.798 41.0597 635.514 41.3267C635.235 41.5938 634.9 41.7273 634.508 41.7273ZM648.453 46.8409L646.647 47.3523C646.533 47.0511 646.365 46.7585 646.144 46.4744C645.928 46.1847 645.632 45.946 645.257 45.7585C644.882 45.571 644.402 45.4773 643.817 45.4773C643.016 45.4773 642.348 45.6619 641.814 46.0312C641.286 46.3949 641.022 46.858 641.022 47.4205C641.022 47.9205 641.203 48.3153 641.567 48.6051C641.931 48.8949 642.499 49.1364 643.272 49.3295L645.215 49.8068C646.385 50.0909 647.257 50.5256 647.831 51.1108C648.405 51.6903 648.692 52.4375 648.692 53.3523C648.692 54.1023 648.476 54.7727 648.044 55.3636C647.618 55.9545 647.022 56.4205 646.255 56.7614C645.488 57.1023 644.596 57.2727 643.578 57.2727C642.243 57.2727 641.138 56.983 640.263 56.4034C639.388 55.8239 638.834 54.9773 638.601 53.8636L640.51 53.3864C640.692 54.0909 641.036 54.6193 641.542 54.9716C642.053 55.3239 642.721 55.5 643.544 55.5C644.482 55.5 645.226 55.3011 645.777 54.9034C646.334 54.5 646.613 54.017 646.613 53.4545C646.613 53 646.453 52.6193 646.135 52.3125C645.817 52 645.328 51.767 644.669 51.6136L642.488 51.1023C641.289 50.8182 640.408 50.3778 639.846 49.7812C639.289 49.179 639.01 48.4261 639.01 47.5227C639.01 46.7841 639.218 46.1307 639.632 45.5625C640.053 44.9943 640.624 44.5483 641.346 44.2244C642.073 43.9006 642.897 43.7386 643.817 43.7386C645.113 43.7386 646.13 44.0227 646.868 44.5909C647.613 45.1591 648.141 45.9091 648.453 46.8409ZM664.163 43.9091V45.6136H657.379V43.9091H664.163ZM659.356 40.7727H661.368V53.25C661.368 53.8182 661.45 54.2443 661.615 54.5284C661.785 54.8068 662.001 54.9943 662.262 55.0909C662.529 55.1818 662.811 55.2273 663.106 55.2273C663.328 55.2273 663.51 55.2159 663.652 55.1932C663.794 55.1648 663.907 55.142 663.993 55.125L664.402 56.9318C664.265 56.983 664.075 57.0341 663.831 57.0852C663.586 57.142 663.277 57.1705 662.902 57.1705C662.333 57.1705 661.777 57.0483 661.231 56.804C660.691 56.5597 660.243 56.1875 659.885 55.6875C659.532 55.1875 659.356 54.5568 659.356 53.7955V40.7727ZM669.481 49.125V57H667.47V39.5455H669.481V45.9545H669.652C669.958 45.2784 670.419 44.7415 671.032 44.3438C671.652 43.9403 672.475 43.7386 673.504 43.7386C674.396 43.7386 675.177 43.9176 675.848 44.2756C676.518 44.6278 677.038 45.1705 677.407 45.9034C677.782 46.6307 677.97 47.5568 677.97 48.6818V57H675.958V48.8182C675.958 47.7784 675.689 46.9744 675.149 46.4062C674.615 45.8324 673.873 45.5455 672.924 45.5455C672.265 45.5455 671.674 45.6847 671.152 45.9631C670.635 46.2415 670.225 46.6477 669.924 47.1818C669.629 47.7159 669.481 48.3636 669.481 49.125ZM687.138 57.2727C685.877 57.2727 684.789 56.9943 683.874 56.4375C682.965 55.875 682.263 55.0909 681.769 54.0852C681.28 53.0739 681.036 51.8977 681.036 50.5568C681.036 49.2159 681.28 48.0341 681.769 47.0114C682.263 45.983 682.951 45.1818 683.831 44.608C684.718 44.0284 685.752 43.7386 686.934 43.7386C687.615 43.7386 688.289 43.8523 688.953 44.0795C689.618 44.3068 690.223 44.6761 690.769 45.1875C691.314 45.6932 691.749 46.3636 692.073 47.1989C692.397 48.0341 692.559 49.0625 692.559 50.2841V51.1364H682.468V49.3977H690.513C690.513 48.6591 690.365 48 690.07 47.4205C689.78 46.8409 689.365 46.3835 688.826 46.0483C688.292 45.7131 687.661 45.5455 686.934 45.5455C686.132 45.5455 685.439 45.7443 684.854 46.142C684.275 46.5341 683.828 47.0455 683.516 47.6761C683.203 48.3068 683.047 48.983 683.047 49.7045V50.8636C683.047 51.8523 683.218 52.6903 683.559 53.3778C683.905 54.0597 684.385 54.5795 684.999 54.9375C685.613 55.2898 686.326 55.4659 687.138 55.4659C687.667 55.4659 688.144 55.392 688.57 55.2443C689.002 55.0909 689.374 54.8636 689.686 54.5625C689.999 54.2557 690.24 53.875 690.411 53.4205L692.354 53.9659C692.15 54.625 691.806 55.2045 691.323 55.7045C690.84 56.1989 690.243 56.5852 689.533 56.8636C688.823 57.1364 688.025 57.2727 687.138 57.2727ZM702.368 57V43.9091H704.38V57H702.368ZM703.391 41.7273C702.999 41.7273 702.661 41.5938 702.377 41.3267C702.098 41.0597 701.959 40.7386 701.959 40.3636C701.959 39.9886 702.098 39.6676 702.377 39.4006C702.661 39.1335 702.999 39 703.391 39C703.783 39 704.118 39.1335 704.397 39.4006C704.681 39.6676 704.823 39.9886 704.823 40.3636C704.823 40.7386 704.681 41.0597 704.397 41.3267C704.118 41.5938 703.783 41.7273 703.391 41.7273ZM710.075 49.125V57H708.064V43.9091H710.007V45.9545H710.177C710.484 45.2898 710.95 44.7557 711.575 44.3523C712.2 43.9432 713.007 43.7386 713.995 43.7386C714.882 43.7386 715.657 43.9205 716.322 44.2841C716.987 44.642 717.504 45.1875 717.873 45.9205C718.243 46.6477 718.427 47.5682 718.427 48.6818V57H716.416V48.8182C716.416 47.7898 716.149 46.9886 715.615 46.4148C715.081 45.8352 714.348 45.5455 713.416 45.5455C712.774 45.5455 712.2 45.6847 711.694 45.9631C711.194 46.2415 710.799 46.6477 710.51 47.1818C710.22 47.7159 710.075 48.3636 710.075 49.125ZM727.796 43.9091V45.6136H721.012V43.9091H727.796ZM722.989 40.7727H725V53.25C725 53.8182 725.083 54.2443 725.248 54.5284C725.418 54.8068 725.634 54.9943 725.895 55.0909C726.162 55.1818 726.444 55.2273 726.739 55.2273C726.961 55.2273 727.142 55.2159 727.284 55.1932C727.426 55.1648 727.54 55.142 727.625 55.125L728.034 56.9318C727.898 56.983 727.708 57.0341 727.463 57.0852C727.219 57.142 726.909 57.1705 726.534 57.1705C725.966 57.1705 725.409 57.0483 724.864 56.804C724.324 56.5597 723.875 56.1875 723.517 55.6875C723.165 55.1875 722.989 54.5568 722.989 53.7955V40.7727ZM736.169 57.2727C734.908 57.2727 733.82 56.9943 732.905 56.4375C731.996 55.875 731.294 55.0909 730.8 54.0852C730.311 53.0739 730.067 51.8977 730.067 50.5568C730.067 49.2159 730.311 48.0341 730.8 47.0114C731.294 45.983 731.982 45.1818 732.863 44.608C733.749 44.0284 734.783 43.7386 735.965 43.7386C736.647 43.7386 737.32 43.8523 737.985 44.0795C738.65 44.3068 739.255 44.6761 739.8 45.1875C740.346 45.6932 740.78 46.3636 741.104 47.1989C741.428 48.0341 741.59 49.0625 741.59 50.2841V51.1364H731.499V49.3977H739.544C739.544 48.6591 739.397 48 739.101 47.4205C738.811 46.8409 738.397 46.3835 737.857 46.0483C737.323 45.7131 736.692 45.5455 735.965 45.5455C735.164 45.5455 734.471 45.7443 733.885 46.142C733.306 46.5341 732.86 47.0455 732.547 47.6761C732.235 48.3068 732.078 48.983 732.078 49.7045V50.8636C732.078 51.8523 732.249 52.6903 732.59 53.3778C732.936 54.0597 733.417 54.5795 734.03 54.9375C734.644 55.2898 735.357 55.4659 736.169 55.4659C736.698 55.4659 737.175 55.392 737.601 55.2443C738.033 55.0909 738.405 54.8636 738.718 54.5625C739.03 54.2557 739.272 53.875 739.442 53.4205L741.385 53.9659C741.181 54.625 740.837 55.2045 740.354 55.7045C739.871 56.1989 739.275 56.5852 738.564 56.8636C737.854 57.1364 737.056 57.2727 736.169 57.2727ZM744.65 57V43.9091H746.593V45.8864H746.729C746.968 45.2386 747.4 44.7131 748.025 44.3097C748.65 43.9062 749.354 43.7045 750.138 43.7045C750.286 43.7045 750.471 43.7074 750.692 43.7131C750.914 43.7187 751.081 43.7273 751.195 43.7386V45.7841C751.127 45.767 750.971 45.7415 750.726 45.7074C750.488 45.6676 750.235 45.6477 749.968 45.6477C749.331 45.6477 748.763 45.7812 748.263 46.0483C747.769 46.3097 747.377 46.6733 747.087 47.1392C746.803 47.5994 746.661 48.125 746.661 48.7159V57H744.65ZM755.591 49.125V57H753.579V43.9091H755.522V45.9545H755.693C756 45.2898 756.466 44.7557 757.091 44.3523C757.716 43.9432 758.522 43.7386 759.511 43.7386C760.397 43.7386 761.173 43.9205 761.838 44.2841C762.502 44.642 763.02 45.1875 763.389 45.9205C763.758 46.6477 763.943 47.5682 763.943 48.6818V57H761.931V48.8182C761.931 47.7898 761.664 46.9886 761.13 46.4148C760.596 45.8352 759.863 45.5455 758.931 45.5455C758.289 45.5455 757.716 45.6847 757.21 45.9631C756.71 46.2415 756.315 46.6477 756.025 47.1818C755.735 47.7159 755.591 48.3636 755.591 49.125ZM776.891 46.8409L775.084 47.3523C774.971 47.0511 774.803 46.7585 774.581 46.4744C774.365 46.1847 774.07 45.946 773.695 45.7585C773.32 45.571 772.84 45.4773 772.255 45.4773C771.453 45.4773 770.786 45.6619 770.252 46.0312C769.723 46.3949 769.459 46.858 769.459 47.4205C769.459 47.9205 769.641 48.3153 770.005 48.6051C770.368 48.8949 770.936 49.1364 771.709 49.3295L773.652 49.8068C774.823 50.0909 775.695 50.5256 776.269 51.1108C776.843 51.6903 777.13 52.4375 777.13 53.3523C777.13 54.1023 776.914 54.7727 776.482 55.3636C776.056 55.9545 775.459 56.4205 774.692 56.7614C773.925 57.1023 773.033 57.2727 772.016 57.2727C770.681 57.2727 769.576 56.983 768.701 56.4034C767.826 55.8239 767.272 54.9773 767.039 53.8636L768.948 53.3864C769.13 54.0909 769.473 54.6193 769.979 54.9716C770.49 55.3239 771.158 55.5 771.982 55.5C772.919 55.5 773.664 55.3011 774.215 54.9034C774.772 54.5 775.05 54.017 775.05 53.4545C775.05 53 774.891 52.6193 774.573 52.3125C774.255 52 773.766 51.767 773.107 51.6136L770.925 51.1023C769.726 50.8182 768.846 50.3778 768.283 49.7812C767.726 49.179 767.448 48.4261 767.448 47.5227C767.448 46.7841 767.655 46.1307 768.07 45.5625C768.49 44.9943 769.061 44.5483 769.783 44.2244C770.51 43.9006 771.334 43.7386 772.255 43.7386C773.55 43.7386 774.567 44.0227 775.306 44.5909C776.05 45.1591 776.578 45.9091 776.891 46.8409ZM782.169 49.125V57H780.157V39.5455H782.169V45.9545H782.339C782.646 45.2784 783.106 44.7415 783.72 44.3438C784.339 43.9403 785.163 43.7386 786.191 43.7386C787.083 43.7386 787.865 43.9176 788.535 44.2756C789.206 44.6278 789.725 45.1705 790.095 45.9034C790.47 46.6307 790.657 47.5568 790.657 48.6818V57H788.646V48.8182C788.646 47.7784 788.376 46.9744 787.836 46.4062C787.302 45.8324 786.561 45.5455 785.612 45.5455C784.953 45.5455 784.362 45.6847 783.839 45.9631C783.322 46.2415 782.913 46.6477 782.612 47.1818C782.316 47.7159 782.169 48.3636 782.169 49.125ZM794.337 57V43.9091H796.348V57H794.337ZM795.36 41.7273C794.968 41.7273 794.63 41.5938 794.346 41.3267C794.067 41.0597 793.928 40.7386 793.928 40.3636C793.928 39.9886 794.067 39.6676 794.346 39.4006C794.63 39.1335 794.968 39 795.36 39C795.752 39 796.087 39.1335 796.365 39.4006C796.65 39.6676 796.792 39.9886 796.792 40.3636C796.792 40.7386 796.65 41.0597 796.365 41.3267C796.087 41.5938 795.752 41.7273 795.36 41.7273ZM800.032 61.9091V43.9091H801.975V45.9886H802.214C802.362 45.7614 802.566 45.4716 802.828 45.1193C803.095 44.7614 803.475 44.4432 803.97 44.1648C804.47 43.8807 805.146 43.7386 805.998 43.7386C807.1 43.7386 808.072 44.0142 808.913 44.5653C809.754 45.1165 810.41 45.8977 810.882 46.9091C811.353 47.9205 811.589 49.1136 811.589 50.4886C811.589 51.875 811.353 53.0767 810.882 54.0938C810.41 55.1051 809.757 55.8892 808.922 56.446C808.086 56.9972 807.123 57.2727 806.032 57.2727C805.191 57.2727 804.518 57.1335 804.012 56.8551C803.507 56.571 803.118 56.25 802.845 55.892C802.572 55.5284 802.362 55.2273 802.214 54.9886H802.044V61.9091H800.032ZM802.01 50.4545C802.01 51.4432 802.154 52.3153 802.444 53.071C802.734 53.821 803.157 54.4091 803.714 54.8352C804.271 55.2557 804.953 55.4659 805.76 55.4659C806.6 55.4659 807.302 55.2443 807.865 54.8011C808.433 54.3523 808.859 53.75 809.143 52.9943C809.433 52.233 809.578 51.3864 809.578 50.4545C809.578 49.5341 809.436 48.7045 809.152 47.9659C808.873 47.2216 808.45 46.6335 807.882 46.2017C807.319 45.7642 806.612 45.5455 805.76 45.5455C804.941 45.5455 804.254 45.7528 803.697 46.1676C803.14 46.5767 802.72 47.1506 802.436 47.8892C802.152 48.6222 802.01 49.4773 802.01 50.4545ZM821.407 61.9091V43.9091H823.35V45.9886H823.589C823.737 45.7614 823.941 45.4716 824.203 45.1193C824.47 44.7614 824.85 44.4432 825.345 44.1648C825.845 43.8807 826.521 43.7386 827.373 43.7386C828.475 43.7386 829.447 44.0142 830.288 44.5653C831.129 45.1165 831.785 45.8977 832.257 46.9091C832.728 47.9205 832.964 49.1136 832.964 50.4886C832.964 51.875 832.728 53.0767 832.257 54.0938C831.785 55.1051 831.132 55.8892 830.297 56.446C829.461 56.9972 828.498 57.2727 827.407 57.2727C826.566 57.2727 825.893 57.1335 825.387 56.8551C824.882 56.571 824.493 56.25 824.22 55.892C823.947 55.5284 823.737 55.2273 823.589 54.9886H823.419V61.9091H821.407ZM823.385 50.4545C823.385 51.4432 823.529 52.3153 823.819 53.071C824.109 53.821 824.532 54.4091 825.089 54.8352C825.646 55.2557 826.328 55.4659 827.135 55.4659C827.975 55.4659 828.677 55.2443 829.24 54.8011C829.808 54.3523 830.234 53.75 830.518 52.9943C830.808 52.233 830.953 51.3864 830.953 50.4545C830.953 49.5341 830.811 48.7045 830.527 47.9659C830.248 47.2216 829.825 46.6335 829.257 46.2017C828.694 45.7642 827.987 45.5455 827.135 45.5455C826.316 45.5455 825.629 45.7528 825.072 46.1676C824.515 46.5767 824.095 47.1506 823.811 47.8892C823.527 48.6222 823.385 49.4773 823.385 50.4545ZM836.032 57V43.9091H837.975V45.8864H838.112C838.35 45.2386 838.782 44.7131 839.407 44.3097C840.032 43.9062 840.737 43.7045 841.521 43.7045C841.669 43.7045 841.853 43.7074 842.075 43.7131C842.297 43.7187 842.464 43.7273 842.578 43.7386V45.7841C842.51 45.767 842.353 45.7415 842.109 45.7074C841.87 45.6676 841.618 45.6477 841.35 45.6477C840.714 45.6477 840.146 45.7812 839.646 46.0483C839.152 46.3097 838.76 46.6733 838.47 47.1392C838.186 47.5994 838.044 48.125 838.044 48.7159V57H836.032ZM849.882 57.2727C848.7 57.2727 847.663 56.9915 846.771 56.429C845.885 55.8665 845.191 55.0795 844.691 54.0682C844.197 53.0568 843.95 51.875 843.95 50.5227C843.95 49.1591 844.197 47.9687 844.691 46.9517C845.191 45.9347 845.885 45.1449 846.771 44.5824C847.663 44.0199 848.7 43.7386 849.882 43.7386C851.064 43.7386 852.098 44.0199 852.984 44.5824C853.876 45.1449 854.569 45.9347 855.064 46.9517C855.564 47.9687 855.814 49.1591 855.814 50.5227C855.814 51.875 855.564 53.0568 855.064 54.0682C854.569 55.0795 853.876 55.8665 852.984 56.429C852.098 56.9915 851.064 57.2727 849.882 57.2727ZM849.882 55.4659C850.779 55.4659 851.518 55.2358 852.098 54.7756C852.677 54.3153 853.106 53.7102 853.385 52.9602C853.663 52.2102 853.802 51.3977 853.802 50.5227C853.802 49.6477 853.663 48.8324 853.385 48.0767C853.106 47.321 852.677 46.7102 852.098 46.2443C851.518 45.7784 850.779 45.5455 849.882 45.5455C848.984 45.5455 848.245 45.7784 847.666 46.2443C847.086 46.7102 846.657 47.321 846.379 48.0767C846.1 48.8324 845.961 49.6477 845.961 50.5227C845.961 51.3977 846.1 52.2102 846.379 52.9602C846.657 53.7102 847.086 54.3153 847.666 54.7756C848.245 55.2358 848.984 55.4659 849.882 55.4659ZM858.884 43.9091H860.895V57.9545C860.895 58.7614 860.756 59.4602 860.478 60.0511C860.205 60.642 859.79 61.0994 859.233 61.4233C858.682 61.7472 857.986 61.9091 857.145 61.9091C857.077 61.9091 857.009 61.9091 856.941 61.9091C856.873 61.9091 856.804 61.9091 856.736 61.9091V60.0341C856.804 60.0341 856.867 60.0341 856.924 60.0341C856.98 60.0341 857.043 60.0341 857.111 60.0341C857.725 60.0341 858.174 59.8523 858.458 59.4886C858.742 59.1307 858.884 58.6193 858.884 57.9545V43.9091ZM859.873 41.7273C859.48 41.7273 859.142 41.5938 858.858 41.3267C858.58 41.0597 858.441 40.7386 858.441 40.3636C858.441 39.9886 858.58 39.6676 858.858 39.4006C859.142 39.1335 859.48 39 859.873 39C860.265 39 860.6 39.1335 860.878 39.4006C861.162 39.6676 861.304 39.9886 861.304 40.3636C861.304 40.7386 861.162 41.0597 860.878 41.3267C860.6 41.5938 860.265 41.7273 859.873 41.7273ZM870.068 57.2727C868.806 57.2727 867.718 56.9943 866.804 56.4375C865.895 55.875 865.193 55.0909 864.699 54.0852C864.21 53.0739 863.966 51.8977 863.966 50.5568C863.966 49.2159 864.21 48.0341 864.699 47.0114C865.193 45.983 865.88 45.1818 866.761 44.608C867.647 44.0284 868.681 43.7386 869.863 43.7386C870.545 43.7386 871.218 43.8523 871.883 44.0795C872.548 44.3068 873.153 44.6761 873.699 45.1875C874.244 45.6932 874.679 46.3636 875.002 47.1989C875.326 48.0341 875.488 49.0625 875.488 50.2841V51.1364H865.397V49.3977H873.443C873.443 48.6591 873.295 48 873 47.4205C872.71 46.8409 872.295 46.3835 871.755 46.0483C871.221 45.7131 870.591 45.5455 869.863 45.5455C869.062 45.5455 868.369 45.7443 867.784 46.142C867.204 46.5341 866.758 47.0455 866.446 47.6761C866.133 48.3068 865.977 48.983 865.977 49.7045V50.8636C865.977 51.8523 866.147 52.6903 866.488 53.3778C866.835 54.0597 867.315 54.5795 867.929 54.9375C868.542 55.2898 869.255 55.4659 870.068 55.4659C870.596 55.4659 871.074 55.392 871.5 55.2443C871.931 55.0909 872.304 54.8636 872.616 54.5625C872.929 54.2557 873.17 53.875 873.341 53.4205L875.284 53.9659C875.079 54.625 874.735 55.2045 874.252 55.7045C873.77 56.1989 873.173 56.5852 872.463 56.8636C871.752 57.1364 870.954 57.2727 870.068 57.2727ZM883.866 57.2727C882.639 57.2727 881.582 56.983 880.696 56.4034C879.809 55.8239 879.127 55.0256 878.65 54.0085C878.173 52.9915 877.934 51.8295 877.934 50.5227C877.934 49.1932 878.179 48.0199 878.667 47.0028C879.162 45.9801 879.849 45.1818 880.73 44.608C881.616 44.0284 882.65 43.7386 883.832 43.7386C884.752 43.7386 885.582 43.9091 886.321 44.25C887.059 44.5909 887.664 45.0682 888.136 45.6818C888.608 46.2955 888.9 47.0114 889.014 47.8295H887.002C886.849 47.233 886.508 46.7045 885.98 46.2443C885.457 45.7784 884.752 45.5455 883.866 45.5455C883.082 45.5455 882.395 45.75 881.804 46.1591C881.218 46.5625 880.761 47.1335 880.431 47.8722C880.108 48.6051 879.946 49.4659 879.946 50.4545C879.946 51.4659 880.105 52.3466 880.423 53.0966C880.747 53.8466 881.201 54.429 881.787 54.8438C882.377 55.2585 883.071 55.4659 883.866 55.4659C884.389 55.4659 884.863 55.375 885.289 55.1932C885.716 55.0114 886.076 54.75 886.372 54.4091C886.667 54.0682 886.877 53.6591 887.002 53.1818H889.014C888.9 53.9545 888.619 54.6506 888.17 55.2699C887.727 55.8835 887.139 56.3722 886.406 56.7358C885.679 57.0938 884.832 57.2727 883.866 57.2727ZM897.647 43.9091V45.6136H890.863V43.9091H897.647ZM892.841 40.7727H894.852V53.25C894.852 53.8182 894.934 54.2443 895.099 54.5284C895.27 54.8068 895.485 54.9943 895.747 55.0909C896.014 55.1818 896.295 55.2273 896.591 55.2273C896.812 55.2273 896.994 55.2159 897.136 55.1932C897.278 55.1648 897.392 55.142 897.477 55.125L897.886 56.9318C897.75 56.983 897.559 57.0341 897.315 57.0852C897.071 57.142 896.761 57.1705 896.386 57.1705C895.818 57.1705 895.261 57.0483 894.716 56.804C894.176 56.5597 893.727 56.1875 893.369 55.6875C893.017 55.1875 892.841 54.5568 892.841 53.7955V40.7727ZM909.809 39.5455V57H907.696V39.5455H909.809ZM925.843 57.2727C924.615 57.2727 923.559 56.983 922.672 56.4034C921.786 55.8239 921.104 55.0256 920.627 54.0085C920.15 52.9915 919.911 51.8295 919.911 50.5227C919.911 49.1932 920.155 48.0199 920.644 47.0028C921.138 45.9801 921.826 45.1818 922.706 44.608C923.593 44.0284 924.627 43.7386 925.809 43.7386C926.729 43.7386 927.559 43.9091 928.297 44.25C929.036 44.5909 929.641 45.0682 930.113 45.6818C930.584 46.2955 930.877 47.0114 930.99 47.8295H928.979C928.826 47.233 928.485 46.7045 927.956 46.2443C927.434 45.7784 926.729 45.5455 925.843 45.5455C925.059 45.5455 924.371 45.75 923.78 46.1591C923.195 46.5625 922.738 47.1335 922.408 47.8722C922.084 48.6051 921.922 49.4659 921.922 50.4545C921.922 51.4659 922.081 52.3466 922.4 53.0966C922.723 53.8466 923.178 54.429 923.763 54.8438C924.354 55.2585 925.047 55.4659 925.843 55.4659C926.365 55.4659 926.84 55.375 927.266 55.1932C927.692 55.0114 928.053 54.75 928.348 54.4091C928.644 54.0682 928.854 53.6591 928.979 53.1818H930.99C930.877 53.9545 930.596 54.6506 930.147 55.2699C929.703 55.8835 929.115 56.3722 928.382 56.7358C927.655 57.0938 926.809 57.2727 925.843 57.2727ZM937.783 57.3068C936.953 57.3068 936.201 57.1506 935.525 56.8381C934.848 56.5199 934.311 56.0625 933.914 55.4659C933.516 54.8636 933.317 54.1364 933.317 53.2841C933.317 52.5341 933.465 51.9261 933.76 51.4602C934.056 50.9886 934.451 50.6193 934.945 50.3523C935.439 50.0852 935.985 49.8864 936.581 49.7557C937.184 49.6193 937.789 49.5114 938.397 49.4318C939.192 49.3295 939.837 49.2528 940.331 49.2017C940.831 49.1449 941.195 49.0511 941.422 48.9205C941.655 48.7898 941.772 48.5625 941.772 48.2386V48.1705C941.772 47.3295 941.542 46.6761 941.081 46.2102C940.627 45.7443 939.936 45.5114 939.01 45.5114C938.05 45.5114 937.297 45.7216 936.752 46.142C936.206 46.5625 935.823 47.0114 935.601 47.4886L933.692 46.8068C934.033 46.0114 934.488 45.392 935.056 44.9489C935.63 44.5 936.255 44.1875 936.931 44.0114C937.613 43.8295 938.283 43.7386 938.942 43.7386C939.363 43.7386 939.846 43.7898 940.391 43.892C940.942 43.9886 941.473 44.1903 941.985 44.4972C942.502 44.804 942.931 45.267 943.272 45.8864C943.613 46.5057 943.783 47.3352 943.783 48.375V57H941.772V55.2273H941.669C941.533 55.5114 941.306 55.8153 940.988 56.1392C940.669 56.4631 940.246 56.7386 939.718 56.9659C939.189 57.1932 938.544 57.3068 937.783 57.3068ZM938.09 55.5C938.885 55.5 939.556 55.3438 940.101 55.0312C940.652 54.7188 941.067 54.3153 941.346 53.821C941.63 53.3267 941.772 52.8068 941.772 52.2614V50.4205C941.686 50.5227 941.499 50.6165 941.209 50.7017C940.925 50.7812 940.596 50.8523 940.221 50.9148C939.851 50.9716 939.49 51.0227 939.138 51.0682C938.792 51.108 938.51 51.142 938.294 51.1705C937.772 51.2386 937.283 51.3494 936.828 51.5028C936.38 51.6506 936.016 51.875 935.738 52.1761C935.465 52.4716 935.328 52.875 935.328 53.3864C935.328 54.0852 935.587 54.6136 936.104 54.9716C936.627 55.3239 937.289 55.5 938.09 55.5ZM949.466 49.125V57H947.454V43.9091H949.397V45.9545H949.568C949.875 45.2898 950.341 44.7557 950.966 44.3523C951.591 43.9432 952.397 43.7386 953.386 43.7386C954.272 43.7386 955.048 43.9205 955.713 44.2841C956.377 44.642 956.895 45.1875 957.264 45.9205C957.633 46.6477 957.818 47.5682 957.818 48.6818V57H955.806V48.8182C955.806 47.7898 955.539 46.9886 955.005 46.4148C954.471 45.8352 953.738 45.5455 952.806 45.5455C952.164 45.5455 951.591 45.6847 951.085 45.9631C950.585 46.2415 950.19 46.6477 949.9 47.1818C949.61 47.7159 949.466 48.3636 949.466 49.125ZM963.266 39.5455V41.0795C963.266 41.5455 963.181 42.0426 963.01 42.571C962.846 43.0938 962.601 43.6023 962.277 44.0966C961.959 44.5852 961.573 45.0114 961.118 45.375L960.027 44.4886C960.385 43.9773 960.695 43.446 960.956 42.8949C961.223 42.3381 961.357 41.7443 961.357 41.1136V39.5455H963.266ZM971.968 43.9091V45.6136H965.184V43.9091H971.968ZM967.161 40.7727H969.172V53.25C969.172 53.8182 969.255 54.2443 969.419 54.5284C969.59 54.8068 969.806 54.9943 970.067 55.0909C970.334 55.1818 970.615 55.2273 970.911 55.2273C971.132 55.2273 971.314 55.2159 971.456 55.1932C971.598 55.1648 971.712 55.142 971.797 55.125L972.206 56.9318C972.07 56.983 971.88 57.0341 971.635 57.0852C971.391 57.142 971.081 57.1705 970.706 57.1705C970.138 57.1705 969.581 57.0483 969.036 56.804C968.496 56.5597 968.047 56.1875 967.689 55.6875C967.337 55.1875 967.161 54.5568 967.161 53.7955V40.7727ZM982.016 57V39.5455H984.027V45.9886H984.198C984.346 45.7614 984.55 45.4716 984.811 45.1193C985.078 44.7614 985.459 44.4432 985.953 44.1648C986.453 43.8807 987.13 43.7386 987.982 43.7386C989.084 43.7386 990.056 44.0142 990.897 44.5653C991.738 45.1165 992.394 45.8977 992.865 46.9091C993.337 47.9205 993.573 49.1136 993.573 50.4886C993.573 51.875 993.337 53.0767 992.865 54.0938C992.394 55.1051 991.74 55.8892 990.905 56.446C990.07 56.9972 989.107 57.2727 988.016 57.2727C987.175 57.2727 986.502 57.1335 985.996 56.8551C985.49 56.571 985.101 56.25 984.828 55.892C984.556 55.5284 984.346 55.2273 984.198 54.9886H983.959V57H982.016ZM983.993 50.4545C983.993 51.4432 984.138 52.3153 984.428 53.071C984.718 53.821 985.141 54.4091 985.698 54.8352C986.255 55.2557 986.936 55.4659 987.743 55.4659C988.584 55.4659 989.286 55.2443 989.848 54.8011C990.417 54.3523 990.843 53.75 991.127 52.9943C991.417 52.233 991.561 51.3864 991.561 50.4545C991.561 49.5341 991.419 48.7045 991.135 47.9659C990.857 47.2216 990.434 46.6335 989.865 46.2017C989.303 45.7642 988.596 45.5455 987.743 45.5455C986.925 45.5455 986.238 45.7528 985.681 46.1676C985.124 46.5767 984.703 47.1506 984.419 47.8892C984.135 48.6222 983.993 49.4773 983.993 50.4545ZM1002.14 57.2727C1000.88 57.2727 999.789 56.9943 998.874 56.4375C997.965 55.875 997.263 55.0909 996.769 54.0852C996.28 53.0739 996.036 51.8977 996.036 50.5568C996.036 49.2159 996.28 48.0341 996.769 47.0114C997.263 45.983 997.951 45.1818 998.831 44.608C999.718 44.0284 1000.75 43.7386 1001.93 43.7386C1002.62 43.7386 1003.29 43.8523 1003.95 44.0795C1004.62 44.3068 1005.22 44.6761 1005.77 45.1875C1006.31 45.6932 1006.75 46.3636 1007.07 47.1989C1007.4 48.0341 1007.56 49.0625 1007.56 50.2841V51.1364H997.468V49.3977H1005.51C1005.51 48.6591 1005.37 48 1005.07 47.4205C1004.78 46.8409 1004.37 46.3835 1003.83 46.0483C1003.29 45.7131 1002.66 45.5455 1001.93 45.5455C1001.13 45.5455 1000.44 45.7443 999.854 46.142C999.275 46.5341 998.828 47.0455 998.516 47.6761C998.203 48.3068 998.047 48.983 998.047 49.7045V50.8636C998.047 51.8523 998.218 52.6903 998.559 53.3778C998.905 54.0597 999.385 54.5795 999.999 54.9375C1000.61 55.2898 1001.33 55.4659 1002.14 55.4659C1002.67 55.4659 1003.14 55.392 1003.57 55.2443C1004 55.0909 1004.37 54.8636 1004.69 54.5625C1005 54.2557 1005.24 53.875 1005.41 53.4205L1007.35 53.9659C1007.15 54.625 1006.81 55.2045 1006.32 55.7045C1005.84 56.1989 1005.24 56.5852 1004.53 56.8636C1003.82 57.1364 1003.02 57.2727 1002.14 57.2727ZM1021.22 57.3068C1020.39 57.3068 1019.64 57.1506 1018.96 56.8381C1018.29 56.5199 1017.75 56.0625 1017.35 55.4659C1016.95 54.8636 1016.75 54.1364 1016.75 53.2841C1016.75 52.5341 1016.9 51.9261 1017.2 51.4602C1017.49 50.9886 1017.89 50.6193 1018.38 50.3523C1018.88 50.0852 1019.42 49.8864 1020.02 49.7557C1020.62 49.6193 1021.23 49.5114 1021.83 49.4318C1022.63 49.3295 1023.27 49.2528 1023.77 49.2017C1024.27 49.1449 1024.63 49.0511 1024.86 48.9205C1025.09 48.7898 1025.21 48.5625 1025.21 48.2386V48.1705C1025.21 47.3295 1024.98 46.6761 1024.52 46.2102C1024.06 45.7443 1023.37 45.5114 1022.45 45.5114C1021.49 45.5114 1020.73 45.7216 1020.19 46.142C1019.64 46.5625 1019.26 47.0114 1019.04 47.4886L1017.13 46.8068C1017.47 46.0114 1017.93 45.392 1018.49 44.9489C1019.07 44.5 1019.69 44.1875 1020.37 44.0114C1021.05 43.8295 1021.72 43.7386 1022.38 43.7386C1022.8 43.7386 1023.28 43.7898 1023.83 43.892C1024.38 43.9886 1024.91 44.1903 1025.42 44.4972C1025.94 44.804 1026.37 45.267 1026.71 45.8864C1027.05 46.5057 1027.22 47.3352 1027.22 48.375V57H1025.21V55.2273H1025.11C1024.97 55.5114 1024.74 55.8153 1024.43 56.1392C1024.11 56.4631 1023.68 56.7386 1023.16 56.9659C1022.63 57.1932 1021.98 57.3068 1021.22 57.3068ZM1021.53 55.5C1022.32 55.5 1022.99 55.3438 1023.54 55.0312C1024.09 54.7188 1024.5 54.3153 1024.78 53.821C1025.07 53.3267 1025.21 52.8068 1025.21 52.2614V50.4205C1025.12 50.5227 1024.94 50.6165 1024.65 50.7017C1024.36 50.7812 1024.03 50.8523 1023.66 50.9148C1023.29 50.9716 1022.93 51.0227 1022.58 51.0682C1022.23 51.108 1021.95 51.142 1021.73 51.1705C1021.21 51.2386 1020.72 51.3494 1020.27 51.5028C1019.82 51.6506 1019.45 51.875 1019.18 52.1761C1018.9 52.4716 1018.77 52.875 1018.77 53.3864C1018.77 54.0852 1019.02 54.6136 1019.54 54.9716C1020.06 55.3239 1020.73 55.5 1021.53 55.5ZM1031.16 57V39.5455H1033.18V45.9886H1033.35C1033.49 45.7614 1033.7 45.4716 1033.96 45.1193C1034.23 44.7614 1034.61 44.4432 1035.1 44.1648C1035.6 43.8807 1036.28 43.7386 1037.13 43.7386C1038.23 43.7386 1039.2 44.0142 1040.05 44.5653C1040.89 45.1165 1041.54 45.8977 1042.01 46.9091C1042.49 47.9205 1042.72 49.1136 1042.72 50.4886C1042.72 51.875 1042.49 53.0767 1042.01 54.0938C1041.54 55.1051 1040.89 55.8892 1040.05 56.446C1039.22 56.9972 1038.26 57.2727 1037.16 57.2727C1036.32 57.2727 1035.65 57.1335 1035.14 56.8551C1034.64 56.571 1034.25 56.25 1033.98 55.892C1033.7 55.5284 1033.49 55.2273 1033.35 54.9886H1033.11V57H1031.16ZM1033.14 50.4545C1033.14 51.4432 1033.29 52.3153 1033.58 53.071C1033.87 53.821 1034.29 54.4091 1034.85 54.8352C1035.4 55.2557 1036.08 55.4659 1036.89 55.4659C1037.73 55.4659 1038.43 55.2443 1039 54.8011C1039.56 54.3523 1039.99 53.75 1040.28 52.9943C1040.56 52.233 1040.71 51.3864 1040.71 50.4545C1040.71 49.5341 1040.57 48.7045 1040.28 47.9659C1040.01 47.2216 1039.58 46.6335 1039.01 46.2017C1038.45 45.7642 1037.74 45.5455 1036.89 45.5455C1036.07 45.5455 1035.39 45.7528 1034.83 46.1676C1034.27 46.5767 1033.85 47.1506 1033.57 47.8892C1033.28 48.6222 1033.14 49.4773 1033.14 50.4545ZM1047.81 39.5455V57H1045.8V39.5455H1047.81ZM1056.98 57.2727C1055.72 57.2727 1054.63 56.9943 1053.72 56.4375C1052.81 55.875 1052.11 55.0909 1051.61 54.0852C1051.12 53.0739 1050.88 51.8977 1050.88 50.5568C1050.88 49.2159 1051.12 48.0341 1051.61 47.0114C1052.11 45.983 1052.79 45.1818 1053.68 44.608C1054.56 44.0284 1055.6 43.7386 1056.78 43.7386C1057.46 43.7386 1058.13 43.8523 1058.8 44.0795C1059.46 44.3068 1060.07 44.6761 1060.61 45.1875C1061.16 45.6932 1061.59 46.3636 1061.92 47.1989C1062.24 48.0341 1062.4 49.0625 1062.4 50.2841V51.1364H1052.31V49.3977H1060.36C1060.36 48.6591 1060.21 48 1059.91 47.4205C1059.62 46.8409 1059.21 46.3835 1058.67 46.0483C1058.14 45.7131 1057.5 45.5455 1056.78 45.5455C1055.98 45.5455 1055.28 45.7443 1054.7 46.142C1054.12 46.5341 1053.67 47.0455 1053.36 47.6761C1053.05 48.3068 1052.89 48.983 1052.89 49.7045V50.8636C1052.89 51.8523 1053.06 52.6903 1053.4 53.3778C1053.75 54.0597 1054.23 54.5795 1054.84 54.9375C1055.46 55.2898 1056.17 55.4659 1056.98 55.4659C1057.51 55.4659 1057.99 55.392 1058.41 55.2443C1058.85 55.0909 1059.22 54.8636 1059.53 54.5625C1059.84 54.2557 1060.08 53.875 1060.25 53.4205L1062.2 53.9659C1061.99 54.625 1061.65 55.2045 1061.17 55.7045C1060.68 56.1989 1060.09 56.5852 1059.38 56.8636C1058.67 57.1364 1057.87 57.2727 1056.98 57.2727ZM1077.91 43.9091V45.6136H1071.12V43.9091H1077.91ZM1073.1 40.7727H1075.11V53.25C1075.11 53.8182 1075.19 54.2443 1075.36 54.5284C1075.53 54.8068 1075.74 54.9943 1076 55.0909C1076.27 55.1818 1076.55 55.2273 1076.85 55.2273C1077.07 55.2273 1077.25 55.2159 1077.39 55.1932C1077.54 55.1648 1077.65 55.142 1077.73 55.125L1078.14 56.9318C1078.01 56.983 1077.82 57.0341 1077.57 57.0852C1077.33 57.142 1077.02 57.1705 1076.64 57.1705C1076.08 57.1705 1075.52 57.0483 1074.97 56.804C1074.43 56.5597 1073.98 56.1875 1073.63 55.6875C1073.27 55.1875 1073.1 54.5568 1073.1 53.7955V40.7727ZM1086.11 57.2727C1084.93 57.2727 1083.89 56.9915 1083 56.429C1082.11 55.8665 1081.42 55.0795 1080.92 54.0682C1080.42 53.0568 1080.18 51.875 1080.18 50.5227C1080.18 49.1591 1080.42 47.9687 1080.92 46.9517C1081.42 45.9347 1082.11 45.1449 1083 44.5824C1083.89 44.0199 1084.93 43.7386 1086.11 43.7386C1087.29 43.7386 1088.32 44.0199 1089.21 44.5824C1090.1 45.1449 1090.8 45.9347 1091.29 46.9517C1091.79 47.9687 1092.04 49.1591 1092.04 50.5227C1092.04 51.875 1091.79 53.0568 1091.29 54.0682C1090.8 55.0795 1090.1 55.8665 1089.21 56.429C1088.32 56.9915 1087.29 57.2727 1086.11 57.2727ZM1086.11 55.4659C1087.01 55.4659 1087.74 55.2358 1088.32 54.7756C1088.9 54.3153 1089.33 53.7102 1089.61 52.9602C1089.89 52.2102 1090.03 51.3977 1090.03 50.5227C1090.03 49.6477 1089.89 48.8324 1089.61 48.0767C1089.33 47.321 1088.9 46.7102 1088.32 46.2443C1087.74 45.7784 1087.01 45.5455 1086.11 45.5455C1085.21 45.5455 1084.47 45.7784 1083.89 46.2443C1083.31 46.7102 1082.88 47.321 1082.61 48.0767C1082.33 48.8324 1082.19 49.6477 1082.19 50.5227C1082.19 51.3977 1082.33 52.2102 1082.61 52.9602C1082.88 53.7102 1083.31 54.3153 1083.89 54.7756C1084.47 55.2358 1085.21 55.4659 1086.11 55.4659ZM1111.13 46.8409L1109.33 47.3523C1109.21 47.0511 1109.05 46.7585 1108.82 46.4744C1108.61 46.1847 1108.31 45.946 1107.94 45.7585C1107.56 45.571 1107.08 45.4773 1106.5 45.4773C1105.7 45.4773 1105.03 45.6619 1104.49 46.0312C1103.97 46.3949 1103.7 46.858 1103.7 47.4205C1103.7 47.9205 1103.88 48.3153 1104.25 48.6051C1104.61 48.8949 1105.18 49.1364 1105.95 49.3295L1107.89 49.8068C1109.06 50.0909 1109.94 50.5256 1110.51 51.1108C1111.08 51.6903 1111.37 52.4375 1111.37 53.3523C1111.37 54.1023 1111.16 54.7727 1110.72 55.3636C1110.3 55.9545 1109.7 56.4205 1108.93 56.7614C1108.17 57.1023 1107.28 57.2727 1106.26 57.2727C1104.92 57.2727 1103.82 56.983 1102.94 56.4034C1102.07 55.8239 1101.51 54.9773 1101.28 53.8636L1103.19 53.3864C1103.37 54.0909 1103.72 54.6193 1104.22 54.9716C1104.73 55.3239 1105.4 55.5 1106.22 55.5C1107.16 55.5 1107.91 55.3011 1108.46 54.9034C1109.01 54.5 1109.29 54.017 1109.29 53.4545C1109.29 53 1109.13 52.6193 1108.81 52.3125C1108.5 52 1108.01 51.767 1107.35 51.6136L1105.17 51.1023C1103.97 50.8182 1103.09 50.3778 1102.53 49.7812C1101.97 49.179 1101.69 48.4261 1101.69 47.5227C1101.69 46.7841 1101.9 46.1307 1102.31 45.5625C1102.73 44.9943 1103.3 44.5483 1104.03 44.2244C1104.75 43.9006 1105.58 43.7386 1106.5 43.7386C1107.79 43.7386 1108.81 44.0227 1109.55 44.5909C1110.29 45.1591 1110.82 45.9091 1111.13 46.8409ZM1116.41 49.125V57H1114.4V39.5455H1116.41V45.9545H1116.58C1116.89 45.2784 1117.35 44.7415 1117.96 44.3438C1118.58 43.9403 1119.41 43.7386 1120.43 43.7386C1121.33 43.7386 1122.11 43.9176 1122.78 44.2756C1123.45 44.6278 1123.97 45.1705 1124.34 45.9034C1124.71 46.6307 1124.9 47.5568 1124.9 48.6818V57H1122.89V48.8182C1122.89 47.7784 1122.62 46.9744 1122.08 46.4062C1121.54 45.8324 1120.8 45.5455 1119.85 45.5455C1119.19 45.5455 1118.6 45.6847 1118.08 45.9631C1117.56 46.2415 1117.16 46.6477 1116.85 47.1818C1116.56 47.7159 1116.41 48.3636 1116.41 49.125ZM1132.43 57.3068C1131.6 57.3068 1130.85 57.1506 1130.17 56.8381C1129.5 56.5199 1128.96 56.0625 1128.56 55.4659C1128.16 54.8636 1127.97 54.1364 1127.97 53.2841C1127.97 52.5341 1128.11 51.9261 1128.41 51.4602C1128.7 50.9886 1129.1 50.6193 1129.59 50.3523C1130.09 50.0852 1130.63 49.8864 1131.23 49.7557C1131.83 49.6193 1132.44 49.5114 1133.05 49.4318C1133.84 49.3295 1134.49 49.2528 1134.98 49.2017C1135.48 49.1449 1135.84 49.0511 1136.07 48.9205C1136.3 48.7898 1136.42 48.5625 1136.42 48.2386V48.1705C1136.42 47.3295 1136.19 46.6761 1135.73 46.2102C1135.28 45.7443 1134.58 45.5114 1133.66 45.5114C1132.7 45.5114 1131.95 45.7216 1131.4 46.142C1130.85 46.5625 1130.47 47.0114 1130.25 47.4886L1128.34 46.8068C1128.68 46.0114 1129.14 45.392 1129.7 44.9489C1130.28 44.5 1130.9 44.1875 1131.58 44.0114C1132.26 43.8295 1132.93 43.7386 1133.59 43.7386C1134.01 43.7386 1134.49 43.7898 1135.04 43.892C1135.59 43.9886 1136.12 44.1903 1136.63 44.4972C1137.15 44.804 1137.58 45.267 1137.92 45.8864C1138.26 46.5057 1138.43 47.3352 1138.43 48.375V57H1136.42V55.2273H1136.32C1136.18 55.5114 1135.95 55.8153 1135.64 56.1392C1135.32 56.4631 1134.89 56.7386 1134.37 56.9659C1133.84 57.1932 1133.19 57.3068 1132.43 57.3068ZM1132.74 55.5C1133.53 55.5 1134.2 55.3438 1134.75 55.0312C1135.3 54.7188 1135.72 54.3153 1135.99 53.821C1136.28 53.3267 1136.42 52.8068 1136.42 52.2614V50.4205C1136.33 50.5227 1136.15 50.6165 1135.86 50.7017C1135.57 50.7812 1135.24 50.8523 1134.87 50.9148C1134.5 50.9716 1134.14 51.0227 1133.79 51.0682C1133.44 51.108 1133.16 51.142 1132.94 51.1705C1132.42 51.2386 1131.93 51.3494 1131.48 51.5028C1131.03 51.6506 1130.66 51.875 1130.39 52.1761C1130.11 52.4716 1129.98 52.875 1129.98 53.3864C1129.98 54.0852 1130.24 54.6136 1130.75 54.9716C1131.28 55.3239 1131.94 55.5 1132.74 55.5ZM1142.1 57V43.9091H1144.05V45.8864H1144.18C1144.42 45.2386 1144.85 44.7131 1145.48 44.3097C1146.1 43.9062 1146.81 43.7045 1147.59 43.7045C1147.74 43.7045 1147.92 43.7074 1148.15 43.7131C1148.37 43.7187 1148.53 43.7273 1148.65 43.7386V45.7841C1148.58 45.767 1148.42 45.7415 1148.18 45.7074C1147.94 45.6676 1147.69 45.6477 1147.42 45.6477C1146.78 45.6477 1146.22 45.7812 1145.72 46.0483C1145.22 46.3097 1144.83 46.6733 1144.54 47.1392C1144.26 47.5994 1144.11 48.125 1144.11 48.7159V57H1142.1ZM1156.12 57.2727C1154.86 57.2727 1153.77 56.9943 1152.86 56.4375C1151.95 55.875 1151.25 55.0909 1150.75 54.0852C1150.26 53.0739 1150.02 51.8977 1150.02 50.5568C1150.02 49.2159 1150.26 48.0341 1150.75 47.0114C1151.25 45.983 1151.94 45.1818 1152.82 44.608C1153.7 44.0284 1154.74 43.7386 1155.92 43.7386C1156.6 43.7386 1157.27 43.8523 1157.94 44.0795C1158.6 44.3068 1159.21 44.6761 1159.75 45.1875C1160.3 45.6932 1160.73 46.3636 1161.06 47.1989C1161.38 48.0341 1161.54 49.0625 1161.54 50.2841V51.1364H1151.45V49.3977H1159.5C1159.5 48.6591 1159.35 48 1159.05 47.4205C1158.76 46.8409 1158.35 46.3835 1157.81 46.0483C1157.28 45.7131 1156.65 45.5455 1155.92 45.5455C1155.12 45.5455 1154.42 45.7443 1153.84 46.142C1153.26 46.5341 1152.81 47.0455 1152.5 47.6761C1152.19 48.3068 1152.03 48.983 1152.03 49.7045V50.8636C1152.03 51.8523 1152.2 52.6903 1152.54 53.3778C1152.89 54.0597 1153.37 54.5795 1153.98 54.9375C1154.6 55.2898 1155.31 55.4659 1156.12 55.4659C1156.65 55.4659 1157.13 55.392 1157.55 55.2443C1157.99 55.0909 1158.36 54.8636 1158.67 54.5625C1158.98 54.2557 1159.22 53.875 1159.4 53.4205L1161.34 53.9659C1161.13 54.625 1160.79 55.2045 1160.31 55.7045C1159.82 56.1989 1159.23 56.5852 1158.52 56.8636C1157.81 57.1364 1157.01 57.2727 1156.12 57.2727ZM1177.05 43.9091V45.6136H1170.26V43.9091H1177.05ZM1172.24 40.7727H1174.25V53.25C1174.25 53.8182 1174.33 54.2443 1174.5 54.5284C1174.67 54.8068 1174.88 54.9943 1175.15 55.0909C1175.41 55.1818 1175.69 55.2273 1175.99 55.2273C1176.21 55.2273 1176.39 55.2159 1176.53 55.1932C1176.68 55.1648 1176.79 55.142 1176.88 55.125L1177.28 56.9318C1177.15 56.983 1176.96 57.0341 1176.71 57.0852C1176.47 57.142 1176.16 57.1705 1175.78 57.1705C1175.22 57.1705 1174.66 57.0483 1174.11 56.804C1173.57 56.5597 1173.13 56.1875 1172.77 55.6875C1172.42 55.1875 1172.24 54.5568 1172.24 53.7955V40.7727ZM1182.36 49.125V57H1180.35V39.5455H1182.36V45.9545H1182.53C1182.84 45.2784 1183.3 44.7415 1183.92 44.3438C1184.53 43.9403 1185.36 43.7386 1186.39 43.7386C1187.28 43.7386 1188.06 43.9176 1188.73 44.2756C1189.4 44.6278 1189.92 45.1705 1190.29 45.9034C1190.67 46.6307 1190.85 47.5568 1190.85 48.6818V57H1188.84V48.8182C1188.84 47.7784 1188.57 46.9744 1188.03 46.4062C1187.5 45.8324 1186.76 45.5455 1185.81 45.5455C1185.15 45.5455 1184.56 45.6847 1184.03 45.9631C1183.52 46.2415 1183.11 46.6477 1182.81 47.1818C1182.51 47.7159 1182.36 48.3636 1182.36 49.125ZM1194.53 57V43.9091H1196.54V57H1194.53ZM1195.56 41.7273C1195.16 41.7273 1194.82 41.5938 1194.54 41.3267C1194.26 41.0597 1194.12 40.7386 1194.12 40.3636C1194.12 39.9886 1194.26 39.6676 1194.54 39.4006C1194.82 39.1335 1195.16 39 1195.56 39C1195.95 39 1196.28 39.1335 1196.56 39.4006C1196.84 39.6676 1196.99 39.9886 1196.99 40.3636C1196.99 40.7386 1196.84 41.0597 1196.56 41.3267C1196.28 41.5938 1195.95 41.7273 1195.56 41.7273ZM1209.5 46.8409L1207.69 47.3523C1207.58 47.0511 1207.41 46.7585 1207.19 46.4744C1206.97 46.1847 1206.68 45.946 1206.3 45.7585C1205.93 45.571 1205.45 45.4773 1204.86 45.4773C1204.06 45.4773 1203.4 45.6619 1202.86 46.0312C1202.33 46.3949 1202.07 46.858 1202.07 47.4205C1202.07 47.9205 1202.25 48.3153 1202.61 48.6051C1202.98 48.8949 1203.55 49.1364 1204.32 49.3295L1206.26 49.8068C1207.43 50.0909 1208.3 50.5256 1208.88 51.1108C1209.45 51.6903 1209.74 52.4375 1209.74 53.3523C1209.74 54.1023 1209.52 54.7727 1209.09 55.3636C1208.67 55.9545 1208.07 56.4205 1207.3 56.7614C1206.53 57.1023 1205.64 57.2727 1204.63 57.2727C1203.29 57.2727 1202.19 56.983 1201.31 56.4034C1200.44 55.8239 1199.88 54.9773 1199.65 53.8636L1201.56 53.3864C1201.74 54.0909 1202.08 54.6193 1202.59 54.9716C1203.1 55.3239 1203.77 55.5 1204.59 55.5C1205.53 55.5 1206.27 55.3011 1206.82 54.9034C1207.38 54.5 1207.66 54.017 1207.66 53.4545C1207.66 53 1207.5 52.6193 1207.18 52.3125C1206.86 52 1206.38 51.767 1205.72 51.6136L1203.53 51.1023C1202.34 50.8182 1201.45 50.3778 1200.89 49.7812C1200.34 49.179 1200.06 48.4261 1200.06 47.5227C1200.06 46.7841 1200.26 46.1307 1200.68 45.5625C1201.1 44.9943 1201.67 44.5483 1202.39 44.2244C1203.12 43.9006 1203.94 43.7386 1204.86 43.7386C1206.16 43.7386 1207.18 44.0227 1207.92 44.5909C1208.66 45.1591 1209.19 45.9091 1209.5 46.8409ZM1219.52 57V43.9091H1221.53V57H1219.52ZM1220.54 41.7273C1220.15 41.7273 1219.81 41.5938 1219.53 41.3267C1219.25 41.0597 1219.11 40.7386 1219.11 40.3636C1219.11 39.9886 1219.25 39.6676 1219.53 39.4006C1219.81 39.1335 1220.15 39 1220.54 39C1220.93 39 1221.27 39.1335 1221.55 39.4006C1221.83 39.6676 1221.97 39.9886 1221.97 40.3636C1221.97 40.7386 1221.83 41.0597 1221.55 41.3267C1221.27 41.5938 1220.93 41.7273 1220.54 41.7273ZM1227.22 49.125V57H1225.21V43.9091H1227.16V45.9545H1227.33C1227.63 45.2898 1228.1 44.7557 1228.72 44.3523C1229.35 43.9432 1230.16 43.7386 1231.14 43.7386C1232.03 43.7386 1232.81 43.9205 1233.47 44.2841C1234.14 44.642 1234.65 45.1875 1235.02 45.9205C1235.39 46.6477 1235.58 47.5682 1235.58 48.6818V57H1233.56V48.8182C1233.56 47.7898 1233.3 46.9886 1232.76 46.4148C1232.23 45.8352 1231.5 45.5455 1230.56 45.5455C1229.92 45.5455 1229.35 45.6847 1228.84 45.9631C1228.34 46.2415 1227.95 46.6477 1227.66 47.1818C1227.37 47.7159 1227.22 48.3636 1227.22 49.125ZM1244.19 57.2727C1243.1 57.2727 1242.14 56.9972 1241.31 56.446C1240.47 55.8892 1239.82 55.1051 1239.34 54.0938C1238.87 53.0767 1238.64 51.875 1238.64 50.4886C1238.64 49.1136 1238.87 47.9205 1239.34 46.9091C1239.82 45.8977 1240.47 45.1165 1241.31 44.5653C1242.15 44.0142 1243.13 43.7386 1244.23 43.7386C1245.08 43.7386 1245.75 43.8807 1246.25 44.1648C1246.75 44.4432 1247.13 44.7614 1247.39 45.1193C1247.66 45.4716 1247.86 45.7614 1248.01 45.9886H1248.18V39.5455H1250.19V57H1248.25V54.9886H1248.01C1247.86 55.2273 1247.65 55.5284 1247.38 55.892C1247.11 56.25 1246.72 56.571 1246.21 56.8551C1245.71 57.1335 1245.04 57.2727 1244.19 57.2727ZM1244.47 55.4659C1245.27 55.4659 1245.96 55.2557 1246.51 54.8352C1247.07 54.4091 1247.49 53.821 1247.78 53.071C1248.07 52.3153 1248.22 51.4432 1248.22 50.4545C1248.22 49.4773 1248.07 48.6222 1247.79 47.8892C1247.51 47.1506 1247.09 46.5767 1246.53 46.1676C1245.97 45.7528 1245.29 45.5455 1244.47 45.5455C1243.61 45.5455 1242.9 45.7642 1242.34 46.2017C1241.77 46.6335 1241.35 47.2216 1241.07 47.9659C1240.79 48.7045 1240.65 49.5341 1240.65 50.4545C1240.65 51.3864 1240.79 52.233 1241.07 52.9943C1241.36 53.75 1241.79 54.3523 1242.35 54.8011C1242.92 55.2443 1243.63 55.4659 1244.47 55.4659ZM1259.65 57.2727C1258.38 57.2727 1257.3 56.9943 1256.38 56.4375C1255.47 55.875 1254.77 55.0909 1254.28 54.0852C1253.79 53.0739 1253.54 51.8977 1253.54 50.5568C1253.54 49.2159 1253.79 48.0341 1254.28 47.0114C1254.77 45.983 1255.46 45.1818 1256.34 44.608C1257.23 44.0284 1258.26 43.7386 1259.44 43.7386C1260.12 43.7386 1260.8 43.8523 1261.46 44.0795C1262.13 44.3068 1262.73 44.6761 1263.28 45.1875C1263.82 45.6932 1264.26 46.3636 1264.58 47.1989C1264.9 48.0341 1265.07 49.0625 1265.07 50.2841V51.1364H1254.98V49.3977H1263.02C1263.02 48.6591 1262.87 48 1262.58 47.4205C1262.29 46.8409 1261.87 46.3835 1261.33 46.0483C1260.8 45.7131 1260.17 45.5455 1259.44 45.5455C1258.64 45.5455 1257.95 45.7443 1257.36 46.142C1256.78 46.5341 1256.34 47.0455 1256.02 47.6761C1255.71 48.3068 1255.56 48.983 1255.56 49.7045V50.8636C1255.56 51.8523 1255.73 52.6903 1256.07 53.3778C1256.41 54.0597 1256.89 54.5795 1257.51 54.9375C1258.12 55.2898 1258.83 55.4659 1259.65 55.4659C1260.17 55.4659 1260.65 55.392 1261.08 55.2443C1261.51 55.0909 1261.88 54.8636 1262.19 54.5625C1262.51 54.2557 1262.75 53.875 1262.92 53.4205L1264.86 53.9659C1264.66 54.625 1264.31 55.2045 1263.83 55.7045C1263.35 56.1989 1262.75 56.5852 1262.04 56.8636C1261.33 57.1364 1260.53 57.2727 1259.65 57.2727ZM1273.82 43.9091V45.6136H1267.04V43.9091H1273.82ZM1269.01 40.7727H1271.02V53.25C1271.02 53.8182 1271.11 54.2443 1271.27 54.5284C1271.44 54.8068 1271.66 54.9943 1271.92 55.0909C1272.19 55.1818 1272.47 55.2273 1272.76 55.2273C1272.98 55.2273 1273.17 55.2159 1273.31 55.1932C1273.45 55.1648 1273.56 55.142 1273.65 55.125L1274.06 56.9318C1273.92 56.983 1273.73 57.0341 1273.49 57.0852C1273.24 57.142 1272.93 57.1705 1272.56 57.1705C1271.99 57.1705 1271.43 57.0483 1270.89 56.804C1270.35 56.5597 1269.9 56.1875 1269.54 55.6875C1269.19 55.1875 1269.01 54.5568 1269.01 53.7955V40.7727ZM1280.7 57.3068C1279.87 57.3068 1279.11 57.1506 1278.44 56.8381C1277.76 56.5199 1277.23 56.0625 1276.83 55.4659C1276.43 54.8636 1276.23 54.1364 1276.23 53.2841C1276.23 52.5341 1276.38 51.9261 1276.67 51.4602C1276.97 50.9886 1277.36 50.6193 1277.86 50.3523C1278.35 50.0852 1278.9 49.8864 1279.5 49.7557C1280.1 49.6193 1280.7 49.5114 1281.31 49.4318C1282.11 49.3295 1282.75 49.2528 1283.25 49.2017C1283.75 49.1449 1284.11 49.0511 1284.34 48.9205C1284.57 48.7898 1284.69 48.5625 1284.69 48.2386V48.1705C1284.69 47.3295 1284.46 46.6761 1284 46.2102C1283.54 45.7443 1282.85 45.5114 1281.92 45.5114C1280.96 45.5114 1280.21 45.7216 1279.67 46.142C1279.12 46.5625 1278.74 47.0114 1278.52 47.4886L1276.61 46.8068C1276.95 46.0114 1277.4 45.392 1277.97 44.9489C1278.54 44.5 1279.17 44.1875 1279.84 44.0114C1280.53 43.8295 1281.2 43.7386 1281.86 43.7386C1282.28 43.7386 1282.76 43.7898 1283.31 43.892C1283.86 43.9886 1284.39 44.1903 1284.9 44.4972C1285.42 44.804 1285.84 45.267 1286.19 45.8864C1286.53 46.5057 1286.7 47.3352 1286.7 48.375V57H1284.69V55.2273H1284.58C1284.45 55.5114 1284.22 55.8153 1283.9 56.1392C1283.58 56.4631 1283.16 56.7386 1282.63 56.9659C1282.1 57.1932 1281.46 57.3068 1280.7 57.3068ZM1281 55.5C1281.8 55.5 1282.47 55.3438 1283.02 55.0312C1283.57 54.7188 1283.98 54.3153 1284.26 53.821C1284.54 53.3267 1284.69 52.8068 1284.69 52.2614V50.4205C1284.6 50.5227 1284.41 50.6165 1284.12 50.7017C1283.84 50.7812 1283.51 50.8523 1283.13 50.9148C1282.77 50.9716 1282.4 51.0227 1282.05 51.0682C1281.71 51.108 1281.42 51.142 1281.21 51.1705C1280.69 51.2386 1280.2 51.3494 1279.74 51.5028C1279.29 51.6506 1278.93 51.875 1278.65 52.1761C1278.38 52.4716 1278.24 52.875 1278.24 53.3864C1278.24 54.0852 1278.5 54.6136 1279.02 54.9716C1279.54 55.3239 1280.2 55.5 1281 55.5ZM1290.37 57V43.9091H1292.38V57H1290.37ZM1291.39 41.7273C1291 41.7273 1290.66 41.5938 1290.38 41.3267C1290.1 41.0597 1289.96 40.7386 1289.96 40.3636C1289.96 39.9886 1290.1 39.6676 1290.38 39.4006C1290.66 39.1335 1291 39 1291.39 39C1291.78 39 1292.12 39.1335 1292.4 39.4006C1292.68 39.6676 1292.82 39.9886 1292.82 40.3636C1292.82 40.7386 1292.68 41.0597 1292.4 41.3267C1292.12 41.5938 1291.78 41.7273 1291.39 41.7273ZM1298.07 39.5455V57H1296.06V39.5455H1298.07ZM671.56 90.9091V72.9091H673.503V74.9886H673.741C673.889 74.7614 674.094 74.4716 674.355 74.1193C674.622 73.7614 675.003 73.4432 675.497 73.1648C675.997 72.8807 676.673 72.7386 677.526 72.7386C678.628 72.7386 679.599 73.0142 680.44 73.5653C681.281 74.1165 681.938 74.8977 682.409 75.9091C682.881 76.9205 683.116 78.1136 683.116 79.4886C683.116 80.875 682.881 82.0767 682.409 83.0938C681.938 84.1051 681.284 84.8892 680.449 85.446C679.614 85.9972 678.651 86.2727 677.56 86.2727C676.719 86.2727 676.045 86.1335 675.54 85.8551C675.034 85.571 674.645 85.25 674.372 84.892C674.099 84.5284 673.889 84.2273 673.741 83.9886H673.571V90.9091H671.56ZM673.537 79.4545C673.537 80.4432 673.682 81.3153 673.972 82.071C674.261 82.821 674.685 83.4091 675.241 83.8352C675.798 84.2557 676.48 84.4659 677.287 84.4659C678.128 84.4659 678.83 84.2443 679.392 83.8011C679.96 83.3523 680.386 82.75 680.67 81.9943C680.96 81.233 681.105 80.3864 681.105 79.4545C681.105 78.5341 680.963 77.7045 680.679 76.9659C680.401 76.2216 679.977 75.6335 679.409 75.2017C678.847 74.7642 678.139 74.5455 677.287 74.5455C676.469 74.5455 675.781 74.7528 675.224 75.1676C674.668 75.5767 674.247 76.1506 673.963 76.8892C673.679 77.6222 673.537 78.4773 673.537 79.4545ZM686.185 86V72.9091H688.128V74.8864H688.264C688.503 74.2386 688.935 73.7131 689.56 73.3097C690.185 72.9062 690.889 72.7045 691.673 72.7045C691.821 72.7045 692.006 72.7074 692.227 72.7131C692.449 72.7187 692.616 72.7273 692.73 72.7386V74.7841C692.662 74.767 692.506 74.7415 692.261 74.7074C692.023 74.6676 691.77 74.6477 691.503 74.6477C690.866 74.6477 690.298 74.7812 689.798 75.0483C689.304 75.3097 688.912 75.6733 688.622 76.1392C688.338 76.5994 688.196 77.125 688.196 77.7159V86H686.185ZM700.034 86.2727C698.852 86.2727 697.815 85.9915 696.923 85.429C696.037 84.8665 695.344 84.0795 694.844 83.0682C694.349 82.0568 694.102 80.875 694.102 79.5227C694.102 78.1591 694.349 76.9687 694.844 75.9517C695.344 74.9347 696.037 74.1449 696.923 73.5824C697.815 73.0199 698.852 72.7386 700.034 72.7386C701.216 72.7386 702.25 73.0199 703.136 73.5824C704.028 74.1449 704.722 74.9347 705.216 75.9517C705.716 76.9687 705.966 78.1591 705.966 79.5227C705.966 80.875 705.716 82.0568 705.216 83.0682C704.722 84.0795 704.028 84.8665 703.136 85.429C702.25 85.9915 701.216 86.2727 700.034 86.2727ZM700.034 84.4659C700.932 84.4659 701.67 84.2358 702.25 83.7756C702.83 83.3153 703.259 82.7102 703.537 81.9602C703.815 81.2102 703.955 80.3977 703.955 79.5227C703.955 78.6477 703.815 77.8324 703.537 77.0767C703.259 76.321 702.83 75.7102 702.25 75.2443C701.67 74.7784 700.932 74.5455 700.034 74.5455C699.136 74.5455 698.398 74.7784 697.818 75.2443C697.239 75.7102 696.81 76.321 696.531 77.0767C696.253 77.8324 696.114 78.6477 696.114 79.5227C696.114 80.3977 696.253 81.2102 696.531 81.9602C696.81 82.7102 697.239 83.3153 697.818 83.7756C698.398 84.2358 699.136 84.4659 700.034 84.4659ZM709.036 72.9091H711.048V86.9545C711.048 87.7614 710.908 88.4602 710.63 89.0511C710.357 89.642 709.942 90.0994 709.386 90.4233C708.835 90.7472 708.138 90.9091 707.298 90.9091C707.229 90.9091 707.161 90.9091 707.093 90.9091C707.025 90.9091 706.957 90.9091 706.888 90.9091V89.0341C706.957 89.0341 707.019 89.0341 707.076 89.0341C707.133 89.0341 707.195 89.0341 707.263 89.0341C707.877 89.0341 708.326 88.8523 708.61 88.4886C708.894 88.1307 709.036 87.6193 709.036 86.9545V72.9091ZM710.025 70.7273C709.633 70.7273 709.295 70.5938 709.011 70.3267C708.732 70.0597 708.593 69.7386 708.593 69.3636C708.593 68.9886 708.732 68.6676 709.011 68.4006C709.295 68.1335 709.633 68 710.025 68C710.417 68 710.752 68.1335 711.031 68.4006C711.315 68.6676 711.457 68.9886 711.457 69.3636C711.457 69.7386 711.315 70.0597 711.031 70.3267C710.752 70.5938 710.417 70.7273 710.025 70.7273ZM720.22 86.2727C718.959 86.2727 717.871 85.9943 716.956 85.4375C716.047 84.875 715.345 84.0909 714.851 83.0852C714.362 82.0739 714.118 80.8977 714.118 79.5568C714.118 78.2159 714.362 77.0341 714.851 76.0114C715.345 74.983 716.033 74.1818 716.913 73.608C717.8 73.0284 718.834 72.7386 720.016 72.7386C720.697 72.7386 721.371 72.8523 722.036 73.0795C722.7 73.3068 723.305 73.6761 723.851 74.1875C724.396 74.6932 724.831 75.3636 725.155 76.1989C725.479 77.0341 725.641 78.0625 725.641 79.2841V80.1364H715.55V78.3977H723.595C723.595 77.6591 723.447 77 723.152 76.4205C722.862 75.8409 722.447 75.3835 721.908 75.0483C721.374 74.7131 720.743 74.5455 720.016 74.5455C719.214 74.5455 718.521 74.7443 717.936 75.142C717.357 75.5341 716.911 76.0455 716.598 76.6761C716.286 77.3068 716.129 77.983 716.129 78.7045V79.8636C716.129 80.8523 716.3 81.6903 716.641 82.3778C716.987 83.0597 717.467 83.5795 718.081 83.9375C718.695 84.2898 719.408 84.4659 720.22 84.4659C720.749 84.4659 721.226 84.392 721.652 84.2443C722.084 84.0909 722.456 83.8636 722.768 83.5625C723.081 83.2557 723.322 82.875 723.493 82.4205L725.436 82.9659C725.232 83.625 724.888 84.2045 724.405 84.7045C723.922 85.1989 723.325 85.5852 722.615 85.8636C721.905 86.1364 721.107 86.2727 720.22 86.2727ZM734.018 86.2727C732.791 86.2727 731.734 85.983 730.848 85.4034C729.962 84.8239 729.28 84.0256 728.803 83.0085C728.325 81.9915 728.087 80.8295 728.087 79.5227C728.087 78.1932 728.331 77.0199 728.82 76.0028C729.314 74.9801 730.001 74.1818 730.882 73.608C731.768 73.0284 732.803 72.7386 733.984 72.7386C734.905 72.7386 735.734 72.9091 736.473 73.25C737.212 73.5909 737.817 74.0682 738.288 74.6818C738.76 75.2955 739.053 76.0114 739.166 76.8295H737.155C737.001 76.233 736.661 75.7045 736.132 75.2443C735.609 74.7784 734.905 74.5455 734.018 74.5455C733.234 74.5455 732.547 74.75 731.956 75.1591C731.371 75.5625 730.913 76.1335 730.584 76.8722C730.26 77.6051 730.098 78.4659 730.098 79.4545C730.098 80.4659 730.257 81.3466 730.575 82.0966C730.899 82.8466 731.354 83.429 731.939 83.8438C732.53 84.2585 733.223 84.4659 734.018 84.4659C734.541 84.4659 735.016 84.375 735.442 84.1932C735.868 84.0114 736.229 83.75 736.524 83.4091C736.82 83.0682 737.03 82.6591 737.155 82.1818H739.166C739.053 82.9545 738.771 83.6506 738.322 84.2699C737.879 84.8835 737.291 85.3722 736.558 85.7358C735.831 86.0938 734.984 86.2727 734.018 86.2727ZM747.8 72.9091V74.6136H741.016V72.9091H747.8ZM742.993 69.7727H745.004V82.25C745.004 82.8182 745.087 83.2443 745.251 83.5284C745.422 83.8068 745.638 83.9943 745.899 84.0909C746.166 84.1818 746.447 84.2273 746.743 84.2273C746.964 84.2273 747.146 84.2159 747.288 84.1932C747.43 84.1648 747.544 84.142 747.629 84.125L748.038 85.9318C747.902 85.983 747.712 86.0341 747.467 86.0852C747.223 86.142 746.913 86.1705 746.538 86.1705C745.97 86.1705 745.413 86.0483 744.868 85.804C744.328 85.5597 743.879 85.1875 743.521 84.6875C743.169 84.1875 742.993 83.5568 742.993 82.7955V69.7727ZM757.575 86V72.9091H759.587V86H757.575ZM758.598 70.7273C758.206 70.7273 757.868 70.5938 757.584 70.3267C757.305 70.0597 757.166 69.7386 757.166 69.3636C757.166 68.9886 757.305 68.6676 757.584 68.4006C757.868 68.1335 758.206 68 758.598 68C758.99 68 759.325 68.1335 759.604 68.4006C759.888 68.6676 760.03 68.9886 760.03 69.3636C760.03 69.7386 759.888 70.0597 759.604 70.3267C759.325 70.5938 758.99 70.7273 758.598 70.7273ZM765.282 78.125V86H763.271V72.9091H765.214V74.9545H765.384C765.691 74.2898 766.157 73.7557 766.782 73.3523C767.407 72.9432 768.214 72.7386 769.202 72.7386C770.089 72.7386 770.864 72.9205 771.529 73.2841C772.194 73.642 772.711 74.1875 773.08 74.9205C773.45 75.6477 773.634 76.5682 773.634 77.6818V86H771.623V77.8182C771.623 76.7898 771.356 75.9886 770.822 75.4148C770.288 74.8352 769.555 74.5455 768.623 74.5455C767.981 74.5455 767.407 74.6847 766.901 74.9631C766.401 75.2415 766.006 75.6477 765.717 76.1818C765.427 76.7159 765.282 77.3636 765.282 78.125ZM789.753 72.9091V74.6136H782.969V72.9091H789.753ZM784.946 69.7727H786.957V82.25C786.957 82.8182 787.04 83.2443 787.205 83.5284C787.375 83.8068 787.591 83.9943 787.852 84.0909C788.119 84.1818 788.401 84.2273 788.696 84.2273C788.918 84.2273 789.099 84.2159 789.241 84.1932C789.384 84.1648 789.497 84.142 789.582 84.125L789.991 85.9318C789.855 85.983 789.665 86.0341 789.42 86.0852C789.176 86.142 788.866 86.1705 788.491 86.1705C787.923 86.1705 787.366 86.0483 786.821 85.804C786.281 85.5597 785.832 85.1875 785.474 84.6875C785.122 84.1875 784.946 83.5568 784.946 82.7955V69.7727ZM795.071 78.125V86H793.06V68.5455H795.071V74.9545H795.241C795.548 74.2784 796.009 73.7415 796.622 73.3438C797.241 72.9403 798.065 72.7386 799.094 72.7386C799.986 72.7386 800.767 72.9176 801.438 73.2756C802.108 73.6278 802.628 74.1705 802.997 74.9034C803.372 75.6307 803.56 76.5568 803.56 77.6818V86H801.548V77.8182C801.548 76.7784 801.278 75.9744 800.739 75.4062C800.205 74.8324 799.463 74.5455 798.514 74.5455C797.855 74.5455 797.264 74.6847 796.741 74.9631C796.224 75.2415 795.815 75.6477 795.514 76.1818C795.219 76.7159 795.071 77.3636 795.071 78.125ZM807.239 86V72.9091H809.251V86H807.239ZM808.262 70.7273C807.87 70.7273 807.532 70.5938 807.248 70.3267C806.969 70.0597 806.83 69.7386 806.83 69.3636C806.83 68.9886 806.969 68.6676 807.248 68.4006C807.532 68.1335 807.87 68 808.262 68C808.654 68 808.989 68.1335 809.268 68.4006C809.552 68.6676 809.694 68.9886 809.694 69.3636C809.694 69.7386 809.552 70.0597 809.268 70.3267C808.989 70.5938 808.654 70.7273 808.262 70.7273ZM822.207 75.8409L820.401 76.3523C820.287 76.0511 820.119 75.7585 819.898 75.4744C819.682 75.1847 819.386 74.946 819.011 74.7585C818.636 74.571 818.156 74.4773 817.571 74.4773C816.77 74.4773 816.102 74.6619 815.568 75.0312C815.04 75.3949 814.776 75.858 814.776 76.4205C814.776 76.9205 814.957 77.3153 815.321 77.6051C815.685 77.8949 816.253 78.1364 817.026 78.3295L818.969 78.8068C820.139 79.0909 821.011 79.5256 821.585 80.1108C822.159 80.6903 822.446 81.4375 822.446 82.3523C822.446 83.1023 822.23 83.7727 821.798 84.3636C821.372 84.9545 820.776 85.4205 820.009 85.7614C819.241 86.1023 818.349 86.2727 817.332 86.2727C815.997 86.2727 814.892 85.983 814.017 85.4034C813.142 84.8239 812.588 83.9773 812.355 82.8636L814.264 82.3864C814.446 83.0909 814.79 83.6193 815.295 83.9716C815.807 84.3239 816.474 84.5 817.298 84.5C818.236 84.5 818.98 84.3011 819.531 83.9034C820.088 83.5 820.366 83.017 820.366 82.4545C820.366 82 820.207 81.6193 819.889 81.3125C819.571 81 819.082 80.767 818.423 80.6136L816.241 80.1023C815.043 79.8182 814.162 79.3778 813.599 78.7812C813.043 78.179 812.764 77.4261 812.764 76.5227C812.764 75.7841 812.972 75.1307 813.386 74.5625C813.807 73.9943 814.378 73.5483 815.099 73.2244C815.827 72.9006 816.651 72.7386 817.571 72.7386C818.866 72.7386 819.884 73.0227 820.622 73.5909C821.366 74.1591 821.895 74.9091 822.207 75.8409ZM832.224 90.9091V72.9091H834.167V74.9886H834.406C834.553 74.7614 834.758 74.4716 835.019 74.1193C835.286 73.7614 835.667 73.4432 836.161 73.1648C836.661 72.8807 837.337 72.7386 838.19 72.7386C839.292 72.7386 840.263 73.0142 841.104 73.5653C841.945 74.1165 842.602 74.8977 843.073 75.9091C843.545 76.9205 843.781 78.1136 843.781 79.4886C843.781 80.875 843.545 82.0767 843.073 83.0938C842.602 84.1051 841.948 84.8892 841.113 85.446C840.278 85.9972 839.315 86.2727 838.224 86.2727C837.383 86.2727 836.71 86.1335 836.204 85.8551C835.698 85.571 835.309 85.25 835.036 84.892C834.763 84.5284 834.553 84.2273 834.406 83.9886H834.235V90.9091H832.224ZM834.201 79.4545C834.201 80.4432 834.346 81.3153 834.636 82.071C834.925 82.821 835.349 83.4091 835.906 83.8352C836.462 84.2557 837.144 84.4659 837.951 84.4659C838.792 84.4659 839.494 84.2443 840.056 83.8011C840.624 83.3523 841.05 82.75 841.335 81.9943C841.624 81.233 841.769 80.3864 841.769 79.4545C841.769 78.5341 841.627 77.7045 841.343 76.9659C841.065 76.2216 840.641 75.6335 840.073 75.2017C839.511 74.7642 838.803 74.5455 837.951 74.5455C837.133 74.5455 836.445 74.7528 835.888 75.1676C835.332 75.5767 834.911 76.1506 834.627 76.8892C834.343 77.6222 834.201 78.4773 834.201 79.4545ZM848.86 68.5455V86H846.849V68.5455H848.86ZM856.396 86.3068C855.567 86.3068 854.814 86.1506 854.138 85.8381C853.462 85.5199 852.925 85.0625 852.527 84.4659C852.129 83.8636 851.93 83.1364 851.93 82.2841C851.93 81.5341 852.078 80.9261 852.374 80.4602C852.669 79.9886 853.064 79.6193 853.558 79.3523C854.053 79.0852 854.598 78.8864 855.195 78.7557C855.797 78.6193 856.402 78.5114 857.01 78.4318C857.805 78.3295 858.45 78.2528 858.945 78.2017C859.445 78.1449 859.808 78.0511 860.036 77.9205C860.268 77.7898 860.385 77.5625 860.385 77.2386V77.1705C860.385 76.3295 860.155 75.6761 859.695 75.2102C859.24 74.7443 858.55 74.5114 857.624 74.5114C856.663 74.5114 855.911 74.7216 855.365 75.142C854.82 75.5625 854.436 76.0114 854.214 76.4886L852.305 75.8068C852.646 75.0114 853.101 74.392 853.669 73.9489C854.243 73.5 854.868 73.1875 855.544 73.0114C856.226 72.8295 856.896 72.7386 857.555 72.7386C857.976 72.7386 858.459 72.7898 859.004 72.892C859.555 72.9886 860.087 73.1903 860.598 73.4972C861.115 73.804 861.544 74.267 861.885 74.8864C862.226 75.5057 862.396 76.3352 862.396 77.375V86H860.385V84.2273H860.283C860.146 84.5114 859.919 84.8153 859.601 85.1392C859.283 85.4631 858.859 85.7386 858.331 85.9659C857.803 86.1932 857.158 86.3068 856.396 86.3068ZM856.703 84.5C857.499 84.5 858.169 84.3438 858.714 84.0312C859.266 83.7188 859.68 83.3153 859.959 82.821C860.243 82.3267 860.385 81.8068 860.385 81.2614V79.4205C860.3 79.5227 860.112 79.6165 859.822 79.7017C859.538 79.7812 859.209 79.8523 858.834 79.9148C858.464 79.9716 858.104 80.0227 857.751 80.0682C857.405 80.108 857.124 80.142 856.908 80.1705C856.385 80.2386 855.896 80.3494 855.442 80.5028C854.993 80.6506 854.629 80.875 854.351 81.1761C854.078 81.4716 853.942 81.875 853.942 82.3864C853.942 83.0852 854.2 83.6136 854.717 83.9716C855.24 84.3239 855.902 84.5 856.703 84.5ZM871.761 72.9091V74.6136H864.977V72.9091H871.761ZM866.954 69.7727H868.965V82.25C868.965 82.8182 869.048 83.2443 869.212 83.5284C869.383 83.8068 869.599 83.9943 869.86 84.0909C870.127 84.1818 870.408 84.2273 870.704 84.2273C870.925 84.2273 871.107 84.2159 871.249 84.1932C871.391 84.1648 871.505 84.142 871.59 84.125L871.999 85.9318C871.863 85.983 871.673 86.0341 871.428 86.0852C871.184 86.142 870.874 86.1705 870.499 86.1705C869.931 86.1705 869.374 86.0483 868.829 85.804C868.289 85.5597 867.84 85.1875 867.482 84.6875C867.13 84.1875 866.954 83.5568 866.954 82.7955V69.7727ZM880.616 72.9091V74.6136H873.559V72.9091H880.616ZM875.673 86V71.1023C875.673 70.3523 875.849 69.7273 876.201 69.2273C876.553 68.7273 877.011 68.3523 877.573 68.1023C878.136 67.8523 878.729 67.7273 879.354 67.7273C879.849 67.7273 880.252 67.767 880.565 67.8466C880.877 67.9261 881.11 68 881.263 68.0682L880.684 69.8068C880.582 69.7727 880.44 69.7301 880.258 69.679C880.082 69.6278 879.849 69.6023 879.559 69.6023C878.894 69.6023 878.414 69.7699 878.119 70.1051C877.829 70.4403 877.684 70.9318 877.684 71.5795V86H875.673ZM888.214 86.2727C887.032 86.2727 885.995 85.9915 885.103 85.429C884.217 84.8665 883.523 84.0795 883.023 83.0682C882.529 82.0568 882.282 80.875 882.282 79.5227C882.282 78.1591 882.529 76.9687 883.023 75.9517C883.523 74.9347 884.217 74.1449 885.103 73.5824C885.995 73.0199 887.032 72.7386 888.214 72.7386C889.396 72.7386 890.43 73.0199 891.316 73.5824C892.208 74.1449 892.901 74.9347 893.396 75.9517C893.896 76.9687 894.146 78.1591 894.146 79.5227C894.146 80.875 893.896 82.0568 893.396 83.0682C892.901 84.0795 892.208 84.8665 891.316 85.429C890.43 85.9915 889.396 86.2727 888.214 86.2727ZM888.214 84.4659C889.112 84.4659 889.85 84.2358 890.43 83.7756C891.009 83.3153 891.438 82.7102 891.717 81.9602C891.995 81.2102 892.134 80.3977 892.134 79.5227C892.134 78.6477 891.995 77.8324 891.717 77.0767C891.438 76.321 891.009 75.7102 890.43 75.2443C889.85 74.7784 889.112 74.5455 888.214 74.5455C887.316 74.5455 886.577 74.7784 885.998 75.2443C885.418 75.7102 884.989 76.321 884.711 77.0767C884.433 77.8324 884.293 78.6477 884.293 79.5227C884.293 80.3977 884.433 81.2102 884.711 81.9602C884.989 82.7102 885.418 83.3153 885.998 83.7756C886.577 84.2358 887.316 84.4659 888.214 84.4659ZM897.216 86V72.9091H899.159V74.8864H899.295C899.534 74.2386 899.966 73.7131 900.591 73.3097C901.216 72.9062 901.92 72.7045 902.705 72.7045C902.852 72.7045 903.037 72.7074 903.259 72.7131C903.48 72.7187 903.648 72.7273 903.761 72.7386V74.7841C903.693 74.767 903.537 74.7415 903.293 74.7074C903.054 74.6676 902.801 74.6477 902.534 74.6477C901.898 74.6477 901.33 74.7812 900.83 75.0483C900.335 75.3097 899.943 75.6733 899.653 76.1392C899.369 76.5994 899.227 77.125 899.227 77.7159V86H897.216ZM906.146 86V72.9091H908.089V74.9545H908.259C908.532 74.2557 908.972 73.7131 909.58 73.3267C910.188 72.9347 910.918 72.7386 911.771 72.7386C912.634 72.7386 913.353 72.9347 913.927 73.3267C914.506 73.7131 914.958 74.2557 915.282 74.9545H915.418C915.754 74.2784 916.256 73.7415 916.927 73.3438C917.597 72.9403 918.401 72.7386 919.339 72.7386C920.509 72.7386 921.467 73.1051 922.211 73.8381C922.955 74.5653 923.327 75.6989 923.327 77.2386V86H921.316V77.2386C921.316 76.2727 921.052 75.5824 920.523 75.1676C919.995 74.7528 919.373 74.5455 918.657 74.5455C917.737 74.5455 917.023 74.8239 916.518 75.3807C916.012 75.9318 915.759 76.6307 915.759 77.4773V86H913.714V77.0341C913.714 76.2898 913.472 75.6903 912.989 75.2358C912.506 74.7756 911.884 74.5455 911.123 74.5455C910.6 74.5455 910.112 74.6847 909.657 74.9631C909.208 75.2415 908.844 75.6278 908.566 76.1222C908.293 76.6108 908.157 77.1761 908.157 77.8182V86H906.146ZM930.005 83.6136L929.869 84.5341C929.772 85.1818 929.624 85.875 929.425 86.6136C929.232 87.3523 929.031 88.0483 928.82 88.7017C928.61 89.3551 928.437 89.875 928.3 90.2614H926.766C926.84 89.8977 926.937 89.4176 927.056 88.821C927.175 88.2244 927.295 87.5568 927.414 86.8182C927.539 86.0852 927.641 85.3352 927.721 84.5682L927.823 83.6136H930.005ZM940.482 86V72.9091H942.425V74.8864H942.561C942.8 74.2386 943.232 73.7131 943.857 73.3097C944.482 72.9062 945.186 72.7045 945.97 72.7045C946.118 72.7045 946.303 72.7074 946.524 72.7131C946.746 72.7187 946.913 72.7273 947.027 72.7386V74.7841C946.959 74.767 946.803 74.7415 946.558 74.7074C946.32 74.6676 946.067 74.6477 945.8 74.6477C945.163 74.6477 944.595 74.7812 944.095 75.0483C943.601 75.3097 943.209 75.6733 942.919 76.1392C942.635 76.5994 942.493 77.125 942.493 77.7159V86H940.482ZM954.501 86.2727C953.24 86.2727 952.152 85.9943 951.237 85.4375C950.328 84.875 949.626 84.0909 949.132 83.0852C948.643 82.0739 948.399 80.8977 948.399 79.5568C948.399 78.2159 948.643 77.0341 949.132 76.0114C949.626 74.983 950.314 74.1818 951.195 73.608C952.081 73.0284 953.115 72.7386 954.297 72.7386C954.979 72.7386 955.652 72.8523 956.317 73.0795C956.982 73.3068 957.587 73.6761 958.132 74.1875C958.678 74.6932 959.112 75.3636 959.436 76.1989C959.76 77.0341 959.922 78.0625 959.922 79.2841V80.1364H949.831V78.3977H957.876C957.876 77.6591 957.729 77 957.433 76.4205C957.143 75.8409 956.729 75.3835 956.189 75.0483C955.655 74.7131 955.024 74.5455 954.297 74.5455C953.496 74.5455 952.803 74.7443 952.217 75.142C951.638 75.5341 951.192 76.0455 950.879 76.6761C950.567 77.3068 950.411 77.983 950.411 78.7045V79.8636C950.411 80.8523 950.581 81.6903 950.922 82.3778C951.268 83.0597 951.749 83.5795 952.362 83.9375C952.976 84.2898 953.689 84.4659 954.501 84.4659C955.03 84.4659 955.507 84.392 955.933 84.2443C956.365 84.0909 956.737 83.8636 957.05 83.5625C957.362 83.2557 957.604 82.875 957.774 82.4205L959.717 82.9659C959.513 83.625 959.169 84.2045 958.686 84.7045C958.203 85.1989 957.607 85.5852 956.896 85.8636C956.186 86.1364 955.388 86.2727 954.501 86.2727ZM966.834 86.3068C966.004 86.3068 965.251 86.1506 964.575 85.8381C963.899 85.5199 963.362 85.0625 962.964 84.4659C962.567 83.8636 962.368 83.1364 962.368 82.2841C962.368 81.5341 962.516 80.9261 962.811 80.4602C963.107 79.9886 963.501 79.6193 963.996 79.3523C964.49 79.0852 965.036 78.8864 965.632 78.7557C966.234 78.6193 966.839 78.5114 967.447 78.4318C968.243 78.3295 968.888 78.2528 969.382 78.2017C969.882 78.1449 970.246 78.0511 970.473 77.9205C970.706 77.7898 970.822 77.5625 970.822 77.2386V77.1705C970.822 76.3295 970.592 75.6761 970.132 75.2102C969.678 74.7443 968.987 74.5114 968.061 74.5114C967.101 74.5114 966.348 74.7216 965.803 75.142C965.257 75.5625 964.874 76.0114 964.652 76.4886L962.743 75.8068C963.084 75.0114 963.538 74.392 964.107 73.9489C964.68 73.5 965.305 73.1875 965.982 73.0114C966.663 72.8295 967.334 72.7386 967.993 72.7386C968.413 72.7386 968.896 72.7898 969.442 72.892C969.993 72.9886 970.524 73.1903 971.036 73.4972C971.553 73.804 971.982 74.267 972.322 74.8864C972.663 75.5057 972.834 76.3352 972.834 77.375V86H970.822V84.2273H970.72C970.584 84.5114 970.357 84.8153 970.038 85.1392C969.72 85.4631 969.297 85.7386 968.768 85.9659C968.24 86.1932 967.595 86.3068 966.834 86.3068ZM967.141 84.5C967.936 84.5 968.607 84.3438 969.152 84.0312C969.703 83.7188 970.118 83.3153 970.396 82.821C970.68 82.3267 970.822 81.8068 970.822 81.2614V79.4205C970.737 79.5227 970.55 79.6165 970.26 79.7017C969.976 79.7812 969.646 79.8523 969.271 79.9148C968.902 79.9716 968.541 80.0227 968.189 80.0682C967.842 80.108 967.561 80.142 967.345 80.1705C966.822 80.2386 966.334 80.3494 965.879 80.5028C965.43 80.6506 965.067 80.875 964.788 81.1761C964.516 81.4716 964.379 81.875 964.379 82.3864C964.379 83.0852 964.638 83.6136 965.155 83.9716C965.678 84.3239 966.339 84.5 967.141 84.5ZM981.823 86.2727C980.596 86.2727 979.539 85.983 978.653 85.4034C977.766 84.8239 977.085 84.0256 976.607 83.0085C976.13 81.9915 975.891 80.8295 975.891 79.5227C975.891 78.1932 976.136 77.0199 976.624 76.0028C977.119 74.9801 977.806 74.1818 978.687 73.608C979.573 73.0284 980.607 72.7386 981.789 72.7386C982.71 72.7386 983.539 72.9091 984.278 73.25C985.016 73.5909 985.621 74.0682 986.093 74.6818C986.565 75.2955 986.857 76.0114 986.971 76.8295H984.96C984.806 76.233 984.465 75.7045 983.937 75.2443C983.414 74.7784 982.71 74.5455 981.823 74.5455C981.039 74.5455 980.352 74.75 979.761 75.1591C979.175 75.5625 978.718 76.1335 978.388 76.8722C978.065 77.6051 977.903 78.4659 977.903 79.4545C977.903 80.4659 978.062 81.3466 978.38 82.0966C978.704 82.8466 979.158 83.429 979.744 83.8438C980.335 84.2585 981.028 84.4659 981.823 84.4659C982.346 84.4659 982.82 84.375 983.246 84.1932C983.673 84.0114 984.033 83.75 984.329 83.4091C984.624 83.0682 984.835 82.6591 984.96 82.1818H986.971C986.857 82.9545 986.576 83.6506 986.127 84.2699C985.684 84.8835 985.096 85.3722 984.363 85.7358C983.636 86.0938 982.789 86.2727 981.823 86.2727ZM991.923 78.125V86H989.911V68.5455H991.923V74.9545H992.093C992.4 74.2784 992.86 73.7415 993.474 73.3438C994.093 72.9403 994.917 72.7386 995.945 72.7386C996.837 72.7386 997.619 72.9176 998.289 73.2756C998.96 73.6278 999.479 74.1705 999.849 74.9034C1000.22 75.6307 1000.41 76.5568 1000.41 77.6818V86H998.4V77.8182C998.4 76.7784 998.13 75.9744 997.59 75.4062C997.056 74.8324 996.315 74.5455 995.366 74.5455C994.707 74.5455 994.116 74.6847 993.593 74.9631C993.076 75.2415 992.667 75.6477 992.366 76.1818C992.07 76.7159 991.923 77.3636 991.923 78.125ZM1016.16 86.2727C1014.98 86.2727 1013.94 85.9915 1013.05 85.429C1012.16 84.8665 1011.47 84.0795 1010.97 83.0682C1010.47 82.0568 1010.23 80.875 1010.23 79.5227C1010.23 78.1591 1010.47 76.9687 1010.97 75.9517C1011.47 74.9347 1012.16 74.1449 1013.05 73.5824C1013.94 73.0199 1014.98 72.7386 1016.16 72.7386C1017.34 72.7386 1018.38 73.0199 1019.26 73.5824C1020.15 74.1449 1020.85 74.9347 1021.34 75.9517C1021.84 76.9687 1022.09 78.1591 1022.09 79.5227C1022.09 80.875 1021.84 82.0568 1021.34 83.0682C1020.85 84.0795 1020.15 84.8665 1019.26 85.429C1018.38 85.9915 1017.34 86.2727 1016.16 86.2727ZM1016.16 84.4659C1017.06 84.4659 1017.8 84.2358 1018.38 83.7756C1018.95 83.3153 1019.38 82.7102 1019.66 81.9602C1019.94 81.2102 1020.08 80.3977 1020.08 79.5227C1020.08 78.6477 1019.94 77.8324 1019.66 77.0767C1019.38 76.321 1018.95 75.7102 1018.38 75.2443C1017.8 74.7784 1017.06 74.5455 1016.16 74.5455C1015.26 74.5455 1014.52 74.7784 1013.94 75.2443C1013.36 75.7102 1012.93 76.321 1012.66 77.0767C1012.38 77.8324 1012.24 78.6477 1012.24 79.5227C1012.24 80.3977 1012.38 81.2102 1012.66 81.9602C1012.93 82.7102 1013.36 83.3153 1013.94 83.7756C1014.52 84.2358 1015.26 84.4659 1016.16 84.4659ZM1033.41 80.6477V72.9091H1035.42V86H1033.41V83.7841H1033.27C1032.97 84.4489 1032.49 85.0142 1031.84 85.4801C1031.2 85.9403 1030.38 86.1705 1029.39 86.1705C1028.57 86.1705 1027.84 85.9915 1027.21 85.6335C1026.57 85.2699 1026.07 84.7244 1025.71 83.9972C1025.34 83.2642 1025.16 82.3409 1025.16 81.2273V72.9091H1027.17V81.0909C1027.17 82.0455 1027.44 82.8068 1027.97 83.375C1028.51 83.9432 1029.2 84.2273 1030.04 84.2273C1030.54 84.2273 1031.04 84.0994 1031.56 83.8438C1032.08 83.5881 1032.52 83.196 1032.87 82.6676C1033.23 82.1392 1033.41 81.4659 1033.41 80.6477ZM1044.8 72.9091V74.6136H1038.02V72.9091H1044.8ZM1039.99 69.7727H1042V82.25C1042 82.8182 1042.09 83.2443 1042.25 83.5284C1042.42 83.8068 1042.64 83.9943 1042.9 84.0909C1043.17 84.1818 1043.45 84.2273 1043.74 84.2273C1043.96 84.2273 1044.15 84.2159 1044.29 84.1932C1044.43 84.1648 1044.54 84.142 1044.63 84.125L1045.04 85.9318C1044.9 85.983 1044.71 86.0341 1044.47 86.0852C1044.22 86.142 1043.91 86.1705 1043.54 86.1705C1042.97 86.1705 1042.41 86.0483 1041.87 85.804C1041.33 85.5597 1040.88 85.1875 1040.52 84.6875C1040.17 84.1875 1039.99 83.5568 1039.99 82.7955V69.7727ZM1060.27 72.9091V74.6136H1053.48V72.9091H1060.27ZM1055.46 69.7727H1057.47V82.25C1057.47 82.8182 1057.56 83.2443 1057.72 83.5284C1057.89 83.8068 1058.11 83.9943 1058.37 84.0909C1058.63 84.1818 1058.92 84.2273 1059.21 84.2273C1059.43 84.2273 1059.62 84.2159 1059.76 84.1932C1059.9 84.1648 1060.01 84.142 1060.1 84.125L1060.51 85.9318C1060.37 85.983 1060.18 86.0341 1059.94 86.0852C1059.69 86.142 1059.38 86.1705 1059.01 86.1705C1058.44 86.1705 1057.88 86.0483 1057.34 85.804C1056.8 85.5597 1056.35 85.1875 1055.99 84.6875C1055.64 84.1875 1055.46 83.5568 1055.46 82.7955V69.7727ZM1068.47 86.2727C1067.29 86.2727 1066.25 85.9915 1065.36 85.429C1064.47 84.8665 1063.78 84.0795 1063.28 83.0682C1062.79 82.0568 1062.54 80.875 1062.54 79.5227C1062.54 78.1591 1062.79 76.9687 1063.28 75.9517C1063.78 74.9347 1064.47 74.1449 1065.36 73.5824C1066.25 73.0199 1067.29 72.7386 1068.47 72.7386C1069.65 72.7386 1070.69 73.0199 1071.57 73.5824C1072.47 74.1449 1073.16 74.9347 1073.65 75.9517C1074.15 76.9687 1074.4 78.1591 1074.4 79.5227C1074.4 80.875 1074.15 82.0568 1073.65 83.0682C1073.16 84.0795 1072.47 84.8665 1071.57 85.429C1070.69 85.9915 1069.65 86.2727 1068.47 86.2727ZM1068.47 84.4659C1069.37 84.4659 1070.11 84.2358 1070.69 83.7756C1071.27 83.3153 1071.7 82.7102 1071.97 81.9602C1072.25 81.2102 1072.39 80.3977 1072.39 79.5227C1072.39 78.6477 1072.25 77.8324 1071.97 77.0767C1071.7 76.321 1071.27 75.7102 1070.69 75.2443C1070.11 74.7784 1069.37 74.5455 1068.47 74.5455C1067.57 74.5455 1066.84 74.7784 1066.26 75.2443C1065.68 75.7102 1065.25 76.321 1064.97 77.0767C1064.69 77.8324 1064.55 78.6477 1064.55 79.5227C1064.55 80.3977 1064.69 81.2102 1064.97 81.9602C1065.25 82.7102 1065.68 83.3153 1066.26 83.7756C1066.84 84.2358 1067.57 84.4659 1068.47 84.4659ZM1086.1 81.2273L1086.06 78.7386H1086.47L1092.2 72.9091H1094.69L1088.59 79.0795H1088.42L1086.1 81.2273ZM1084.22 86V68.5455H1086.24V86H1084.22ZM1092.54 86L1087.43 79.5227L1088.86 78.125L1095.1 86H1092.54ZM1099.29 78.125V86H1097.28V72.9091H1099.22V74.9545H1099.39C1099.7 74.2898 1100.16 73.7557 1100.79 73.3523C1101.41 72.9432 1102.22 72.7386 1103.21 72.7386C1104.1 72.7386 1104.87 72.9205 1105.54 73.2841C1106.2 73.642 1106.72 74.1875 1107.09 74.9205C1107.46 75.6477 1107.64 76.5682 1107.64 77.6818V86H1105.63V77.8182C1105.63 76.7898 1105.36 75.9886 1104.83 75.4148C1104.3 74.8352 1103.56 74.5455 1102.63 74.5455C1101.99 74.5455 1101.41 74.6847 1100.91 74.9631C1100.41 75.2415 1100.01 75.6477 1099.72 76.1818C1099.43 76.7159 1099.29 77.3636 1099.29 78.125ZM1116.64 86.2727C1115.45 86.2727 1114.42 85.9915 1113.52 85.429C1112.64 84.8665 1111.95 84.0795 1111.45 83.0682C1110.95 82.0568 1110.7 80.875 1110.7 79.5227C1110.7 78.1591 1110.95 76.9687 1111.45 75.9517C1111.95 74.9347 1112.64 74.1449 1113.52 73.5824C1114.42 73.0199 1115.45 72.7386 1116.64 72.7386C1117.82 72.7386 1118.85 73.0199 1119.74 73.5824C1120.63 74.1449 1121.32 74.9347 1121.82 75.9517C1122.32 76.9687 1122.57 78.1591 1122.57 79.5227C1122.57 80.875 1122.32 82.0568 1121.82 83.0682C1121.32 84.0795 1120.63 84.8665 1119.74 85.429C1118.85 85.9915 1117.82 86.2727 1116.64 86.2727ZM1116.64 84.4659C1117.53 84.4659 1118.27 84.2358 1118.85 83.7756C1119.43 83.3153 1119.86 82.7102 1120.14 81.9602C1120.42 81.2102 1120.56 80.3977 1120.56 79.5227C1120.56 78.6477 1120.42 77.8324 1120.14 77.0767C1119.86 76.321 1119.43 75.7102 1118.85 75.2443C1118.27 74.7784 1117.53 74.5455 1116.64 74.5455C1115.74 74.5455 1115 74.7784 1114.42 75.2443C1113.84 75.7102 1113.41 76.321 1113.13 77.0767C1112.85 77.8324 1112.72 78.6477 1112.72 79.5227C1112.72 80.3977 1112.85 81.2102 1113.13 81.9602C1113.41 82.7102 1113.84 83.3153 1114.42 83.7756C1115 84.2358 1115.74 84.4659 1116.64 84.4659ZM1128.16 86L1124.17 72.9091H1126.28L1129.11 82.9318H1129.25L1132.04 72.9091H1134.19L1136.95 82.8977H1137.09L1139.92 72.9091H1142.03L1138.04 86H1136.07L1133.2 75.9432H1133L1130.14 86H1128.16ZM1151.44 86V72.9091H1153.39V74.9545H1153.56C1153.83 74.2557 1154.27 73.7131 1154.88 73.3267C1155.49 72.9347 1156.22 72.7386 1157.07 72.7386C1157.93 72.7386 1158.65 72.9347 1159.22 73.3267C1159.8 73.7131 1160.25 74.2557 1160.58 74.9545H1160.72C1161.05 74.2784 1161.55 73.7415 1162.22 73.3438C1162.89 72.9403 1163.7 72.7386 1164.64 72.7386C1165.81 72.7386 1166.76 73.1051 1167.51 73.8381C1168.25 74.5653 1168.62 75.6989 1168.62 77.2386V86H1166.61V77.2386C1166.61 76.2727 1166.35 75.5824 1165.82 75.1676C1165.29 74.7528 1164.67 74.5455 1163.95 74.5455C1163.03 74.5455 1162.32 74.8239 1161.81 75.3807C1161.31 75.9318 1161.06 76.6307 1161.06 77.4773V86H1159.01V77.0341C1159.01 76.2898 1158.77 75.6903 1158.29 75.2358C1157.8 74.7756 1157.18 74.5455 1156.42 74.5455C1155.9 74.5455 1155.41 74.6847 1154.95 74.9631C1154.5 75.2415 1154.14 75.6278 1153.86 76.1222C1153.59 76.6108 1153.45 77.1761 1153.45 77.8182V86H1151.44ZM1177.62 86.2727C1176.44 86.2727 1175.4 85.9915 1174.51 85.429C1173.62 84.8665 1172.93 84.0795 1172.43 83.0682C1171.94 82.0568 1171.69 80.875 1171.69 79.5227C1171.69 78.1591 1171.94 76.9687 1172.43 75.9517C1172.93 74.9347 1173.62 74.1449 1174.51 73.5824C1175.4 73.0199 1176.44 72.7386 1177.62 72.7386C1178.8 72.7386 1179.84 73.0199 1180.72 73.5824C1181.61 74.1449 1182.31 74.9347 1182.8 75.9517C1183.3 76.9687 1183.55 78.1591 1183.55 79.5227C1183.55 80.875 1183.3 82.0568 1182.8 83.0682C1182.31 84.0795 1181.61 84.8665 1180.72 85.429C1179.84 85.9915 1178.8 86.2727 1177.62 86.2727ZM1177.62 84.4659C1178.52 84.4659 1179.26 84.2358 1179.84 83.7756C1180.42 83.3153 1180.84 82.7102 1181.12 81.9602C1181.4 81.2102 1181.54 80.3977 1181.54 79.5227C1181.54 78.6477 1181.4 77.8324 1181.12 77.0767C1180.84 76.321 1180.42 75.7102 1179.84 75.2443C1179.26 74.7784 1178.52 74.5455 1177.62 74.5455C1176.72 74.5455 1175.98 74.7784 1175.4 75.2443C1174.82 75.7102 1174.4 76.321 1174.12 77.0767C1173.84 77.8324 1173.7 78.6477 1173.7 79.5227C1173.7 80.3977 1173.84 81.2102 1174.12 81.9602C1174.4 82.7102 1174.82 83.3153 1175.4 83.7756C1175.98 84.2358 1176.72 84.4659 1177.62 84.4659ZM1186.62 86V72.9091H1188.57V74.8864H1188.7C1188.94 74.2386 1189.37 73.7131 1190 73.3097C1190.62 72.9062 1191.33 72.7045 1192.11 72.7045C1192.26 72.7045 1192.44 72.7074 1192.66 72.7131C1192.89 72.7187 1193.05 72.7273 1193.17 72.7386V74.7841C1193.1 74.767 1192.94 74.7415 1192.7 74.7074C1192.46 74.6676 1192.21 74.6477 1191.94 74.6477C1191.3 74.6477 1190.74 74.7812 1190.24 75.0483C1189.74 75.3097 1189.35 75.6733 1189.06 76.1392C1188.78 76.5994 1188.63 77.125 1188.63 77.7159V86H1186.62ZM1200.64 86.2727C1199.38 86.2727 1198.29 85.9943 1197.38 85.4375C1196.47 84.875 1195.77 84.0909 1195.27 83.0852C1194.78 82.0739 1194.54 80.8977 1194.54 79.5568C1194.54 78.2159 1194.78 77.0341 1195.27 76.0114C1195.77 74.983 1196.45 74.1818 1197.34 73.608C1198.22 73.0284 1199.26 72.7386 1200.44 72.7386C1201.12 72.7386 1201.79 72.8523 1202.46 73.0795C1203.12 73.3068 1203.73 73.6761 1204.27 74.1875C1204.82 74.6932 1205.25 75.3636 1205.58 76.1989C1205.9 77.0341 1206.06 78.0625 1206.06 79.2841V80.1364H1195.97V78.3977H1204.02C1204.02 77.6591 1203.87 77 1203.57 76.4205C1203.28 75.8409 1202.87 75.3835 1202.33 75.0483C1201.8 74.7131 1201.16 74.5455 1200.44 74.5455C1199.64 74.5455 1198.94 74.7443 1198.36 75.142C1197.78 75.5341 1197.33 76.0455 1197.02 76.6761C1196.71 77.3068 1196.55 77.983 1196.55 78.7045V79.8636C1196.55 80.8523 1196.72 81.6903 1197.06 82.3778C1197.41 83.0597 1197.89 83.5795 1198.5 83.9375C1199.12 84.2898 1199.83 84.4659 1200.64 84.4659C1201.17 84.4659 1201.65 84.392 1202.07 84.2443C1202.51 84.0909 1202.88 83.8636 1203.19 83.5625C1203.5 83.2557 1203.74 82.875 1203.91 82.4205L1205.86 82.9659C1205.65 83.625 1205.31 84.2045 1204.83 84.7045C1204.34 85.1989 1203.75 85.5852 1203.04 85.8636C1202.33 86.1364 1201.53 86.2727 1200.64 86.2727Z" fill="black"/>
</g>
<defs>
<clipPath id="clip0_608_707">
<rect width="1920" height="176" fill="white"/>
</clipPath>
</defs>
</svg>
