<svg width="1920" height="213" viewBox="0 0 1920 213" fill="none" xmlns="http://www.w3.org/2000/svg">
<rect width="1920" height="213" fill="white"/>
<path d="M486.197 53.6364V51.7273H503.072V53.6364H495.697V75H493.572V53.6364H486.197ZM509.459 64.0909V75H507.436V51.7273H509.459V60.2841H509.641C510.05 59.3826 510.682 58.6629 511.538 58.125C512.402 57.5871 513.493 57.3182 514.811 57.3182C515.993 57.3182 517.031 57.5606 517.925 58.0455C518.819 58.5303 519.516 59.2462 520.016 60.1932C520.516 61.1402 520.766 62.3068 520.766 63.6932V75H518.732V63.8182C518.732 62.3788 518.33 61.2462 517.527 60.4205C516.732 59.5871 515.656 59.1705 514.3 59.1705C513.368 59.1705 512.538 59.3674 511.811 59.7614C511.084 60.1553 510.508 60.7235 510.084 61.4659C509.667 62.2008 509.459 63.0758 509.459 64.0909ZM526.115 75V57.5455H528.149V75H526.115ZM527.149 54.5455C526.732 54.5455 526.376 54.4053 526.081 54.125C525.786 53.8371 525.638 53.4924 525.638 53.0909C525.638 52.6894 525.786 52.3485 526.081 52.0682C526.376 51.7803 526.732 51.6364 527.149 51.6364C527.566 51.6364 527.922 51.7803 528.217 52.0682C528.513 52.3485 528.661 52.6894 528.661 53.0909C528.661 53.4924 528.513 53.8371 528.217 54.125C527.922 54.4053 527.566 54.5455 527.149 54.5455ZM545.226 61.375L543.374 61.8977C543.192 61.375 542.934 60.9015 542.601 60.4773C542.268 60.053 541.832 59.7159 541.294 59.4659C540.764 59.2159 540.105 59.0909 539.317 59.0909C538.135 59.0909 537.165 59.3712 536.408 59.9318C535.65 60.4924 535.271 61.2159 535.271 62.1023C535.271 62.8523 535.529 63.4621 536.044 63.9318C536.567 64.3939 537.37 64.7614 538.453 65.0341L541.089 65.6818C542.552 66.0379 543.646 66.6023 544.374 67.375C545.108 68.1477 545.476 69.1174 545.476 70.2841C545.476 71.2689 545.203 72.1439 544.658 72.9091C544.112 73.6742 543.351 74.2765 542.374 74.7159C541.404 75.1477 540.279 75.3636 538.999 75.3636C537.294 75.3636 535.889 74.9811 534.783 74.2159C533.677 73.4432 532.968 72.3295 532.658 70.875L534.601 70.3977C534.851 71.4356 535.339 72.2197 536.067 72.75C536.802 73.2803 537.768 73.5455 538.964 73.5455C540.305 73.5455 541.377 73.2462 542.18 72.6477C542.983 72.0417 543.385 71.2841 543.385 70.375C543.385 69.6705 543.15 69.0795 542.68 68.6023C542.211 68.1174 541.499 67.7614 540.544 67.5341L537.692 66.8523C536.177 66.4886 535.055 65.9129 534.328 65.125C533.601 64.3371 533.237 63.3598 533.237 62.1932C533.237 61.2311 533.499 60.3864 534.021 59.6591C534.544 58.9242 535.264 58.3485 536.18 57.9318C537.097 57.5152 538.143 57.3068 539.317 57.3068C540.915 57.3068 542.192 57.6705 543.146 58.3977C544.108 59.1174 544.802 60.1098 545.226 61.375ZM558.928 75V57.5455H560.962V75H558.928ZM559.962 54.5455C559.545 54.5455 559.189 54.4053 558.893 54.125C558.598 53.8371 558.45 53.4924 558.45 53.0909C558.45 52.6894 558.598 52.3485 558.893 52.0682C559.189 51.7803 559.545 51.6364 559.962 51.6364C560.378 51.6364 560.734 51.7803 561.03 52.0682C561.325 52.3485 561.473 52.6894 561.473 53.0909C561.473 53.4924 561.325 53.8371 561.03 54.125C560.734 54.4053 560.378 54.5455 559.962 54.5455ZM578.038 61.375L576.186 61.8977C576.004 61.375 575.747 60.9015 575.413 60.4773C575.08 60.053 574.644 59.7159 574.107 59.4659C573.576 59.2159 572.917 59.0909 572.129 59.0909C570.947 59.0909 569.978 59.3712 569.22 59.9318C568.463 60.4924 568.084 61.2159 568.084 62.1023C568.084 62.8523 568.341 63.4621 568.857 63.9318C569.379 64.3939 570.182 64.7614 571.266 65.0341L573.902 65.6818C575.364 66.0379 576.459 66.6023 577.186 67.375C577.921 68.1477 578.288 69.1174 578.288 70.2841C578.288 71.2689 578.016 72.1439 577.47 72.9091C576.925 73.6742 576.163 74.2765 575.186 74.7159C574.216 75.1477 573.091 75.3636 571.811 75.3636C570.107 75.3636 568.701 74.9811 567.595 74.2159C566.489 73.4432 565.781 72.3295 565.47 70.875L567.413 70.3977C567.663 71.4356 568.152 72.2197 568.879 72.75C569.614 73.2803 570.58 73.5455 571.777 73.5455C573.118 73.5455 574.19 73.2462 574.993 72.6477C575.796 72.0417 576.197 71.2841 576.197 70.375C576.197 69.6705 575.963 69.0795 575.493 68.6023C575.023 68.1174 574.311 67.7614 573.357 67.5341L570.504 66.8523C568.989 66.4886 567.868 65.9129 567.141 65.125C566.413 64.3371 566.05 63.3598 566.05 62.1932C566.05 61.2311 566.311 60.3864 566.834 59.6591C567.357 58.9242 568.076 58.3485 568.993 57.9318C569.91 57.5152 570.955 57.3068 572.129 57.3068C573.728 57.3068 575.004 57.6705 575.959 58.3977C576.921 59.1174 577.614 60.1098 578.038 61.375ZM598.592 57.5455V59.3068H590.263V57.5455H598.592ZM592.865 53.3636H594.899V70.4432C594.899 71.1705 595.024 71.7424 595.274 72.1591C595.524 72.5682 595.85 72.8598 596.251 73.0341C596.653 73.2008 597.081 73.2841 597.536 73.2841C597.801 73.2841 598.028 73.2689 598.217 73.2386C598.407 73.2008 598.573 73.1629 598.717 73.125L599.149 74.9545C598.952 75.0303 598.71 75.0985 598.422 75.1591C598.134 75.2273 597.778 75.2614 597.354 75.2614C596.611 75.2614 595.895 75.0985 595.206 74.7727C594.524 74.447 593.964 73.9621 593.524 73.3182C593.085 72.6742 592.865 71.875 592.865 70.9205V53.3636ZM605.584 64.0909V75H603.561V51.7273H605.584V60.2841H605.766C606.175 59.3826 606.807 58.6629 607.663 58.125C608.527 57.5871 609.618 57.3182 610.936 57.3182C612.118 57.3182 613.156 57.5606 614.05 58.0455C614.944 58.5303 615.641 59.2462 616.141 60.1932C616.641 61.1402 616.891 62.3068 616.891 63.6932V75H614.857V63.8182C614.857 62.3788 614.455 61.2462 613.652 60.4205C612.857 59.5871 611.781 59.1705 610.425 59.1705C609.493 59.1705 608.663 59.3674 607.936 59.7614C607.209 60.1553 606.633 60.7235 606.209 61.4659C605.792 62.2008 605.584 63.0758 605.584 64.0909ZM629.274 75.3636C627.645 75.3636 626.236 74.9848 625.047 74.2273C623.857 73.4621 622.937 72.4053 622.286 71.0568C621.642 69.7008 621.32 68.1402 621.32 66.375C621.32 64.6174 621.642 63.0568 622.286 61.6932C622.937 60.322 623.835 59.25 624.979 58.4773C626.13 57.697 627.46 57.3068 628.967 57.3068C629.914 57.3068 630.827 57.4811 631.706 57.8295C632.585 58.1705 633.373 58.697 634.07 59.4091C634.774 60.1136 635.331 61.0038 635.74 62.0795C636.149 63.1477 636.354 64.4129 636.354 65.875V66.875H622.717V65.0909H634.286C634.286 63.9697 634.058 62.9621 633.604 62.0682C633.157 61.1667 632.532 60.4545 631.729 59.9318C630.933 59.4091 630.013 59.1477 628.967 59.1477C627.861 59.1477 626.888 59.4432 626.047 60.0341C625.206 60.625 624.547 61.4053 624.07 62.375C623.6 63.3447 623.361 64.4053 623.354 65.5568V66.625C623.354 68.0114 623.592 69.2235 624.07 70.2614C624.554 71.2917 625.24 72.0909 626.126 72.6591C627.013 73.2273 628.062 73.5114 629.274 73.5114C630.1 73.5114 630.823 73.3826 631.445 73.125C632.073 72.8674 632.6 72.5227 633.024 72.0909C633.456 71.6515 633.782 71.1705 634.001 70.6477L635.922 71.2727C635.657 72.0076 635.221 72.6856 634.615 73.3068C634.017 73.928 633.267 74.428 632.365 74.8068C631.471 75.178 630.441 75.3636 629.274 75.3636ZM649.834 75V57.5455H651.868V75H649.834ZM650.868 54.5455C650.451 54.5455 650.095 54.4053 649.8 54.125C649.504 53.8371 649.357 53.4924 649.357 53.0909C649.357 52.6894 649.504 52.3485 649.8 52.0682C650.095 51.7803 650.451 51.6364 650.868 51.6364C651.285 51.6364 651.641 51.7803 651.936 52.0682C652.232 52.3485 652.379 52.6894 652.379 53.0909C652.379 53.4924 652.232 53.8371 651.936 54.125C651.641 54.4053 651.285 54.5455 650.868 54.5455ZM659.24 64.0909V75H657.217V57.5455H659.183V60.2841H659.365C659.774 59.3902 660.411 58.6742 661.274 58.1364C662.145 57.5909 663.221 57.3182 664.501 57.3182C665.676 57.3182 666.706 57.5644 667.592 58.0568C668.486 58.5417 669.179 59.2576 669.672 60.2045C670.172 61.1515 670.422 62.3144 670.422 63.6932V75H668.399V63.8182C668.399 62.3864 667.998 61.2538 667.195 60.4205C666.399 59.5871 665.331 59.1705 663.99 59.1705C663.073 59.1705 662.259 59.3674 661.547 59.7614C660.835 60.1553 660.27 60.7235 659.854 61.4659C659.445 62.2008 659.24 63.0758 659.24 64.0909ZM682.624 57.5455V59.3068H674.294V57.5455H682.624ZM676.896 53.3636H678.93V70.4432C678.93 71.1705 679.055 71.7424 679.305 72.1591C679.555 72.5682 679.881 72.8598 680.283 73.0341C680.684 73.2008 681.112 73.2841 681.567 73.2841C681.832 73.2841 682.059 73.2689 682.249 73.2386C682.438 73.2008 682.605 73.1629 682.749 73.125L683.18 74.9545C682.983 75.0303 682.741 75.0985 682.453 75.1591C682.165 75.2273 681.809 75.2614 681.385 75.2614C680.643 75.2614 679.927 75.0985 679.237 74.7727C678.555 74.447 677.995 73.9621 677.555 73.3182C677.116 72.6742 676.896 71.875 676.896 70.9205V53.3636ZM694.087 75.3636C692.458 75.3636 691.049 74.9848 689.859 74.2273C688.67 73.4621 687.75 72.4053 687.098 71.0568C686.454 69.7008 686.132 68.1402 686.132 66.375C686.132 64.6174 686.454 63.0568 687.098 61.6932C687.75 60.322 688.647 59.25 689.791 58.4773C690.943 57.697 692.272 57.3068 693.78 57.3068C694.727 57.3068 695.64 57.4811 696.518 57.8295C697.397 58.1705 698.185 58.697 698.882 59.4091C699.587 60.1136 700.143 61.0038 700.553 62.0795C700.962 63.1477 701.166 64.4129 701.166 65.875V66.875H687.53V65.0909H699.098C699.098 63.9697 698.871 62.9621 698.416 62.0682C697.969 61.1667 697.344 60.4545 696.541 59.9318C695.746 59.4091 694.825 59.1477 693.78 59.1477C692.674 59.1477 691.7 59.4432 690.859 60.0341C690.018 60.625 689.359 61.4053 688.882 62.375C688.412 63.3447 688.174 64.4053 688.166 65.5568V66.625C688.166 68.0114 688.405 69.2235 688.882 70.2614C689.367 71.2917 690.053 72.0909 690.939 72.6591C691.825 73.2273 692.875 73.5114 694.087 73.5114C694.912 73.5114 695.636 73.3826 696.257 73.125C696.886 72.8674 697.412 72.5227 697.837 72.0909C698.268 71.6515 698.594 71.1705 698.814 70.6477L700.734 71.2727C700.469 72.0076 700.034 72.6856 699.428 73.3068C698.829 73.928 698.079 74.428 697.178 74.8068C696.284 75.178 695.253 75.3636 694.087 75.3636ZM705.624 75V57.5455H707.589V60.2273H707.737C708.086 59.3485 708.692 58.6402 709.555 58.1023C710.427 57.5568 711.411 57.2841 712.51 57.2841C712.677 57.2841 712.862 57.2879 713.067 57.2955C713.271 57.303 713.442 57.3106 713.578 57.3182V59.375C713.487 59.3598 713.328 59.3371 713.101 59.3068C712.874 59.2765 712.627 59.2614 712.362 59.2614C711.453 59.2614 710.643 59.4545 709.93 59.8409C709.226 60.2197 708.669 60.7462 708.26 61.4205C707.851 62.0947 707.646 62.8636 707.646 63.7273V75H705.624ZM719.053 64.0909V75H717.03V57.5455H718.996V60.2841H719.178C719.587 59.3902 720.223 58.6742 721.087 58.1364C721.958 57.5909 723.034 57.3182 724.314 57.3182C725.488 57.3182 726.518 57.5644 727.405 58.0568C728.299 58.5417 728.992 59.2576 729.484 60.2045C729.984 61.1515 730.234 62.3144 730.234 63.6932V75H728.212V63.8182C728.212 62.3864 727.81 61.2538 727.007 60.4205C726.212 59.5871 725.143 59.1705 723.803 59.1705C722.886 59.1705 722.071 59.3674 721.359 59.7614C720.647 60.1553 720.083 60.7235 719.666 61.4659C719.257 62.2008 719.053 63.0758 719.053 64.0909ZM747.288 61.375L745.436 61.8977C745.254 61.375 744.997 60.9015 744.663 60.4773C744.33 60.053 743.894 59.7159 743.357 59.4659C742.826 59.2159 742.167 59.0909 741.379 59.0909C740.197 59.0909 739.228 59.3712 738.47 59.9318C737.713 60.4924 737.334 61.2159 737.334 62.1023C737.334 62.8523 737.591 63.4621 738.107 63.9318C738.629 64.3939 739.432 64.7614 740.516 65.0341L743.152 65.6818C744.614 66.0379 745.709 66.6023 746.436 67.375C747.171 68.1477 747.538 69.1174 747.538 70.2841C747.538 71.2689 747.266 72.1439 746.72 72.9091C746.175 73.6742 745.413 74.2765 744.436 74.7159C743.466 75.1477 742.341 75.3636 741.061 75.3636C739.357 75.3636 737.951 74.9811 736.845 74.2159C735.739 73.4432 735.031 72.3295 734.72 70.875L736.663 70.3977C736.913 71.4356 737.402 72.2197 738.129 72.75C738.864 73.2803 739.83 73.5455 741.027 73.5455C742.368 73.5455 743.44 73.2462 744.243 72.6477C745.046 72.0417 745.447 71.2841 745.447 70.375C745.447 69.6705 745.213 69.0795 744.743 68.6023C744.273 68.1174 743.561 67.7614 742.607 67.5341L739.754 66.8523C738.239 66.4886 737.118 65.9129 736.391 65.125C735.663 64.3371 735.3 63.3598 735.3 62.1932C735.3 61.2311 735.561 60.3864 736.084 59.6591C736.607 58.9242 737.326 58.3485 738.243 57.9318C739.16 57.5152 740.205 57.3068 741.379 57.3068C742.978 57.3068 744.254 57.6705 745.209 58.3977C746.171 59.1174 746.864 60.1098 747.288 61.375ZM753.99 64.0909V75H751.967V51.7273H753.99V60.2841H754.172C754.581 59.3826 755.214 58.6629 756.07 58.125C756.933 57.5871 758.024 57.3182 759.342 57.3182C760.524 57.3182 761.562 57.5606 762.456 58.0455C763.35 58.5303 764.047 59.2462 764.547 60.1932C765.047 61.1402 765.297 62.3068 765.297 63.6932V75H763.263V63.8182C763.263 62.3788 762.861 61.2462 762.058 60.4205C761.263 59.5871 760.187 59.1705 758.831 59.1705C757.899 59.1705 757.07 59.3674 756.342 59.7614C755.615 60.1553 755.039 60.7235 754.615 61.4659C754.198 62.2008 753.99 63.0758 753.99 64.0909ZM770.646 75V57.5455H772.68V75H770.646ZM771.68 54.5455C771.264 54.5455 770.908 54.4053 770.612 54.125C770.317 53.8371 770.169 53.4924 770.169 53.0909C770.169 52.6894 770.317 52.3485 770.612 52.0682C770.908 51.7803 771.264 51.6364 771.68 51.6364C772.097 51.6364 772.453 51.7803 772.749 52.0682C773.044 52.3485 773.192 52.6894 773.192 53.0909C773.192 53.4924 773.044 53.8371 772.749 54.125C772.453 54.4053 772.097 54.5455 771.68 54.5455ZM778.03 81.5455V57.5455H779.996V60.875H780.234C780.477 60.3523 780.81 59.8182 781.234 59.2727C781.659 58.7197 782.219 58.2538 782.916 57.875C783.621 57.4962 784.507 57.3068 785.575 57.3068C787.015 57.3068 788.272 57.6856 789.348 58.4432C790.431 59.1932 791.272 60.2462 791.871 61.6023C792.477 62.9508 792.78 64.5227 792.78 66.3182C792.78 68.1212 792.477 69.7008 791.871 71.0568C791.272 72.4129 790.431 73.4697 789.348 74.2273C788.272 74.9848 787.022 75.3636 785.598 75.3636C784.545 75.3636 783.662 75.1742 782.95 74.7955C782.246 74.4167 781.674 73.9508 781.234 73.3977C780.803 72.8371 780.469 72.2917 780.234 71.7614H780.053V81.5455H778.03ZM780.03 66.2841C780.03 67.6932 780.238 68.9432 780.655 70.0341C781.079 71.1174 781.685 71.9697 782.473 72.5909C783.268 73.2045 784.231 73.5114 785.359 73.5114C786.518 73.5114 787.496 73.1932 788.291 72.5568C789.094 71.9129 789.704 71.0455 790.121 69.9545C790.545 68.8636 790.757 67.6402 790.757 66.2841C790.757 64.9432 790.549 63.7348 790.132 62.6591C789.723 61.5833 789.117 60.7311 788.314 60.1023C787.511 59.4659 786.526 59.1477 785.359 59.1477C784.223 59.1477 783.257 59.4545 782.462 60.0682C781.666 60.6742 781.06 61.5152 780.643 62.5909C780.234 63.6591 780.03 64.8902 780.03 66.2841ZM806.217 81.5455V57.5455H808.183V60.875H808.422C808.664 60.3523 808.998 59.8182 809.422 59.2727C809.846 58.7197 810.407 58.2538 811.104 57.875C811.808 57.4962 812.695 57.3068 813.763 57.3068C815.202 57.3068 816.46 57.6856 817.536 58.4432C818.619 59.1932 819.46 60.2462 820.058 61.6023C820.664 62.9508 820.967 64.5227 820.967 66.3182C820.967 68.1212 820.664 69.7008 820.058 71.0568C819.46 72.4129 818.619 73.4697 817.536 74.2273C816.46 74.9848 815.21 75.3636 813.786 75.3636C812.732 75.3636 811.85 75.1742 811.138 74.7955C810.433 74.4167 809.861 73.9508 809.422 73.3977C808.99 72.8371 808.657 72.2917 808.422 71.7614H808.24V81.5455H806.217ZM808.217 66.2841C808.217 67.6932 808.426 68.9432 808.842 70.0341C809.267 71.1174 809.873 71.9697 810.661 72.5909C811.456 73.2045 812.418 73.5114 813.547 73.5114C814.706 73.5114 815.683 73.1932 816.479 72.5568C817.282 71.9129 817.892 71.0455 818.308 69.9545C818.732 68.8636 818.945 67.6402 818.945 66.2841C818.945 64.9432 818.736 63.7348 818.32 62.6591C817.911 61.5833 817.304 60.7311 816.501 60.1023C815.698 59.4659 814.714 59.1477 813.547 59.1477C812.411 59.1477 811.445 59.4545 810.649 60.0682C809.854 60.6742 809.248 61.5152 808.831 62.5909C808.422 63.6591 808.217 64.8902 808.217 66.2841ZM825.405 75V57.5455H827.371V60.2273H827.518C827.867 59.3485 828.473 58.6402 829.337 58.1023C830.208 57.5568 831.193 57.2841 832.291 57.2841C832.458 57.2841 832.643 57.2879 832.848 57.2955C833.053 57.303 833.223 57.3106 833.359 57.3182V59.375C833.268 59.3598 833.109 59.3371 832.882 59.3068C832.655 59.2765 832.409 59.2614 832.143 59.2614C831.234 59.2614 830.424 59.4545 829.712 59.8409C829.007 60.2197 828.45 60.7462 828.041 61.4205C827.632 62.0947 827.428 62.8636 827.428 63.7273V75H825.405ZM843.064 75.3636C841.556 75.3636 840.223 74.9811 839.064 74.2159C837.912 73.4508 837.011 72.3939 836.359 71.0455C835.708 69.6894 835.382 68.125 835.382 66.3523C835.382 64.5644 835.708 62.9924 836.359 61.6364C837.011 60.2727 837.912 59.2121 839.064 58.4545C840.223 57.6894 841.556 57.3068 843.064 57.3068C844.571 57.3068 845.901 57.6894 847.053 58.4545C848.204 59.2197 849.106 60.2803 849.757 61.6364C850.416 62.9924 850.746 64.5644 850.746 66.3523C850.746 68.125 850.42 69.6894 849.768 71.0455C849.117 72.3939 848.212 73.4508 847.053 74.2159C845.901 74.9811 844.571 75.3636 843.064 75.3636ZM843.064 73.5114C844.276 73.5114 845.303 73.1856 846.143 72.5341C846.984 71.8826 847.621 71.0152 848.053 69.9318C848.492 68.8485 848.712 67.6553 848.712 66.3523C848.712 65.0492 848.492 63.8523 848.053 62.7614C847.621 61.6705 846.984 60.7955 846.143 60.1364C845.303 59.4773 844.276 59.1477 843.064 59.1477C841.859 59.1477 840.833 59.4773 839.984 60.1364C839.143 60.7955 838.503 61.6705 838.064 62.7614C837.632 63.8523 837.416 65.0492 837.416 66.3523C837.416 67.6553 837.632 68.8485 838.064 69.9318C838.503 71.0152 839.143 71.8826 839.984 72.5341C840.825 73.1856 841.852 73.5114 843.064 73.5114ZM855.209 57.5455H857.243V76.6932C857.243 77.6856 857.057 78.5417 856.686 79.2614C856.322 79.9886 855.792 80.5492 855.095 80.9432C854.398 81.3447 853.557 81.5455 852.572 81.5455C852.497 81.5455 852.421 81.5455 852.345 81.5455C852.269 81.5455 852.186 81.5417 852.095 81.5341L852.118 79.6364C852.194 79.6364 852.266 79.6364 852.334 79.6364C852.402 79.6364 852.474 79.6364 852.55 79.6364C853.383 79.6364 854.035 79.3788 854.504 78.8636C854.974 78.3485 855.209 77.625 855.209 76.6932V57.5455ZM856.209 54.5455C855.8 54.5455 855.444 54.4053 855.141 54.125C854.845 53.8371 854.697 53.4924 854.697 53.0909C854.697 52.6894 854.845 52.3485 855.141 52.0682C855.444 51.7803 855.8 51.6364 856.209 51.6364C856.625 51.6364 856.982 51.7803 857.277 52.0682C857.58 52.3485 857.732 52.6894 857.732 53.0909C857.732 53.4924 857.58 53.8371 857.277 54.125C856.982 54.4053 856.625 54.5455 856.209 54.5455ZM869.649 75.3636C868.02 75.3636 866.611 74.9848 865.422 74.2273C864.232 73.4621 863.312 72.4053 862.661 71.0568C862.017 69.7008 861.695 68.1402 861.695 66.375C861.695 64.6174 862.017 63.0568 862.661 61.6932C863.312 60.322 864.21 59.25 865.354 58.4773C866.505 57.697 867.835 57.3068 869.342 57.3068C870.289 57.3068 871.202 57.4811 872.081 57.8295C872.96 58.1705 873.748 58.697 874.445 59.4091C875.149 60.1136 875.706 61.0038 876.115 62.0795C876.524 63.1477 876.729 64.4129 876.729 65.875V66.875H863.092V65.0909H874.661C874.661 63.9697 874.433 62.9621 873.979 62.0682C873.532 61.1667 872.907 60.4545 872.104 59.9318C871.308 59.4091 870.388 59.1477 869.342 59.1477C868.236 59.1477 867.263 59.4432 866.422 60.0341C865.581 60.625 864.922 61.4053 864.445 62.375C863.975 63.3447 863.736 64.4053 863.729 65.5568V66.625C863.729 68.0114 863.967 69.2235 864.445 70.2614C864.929 71.2917 865.615 72.0909 866.501 72.6591C867.388 73.2273 868.437 73.5114 869.649 73.5114C870.475 73.5114 871.198 73.3826 871.82 73.125C872.448 72.8674 872.975 72.5227 873.399 72.0909C873.831 71.6515 874.157 71.1705 874.376 70.6477L876.297 71.2727C876.032 72.0076 875.596 72.6856 874.99 73.3068C874.392 73.928 873.642 74.428 872.74 74.8068C871.846 75.178 870.816 75.3636 869.649 75.3636ZM888.004 75.3636C886.444 75.3636 885.084 74.9735 883.925 74.1932C882.773 73.4129 881.879 72.3447 881.243 70.9886C880.607 69.6326 880.288 68.0871 880.288 66.3523C880.288 64.6023 880.61 63.0455 881.254 61.6818C881.906 60.3182 882.807 59.25 883.959 58.4773C885.11 57.697 886.447 57.3068 887.97 57.3068C889.137 57.3068 890.194 57.5341 891.141 57.9886C892.088 58.4356 892.868 59.0682 893.482 59.8864C894.103 60.697 894.493 61.6439 894.652 62.7273H892.607C892.394 61.7424 891.883 60.9015 891.072 60.2045C890.269 59.5 889.247 59.1477 888.004 59.1477C886.891 59.1477 885.906 59.4508 885.05 60.0568C884.194 60.6553 883.523 61.4924 883.038 62.5682C882.561 63.6364 882.322 64.875 882.322 66.2841C882.322 67.7008 882.557 68.9545 883.027 70.0455C883.497 71.1288 884.156 71.9773 885.004 72.5909C885.86 73.2045 886.86 73.5114 888.004 73.5114C888.777 73.5114 889.482 73.3674 890.118 73.0795C890.762 72.7841 891.3 72.3674 891.732 71.8295C892.171 71.2917 892.466 70.6515 892.618 69.9091H894.663C894.512 70.9621 894.137 71.9015 893.538 72.7273C892.947 73.5455 892.179 74.1894 891.232 74.6591C890.292 75.1288 889.216 75.3636 888.004 75.3636ZM905.874 57.5455V59.3068H897.544V57.5455H905.874ZM900.146 53.3636H902.18V70.4432C902.18 71.1705 902.305 71.7424 902.555 72.1591C902.805 72.5682 903.131 72.8598 903.533 73.0341C903.934 73.2008 904.362 73.2841 904.817 73.2841C905.082 73.2841 905.309 73.2689 905.499 73.2386C905.688 73.2008 905.855 73.1629 905.999 73.125L906.43 74.9545C906.233 75.0303 905.991 75.0985 905.703 75.1591C905.415 75.2273 905.059 75.2614 904.635 75.2614C903.893 75.2614 903.177 75.0985 902.487 74.7727C901.805 74.447 901.245 73.9621 900.805 73.3182C900.366 72.6742 900.146 71.875 900.146 70.9205V53.3636ZM922.013 51.7273V75H919.888V51.7273H922.013ZM943.598 75.3636C942.037 75.3636 940.678 74.9735 939.518 74.1932C938.367 73.4129 937.473 72.3447 936.837 70.9886C936.2 69.6326 935.882 68.0871 935.882 66.3523C935.882 64.6023 936.204 63.0455 936.848 61.6818C937.5 60.3182 938.401 59.25 939.553 58.4773C940.704 57.697 942.041 57.3068 943.564 57.3068C944.731 57.3068 945.787 57.5341 946.734 57.9886C947.681 58.4356 948.462 59.0682 949.075 59.8864C949.696 60.697 950.087 61.6439 950.246 62.7273H948.2C947.988 61.7424 947.477 60.9015 946.666 60.2045C945.863 59.5 944.84 59.1477 943.598 59.1477C942.484 59.1477 941.5 59.4508 940.643 60.0568C939.787 60.6553 939.117 61.4924 938.632 62.5682C938.155 63.6364 937.916 64.875 937.916 66.2841C937.916 67.7008 938.151 68.9545 938.621 70.0455C939.09 71.1288 939.75 71.9773 940.598 72.5909C941.454 73.2045 942.454 73.5114 943.598 73.5114C944.371 73.5114 945.075 73.3674 945.712 73.0795C946.356 72.7841 946.893 72.3674 947.325 71.8295C947.765 71.2917 948.06 70.6515 948.212 69.9091H950.257C950.106 70.9621 949.731 71.9015 949.132 72.7273C948.541 73.5455 947.772 74.1894 946.825 74.6591C945.886 75.1288 944.81 75.3636 943.598 75.3636ZM959.467 75.3977C958.414 75.3977 957.452 75.1932 956.581 74.7841C955.71 74.3674 955.017 73.7689 954.501 72.9886C953.986 72.2008 953.729 71.2462 953.729 70.125C953.729 69.2614 953.892 68.5341 954.217 67.9432C954.543 67.3523 955.005 66.8674 955.604 66.4886C956.202 66.1098 956.911 65.8106 957.729 65.5909C958.547 65.3712 959.448 65.2008 960.433 65.0795C961.411 64.9583 962.236 64.8523 962.911 64.7614C963.592 64.6705 964.111 64.5265 964.467 64.3295C964.823 64.1326 965.001 63.8144 965.001 63.375V62.9659C965.001 61.7765 964.645 60.8409 963.933 60.1591C963.229 59.4697 962.214 59.125 960.888 59.125C959.63 59.125 958.604 59.4015 957.808 59.9545C957.02 60.5076 956.467 61.1591 956.149 61.9091L954.229 61.2159C954.623 60.2614 955.168 59.5 955.865 58.9318C956.562 58.3561 957.342 57.9432 958.206 57.6932C959.07 57.4356 959.945 57.3068 960.831 57.3068C961.498 57.3068 962.191 57.3939 962.911 57.5682C963.638 57.7424 964.312 58.0455 964.933 58.4773C965.554 58.9015 966.058 59.4962 966.445 60.2614C966.831 61.0189 967.024 61.9811 967.024 63.1477V75H965.001V72.2386H964.876C964.634 72.7538 964.274 73.2538 963.797 73.7386C963.32 74.2235 962.721 74.6212 962.001 74.9318C961.282 75.2424 960.437 75.3977 959.467 75.3977ZM959.74 73.5455C960.816 73.5455 961.748 73.3068 962.536 72.8295C963.323 72.3523 963.929 71.7197 964.354 70.9318C964.786 70.1364 965.001 69.2614 965.001 68.3068V65.7841C964.85 65.928 964.596 66.0568 964.24 66.1705C963.892 66.2841 963.486 66.3864 963.024 66.4773C962.57 66.5606 962.115 66.6326 961.661 66.6932C961.206 66.7538 960.797 66.8068 960.433 66.8523C959.448 66.9735 958.607 67.1629 957.911 67.4205C957.214 67.678 956.679 68.0341 956.308 68.4886C955.937 68.9356 955.751 69.5114 955.751 70.2159C955.751 71.2765 956.13 72.0985 956.888 72.6818C957.645 73.2576 958.596 73.5455 959.74 73.5455ZM974.428 64.0909V75H972.405V57.5455H974.371V60.2841H974.553C974.962 59.3902 975.598 58.6742 976.462 58.1364C977.333 57.5909 978.409 57.3182 979.689 57.3182C980.863 57.3182 981.893 57.5644 982.78 58.0568C983.674 58.5417 984.367 59.2576 984.859 60.2045C985.359 61.1515 985.609 62.3144 985.609 63.6932V75H983.587V63.8182C983.587 62.3864 983.185 61.2538 982.382 60.4205C981.587 59.5871 980.518 59.1705 979.178 59.1705C978.261 59.1705 977.446 59.3674 976.734 59.7614C976.022 60.1553 975.458 60.7235 975.041 61.4659C974.632 62.2008 974.428 63.0758 974.428 64.0909ZM992.777 51.7273V53.7727C992.777 54.3939 992.663 55.0568 992.436 55.7614C992.216 56.4583 991.891 57.1364 991.459 57.7955C991.035 58.447 990.519 59.0152 989.913 59.5L988.811 58.5341C989.379 57.8674 989.86 57.1288 990.254 56.3182C990.648 55.5 990.845 54.6629 990.845 53.8068V51.7273H992.777ZM1003.87 57.5455V59.3068H995.544V57.5455H1003.87ZM998.146 53.3636H1000.18V70.4432C1000.18 71.1705 1000.31 71.7424 1000.56 72.1591C1000.81 72.5682 1001.13 72.8598 1001.53 73.0341C1001.93 73.2008 1002.36 73.2841 1002.82 73.2841C1003.08 73.2841 1003.31 73.2689 1003.5 73.2386C1003.69 73.2008 1003.85 73.1629 1004 73.125L1004.43 74.9545C1004.23 75.0303 1003.99 75.0985 1003.7 75.1591C1003.42 75.2273 1003.06 75.2614 1002.63 75.2614C1001.89 75.2614 1001.18 75.0985 1000.49 74.7727C999.805 74.447 999.245 73.9621 998.805 73.3182C998.366 72.6742 998.146 71.875 998.146 70.9205V53.3636ZM1017.89 75V51.7273H1019.92V60.875H1020.1C1020.33 60.3523 1020.66 59.8144 1021.08 59.2614C1021.51 58.7083 1022.08 58.2462 1022.77 57.875C1023.48 57.4962 1024.37 57.3068 1025.43 57.3068C1026.87 57.3068 1028.12 57.6856 1029.21 58.4432C1030.29 59.1932 1031.13 60.2462 1031.74 61.6023C1032.35 62.9508 1032.65 64.5227 1032.65 66.3182C1032.65 68.1212 1032.35 69.7008 1031.74 71.0568C1031.14 72.4129 1030.3 73.4697 1029.22 74.2273C1028.14 74.9848 1026.89 75.3636 1025.47 75.3636C1024.41 75.3636 1023.52 75.1742 1022.81 74.7955C1022.1 74.4167 1021.54 73.9508 1021.1 73.3977C1020.67 72.8371 1020.34 72.2917 1020.1 71.7614H1019.85V75H1017.89ZM1019.89 66.2841C1019.89 67.6932 1020.1 68.9432 1020.51 70.0341C1020.94 71.1174 1021.54 71.9697 1022.33 72.5909C1023.13 73.2045 1024.09 73.5114 1025.22 73.5114C1026.38 73.5114 1027.36 73.1932 1028.16 72.5568C1028.96 71.9129 1029.57 71.0455 1029.99 69.9545C1030.41 68.8636 1030.62 67.6402 1030.62 66.2841C1030.62 64.9432 1030.41 63.7348 1029.99 62.6591C1029.58 61.5833 1028.97 60.7311 1028.17 60.1023C1027.37 59.4659 1026.38 59.1477 1025.22 59.1477C1024.08 59.1477 1023.12 59.4545 1022.32 60.0682C1021.53 60.6742 1020.93 61.5152 1020.51 62.5909C1020.1 63.6591 1019.89 64.8902 1019.89 66.2841ZM1044.15 75.3636C1042.52 75.3636 1041.11 74.9848 1039.92 74.2273C1038.73 73.4621 1037.81 72.4053 1037.16 71.0568C1036.52 69.7008 1036.19 68.1402 1036.19 66.375C1036.19 64.6174 1036.52 63.0568 1037.16 61.6932C1037.81 60.322 1038.71 59.25 1039.85 58.4773C1041.01 57.697 1042.33 57.3068 1043.84 57.3068C1044.79 57.3068 1045.7 57.4811 1046.58 57.8295C1047.46 58.1705 1048.25 58.697 1048.94 59.4091C1049.65 60.1136 1050.21 61.0038 1050.62 62.0795C1051.02 63.1477 1051.23 64.4129 1051.23 65.875V66.875H1037.59V65.0909H1049.16C1049.16 63.9697 1048.93 62.9621 1048.48 62.0682C1048.03 61.1667 1047.41 60.4545 1046.6 59.9318C1045.81 59.4091 1044.89 59.1477 1043.84 59.1477C1042.74 59.1477 1041.76 59.4432 1040.92 60.0341C1040.08 60.625 1039.42 61.4053 1038.94 62.375C1038.47 63.3447 1038.24 64.4053 1038.23 65.5568V66.625C1038.23 68.0114 1038.47 69.2235 1038.94 70.2614C1039.43 71.2917 1040.12 72.0909 1041 72.6591C1041.89 73.2273 1042.94 73.5114 1044.15 73.5114C1044.97 73.5114 1045.7 73.3826 1046.32 73.125C1046.95 72.8674 1047.47 72.5227 1047.9 72.0909C1048.33 71.6515 1048.66 71.1705 1048.88 70.6477L1050.8 71.2727C1050.53 72.0076 1050.1 72.6856 1049.49 73.3068C1048.89 73.928 1048.14 74.428 1047.24 74.8068C1046.35 75.178 1045.32 75.3636 1044.15 75.3636ZM1069.56 75.3977C1068.51 75.3977 1067.55 75.1932 1066.67 74.7841C1065.8 74.3674 1065.11 73.7689 1064.6 72.9886C1064.08 72.2008 1063.82 71.2462 1063.82 70.125C1063.82 69.2614 1063.99 68.5341 1064.31 67.9432C1064.64 67.3523 1065.1 66.8674 1065.7 66.4886C1066.3 66.1098 1067 65.8106 1067.82 65.5909C1068.64 65.3712 1069.54 65.2008 1070.53 65.0795C1071.5 64.9583 1072.33 64.8523 1073 64.7614C1073.69 64.6705 1074.21 64.5265 1074.56 64.3295C1074.92 64.1326 1075.1 63.8144 1075.1 63.375V62.9659C1075.1 61.7765 1074.74 60.8409 1074.03 60.1591C1073.32 59.4697 1072.31 59.125 1070.98 59.125C1069.72 59.125 1068.7 59.4015 1067.9 59.9545C1067.11 60.5076 1066.56 61.1591 1066.24 61.9091L1064.32 61.2159C1064.72 60.2614 1065.26 59.5 1065.96 58.9318C1066.66 58.3561 1067.44 57.9432 1068.3 57.6932C1069.16 57.4356 1070.04 57.3068 1070.92 57.3068C1071.59 57.3068 1072.28 57.3939 1073 57.5682C1073.73 57.7424 1074.41 58.0455 1075.03 58.4773C1075.65 58.9015 1076.15 59.4962 1076.54 60.2614C1076.92 61.0189 1077.12 61.9811 1077.12 63.1477V75H1075.1V72.2386H1074.97C1074.73 72.7538 1074.37 73.2538 1073.89 73.7386C1073.41 74.2235 1072.81 74.6212 1072.1 74.9318C1071.38 75.2424 1070.53 75.3977 1069.56 75.3977ZM1069.83 73.5455C1070.91 73.5455 1071.84 73.3068 1072.63 72.8295C1073.42 72.3523 1074.02 71.7197 1074.45 70.9318C1074.88 70.1364 1075.1 69.2614 1075.1 68.3068V65.7841C1074.94 65.928 1074.69 66.0568 1074.33 66.1705C1073.99 66.2841 1073.58 66.3864 1073.12 66.4773C1072.66 66.5606 1072.21 66.6326 1071.75 66.6932C1071.3 66.7538 1070.89 66.8068 1070.53 66.8523C1069.54 66.9735 1068.7 67.1629 1068 67.4205C1067.31 67.678 1066.77 68.0341 1066.4 68.4886C1066.03 68.9356 1065.85 69.5114 1065.85 70.2159C1065.85 71.2765 1066.22 72.0985 1066.98 72.6818C1067.74 73.2576 1068.69 73.5455 1069.83 73.5455ZM1082.92 75V51.7273H1084.95V60.875H1085.13C1085.36 60.3523 1085.69 59.8144 1086.11 59.2614C1086.54 58.7083 1087.11 58.2462 1087.81 57.875C1088.51 57.4962 1089.4 57.3068 1090.46 57.3068C1091.9 57.3068 1093.15 57.6856 1094.24 58.4432C1095.32 59.1932 1096.17 60.2462 1096.77 61.6023C1097.38 62.9508 1097.68 64.5227 1097.68 66.3182C1097.68 68.1212 1097.38 69.7008 1096.77 71.0568C1096.17 72.4129 1095.33 73.4697 1094.25 74.2273C1093.17 74.9848 1091.92 75.3636 1090.5 75.3636C1089.44 75.3636 1088.55 75.1742 1087.84 74.7955C1087.13 74.4167 1086.57 73.9508 1086.13 73.3977C1085.7 72.8371 1085.37 72.2917 1085.13 71.7614H1084.88V75H1082.92ZM1084.92 66.2841C1084.92 67.6932 1085.13 68.9432 1085.54 70.0341C1085.97 71.1174 1086.57 71.9697 1087.36 72.5909C1088.16 73.2045 1089.12 73.5114 1090.25 73.5114C1091.41 73.5114 1092.39 73.1932 1093.19 72.5568C1093.99 71.9129 1094.6 71.0455 1095.02 69.9545C1095.44 68.8636 1095.65 67.6402 1095.65 66.2841C1095.65 64.9432 1095.44 63.7348 1095.02 62.6591C1094.61 61.5833 1094.01 60.7311 1093.2 60.1023C1092.4 59.4659 1091.42 59.1477 1090.25 59.1477C1089.11 59.1477 1088.15 59.4545 1087.35 60.0682C1086.56 60.6742 1085.96 61.5152 1085.54 62.5909C1085.13 63.6591 1084.92 64.8902 1084.92 66.2841ZM1104.15 51.7273V75H1102.12V51.7273H1104.15ZM1116.56 75.3636C1114.93 75.3636 1113.52 74.9848 1112.33 74.2273C1111.14 73.4621 1110.22 72.4053 1109.57 71.0568C1108.92 69.7008 1108.6 68.1402 1108.6 66.375C1108.6 64.6174 1108.92 63.0568 1109.57 61.6932C1110.22 60.322 1111.12 59.25 1112.26 58.4773C1113.41 57.697 1114.74 57.3068 1116.25 57.3068C1117.2 57.3068 1118.11 57.4811 1118.99 57.8295C1119.87 58.1705 1120.65 58.697 1121.35 59.4091C1122.06 60.1136 1122.61 61.0038 1123.02 62.0795C1123.43 63.1477 1123.63 64.4129 1123.63 65.875V66.875H1110V65.0909H1121.57C1121.57 63.9697 1121.34 62.9621 1120.88 62.0682C1120.44 61.1667 1119.81 60.4545 1119.01 59.9318C1118.21 59.4091 1117.29 59.1477 1116.25 59.1477C1115.14 59.1477 1114.17 59.4432 1113.33 60.0341C1112.49 60.625 1111.83 61.4053 1111.35 62.375C1110.88 63.3447 1110.64 64.4053 1110.63 65.5568V66.625C1110.63 68.0114 1110.87 69.2235 1111.35 70.2614C1111.84 71.2917 1112.52 72.0909 1113.41 72.6591C1114.29 73.2273 1115.34 73.5114 1116.56 73.5114C1117.38 73.5114 1118.1 73.3826 1118.73 73.125C1119.35 72.8674 1119.88 72.5227 1120.31 72.0909C1120.74 71.6515 1121.06 71.1705 1121.28 70.6477L1123.2 71.2727C1122.94 72.0076 1122.5 72.6856 1121.9 73.3068C1121.3 73.928 1120.55 74.428 1119.65 74.8068C1118.75 75.178 1117.72 75.3636 1116.56 75.3636ZM1143.97 57.5455V59.3068H1135.64V57.5455H1143.97ZM1138.24 53.3636H1140.27V70.4432C1140.27 71.1705 1140.4 71.7424 1140.65 72.1591C1140.9 72.5682 1141.22 72.8598 1141.63 73.0341C1142.03 73.2008 1142.46 73.2841 1142.91 73.2841C1143.18 73.2841 1143.4 73.2689 1143.59 73.2386C1143.78 73.2008 1143.95 73.1629 1144.09 73.125L1144.52 74.9545C1144.33 75.0303 1144.08 75.0985 1143.8 75.1591C1143.51 75.2273 1143.15 75.2614 1142.73 75.2614C1141.99 75.2614 1141.27 75.0985 1140.58 74.7727C1139.9 74.447 1139.34 73.9621 1138.9 73.3182C1138.46 72.6742 1138.24 71.875 1138.24 70.9205V53.3636ZM1155.16 75.3636C1153.65 75.3636 1152.32 74.9811 1151.16 74.2159C1150.01 73.4508 1149.1 72.3939 1148.45 71.0455C1147.8 69.6894 1147.48 68.125 1147.48 66.3523C1147.48 64.5644 1147.8 62.9924 1148.45 61.6364C1149.1 60.2727 1150.01 59.2121 1151.16 58.4545C1152.32 57.6894 1153.65 57.3068 1155.16 57.3068C1156.67 57.3068 1157.99 57.6894 1159.15 58.4545C1160.3 59.2197 1161.2 60.2803 1161.85 61.6364C1162.51 62.9924 1162.84 64.5644 1162.84 66.3523C1162.84 68.125 1162.51 69.6894 1161.86 71.0455C1161.21 72.3939 1160.31 73.4508 1159.15 74.2159C1157.99 74.9811 1156.67 75.3636 1155.16 75.3636ZM1155.16 73.5114C1156.37 73.5114 1157.4 73.1856 1158.24 72.5341C1159.08 71.8826 1159.71 71.0152 1160.15 69.9318C1160.59 68.8485 1160.81 67.6553 1160.81 66.3523C1160.81 65.0492 1160.59 63.8523 1160.15 62.7614C1159.71 61.6705 1159.08 60.7955 1158.24 60.1364C1157.4 59.4773 1156.37 59.1477 1155.16 59.1477C1153.95 59.1477 1152.93 59.4773 1152.08 60.1364C1151.24 60.7955 1150.6 61.6705 1150.16 62.7614C1149.73 63.8523 1149.51 65.0492 1149.51 66.3523C1149.51 67.6553 1149.73 68.8485 1150.16 69.9318C1150.6 71.0152 1151.24 71.8826 1152.08 72.5341C1152.92 73.1856 1153.95 73.5114 1155.16 73.5114ZM1188.01 61.375L1186.15 61.8977C1185.97 61.375 1185.72 60.9015 1185.38 60.4773C1185.05 60.053 1184.61 59.7159 1184.08 59.4659C1183.54 59.2159 1182.89 59.0909 1182.1 59.0909C1180.92 59.0909 1179.95 59.3712 1179.19 59.9318C1178.43 60.4924 1178.05 61.2159 1178.05 62.1023C1178.05 62.8523 1178.31 63.4621 1178.83 63.9318C1179.35 64.3939 1180.15 64.7614 1181.23 65.0341L1183.87 65.6818C1185.33 66.0379 1186.43 66.6023 1187.15 67.375C1187.89 68.1477 1188.26 69.1174 1188.26 70.2841C1188.26 71.2689 1187.98 72.1439 1187.44 72.9091C1186.89 73.6742 1186.13 74.2765 1185.15 74.7159C1184.19 75.1477 1183.06 75.3636 1181.78 75.3636C1180.08 75.3636 1178.67 74.9811 1177.56 74.2159C1176.46 73.4432 1175.75 72.3295 1175.44 70.875L1177.38 70.3977C1177.63 71.4356 1178.12 72.2197 1178.85 72.75C1179.58 73.2803 1180.55 73.5455 1181.75 73.5455C1183.09 73.5455 1184.16 73.2462 1184.96 72.6477C1185.76 72.0417 1186.17 71.2841 1186.17 70.375C1186.17 69.6705 1185.93 69.0795 1185.46 68.6023C1184.99 68.1174 1184.28 67.7614 1183.33 67.5341L1180.47 66.8523C1178.96 66.4886 1177.84 65.9129 1177.11 65.125C1176.38 64.3371 1176.02 63.3598 1176.02 62.1932C1176.02 61.2311 1176.28 60.3864 1176.8 59.6591C1177.33 58.9242 1178.04 58.3485 1178.96 57.9318C1179.88 57.5152 1180.92 57.3068 1182.1 57.3068C1183.7 57.3068 1184.97 57.6705 1185.93 58.3977C1186.89 59.1174 1187.58 60.1098 1188.01 61.375ZM1194.71 64.0909V75H1192.69V51.7273H1194.71V60.2841H1194.89C1195.3 59.3826 1195.93 58.6629 1196.79 58.125C1197.65 57.5871 1198.74 57.3182 1200.06 57.3182C1201.24 57.3182 1202.28 57.5606 1203.17 58.0455C1204.07 58.5303 1204.77 59.2462 1205.27 60.1932C1205.77 61.1402 1206.02 62.3068 1206.02 63.6932V75H1203.98V63.8182C1203.98 62.3788 1203.58 61.2462 1202.78 60.4205C1201.98 59.5871 1200.91 59.1705 1199.55 59.1705C1198.62 59.1705 1197.79 59.3674 1197.06 59.7614C1196.33 60.1553 1195.76 60.7235 1195.33 61.4659C1194.92 62.2008 1194.71 63.0758 1194.71 64.0909ZM1216.22 75.3977C1215.16 75.3977 1214.2 75.1932 1213.33 74.7841C1212.46 74.3674 1211.77 73.7689 1211.25 72.9886C1210.74 72.2008 1210.48 71.2462 1210.48 70.125C1210.48 69.2614 1210.64 68.5341 1210.97 67.9432C1211.29 67.3523 1211.76 66.8674 1212.35 66.4886C1212.95 66.1098 1213.66 65.8106 1214.48 65.5909C1215.3 65.3712 1216.2 65.2008 1217.18 65.0795C1218.16 64.9583 1218.99 64.8523 1219.66 64.7614C1220.34 64.6705 1220.86 64.5265 1221.22 64.3295C1221.57 64.1326 1221.75 63.8144 1221.75 63.375V62.9659C1221.75 61.7765 1221.4 60.8409 1220.68 60.1591C1219.98 59.4697 1218.96 59.125 1217.64 59.125C1216.38 59.125 1215.35 59.4015 1214.56 59.9545C1213.77 60.5076 1213.22 61.1591 1212.9 61.9091L1210.98 61.2159C1211.37 60.2614 1211.92 59.5 1212.62 58.9318C1213.31 58.3561 1214.09 57.9432 1214.96 57.6932C1215.82 57.4356 1216.69 57.3068 1217.58 57.3068C1218.25 57.3068 1218.94 57.3939 1219.66 57.5682C1220.39 57.7424 1221.06 58.0455 1221.68 58.4773C1222.3 58.9015 1222.81 59.4962 1223.19 60.2614C1223.58 61.0189 1223.77 61.9811 1223.77 63.1477V75H1221.75V72.2386H1221.63C1221.38 72.7538 1221.02 73.2538 1220.55 73.7386C1220.07 74.2235 1219.47 74.6212 1218.75 74.9318C1218.03 75.2424 1217.19 75.3977 1216.22 75.3977ZM1216.49 73.5455C1217.57 73.5455 1218.5 73.3068 1219.29 72.8295C1220.07 72.3523 1220.68 71.7197 1221.1 70.9318C1221.54 70.1364 1221.75 69.2614 1221.75 68.3068V65.7841C1221.6 65.928 1221.35 66.0568 1220.99 66.1705C1220.64 66.2841 1220.24 66.3864 1219.77 66.4773C1219.32 66.5606 1218.87 66.6326 1218.41 66.6932C1217.96 66.7538 1217.55 66.8068 1217.18 66.8523C1216.2 66.9735 1215.36 67.1629 1214.66 67.4205C1213.96 67.678 1213.43 68.0341 1213.06 68.4886C1212.69 68.9356 1212.5 69.5114 1212.5 70.2159C1212.5 71.2765 1212.88 72.0985 1213.64 72.6818C1214.4 73.2576 1215.35 73.5455 1216.49 73.5455ZM1229.15 75V57.5455H1231.12V60.2273H1231.27C1231.62 59.3485 1232.22 58.6402 1233.09 58.1023C1233.96 57.5568 1234.94 57.2841 1236.04 57.2841C1236.21 57.2841 1236.39 57.2879 1236.6 57.2955C1236.8 57.303 1236.97 57.3106 1237.11 57.3182V59.375C1237.02 59.3598 1236.86 59.3371 1236.63 59.3068C1236.4 59.2765 1236.16 59.2614 1235.89 59.2614C1234.98 59.2614 1234.17 59.4545 1233.46 59.8409C1232.76 60.2197 1232.2 60.7462 1231.79 61.4205C1231.38 62.0947 1231.18 62.8636 1231.18 63.7273V75H1229.15ZM1247.09 75.3636C1245.46 75.3636 1244.05 74.9848 1242.86 74.2273C1241.67 73.4621 1240.75 72.4053 1240.1 71.0568C1239.45 69.7008 1239.13 68.1402 1239.13 66.375C1239.13 64.6174 1239.45 63.0568 1240.1 61.6932C1240.75 60.322 1241.65 59.25 1242.79 58.4773C1243.94 57.697 1245.27 57.3068 1246.78 57.3068C1247.73 57.3068 1248.64 57.4811 1249.52 57.8295C1250.4 58.1705 1251.19 58.697 1251.88 59.4091C1252.59 60.1136 1253.14 61.0038 1253.55 62.0795C1253.96 63.1477 1254.17 64.4129 1254.17 65.875V66.875H1240.53V65.0909H1252.1C1252.1 63.9697 1251.87 62.9621 1251.42 62.0682C1250.97 61.1667 1250.34 60.4545 1249.54 59.9318C1248.75 59.4091 1247.83 59.1477 1246.78 59.1477C1245.67 59.1477 1244.7 59.4432 1243.86 60.0341C1243.02 60.625 1242.36 61.4053 1241.88 62.375C1241.41 63.3447 1241.17 64.4053 1241.17 65.5568V66.625C1241.17 68.0114 1241.4 69.2235 1241.88 70.2614C1242.37 71.2917 1243.05 72.0909 1243.94 72.6591C1244.83 73.2273 1245.87 73.5114 1247.09 73.5114C1247.91 73.5114 1248.64 73.3826 1249.26 73.125C1249.89 72.8674 1250.41 72.5227 1250.84 72.0909C1251.27 71.6515 1251.59 71.1705 1251.81 70.6477L1253.73 71.2727C1253.47 72.0076 1253.03 72.6856 1252.43 73.3068C1251.83 73.928 1251.08 74.428 1250.18 74.8068C1249.28 75.178 1248.25 75.3636 1247.09 75.3636ZM1274.5 57.5455V59.3068H1266.17V57.5455H1274.5ZM1268.77 53.3636H1270.81V70.4432C1270.81 71.1705 1270.93 71.7424 1271.18 72.1591C1271.43 72.5682 1271.76 72.8598 1272.16 73.0341C1272.56 73.2008 1272.99 73.2841 1273.44 73.2841C1273.71 73.2841 1273.93 73.2689 1274.12 73.2386C1274.31 73.2008 1274.48 73.1629 1274.62 73.125L1275.06 74.9545C1274.86 75.0303 1274.62 75.0985 1274.33 75.1591C1274.04 75.2273 1273.68 75.2614 1273.26 75.2614C1272.52 75.2614 1271.8 75.0985 1271.11 74.7727C1270.43 74.447 1269.87 73.9621 1269.43 73.3182C1268.99 72.6742 1268.77 71.875 1268.77 70.9205V53.3636ZM1281.49 64.0909V75H1279.47V51.7273H1281.49V60.2841H1281.67C1282.08 59.3826 1282.71 58.6629 1283.57 58.125C1284.43 57.5871 1285.52 57.3182 1286.84 57.3182C1288.02 57.3182 1289.06 57.5606 1289.96 58.0455C1290.85 58.5303 1291.55 59.2462 1292.05 60.1932C1292.55 61.1402 1292.8 62.3068 1292.8 63.6932V75H1290.76V63.8182C1290.76 62.3788 1290.36 61.2462 1289.56 60.4205C1288.76 59.5871 1287.69 59.1705 1286.33 59.1705C1285.4 59.1705 1284.57 59.3674 1283.84 59.7614C1283.12 60.1553 1282.54 60.7235 1282.12 61.4659C1281.7 62.2008 1281.49 63.0758 1281.49 64.0909ZM1298.15 75V57.5455H1300.18V75H1298.15ZM1299.18 54.5455C1298.76 54.5455 1298.41 54.4053 1298.11 54.125C1297.82 53.8371 1297.67 53.4924 1297.67 53.0909C1297.67 52.6894 1297.82 52.3485 1298.11 52.0682C1298.41 51.7803 1298.76 51.6364 1299.18 51.6364C1299.6 51.6364 1299.95 51.7803 1300.25 52.0682C1300.54 52.3485 1300.69 52.6894 1300.69 53.0909C1300.69 53.4924 1300.54 53.8371 1300.25 54.125C1299.95 54.4053 1299.6 54.5455 1299.18 54.5455ZM1317.26 61.375L1315.4 61.8977C1315.22 61.375 1314.97 60.9015 1314.63 60.4773C1314.3 60.053 1313.86 59.7159 1313.33 59.4659C1312.79 59.2159 1312.14 59.0909 1311.35 59.0909C1310.17 59.0909 1309.2 59.3712 1308.44 59.9318C1307.68 60.4924 1307.3 61.2159 1307.3 62.1023C1307.3 62.8523 1307.56 63.4621 1308.08 63.9318C1308.6 64.3939 1309.4 64.7614 1310.48 65.0341L1313.12 65.6818C1314.58 66.0379 1315.68 66.6023 1316.4 67.375C1317.14 68.1477 1317.51 69.1174 1317.51 70.2841C1317.51 71.2689 1317.23 72.1439 1316.69 72.9091C1316.14 73.6742 1315.38 74.2765 1314.4 74.7159C1313.44 75.1477 1312.31 75.3636 1311.03 75.3636C1309.33 75.3636 1307.92 74.9811 1306.81 74.2159C1305.71 73.4432 1305 72.3295 1304.69 70.875L1306.63 70.3977C1306.88 71.4356 1307.37 72.2197 1308.1 72.75C1308.83 73.2803 1309.8 73.5455 1311 73.5455C1312.34 73.5455 1313.41 73.2462 1314.21 72.6477C1315.01 72.0417 1315.42 71.2841 1315.42 70.375C1315.42 69.6705 1315.18 69.0795 1314.71 68.6023C1314.24 68.1174 1313.53 67.7614 1312.58 67.5341L1309.72 66.8523C1308.21 66.4886 1307.09 65.9129 1306.36 65.125C1305.63 64.3371 1305.27 63.3598 1305.27 62.1932C1305.27 61.2311 1305.53 60.3864 1306.05 59.6591C1306.58 58.9242 1307.29 58.3485 1308.21 57.9318C1309.13 57.5152 1310.17 57.3068 1311.35 57.3068C1312.95 57.3068 1314.22 57.6705 1315.18 58.3977C1316.14 59.1174 1316.83 60.1098 1317.26 61.375ZM1330.96 75V57.5455H1332.99V75H1330.96ZM1331.99 54.5455C1331.58 54.5455 1331.22 54.4053 1330.92 54.125C1330.63 53.8371 1330.48 53.4924 1330.48 53.0909C1330.48 52.6894 1330.63 52.3485 1330.92 52.0682C1331.22 51.7803 1331.58 51.6364 1331.99 51.6364C1332.41 51.6364 1332.77 51.7803 1333.06 52.0682C1333.36 52.3485 1333.5 52.6894 1333.5 53.0909C1333.5 53.4924 1333.36 53.8371 1333.06 54.125C1332.77 54.4053 1332.41 54.5455 1331.99 54.5455ZM1340.37 64.0909V75H1338.34V57.5455H1340.31V60.2841H1340.49C1340.9 59.3902 1341.54 58.6742 1342.4 58.1364C1343.27 57.5909 1344.35 57.3182 1345.63 57.3182C1346.8 57.3182 1347.83 57.5644 1348.72 58.0568C1349.61 58.5417 1350.3 59.2576 1350.8 60.2045C1351.3 61.1515 1351.55 62.3144 1351.55 63.6932V75H1349.52V63.8182C1349.52 62.3864 1349.12 61.2538 1348.32 60.4205C1347.52 59.5871 1346.46 59.1705 1345.12 59.1705C1344.2 59.1705 1343.38 59.3674 1342.67 59.7614C1341.96 60.1553 1341.4 60.7235 1340.98 61.4659C1340.57 62.2008 1340.37 63.0758 1340.37 64.0909ZM1363.16 75.3636C1361.73 75.3636 1360.47 74.9848 1359.4 74.2273C1358.32 73.4697 1357.48 72.4129 1356.87 71.0568C1356.28 69.7008 1355.98 68.1212 1355.98 66.3182C1355.98 64.5227 1356.28 62.9508 1356.87 61.6023C1357.48 60.2462 1358.32 59.1932 1359.41 58.4432C1360.49 57.6856 1361.75 57.3068 1363.19 57.3068C1364.25 57.3068 1365.13 57.4962 1365.84 57.875C1366.54 58.2462 1367.11 58.7083 1367.53 59.2614C1367.96 59.8144 1368.29 60.3523 1368.52 60.875H1368.7V51.7273H1370.74V75H1368.76V71.7614H1368.52C1368.29 72.2917 1367.95 72.8371 1367.52 73.3977C1367.09 73.9508 1366.52 74.4167 1365.81 74.7955C1365.1 75.1742 1364.22 75.3636 1363.16 75.3636ZM1363.4 73.5114C1364.53 73.5114 1365.49 73.2045 1366.28 72.5909C1367.08 71.9697 1367.68 71.1174 1368.1 70.0341C1368.53 68.9432 1368.74 67.6932 1368.74 66.2841C1368.74 64.8902 1368.53 63.6591 1368.11 62.5909C1367.7 61.5152 1367.09 60.6742 1366.29 60.0682C1365.5 59.4545 1364.53 59.1477 1363.4 59.1477C1362.23 59.1477 1361.24 59.4659 1360.44 60.1023C1359.65 60.7311 1359.04 61.5833 1358.62 62.6591C1358.21 63.7348 1358.01 64.9432 1358.01 66.2841C1358.01 67.6402 1358.22 68.8636 1358.63 69.9545C1359.05 71.0455 1359.66 71.9129 1360.45 72.5568C1361.26 73.1932 1362.24 73.5114 1363.4 73.5114ZM1383.56 75.3636C1381.93 75.3636 1380.52 74.9848 1379.33 74.2273C1378.14 73.4621 1377.22 72.4053 1376.57 71.0568C1375.92 69.7008 1375.6 68.1402 1375.6 66.375C1375.6 64.6174 1375.92 63.0568 1376.57 61.6932C1377.22 60.322 1378.12 59.25 1379.26 58.4773C1380.41 57.697 1381.74 57.3068 1383.25 57.3068C1384.2 57.3068 1385.11 57.4811 1385.99 57.8295C1386.87 58.1705 1387.65 58.697 1388.35 59.4091C1389.06 60.1136 1389.61 61.0038 1390.02 62.0795C1390.43 63.1477 1390.63 64.4129 1390.63 65.875V66.875H1377V65.0909H1388.57C1388.57 63.9697 1388.34 62.9621 1387.88 62.0682C1387.44 61.1667 1386.81 60.4545 1386.01 59.9318C1385.21 59.4091 1384.29 59.1477 1383.25 59.1477C1382.14 59.1477 1381.17 59.4432 1380.33 60.0341C1379.49 60.625 1378.83 61.4053 1378.35 62.375C1377.88 63.3447 1377.64 64.4053 1377.63 65.5568V66.625C1377.63 68.0114 1377.87 69.2235 1378.35 70.2614C1378.84 71.2917 1379.52 72.0909 1380.41 72.6591C1381.29 73.2273 1382.34 73.5114 1383.56 73.5114C1384.38 73.5114 1385.1 73.3826 1385.73 73.125C1386.35 72.8674 1386.88 72.5227 1387.31 72.0909C1387.74 71.6515 1388.06 71.1705 1388.28 70.6477L1390.2 71.2727C1389.94 72.0076 1389.5 72.6856 1388.9 73.3068C1388.3 73.928 1387.55 74.428 1386.65 74.8068C1385.75 75.178 1384.72 75.3636 1383.56 75.3636ZM1401.97 57.5455V59.3068H1393.64V57.5455H1401.97ZM1396.24 53.3636H1398.27V70.4432C1398.27 71.1705 1398.4 71.7424 1398.65 72.1591C1398.9 72.5682 1399.22 72.8598 1399.63 73.0341C1400.03 73.2008 1400.46 73.2841 1400.91 73.2841C1401.18 73.2841 1401.4 73.2689 1401.59 73.2386C1401.78 73.2008 1401.95 73.1629 1402.09 73.125L1402.52 74.9545C1402.33 75.0303 1402.08 75.0985 1401.8 75.1591C1401.51 75.2273 1401.15 75.2614 1400.73 75.2614C1399.99 75.2614 1399.27 75.0985 1398.58 74.7727C1397.9 74.447 1397.34 73.9621 1396.9 73.3182C1396.46 72.6742 1396.24 71.875 1396.24 70.9205V53.3636ZM1411.44 75.3977C1410.38 75.3977 1409.42 75.1932 1408.55 74.7841C1407.68 74.3674 1406.99 73.7689 1406.47 72.9886C1405.96 72.2008 1405.7 71.2462 1405.7 70.125C1405.7 69.2614 1405.86 68.5341 1406.19 67.9432C1406.51 67.3523 1406.97 66.8674 1407.57 66.4886C1408.17 66.1098 1408.88 65.8106 1409.7 65.5909C1410.52 65.3712 1411.42 65.2008 1412.4 65.0795C1413.38 64.9583 1414.21 64.8523 1414.88 64.7614C1415.56 64.6705 1416.08 64.5265 1416.44 64.3295C1416.79 64.1326 1416.97 63.8144 1416.97 63.375V62.9659C1416.97 61.7765 1416.61 60.8409 1415.9 60.1591C1415.2 59.4697 1414.18 59.125 1412.86 59.125C1411.6 59.125 1410.57 59.4015 1409.78 59.9545C1408.99 60.5076 1408.44 61.1591 1408.12 61.9091L1406.2 61.2159C1406.59 60.2614 1407.14 59.5 1407.83 58.9318C1408.53 58.3561 1409.31 57.9432 1410.17 57.6932C1411.04 57.4356 1411.91 57.3068 1412.8 57.3068C1413.47 57.3068 1414.16 57.3939 1414.88 57.5682C1415.61 57.7424 1416.28 58.0455 1416.9 58.4773C1417.52 58.9015 1418.03 59.4962 1418.41 60.2614C1418.8 61.0189 1418.99 61.9811 1418.99 63.1477V75H1416.97V72.2386H1416.85C1416.6 72.7538 1416.24 73.2538 1415.77 73.7386C1415.29 74.2235 1414.69 74.6212 1413.97 74.9318C1413.25 75.2424 1412.41 75.3977 1411.44 75.3977ZM1411.71 73.5455C1412.78 73.5455 1413.72 73.3068 1414.5 72.8295C1415.29 72.3523 1415.9 71.7197 1416.32 70.9318C1416.75 70.1364 1416.97 69.2614 1416.97 68.3068V65.7841C1416.82 65.928 1416.56 66.0568 1416.21 66.1705C1415.86 66.2841 1415.46 66.3864 1414.99 66.4773C1414.54 66.5606 1414.08 66.6326 1413.63 66.6932C1413.17 66.7538 1412.77 66.8068 1412.4 66.8523C1411.42 66.9735 1410.58 67.1629 1409.88 67.4205C1409.18 67.678 1408.65 68.0341 1408.28 68.4886C1407.91 68.9356 1407.72 69.5114 1407.72 70.2159C1407.72 71.2765 1408.1 72.0985 1408.86 72.6818C1409.61 73.2576 1410.56 73.5455 1411.71 73.5455ZM1424.4 75V57.5455H1426.43V75H1424.4ZM1425.43 54.5455C1425.01 54.5455 1424.66 54.4053 1424.36 54.125C1424.07 53.8371 1423.92 53.4924 1423.92 53.0909C1423.92 52.6894 1424.07 52.3485 1424.36 52.0682C1424.66 51.7803 1425.01 51.6364 1425.43 51.6364C1425.85 51.6364 1426.2 51.7803 1426.5 52.0682C1426.79 52.3485 1426.94 52.6894 1426.94 53.0909C1426.94 53.4924 1426.79 53.8371 1426.5 54.125C1426.2 54.4053 1425.85 54.5455 1425.43 54.5455ZM1433.8 51.7273V75H1431.78V51.7273H1433.8ZM609.483 120.545V96.5455H611.449V99.875H611.688C611.93 99.3523 612.263 98.8182 612.688 98.2727C613.112 97.7197 613.672 97.2538 614.369 96.875C615.074 96.4962 615.96 96.3068 617.028 96.3068C618.468 96.3068 619.725 96.6856 620.801 97.4432C621.884 98.1932 622.725 99.2462 623.324 100.602C623.93 101.951 624.233 103.523 624.233 105.318C624.233 107.121 623.93 108.701 623.324 110.057C622.725 111.413 621.884 112.47 620.801 113.227C619.725 113.985 618.475 114.364 617.051 114.364C615.998 114.364 615.116 114.174 614.403 113.795C613.699 113.417 613.127 112.951 612.688 112.398C612.256 111.837 611.922 111.292 611.688 110.761H611.506V120.545H609.483ZM611.483 105.284C611.483 106.693 611.691 107.943 612.108 109.034C612.532 110.117 613.138 110.97 613.926 111.591C614.722 112.205 615.684 112.511 616.812 112.511C617.972 112.511 618.949 112.193 619.744 111.557C620.547 110.913 621.157 110.045 621.574 108.955C621.998 107.864 622.21 106.64 622.21 105.284C622.21 103.943 622.002 102.735 621.585 101.659C621.176 100.583 620.57 99.7311 619.767 99.1023C618.964 98.4659 617.979 98.1477 616.812 98.1477C615.676 98.1477 614.71 98.4545 613.915 99.0682C613.119 99.6742 612.513 100.515 612.097 101.591C611.688 102.659 611.483 103.89 611.483 105.284ZM628.67 114V96.5455H630.636V99.2273H630.784C631.133 98.3485 631.739 97.6402 632.602 97.1023C633.473 96.5568 634.458 96.2841 635.557 96.2841C635.723 96.2841 635.909 96.2879 636.114 96.2955C636.318 96.303 636.489 96.3106 636.625 96.3182V98.375C636.534 98.3598 636.375 98.3371 636.148 98.3068C635.92 98.2765 635.674 98.2614 635.409 98.2614C634.5 98.2614 633.689 98.4545 632.977 98.8409C632.273 99.2197 631.716 99.7462 631.307 100.42C630.898 101.095 630.693 101.864 630.693 102.727V114H628.67ZM646.33 114.364C644.822 114.364 643.489 113.981 642.33 113.216C641.178 112.451 640.277 111.394 639.625 110.045C638.973 108.689 638.648 107.125 638.648 105.352C638.648 103.564 638.973 101.992 639.625 100.636C640.277 99.2727 641.178 98.2121 642.33 97.4545C643.489 96.6894 644.822 96.3068 646.33 96.3068C647.837 96.3068 649.167 96.6894 650.318 97.4545C651.47 98.2197 652.371 99.2803 653.023 100.636C653.682 101.992 654.011 103.564 654.011 105.352C654.011 107.125 653.686 108.689 653.034 110.045C652.383 111.394 651.477 112.451 650.318 113.216C649.167 113.981 647.837 114.364 646.33 114.364ZM646.33 112.511C647.542 112.511 648.568 112.186 649.409 111.534C650.25 110.883 650.886 110.015 651.318 108.932C651.758 107.848 651.977 106.655 651.977 105.352C651.977 104.049 651.758 102.852 651.318 101.761C650.886 100.67 650.25 99.7955 649.409 99.1364C648.568 98.4773 647.542 98.1477 646.33 98.1477C645.125 98.1477 644.098 98.4773 643.25 99.1364C642.409 99.7955 641.769 100.67 641.33 101.761C640.898 102.852 640.682 104.049 640.682 105.352C640.682 106.655 640.898 107.848 641.33 108.932C641.769 110.015 642.409 110.883 643.25 111.534C644.091 112.186 645.117 112.511 646.33 112.511ZM658.474 96.5455H660.509V115.693C660.509 116.686 660.323 117.542 659.952 118.261C659.588 118.989 659.058 119.549 658.361 119.943C657.664 120.345 656.823 120.545 655.838 120.545C655.762 120.545 655.687 120.545 655.611 120.545C655.535 120.545 655.452 120.542 655.361 120.534L655.384 118.636C655.459 118.636 655.531 118.636 655.599 118.636C655.668 118.636 655.74 118.636 655.815 118.636C656.649 118.636 657.3 118.379 657.77 117.864C658.24 117.348 658.474 116.625 658.474 115.693V96.5455ZM659.474 93.5455C659.065 93.5455 658.709 93.4053 658.406 93.125C658.111 92.8371 657.963 92.4924 657.963 92.0909C657.963 91.6894 658.111 91.3485 658.406 91.0682C658.709 90.7803 659.065 90.6364 659.474 90.6364C659.891 90.6364 660.247 90.7803 660.543 91.0682C660.846 91.3485 660.997 91.6894 660.997 92.0909C660.997 92.4924 660.846 92.8371 660.543 93.125C660.247 93.4053 659.891 93.5455 659.474 93.5455ZM672.915 114.364C671.286 114.364 669.877 113.985 668.688 113.227C667.498 112.462 666.578 111.405 665.926 110.057C665.282 108.701 664.96 107.14 664.96 105.375C664.96 103.617 665.282 102.057 665.926 100.693C666.578 99.322 667.475 98.25 668.619 97.4773C669.771 96.697 671.1 96.3068 672.608 96.3068C673.555 96.3068 674.468 96.4811 675.347 96.8295C676.225 97.1705 677.013 97.697 677.71 98.4091C678.415 99.1136 678.972 100.004 679.381 101.08C679.79 102.148 679.994 103.413 679.994 104.875V105.875H666.358V104.091H677.926C677.926 102.97 677.699 101.962 677.244 101.068C676.797 100.167 676.172 99.4545 675.369 98.9318C674.574 98.4091 673.653 98.1477 672.608 98.1477C671.502 98.1477 670.528 98.4432 669.688 99.0341C668.847 99.625 668.188 100.405 667.71 101.375C667.241 102.345 667.002 103.405 666.994 104.557V105.625C666.994 107.011 667.233 108.223 667.71 109.261C668.195 110.292 668.881 111.091 669.767 111.659C670.653 112.227 671.703 112.511 672.915 112.511C673.741 112.511 674.464 112.383 675.085 112.125C675.714 111.867 676.241 111.523 676.665 111.091C677.097 110.652 677.422 110.17 677.642 109.648L679.562 110.273C679.297 111.008 678.862 111.686 678.256 112.307C677.657 112.928 676.907 113.428 676.006 113.807C675.112 114.178 674.081 114.364 672.915 114.364ZM691.27 114.364C689.709 114.364 688.349 113.973 687.19 113.193C686.039 112.413 685.145 111.345 684.509 109.989C683.872 108.633 683.554 107.087 683.554 105.352C683.554 103.602 683.876 102.045 684.52 100.682C685.171 99.3182 686.073 98.25 687.224 97.4773C688.376 96.697 689.713 96.3068 691.236 96.3068C692.402 96.3068 693.459 96.5341 694.406 96.9886C695.353 97.4356 696.134 98.0682 696.747 98.8864C697.368 99.697 697.759 100.644 697.918 101.727H695.872C695.66 100.742 695.149 99.9015 694.338 99.2045C693.535 98.5 692.512 98.1477 691.27 98.1477C690.156 98.1477 689.171 98.4508 688.315 99.0568C687.459 99.6553 686.789 100.492 686.304 101.568C685.827 102.636 685.588 103.875 685.588 105.284C685.588 106.701 685.823 107.955 686.293 109.045C686.762 110.129 687.421 110.977 688.27 111.591C689.126 112.205 690.126 112.511 691.27 112.511C692.043 112.511 692.747 112.367 693.384 112.08C694.027 111.784 694.565 111.367 694.997 110.83C695.437 110.292 695.732 109.652 695.884 108.909H697.929C697.777 109.962 697.402 110.902 696.804 111.727C696.213 112.545 695.444 113.189 694.497 113.659C693.558 114.129 692.482 114.364 691.27 114.364ZM709.139 96.5455V98.3068H700.81V96.5455H709.139ZM703.412 92.3636H705.446V109.443C705.446 110.17 705.571 110.742 705.821 111.159C706.071 111.568 706.397 111.86 706.798 112.034C707.2 112.201 707.628 112.284 708.082 112.284C708.348 112.284 708.575 112.269 708.764 112.239C708.954 112.201 709.12 112.163 709.264 112.125L709.696 113.955C709.499 114.03 709.257 114.098 708.969 114.159C708.681 114.227 708.325 114.261 707.901 114.261C707.158 114.261 706.442 114.098 705.753 113.773C705.071 113.447 704.51 112.962 704.071 112.318C703.632 111.674 703.412 110.875 703.412 109.92V92.3636ZM722.756 114V96.5455H724.79V114H722.756ZM723.79 93.5455C723.373 93.5455 723.017 93.4053 722.722 93.125C722.426 92.8371 722.278 92.4924 722.278 92.0909C722.278 91.6894 722.426 91.3485 722.722 91.0682C723.017 90.7803 723.373 90.6364 723.79 90.6364C724.206 90.6364 724.563 90.7803 724.858 91.0682C725.153 91.3485 725.301 91.6894 725.301 92.0909C725.301 92.4924 725.153 92.8371 724.858 93.125C724.563 93.4053 724.206 93.5455 723.79 93.5455ZM732.162 103.091V114H730.139V96.5455H732.105V99.2841H732.287C732.696 98.3902 733.332 97.6742 734.196 97.1364C735.067 96.5909 736.143 96.3182 737.423 96.3182C738.598 96.3182 739.628 96.5644 740.514 97.0568C741.408 97.5417 742.101 98.2576 742.594 99.2045C743.094 100.152 743.344 101.314 743.344 102.693V114H741.321V102.818C741.321 101.386 740.92 100.254 740.116 99.4205C739.321 98.5871 738.253 98.1705 736.912 98.1705C735.995 98.1705 735.181 98.3674 734.469 98.7614C733.757 99.1553 733.192 99.7235 732.776 100.466C732.366 101.201 732.162 102.076 732.162 103.091ZM764.545 96.5455V98.3068H756.216V96.5455H764.545ZM758.818 92.3636H760.852V109.443C760.852 110.17 760.977 110.742 761.227 111.159C761.477 111.568 761.803 111.86 762.205 112.034C762.606 112.201 763.034 112.284 763.489 112.284C763.754 112.284 763.981 112.269 764.17 112.239C764.36 112.201 764.527 112.163 764.67 112.125L765.102 113.955C764.905 114.03 764.663 114.098 764.375 114.159C764.087 114.227 763.731 114.261 763.307 114.261C762.564 114.261 761.848 114.098 761.159 113.773C760.477 113.447 759.917 112.962 759.477 112.318C759.038 111.674 758.818 110.875 758.818 109.92V92.3636ZM771.537 103.091V114H769.514V90.7273H771.537V99.2841H771.719C772.128 98.3826 772.76 97.6629 773.616 97.125C774.48 96.5871 775.571 96.3182 776.889 96.3182C778.071 96.3182 779.109 96.5606 780.003 97.0455C780.897 97.5303 781.594 98.2462 782.094 99.1932C782.594 100.14 782.844 101.307 782.844 102.693V114H780.81V102.818C780.81 101.379 780.408 100.246 779.605 99.4205C778.81 98.5871 777.734 98.1705 776.378 98.1705C775.446 98.1705 774.616 98.3674 773.889 98.7614C773.162 99.1553 772.586 99.7235 772.162 100.466C771.745 101.201 771.537 102.076 771.537 103.091ZM788.193 114V96.5455H790.227V114H788.193ZM789.227 93.5455C788.811 93.5455 788.455 93.4053 788.159 93.125C787.864 92.8371 787.716 92.4924 787.716 92.0909C787.716 91.6894 787.864 91.3485 788.159 91.0682C788.455 90.7803 788.811 90.6364 789.227 90.6364C789.644 90.6364 790 90.7803 790.295 91.0682C790.591 91.3485 790.739 91.6894 790.739 92.0909C790.739 92.4924 790.591 92.8371 790.295 93.125C790 93.4053 789.644 93.5455 789.227 93.5455ZM807.304 100.375L805.452 100.898C805.27 100.375 805.012 99.9015 804.679 99.4773C804.346 99.053 803.91 98.7159 803.372 98.4659C802.842 98.2159 802.183 98.0909 801.395 98.0909C800.213 98.0909 799.243 98.3712 798.486 98.9318C797.728 99.4924 797.349 100.216 797.349 101.102C797.349 101.852 797.607 102.462 798.122 102.932C798.645 103.394 799.448 103.761 800.531 104.034L803.168 104.682C804.63 105.038 805.724 105.602 806.452 106.375C807.187 107.148 807.554 108.117 807.554 109.284C807.554 110.269 807.281 111.144 806.736 111.909C806.19 112.674 805.429 113.277 804.452 113.716C803.482 114.148 802.357 114.364 801.077 114.364C799.372 114.364 797.967 113.981 796.861 113.216C795.755 112.443 795.046 111.33 794.736 109.875L796.679 109.398C796.929 110.436 797.418 111.22 798.145 111.75C798.88 112.28 799.846 112.545 801.043 112.545C802.384 112.545 803.455 112.246 804.259 111.648C805.062 111.042 805.463 110.284 805.463 109.375C805.463 108.67 805.228 108.08 804.759 107.602C804.289 107.117 803.577 106.761 802.622 106.534L799.77 105.852C798.255 105.489 797.134 104.913 796.406 104.125C795.679 103.337 795.315 102.36 795.315 101.193C795.315 100.231 795.577 99.3864 796.099 98.6591C796.622 97.9242 797.342 97.3485 798.259 96.9318C799.175 96.5152 800.221 96.3068 801.395 96.3068C802.993 96.3068 804.27 96.6705 805.224 97.3977C806.187 98.1174 806.88 99.1098 807.304 100.375ZM820.983 120.545V96.5455H822.949V99.875H823.188C823.43 99.3523 823.763 98.8182 824.188 98.2727C824.612 97.7197 825.172 97.2538 825.869 96.875C826.574 96.4962 827.46 96.3068 828.528 96.3068C829.968 96.3068 831.225 96.6856 832.301 97.4432C833.384 98.1932 834.225 99.2462 834.824 100.602C835.43 101.951 835.733 103.523 835.733 105.318C835.733 107.121 835.43 108.701 834.824 110.057C834.225 111.413 833.384 112.47 832.301 113.227C831.225 113.985 829.975 114.364 828.551 114.364C827.498 114.364 826.616 114.174 825.903 113.795C825.199 113.417 824.627 112.951 824.188 112.398C823.756 111.837 823.422 111.292 823.188 110.761H823.006V120.545H820.983ZM822.983 105.284C822.983 106.693 823.191 107.943 823.608 109.034C824.032 110.117 824.638 110.97 825.426 111.591C826.222 112.205 827.184 112.511 828.312 112.511C829.472 112.511 830.449 112.193 831.244 111.557C832.047 110.913 832.657 110.045 833.074 108.955C833.498 107.864 833.71 106.64 833.71 105.284C833.71 103.943 833.502 102.735 833.085 101.659C832.676 100.583 832.07 99.7311 831.267 99.1023C830.464 98.4659 829.479 98.1477 828.312 98.1477C827.176 98.1477 826.21 98.4545 825.415 99.0682C824.619 99.6742 824.013 100.515 823.597 101.591C823.188 102.659 822.983 103.89 822.983 105.284ZM842.193 90.7273V114H840.17V90.7273H842.193ZM852.42 114.398C851.367 114.398 850.405 114.193 849.534 113.784C848.663 113.367 847.97 112.769 847.455 111.989C846.939 111.201 846.682 110.246 846.682 109.125C846.682 108.261 846.845 107.534 847.17 106.943C847.496 106.352 847.958 105.867 848.557 105.489C849.155 105.11 849.864 104.811 850.682 104.591C851.5 104.371 852.402 104.201 853.386 104.08C854.364 103.958 855.189 103.852 855.864 103.761C856.545 103.67 857.064 103.527 857.42 103.33C857.777 103.133 857.955 102.814 857.955 102.375V101.966C857.955 100.777 857.598 99.8409 856.886 99.1591C856.182 98.4697 855.167 98.125 853.841 98.125C852.583 98.125 851.557 98.4015 850.761 98.9545C849.973 99.5076 849.42 100.159 849.102 100.909L847.182 100.216C847.576 99.2614 848.121 98.5 848.818 97.9318C849.515 97.3561 850.295 96.9432 851.159 96.6932C852.023 96.4356 852.898 96.3068 853.784 96.3068C854.451 96.3068 855.144 96.3939 855.864 96.5682C856.591 96.7424 857.265 97.0455 857.886 97.4773C858.508 97.9015 859.011 98.4962 859.398 99.2614C859.784 100.019 859.977 100.981 859.977 102.148V114H857.955V111.239H857.83C857.587 111.754 857.227 112.254 856.75 112.739C856.273 113.223 855.674 113.621 854.955 113.932C854.235 114.242 853.39 114.398 852.42 114.398ZM852.693 112.545C853.769 112.545 854.701 112.307 855.489 111.83C856.277 111.352 856.883 110.72 857.307 109.932C857.739 109.136 857.955 108.261 857.955 107.307V104.784C857.803 104.928 857.549 105.057 857.193 105.17C856.845 105.284 856.439 105.386 855.977 105.477C855.523 105.561 855.068 105.633 854.614 105.693C854.159 105.754 853.75 105.807 853.386 105.852C852.402 105.973 851.561 106.163 850.864 106.42C850.167 106.678 849.633 107.034 849.261 107.489C848.89 107.936 848.705 108.511 848.705 109.216C848.705 110.277 849.083 111.098 849.841 111.682C850.598 112.258 851.549 112.545 852.693 112.545ZM872.233 96.5455V98.3068H863.903V96.5455H872.233ZM866.506 92.3636H868.54V109.443C868.54 110.17 868.665 110.742 868.915 111.159C869.165 111.568 869.491 111.86 869.892 112.034C870.294 112.201 870.722 112.284 871.176 112.284C871.441 112.284 871.669 112.269 871.858 112.239C872.047 112.201 872.214 112.163 872.358 112.125L872.79 113.955C872.593 114.03 872.35 114.098 872.062 114.159C871.775 114.227 871.419 114.261 870.994 114.261C870.252 114.261 869.536 114.098 868.847 113.773C868.165 113.447 867.604 112.962 867.165 112.318C866.725 111.674 866.506 110.875 866.506 109.92V92.3636ZM884.009 96.5455V98.3068H875.429V96.5455H884.009ZM878.111 114V93.9886C878.111 93.0492 878.327 92.2576 878.759 91.6136C879.198 90.9697 879.77 90.4811 880.474 90.1477C881.179 89.8144 881.925 89.6477 882.713 89.6477C883.243 89.6477 883.683 89.6932 884.031 89.7841C884.387 89.8674 884.668 89.9508 884.872 90.0341L884.281 91.8068C884.13 91.7614 883.944 91.7083 883.724 91.6477C883.505 91.5871 883.228 91.5568 882.895 91.5568C882.016 91.5568 881.338 91.803 880.861 92.2955C880.384 92.7879 880.145 93.4924 880.145 94.4091L880.134 114H878.111ZM894.111 114.364C892.603 114.364 891.27 113.981 890.111 113.216C888.959 112.451 888.058 111.394 887.406 110.045C886.755 108.689 886.429 107.125 886.429 105.352C886.429 103.564 886.755 101.992 887.406 100.636C888.058 99.2727 888.959 98.2121 890.111 97.4545C891.27 96.6894 892.603 96.3068 894.111 96.3068C895.618 96.3068 896.948 96.6894 898.099 97.4545C899.251 98.2197 900.152 99.2803 900.804 100.636C901.463 101.992 901.793 103.564 901.793 105.352C901.793 107.125 901.467 108.689 900.815 110.045C900.164 111.394 899.259 112.451 898.099 113.216C896.948 113.981 895.618 114.364 894.111 114.364ZM894.111 112.511C895.323 112.511 896.349 112.186 897.19 111.534C898.031 110.883 898.668 110.015 899.099 108.932C899.539 107.848 899.759 106.655 899.759 105.352C899.759 104.049 899.539 102.852 899.099 101.761C898.668 100.67 898.031 99.7955 897.19 99.1364C896.349 98.4773 895.323 98.1477 894.111 98.1477C892.906 98.1477 891.88 98.4773 891.031 99.1364C890.19 99.7955 889.55 100.67 889.111 101.761C888.679 102.852 888.463 104.049 888.463 105.352C888.463 106.655 888.679 107.848 889.111 108.932C889.55 110.015 890.19 110.883 891.031 111.534C891.872 112.186 892.899 112.511 894.111 112.511ZM906.233 114V96.5455H908.199V99.2273H908.347C908.695 98.3485 909.301 97.6402 910.165 97.1023C911.036 96.5568 912.021 96.2841 913.119 96.2841C913.286 96.2841 913.472 96.2879 913.676 96.2955C913.881 96.303 914.051 96.3106 914.188 96.3182V98.375C914.097 98.3598 913.938 98.3371 913.71 98.3068C913.483 98.2765 913.237 98.2614 912.972 98.2614C912.063 98.2614 911.252 98.4545 910.54 98.8409C909.835 99.2197 909.278 99.7462 908.869 100.42C908.46 101.095 908.256 101.864 908.256 102.727V114H906.233ZM917.639 114V96.5455H919.605V99.2273H919.787C920.135 98.3258 920.715 97.6174 921.526 97.1023C922.344 96.5795 923.325 96.3182 924.469 96.3182C925.673 96.3182 926.662 96.6023 927.435 97.1705C928.215 97.7311 928.798 98.5038 929.185 99.4886H929.332C929.726 98.5189 930.366 97.75 931.253 97.1818C932.147 96.6061 933.23 96.3182 934.503 96.3182C936.124 96.3182 937.404 96.8295 938.344 97.8523C939.283 98.8674 939.753 100.352 939.753 102.307V114H937.73V102.307C937.73 100.928 937.378 99.8939 936.673 99.2045C935.969 98.5152 935.041 98.1705 933.889 98.1705C932.556 98.1705 931.529 98.5795 930.81 99.3977C930.09 100.216 929.73 101.254 929.73 102.511V114H927.662V102.125C927.662 100.943 927.332 99.9886 926.673 99.2614C926.014 98.5341 925.086 98.1705 923.889 98.1705C923.086 98.1705 922.363 98.3674 921.719 98.7614C921.082 99.1553 920.579 99.7045 920.207 100.409C919.844 101.106 919.662 101.909 919.662 102.818V114H917.639ZM948.472 110.818L948.267 112.034C948.138 112.852 947.956 113.754 947.722 114.739C947.487 115.723 947.244 116.659 946.994 117.545C946.744 118.432 946.528 119.144 946.347 119.682H944.79C944.888 119.167 945.013 118.511 945.165 117.716C945.324 116.92 945.487 116.038 945.653 115.068C945.82 114.106 945.972 113.114 946.108 112.091L946.267 110.818H948.472ZM962.827 114V96.5455H964.793V99.2273H964.94C965.289 98.3485 965.895 97.6402 966.759 97.1023C967.63 96.5568 968.615 96.2841 969.713 96.2841C969.88 96.2841 970.065 96.2879 970.27 96.2955C970.474 96.303 970.645 96.3106 970.781 96.3182V98.375C970.69 98.3598 970.531 98.3371 970.304 98.3068C970.077 98.2765 969.83 98.2614 969.565 98.2614C968.656 98.2614 967.846 98.4545 967.134 98.8409C966.429 99.2197 965.872 99.7462 965.463 100.42C965.054 101.095 964.849 101.864 964.849 102.727V114H962.827ZM980.759 114.364C979.13 114.364 977.721 113.985 976.531 113.227C975.342 112.462 974.421 111.405 973.77 110.057C973.126 108.701 972.804 107.14 972.804 105.375C972.804 103.617 973.126 102.057 973.77 100.693C974.421 99.322 975.319 98.25 976.463 97.4773C977.615 96.697 978.944 96.3068 980.452 96.3068C981.399 96.3068 982.312 96.4811 983.19 96.8295C984.069 97.1705 984.857 97.697 985.554 98.4091C986.259 99.1136 986.815 100.004 987.224 101.08C987.634 102.148 987.838 103.413 987.838 104.875V105.875H974.202V104.091H985.77C985.77 102.97 985.543 101.962 985.088 101.068C984.641 100.167 984.016 99.4545 983.213 98.9318C982.418 98.4091 981.497 98.1477 980.452 98.1477C979.346 98.1477 978.372 98.4432 977.531 99.0341C976.69 99.625 976.031 100.405 975.554 101.375C975.084 102.345 974.846 103.405 974.838 104.557V105.625C974.838 107.011 975.077 108.223 975.554 109.261C976.039 110.292 976.724 111.091 977.611 111.659C978.497 112.227 979.546 112.511 980.759 112.511C981.584 112.511 982.308 112.383 982.929 112.125C983.558 111.867 984.084 111.523 984.509 111.091C984.94 110.652 985.266 110.17 985.486 109.648L987.406 110.273C987.141 111.008 986.705 111.686 986.099 112.307C985.501 112.928 984.751 113.428 983.849 113.807C982.955 114.178 981.925 114.364 980.759 114.364ZM997.17 114.398C996.117 114.398 995.155 114.193 994.284 113.784C993.413 113.367 992.72 112.769 992.205 111.989C991.689 111.201 991.432 110.246 991.432 109.125C991.432 108.261 991.595 107.534 991.92 106.943C992.246 106.352 992.708 105.867 993.307 105.489C993.905 105.11 994.614 104.811 995.432 104.591C996.25 104.371 997.152 104.201 998.136 104.08C999.114 103.958 999.939 103.852 1000.61 103.761C1001.3 103.67 1001.81 103.527 1002.17 103.33C1002.53 103.133 1002.7 102.814 1002.7 102.375V101.966C1002.7 100.777 1002.35 99.8409 1001.64 99.1591C1000.93 98.4697 999.917 98.125 998.591 98.125C997.333 98.125 996.307 98.4015 995.511 98.9545C994.723 99.5076 994.17 100.159 993.852 100.909L991.932 100.216C992.326 99.2614 992.871 98.5 993.568 97.9318C994.265 97.3561 995.045 96.9432 995.909 96.6932C996.773 96.4356 997.648 96.3068 998.534 96.3068C999.201 96.3068 999.894 96.3939 1000.61 96.5682C1001.34 96.7424 1002.02 97.0455 1002.64 97.4773C1003.26 97.9015 1003.76 98.4962 1004.15 99.2614C1004.53 100.019 1004.73 100.981 1004.73 102.148V114H1002.7V111.239H1002.58C1002.34 111.754 1001.98 112.254 1001.5 112.739C1001.02 113.223 1000.42 113.621 999.705 113.932C998.985 114.242 998.14 114.398 997.17 114.398ZM997.443 112.545C998.519 112.545 999.451 112.307 1000.24 111.83C1001.03 111.352 1001.63 110.72 1002.06 109.932C1002.49 109.136 1002.7 108.261 1002.7 107.307V104.784C1002.55 104.928 1002.3 105.057 1001.94 105.17C1001.59 105.284 1001.19 105.386 1000.73 105.477C1000.27 105.561 999.818 105.633 999.364 105.693C998.909 105.754 998.5 105.807 998.136 105.852C997.152 105.973 996.311 106.163 995.614 106.42C994.917 106.678 994.383 107.034 994.011 107.489C993.64 107.936 993.455 108.511 993.455 109.216C993.455 110.277 993.833 111.098 994.591 111.682C995.348 112.258 996.299 112.545 997.443 112.545ZM1016.93 114.364C1015.37 114.364 1014.01 113.973 1012.85 113.193C1011.7 112.413 1010.8 111.345 1010.16 109.989C1009.53 108.633 1009.21 107.087 1009.21 105.352C1009.21 103.602 1009.53 102.045 1010.18 100.682C1010.83 99.3182 1011.73 98.25 1012.88 97.4773C1014.03 96.697 1015.37 96.3068 1016.89 96.3068C1018.06 96.3068 1019.12 96.5341 1020.06 96.9886C1021.01 97.4356 1021.79 98.0682 1022.4 98.8864C1023.02 99.697 1023.41 100.644 1023.57 101.727H1021.53C1021.32 100.742 1020.8 99.9015 1019.99 99.2045C1019.19 98.5 1018.17 98.1477 1016.93 98.1477C1015.81 98.1477 1014.83 98.4508 1013.97 99.0568C1013.12 99.6553 1012.45 100.492 1011.96 101.568C1011.48 102.636 1011.24 103.875 1011.24 105.284C1011.24 106.701 1011.48 107.955 1011.95 109.045C1012.42 110.129 1013.08 110.977 1013.93 111.591C1014.78 112.205 1015.78 112.511 1016.93 112.511C1017.7 112.511 1018.4 112.367 1019.04 112.08C1019.68 111.784 1020.22 111.367 1020.65 110.83C1021.09 110.292 1021.39 109.652 1021.54 108.909H1023.59C1023.43 109.962 1023.06 110.902 1022.46 111.727C1021.87 112.545 1021.1 113.189 1020.15 113.659C1019.21 114.129 1018.14 114.364 1016.93 114.364ZM1029.94 103.091V114H1027.92V90.7273H1029.94V99.2841H1030.12C1030.53 98.3826 1031.17 97.6629 1032.02 97.125C1032.89 96.5871 1033.98 96.3182 1035.3 96.3182C1036.48 96.3182 1037.52 96.5606 1038.41 97.0455C1039.3 97.5303 1040 98.2462 1040.5 99.1932C1041 100.14 1041.25 101.307 1041.25 102.693V114H1039.22V102.818C1039.22 101.379 1038.81 100.246 1038.01 99.4205C1037.22 98.5871 1036.14 98.1705 1034.78 98.1705C1033.85 98.1705 1033.02 98.3674 1032.3 98.7614C1031.57 99.1553 1030.99 99.7235 1030.57 100.466C1030.15 101.201 1029.94 102.076 1029.94 103.091ZM1062.36 114.364C1060.85 114.364 1059.52 113.981 1058.36 113.216C1057.21 112.451 1056.31 111.394 1055.66 110.045C1055 108.689 1054.68 107.125 1054.68 105.352C1054.68 103.564 1055 101.992 1055.66 100.636C1056.31 99.2727 1057.21 98.2121 1058.36 97.4545C1059.52 96.6894 1060.85 96.3068 1062.36 96.3068C1063.87 96.3068 1065.2 96.6894 1066.35 97.4545C1067.5 98.2197 1068.4 99.2803 1069.05 100.636C1069.71 101.992 1070.04 103.564 1070.04 105.352C1070.04 107.125 1069.72 108.689 1069.07 110.045C1068.41 111.394 1067.51 112.451 1066.35 113.216C1065.2 113.981 1063.87 114.364 1062.36 114.364ZM1062.36 112.511C1063.57 112.511 1064.6 112.186 1065.44 111.534C1066.28 110.883 1066.92 110.015 1067.35 108.932C1067.79 107.848 1068.01 106.655 1068.01 105.352C1068.01 104.049 1067.79 102.852 1067.35 101.761C1066.92 100.67 1066.28 99.7955 1065.44 99.1364C1064.6 98.4773 1063.57 98.1477 1062.36 98.1477C1061.16 98.1477 1060.13 98.4773 1059.28 99.1364C1058.44 99.7955 1057.8 100.67 1057.36 101.761C1056.93 102.852 1056.71 104.049 1056.71 105.352C1056.71 106.655 1056.93 107.848 1057.36 108.932C1057.8 110.015 1058.44 110.883 1059.28 111.534C1060.12 112.186 1061.15 112.511 1062.36 112.511ZM1085.57 107.33V96.5455H1087.6V114H1085.57V111.102H1085.41C1085.01 111.996 1084.36 112.742 1083.47 113.341C1082.59 113.932 1081.5 114.227 1080.22 114.227C1079.11 114.227 1078.12 113.985 1077.26 113.5C1076.39 113.008 1075.71 112.288 1075.22 111.341C1074.73 110.394 1074.48 109.231 1074.48 107.852V96.5455H1076.51V107.727C1076.51 109.091 1076.91 110.189 1077.71 111.023C1078.51 111.848 1079.54 112.261 1080.8 112.261C1081.59 112.261 1082.35 112.072 1083.07 111.693C1083.8 111.314 1084.4 110.761 1084.87 110.034C1085.34 109.299 1085.57 108.398 1085.57 107.33ZM1099.83 96.5455V98.3068H1091.5V96.5455H1099.83ZM1094.1 92.3636H1096.13V109.443C1096.13 110.17 1096.26 110.742 1096.51 111.159C1096.76 111.568 1097.08 111.86 1097.49 112.034C1097.89 112.201 1098.32 112.284 1098.77 112.284C1099.04 112.284 1099.26 112.269 1099.45 112.239C1099.64 112.201 1099.81 112.163 1099.95 112.125L1100.38 113.955C1100.19 114.03 1099.94 114.098 1099.66 114.159C1099.37 114.227 1099.01 114.261 1098.59 114.261C1097.85 114.261 1097.13 114.098 1096.44 113.773C1095.76 113.447 1095.2 112.962 1094.76 112.318C1094.32 111.674 1094.1 110.875 1094.1 109.92V92.3636ZM1120.3 96.5455V98.3068H1111.97V96.5455H1120.3ZM1114.57 92.3636H1116.6V109.443C1116.6 110.17 1116.73 110.742 1116.98 111.159C1117.23 111.568 1117.55 111.86 1117.95 112.034C1118.36 112.201 1118.78 112.284 1119.24 112.284C1119.5 112.284 1119.73 112.269 1119.92 112.239C1120.11 112.201 1120.28 112.163 1120.42 112.125L1120.85 113.955C1120.66 114.03 1120.41 114.098 1120.12 114.159C1119.84 114.227 1119.48 114.261 1119.06 114.261C1118.31 114.261 1117.6 114.098 1116.91 113.773C1116.23 113.447 1115.67 112.962 1115.23 112.318C1114.79 111.674 1114.57 110.875 1114.57 109.92V92.3636ZM1131.49 114.364C1129.98 114.364 1128.64 113.981 1127.49 113.216C1126.33 112.451 1125.43 111.394 1124.78 110.045C1124.13 108.689 1123.8 107.125 1123.8 105.352C1123.8 103.564 1124.13 101.992 1124.78 100.636C1125.43 99.2727 1126.33 98.2121 1127.49 97.4545C1128.64 96.6894 1129.98 96.3068 1131.49 96.3068C1132.99 96.3068 1134.32 96.6894 1135.47 97.4545C1136.63 98.2197 1137.53 99.2803 1138.18 100.636C1138.84 101.992 1139.17 103.564 1139.17 105.352C1139.17 107.125 1138.84 108.689 1138.19 110.045C1137.54 111.394 1136.63 112.451 1135.47 113.216C1134.32 113.981 1132.99 114.364 1131.49 114.364ZM1131.49 112.511C1132.7 112.511 1133.72 112.186 1134.57 111.534C1135.41 110.883 1136.04 110.015 1136.47 108.932C1136.91 107.848 1137.13 106.655 1137.13 105.352C1137.13 104.049 1136.91 102.852 1136.47 101.761C1136.04 100.67 1135.41 99.7955 1134.57 99.1364C1133.72 98.4773 1132.7 98.1477 1131.49 98.1477C1130.28 98.1477 1129.25 98.4773 1128.41 99.1364C1127.57 99.7955 1126.93 100.67 1126.49 101.761C1126.05 102.852 1125.84 104.049 1125.84 105.352C1125.84 106.655 1126.05 107.848 1126.49 108.932C1126.93 110.015 1127.57 110.883 1128.41 111.534C1129.25 112.186 1130.27 112.511 1131.49 112.511ZM1154.45 107.409L1154.43 104.761H1154.88L1163.06 96.5455H1165.62L1157.54 104.636L1157.36 104.67L1154.45 107.409ZM1152.61 114V90.7273H1154.63V114H1152.61ZM1163.48 114L1156.39 105.034L1157.85 103.636L1166.07 114H1163.48ZM1171.44 103.091V114H1169.42V96.5455H1171.39V99.2841H1171.57C1171.98 98.3902 1172.61 97.6742 1173.48 97.1364C1174.35 96.5909 1175.42 96.3182 1176.7 96.3182C1177.88 96.3182 1178.91 96.5644 1179.8 97.0568C1180.69 97.5417 1181.38 98.2576 1181.88 99.2045C1182.38 100.152 1182.62 101.314 1182.62 102.693V114H1180.6V102.818C1180.6 101.386 1180.2 100.254 1179.4 99.4205C1178.6 98.5871 1177.53 98.1705 1176.19 98.1705C1175.28 98.1705 1174.46 98.3674 1173.75 98.7614C1173.04 99.1553 1172.47 99.7235 1172.06 100.466C1171.65 101.201 1171.44 102.076 1171.44 103.091ZM1194.74 114.364C1193.23 114.364 1191.89 113.981 1190.74 113.216C1189.58 112.451 1188.68 111.394 1188.03 110.045C1187.38 108.689 1187.05 107.125 1187.05 105.352C1187.05 103.564 1187.38 101.992 1188.03 100.636C1188.68 99.2727 1189.58 98.2121 1190.74 97.4545C1191.89 96.6894 1193.23 96.3068 1194.74 96.3068C1196.24 96.3068 1197.57 96.6894 1198.72 97.4545C1199.88 98.2197 1200.78 99.2803 1201.43 100.636C1202.09 101.992 1202.42 103.564 1202.42 105.352C1202.42 107.125 1202.09 108.689 1201.44 110.045C1200.79 111.394 1199.88 112.451 1198.72 113.216C1197.57 113.981 1196.24 114.364 1194.74 114.364ZM1194.74 112.511C1195.95 112.511 1196.97 112.186 1197.82 111.534C1198.66 110.883 1199.29 110.015 1199.72 108.932C1200.16 107.848 1200.38 106.655 1200.38 105.352C1200.38 104.049 1200.16 102.852 1199.72 101.761C1199.29 100.67 1198.66 99.7955 1197.82 99.1364C1196.97 98.4773 1195.95 98.1477 1194.74 98.1477C1193.53 98.1477 1192.5 98.4773 1191.66 99.1364C1190.82 99.7955 1190.18 100.67 1189.74 101.761C1189.3 102.852 1189.09 104.049 1189.09 105.352C1189.09 106.655 1189.3 107.848 1189.74 108.932C1190.18 110.015 1190.82 110.883 1191.66 111.534C1192.5 112.186 1193.52 112.511 1194.74 112.511ZM1210.14 114L1204.87 96.5455H1207L1211.14 110.943H1211.29L1215.41 96.5455H1217.56L1221.65 110.909H1221.81L1225.95 96.5455H1228.08L1222.81 114H1220.72L1216.58 99.6932H1216.37L1212.23 114H1210.14ZM1241.01 114V96.5455H1242.98V99.2273H1243.16C1243.51 98.3258 1244.09 97.6174 1244.9 97.1023C1245.72 96.5795 1246.7 96.3182 1247.84 96.3182C1249.05 96.3182 1250.04 96.6023 1250.81 97.1705C1251.59 97.7311 1252.17 98.5038 1252.56 99.4886H1252.71C1253.1 98.5189 1253.74 97.75 1254.63 97.1818C1255.52 96.6061 1256.61 96.3182 1257.88 96.3182C1259.5 96.3182 1260.78 96.8295 1261.72 97.8523C1262.66 98.8674 1263.13 100.352 1263.13 102.307V114H1261.11V102.307C1261.11 100.928 1260.75 99.8939 1260.05 99.2045C1259.34 98.5152 1258.42 98.1705 1257.26 98.1705C1255.93 98.1705 1254.9 98.5795 1254.18 99.3977C1253.46 100.216 1253.11 101.254 1253.11 102.511V114H1251.04V102.125C1251.04 100.943 1250.71 99.9886 1250.05 99.2614C1249.39 98.5341 1248.46 98.1705 1247.26 98.1705C1246.46 98.1705 1245.74 98.3674 1245.09 98.7614C1244.46 99.1553 1243.95 99.7045 1243.58 100.409C1243.22 101.106 1243.04 101.909 1243.04 102.818V114H1241.01ZM1275.27 114.364C1273.76 114.364 1272.43 113.981 1271.27 113.216C1270.12 112.451 1269.21 111.394 1268.56 110.045C1267.91 108.689 1267.59 107.125 1267.59 105.352C1267.59 103.564 1267.91 101.992 1268.56 100.636C1269.21 99.2727 1270.12 98.2121 1271.27 97.4545C1272.43 96.6894 1273.76 96.3068 1275.27 96.3068C1276.77 96.3068 1278.1 96.6894 1279.26 97.4545C1280.41 98.2197 1281.31 99.2803 1281.96 100.636C1282.62 101.992 1282.95 103.564 1282.95 105.352C1282.95 107.125 1282.62 108.689 1281.97 110.045C1281.32 111.394 1280.41 112.451 1279.26 113.216C1278.1 113.981 1276.77 114.364 1275.27 114.364ZM1275.27 112.511C1276.48 112.511 1277.51 112.186 1278.35 111.534C1279.19 110.883 1279.82 110.015 1280.26 108.932C1280.7 107.848 1280.91 106.655 1280.91 105.352C1280.91 104.049 1280.7 102.852 1280.26 101.761C1279.82 100.67 1279.19 99.7955 1278.35 99.1364C1277.51 98.4773 1276.48 98.1477 1275.27 98.1477C1274.06 98.1477 1273.04 98.4773 1272.19 99.1364C1271.35 99.7955 1270.71 100.67 1270.27 101.761C1269.84 102.852 1269.62 104.049 1269.62 105.352C1269.62 106.655 1269.84 107.848 1270.27 108.932C1270.71 110.015 1271.35 110.883 1272.19 111.534C1273.03 112.186 1274.05 112.511 1275.27 112.511ZM1287.39 114V96.5455H1289.36V99.2273H1289.5C1289.85 98.3485 1290.46 97.6402 1291.32 97.1023C1292.19 96.5568 1293.18 96.2841 1294.28 96.2841C1294.44 96.2841 1294.63 96.2879 1294.83 96.2955C1295.04 96.303 1295.21 96.3106 1295.34 96.3182V98.375C1295.25 98.3598 1295.09 98.3371 1294.87 98.3068C1294.64 98.2765 1294.39 98.2614 1294.13 98.2614C1293.22 98.2614 1292.41 98.4545 1291.7 98.8409C1290.99 99.2197 1290.43 99.7462 1290.03 100.42C1289.62 101.095 1289.41 101.864 1289.41 102.727V114H1287.39ZM1305.32 114.364C1303.69 114.364 1302.28 113.985 1301.09 113.227C1299.9 112.462 1298.98 111.405 1298.33 110.057C1297.69 108.701 1297.37 107.14 1297.37 105.375C1297.37 103.617 1297.69 102.057 1298.33 100.693C1298.98 99.322 1299.88 98.25 1301.03 97.4773C1302.18 96.697 1303.51 96.3068 1305.01 96.3068C1305.96 96.3068 1306.87 96.4811 1307.75 96.8295C1308.63 97.1705 1309.42 97.697 1310.12 98.4091C1310.82 99.1136 1311.38 100.004 1311.79 101.08C1312.2 102.148 1312.4 103.413 1312.4 104.875V105.875H1298.76V104.091H1310.33C1310.33 102.97 1310.11 101.962 1309.65 101.068C1309.2 100.167 1308.58 99.4545 1307.78 98.9318C1306.98 98.4091 1306.06 98.1477 1305.01 98.1477C1303.91 98.1477 1302.93 98.4432 1302.09 99.0341C1301.25 99.625 1300.59 100.405 1300.12 101.375C1299.65 102.345 1299.41 103.405 1299.4 104.557V105.625C1299.4 107.011 1299.64 108.223 1300.12 109.261C1300.6 110.292 1301.29 111.091 1302.17 111.659C1303.06 112.227 1304.11 112.511 1305.32 112.511C1306.15 112.511 1306.87 112.383 1307.49 112.125C1308.12 111.867 1308.65 111.523 1309.07 111.091C1309.5 110.652 1309.83 110.17 1310.05 109.648L1311.97 110.273C1311.7 111.008 1311.27 111.686 1310.66 112.307C1310.06 112.928 1309.31 113.428 1308.41 113.807C1307.52 114.178 1306.49 114.364 1305.32 114.364Z" fill="black"/>
</svg>
