<svg width="1920" height="860" viewBox="0 0 1920 860" fill="none" xmlns="http://www.w3.org/2000/svg">
<rect width="1920" height="860" fill="white"/>
<path d="M203.528 134V104.909H209.679V128.929H222.151V134H203.528ZM236.053 134.426C233.809 134.426 231.877 133.972 230.258 133.062C228.648 132.144 227.407 130.847 226.536 129.17C225.665 127.485 225.229 125.491 225.229 123.19C225.229 120.946 225.665 118.976 226.536 117.281C227.407 115.586 228.634 114.265 230.215 113.318C231.806 112.371 233.672 111.898 235.812 111.898C237.251 111.898 238.591 112.13 239.832 112.594C241.082 113.048 242.171 113.735 243.099 114.653C244.036 115.572 244.765 116.727 245.286 118.119C245.807 119.502 246.067 121.121 246.067 122.977V124.639H227.644V120.889H240.371C240.371 120.018 240.182 119.246 239.803 118.574C239.424 117.902 238.899 117.376 238.227 116.997C237.564 116.609 236.792 116.415 235.911 116.415C234.993 116.415 234.178 116.628 233.468 117.054C232.767 117.471 232.218 118.034 231.82 118.744C231.423 119.445 231.219 120.226 231.21 121.088V124.653C231.21 125.733 231.408 126.666 231.806 127.452C232.213 128.238 232.786 128.844 233.525 129.27C234.263 129.696 235.139 129.909 236.153 129.909C236.825 129.909 237.441 129.814 237.999 129.625C238.558 129.436 239.036 129.152 239.434 128.773C239.832 128.394 240.135 127.93 240.343 127.381L245.94 127.75C245.656 129.095 245.073 130.269 244.192 131.273C243.321 132.267 242.194 133.044 240.812 133.602C239.439 134.152 237.853 134.426 236.053 134.426ZM256.238 134.412C254.846 134.412 253.605 134.17 252.516 133.688C251.427 133.195 250.566 132.471 249.931 131.514C249.306 130.548 248.994 129.346 248.994 127.906C248.994 126.694 249.216 125.676 249.661 124.852C250.106 124.028 250.712 123.366 251.479 122.864C252.246 122.362 253.118 121.983 254.093 121.727C255.078 121.472 256.11 121.292 257.19 121.188C258.459 121.055 259.481 120.932 260.258 120.818C261.034 120.695 261.598 120.515 261.948 120.278C262.299 120.042 262.474 119.691 262.474 119.227V119.142C262.474 118.242 262.19 117.546 261.621 117.054C261.063 116.562 260.267 116.315 259.235 116.315C258.146 116.315 257.28 116.557 256.636 117.04C255.992 117.513 255.566 118.11 255.357 118.83L249.761 118.375C250.045 117.049 250.603 115.903 251.437 114.938C252.27 113.962 253.345 113.214 254.661 112.693C255.987 112.163 257.521 111.898 259.263 111.898C260.476 111.898 261.636 112.04 262.744 112.324C263.861 112.608 264.851 113.048 265.712 113.645C266.584 114.241 267.27 115.009 267.772 115.946C268.274 116.874 268.525 117.987 268.525 119.284V134H262.786V130.974H262.616C262.265 131.656 261.797 132.258 261.21 132.778C260.622 133.29 259.917 133.692 259.093 133.986C258.269 134.27 257.317 134.412 256.238 134.412ZM257.971 130.236C258.861 130.236 259.647 130.061 260.329 129.71C261.011 129.35 261.546 128.867 261.934 128.261C262.322 127.655 262.516 126.969 262.516 126.202V123.886C262.327 124.009 262.067 124.123 261.735 124.227C261.413 124.322 261.049 124.412 260.641 124.497C260.234 124.573 259.827 124.644 259.42 124.71C259.013 124.767 258.643 124.819 258.312 124.866C257.602 124.971 256.981 125.136 256.451 125.364C255.921 125.591 255.509 125.899 255.215 126.287C254.922 126.666 254.775 127.139 254.775 127.707C254.775 128.531 255.073 129.161 255.67 129.597C256.276 130.023 257.043 130.236 257.971 130.236ZM273.219 134V112.182H279.086V115.989H279.313C279.711 114.634 280.379 113.612 281.316 112.92C282.254 112.22 283.333 111.869 284.555 111.869C284.858 111.869 285.184 111.888 285.535 111.926C285.885 111.964 286.193 112.016 286.458 112.082V117.452C286.174 117.366 285.781 117.291 285.279 117.224C284.777 117.158 284.318 117.125 283.901 117.125C283.011 117.125 282.216 117.319 281.515 117.707C280.824 118.086 280.274 118.616 279.867 119.298C279.469 119.98 279.271 120.766 279.271 121.656V134H273.219ZM295.638 121.386V134H289.587V112.182H295.354V116.031H295.609C296.092 114.762 296.902 113.759 298.038 113.02C299.175 112.272 300.553 111.898 302.172 111.898C303.687 111.898 305.008 112.229 306.135 112.892C307.262 113.555 308.138 114.502 308.763 115.733C309.388 116.955 309.7 118.413 309.7 120.108V134H303.649V121.188C303.659 119.852 303.318 118.811 302.626 118.062C301.935 117.305 300.983 116.926 299.771 116.926C298.957 116.926 298.237 117.101 297.612 117.452C296.997 117.802 296.514 118.313 296.163 118.986C295.822 119.649 295.647 120.449 295.638 121.386ZM314.469 134V112.182H320.521V134H314.469ZM317.509 109.369C316.61 109.369 315.838 109.071 315.194 108.474C314.559 107.868 314.242 107.144 314.242 106.301C314.242 105.468 314.559 104.753 315.194 104.156C315.838 103.55 316.61 103.247 317.509 103.247C318.409 103.247 319.176 103.55 319.81 104.156C320.454 104.753 320.776 105.468 320.776 106.301C320.776 107.144 320.454 107.868 319.81 108.474C319.176 109.071 318.409 109.369 317.509 109.369ZM331.419 121.386V134H325.368V112.182H331.135V116.031H331.391C331.874 114.762 332.683 113.759 333.82 113.02C334.956 112.272 336.334 111.898 337.953 111.898C339.468 111.898 340.789 112.229 341.916 112.892C343.043 113.555 343.919 114.502 344.544 115.733C345.169 116.955 345.482 118.413 345.482 120.108V134H339.43V121.188C339.44 119.852 339.099 118.811 338.408 118.062C337.716 117.305 336.765 116.926 335.553 116.926C334.738 116.926 334.018 117.101 333.393 117.452C332.778 117.802 332.295 118.313 331.945 118.986C331.604 119.649 331.429 120.449 331.419 121.386ZM360.08 142.636C358.12 142.636 356.439 142.366 355.038 141.827C353.646 141.296 352.538 140.572 351.714 139.653C350.89 138.735 350.355 137.703 350.109 136.557L355.705 135.804C355.876 136.24 356.146 136.647 356.515 137.026C356.884 137.404 357.372 137.707 357.978 137.935C358.594 138.171 359.342 138.29 360.222 138.29C361.539 138.29 362.623 137.968 363.475 137.324C364.337 136.689 364.768 135.624 364.768 134.128V130.136H364.512C364.247 130.742 363.849 131.315 363.319 131.855C362.789 132.395 362.107 132.835 361.273 133.176C360.44 133.517 359.446 133.688 358.29 133.688C356.652 133.688 355.161 133.309 353.816 132.551C352.481 131.784 351.415 130.615 350.62 129.043C349.834 127.461 349.441 125.463 349.441 123.048C349.441 120.577 349.844 118.512 350.648 116.855C351.453 115.198 352.523 113.957 353.859 113.134C355.203 112.31 356.676 111.898 358.276 111.898C359.498 111.898 360.521 112.106 361.344 112.523C362.168 112.93 362.831 113.441 363.333 114.057C363.844 114.663 364.237 115.259 364.512 115.847H364.739V112.182H370.748V134.213C370.748 136.069 370.293 137.622 369.384 138.872C368.475 140.122 367.216 141.06 365.606 141.685C364.005 142.319 362.164 142.636 360.08 142.636ZM360.208 129.142C361.183 129.142 362.007 128.901 362.68 128.418C363.362 127.925 363.882 127.224 364.242 126.315C364.612 125.397 364.796 124.298 364.796 123.02C364.796 121.741 364.616 120.634 364.256 119.696C363.897 118.749 363.376 118.015 362.694 117.494C362.012 116.973 361.183 116.713 360.208 116.713C359.214 116.713 358.376 116.983 357.694 117.523C357.012 118.053 356.496 118.792 356.146 119.739C355.795 120.686 355.62 121.779 355.62 123.02C355.62 124.279 355.795 125.368 356.146 126.287C356.505 127.196 357.022 127.902 357.694 128.403C358.376 128.896 359.214 129.142 360.208 129.142ZM393.717 118.403L388.177 118.744C388.082 118.271 387.879 117.845 387.566 117.466C387.254 117.078 386.842 116.77 386.33 116.543C385.828 116.306 385.227 116.188 384.526 116.188C383.589 116.188 382.798 116.386 382.154 116.784C381.51 117.172 381.188 117.693 381.188 118.347C381.188 118.867 381.397 119.308 381.813 119.668C382.23 120.027 382.945 120.316 383.958 120.534L387.907 121.33C390.028 121.765 391.61 122.466 392.651 123.432C393.693 124.398 394.214 125.667 394.214 127.239C394.214 128.669 393.792 129.923 392.95 131.003C392.116 132.082 390.97 132.925 389.512 133.531C388.063 134.128 386.392 134.426 384.498 134.426C381.61 134.426 379.308 133.825 377.594 132.622C375.89 131.41 374.891 129.762 374.597 127.679L380.549 127.366C380.729 128.247 381.165 128.92 381.856 129.384C382.547 129.838 383.433 130.065 384.512 130.065C385.573 130.065 386.425 129.862 387.069 129.455C387.722 129.038 388.054 128.503 388.063 127.849C388.054 127.3 387.822 126.85 387.367 126.5C386.913 126.14 386.212 125.866 385.265 125.676L381.487 124.923C379.356 124.497 377.77 123.759 376.728 122.707C375.696 121.656 375.18 120.316 375.18 118.688C375.18 117.286 375.558 116.079 376.316 115.065C377.083 114.052 378.158 113.271 379.54 112.722C380.933 112.172 382.561 111.898 384.427 111.898C387.183 111.898 389.351 112.48 390.933 113.645C392.523 114.81 393.451 116.396 393.717 118.403ZM413.504 134.412C412.112 134.412 410.871 134.17 409.782 133.688C408.693 133.195 407.831 132.471 407.197 131.514C406.572 130.548 406.259 129.346 406.259 127.906C406.259 126.694 406.482 125.676 406.927 124.852C407.372 124.028 407.978 123.366 408.745 122.864C409.512 122.362 410.383 121.983 411.359 121.727C412.344 121.472 413.376 121.292 414.455 121.188C415.724 121.055 416.747 120.932 417.523 120.818C418.3 120.695 418.863 120.515 419.214 120.278C419.564 120.042 419.739 119.691 419.739 119.227V119.142C419.739 118.242 419.455 117.546 418.887 117.054C418.328 116.562 417.533 116.315 416.501 116.315C415.412 116.315 414.545 116.557 413.901 117.04C413.257 117.513 412.831 118.11 412.623 118.83L407.026 118.375C407.31 117.049 407.869 115.903 408.702 114.938C409.536 113.962 410.611 113.214 411.927 112.693C413.253 112.163 414.787 111.898 416.529 111.898C417.741 111.898 418.901 112.04 420.009 112.324C421.127 112.608 422.116 113.048 422.978 113.645C423.849 114.241 424.536 115.009 425.038 115.946C425.54 116.874 425.79 117.987 425.79 119.284V134H420.052V130.974H419.881C419.531 131.656 419.062 132.258 418.475 132.778C417.888 133.29 417.183 133.692 416.359 133.986C415.535 134.27 414.583 134.412 413.504 134.412ZM415.237 130.236C416.127 130.236 416.913 130.061 417.594 129.71C418.276 129.35 418.811 128.867 419.2 128.261C419.588 127.655 419.782 126.969 419.782 126.202V123.886C419.593 124.009 419.332 124.123 419.001 124.227C418.679 124.322 418.314 124.412 417.907 124.497C417.5 124.573 417.093 124.644 416.685 124.71C416.278 124.767 415.909 124.819 415.577 124.866C414.867 124.971 414.247 125.136 413.717 125.364C413.186 125.591 412.774 125.899 412.481 126.287C412.187 126.666 412.04 127.139 412.04 127.707C412.04 128.531 412.339 129.161 412.935 129.597C413.541 130.023 414.308 130.236 415.237 130.236ZM436.536 121.386V134H430.485V112.182H436.252V116.031H436.508C436.991 114.762 437.8 113.759 438.937 113.02C440.073 112.272 441.451 111.898 443.07 111.898C444.585 111.898 445.906 112.229 447.033 112.892C448.16 113.555 449.036 114.502 449.661 115.733C450.286 116.955 450.599 118.413 450.599 120.108V134H444.548V121.188C444.557 119.852 444.216 118.811 443.525 118.062C442.834 117.305 441.882 116.926 440.67 116.926C439.855 116.926 439.136 117.101 438.511 117.452C437.895 117.802 437.412 118.313 437.062 118.986C436.721 119.649 436.546 120.449 436.536 121.386ZM463.408 134.355C461.75 134.355 460.25 133.929 458.905 133.077C457.57 132.215 456.509 130.951 455.723 129.284C454.946 127.608 454.558 125.553 454.558 123.119C454.558 120.619 454.961 118.541 455.766 116.884C456.571 115.217 457.641 113.972 458.976 113.148C460.321 112.314 461.793 111.898 463.393 111.898C464.615 111.898 465.633 112.106 466.447 112.523C467.271 112.93 467.934 113.441 468.436 114.057C468.947 114.663 469.336 115.259 469.601 115.847H469.786V104.909H475.822V134H469.857V130.506H469.601C469.317 131.112 468.914 131.713 468.393 132.31C467.882 132.897 467.214 133.384 466.391 133.773C465.576 134.161 464.582 134.355 463.408 134.355ZM465.325 129.54C466.301 129.54 467.125 129.275 467.797 128.744C468.479 128.205 469 127.452 469.359 126.486C469.729 125.52 469.913 124.388 469.913 123.091C469.913 121.794 469.733 120.667 469.374 119.71C469.014 118.754 468.493 118.015 467.811 117.494C467.129 116.973 466.301 116.713 465.325 116.713C464.331 116.713 463.493 116.983 462.811 117.523C462.129 118.062 461.613 118.811 461.263 119.767C460.912 120.723 460.737 121.831 460.737 123.091C460.737 124.36 460.912 125.482 461.263 126.457C461.623 127.423 462.139 128.181 462.811 128.73C463.493 129.27 464.331 129.54 465.325 129.54ZM516.902 119.455C516.902 122.627 516.301 125.326 515.098 127.551C513.905 129.777 512.276 131.476 510.212 132.651C508.157 133.815 505.846 134.398 503.28 134.398C500.695 134.398 498.375 133.811 496.32 132.636C494.265 131.462 492.641 129.762 491.447 127.537C490.254 125.312 489.658 122.617 489.658 119.455C489.658 116.282 490.254 113.583 491.447 111.358C492.641 109.133 494.265 107.437 496.32 106.273C498.375 105.098 500.695 104.511 503.28 104.511C505.846 104.511 508.157 105.098 510.212 106.273C512.276 107.437 513.905 109.133 515.098 111.358C516.301 113.583 516.902 116.282 516.902 119.455ZM510.666 119.455C510.666 117.4 510.358 115.667 509.743 114.256C509.137 112.845 508.28 111.775 507.172 111.045C506.064 110.316 504.767 109.952 503.28 109.952C501.793 109.952 500.496 110.316 499.388 111.045C498.28 111.775 497.418 112.845 496.803 114.256C496.196 115.667 495.893 117.4 495.893 119.455C495.893 121.509 496.196 123.242 496.803 124.653C497.418 126.064 498.28 127.134 499.388 127.864C500.496 128.593 501.793 128.957 503.28 128.957C504.767 128.957 506.064 128.593 507.172 127.864C508.28 127.134 509.137 126.064 509.743 124.653C510.358 123.242 510.666 121.509 510.666 119.455ZM521.458 134V104.909H527.509V115.847H527.694C527.959 115.259 528.343 114.663 528.844 114.057C529.356 113.441 530.019 112.93 530.833 112.523C531.657 112.106 532.68 111.898 533.901 111.898C535.492 111.898 536.96 112.314 538.305 113.148C539.649 113.972 540.724 115.217 541.529 116.884C542.334 118.541 542.737 120.619 542.737 123.119C542.737 125.553 542.344 127.608 541.558 129.284C540.781 130.951 539.72 132.215 538.376 133.077C537.04 133.929 535.544 134.355 533.887 134.355C532.713 134.355 531.714 134.161 530.89 133.773C530.076 133.384 529.408 132.897 528.887 132.31C528.366 131.713 527.969 131.112 527.694 130.506H527.424V134H521.458ZM527.381 123.091C527.381 124.388 527.561 125.52 527.921 126.486C528.281 127.452 528.802 128.205 529.484 128.744C530.165 129.275 530.994 129.54 531.969 129.54C532.954 129.54 533.788 129.27 534.469 128.73C535.151 128.181 535.667 127.423 536.018 126.457C536.378 125.482 536.558 124.36 536.558 123.091C536.558 121.831 536.382 120.723 536.032 119.767C535.682 118.811 535.165 118.062 534.484 117.523C533.802 116.983 532.964 116.713 531.969 116.713C530.985 116.713 530.151 116.973 529.469 117.494C528.797 118.015 528.281 118.754 527.921 119.71C527.561 120.667 527.381 121.794 527.381 123.091ZM564.928 118.403L559.388 118.744C559.293 118.271 559.089 117.845 558.777 117.466C558.464 117.078 558.053 116.77 557.541 116.543C557.039 116.306 556.438 116.188 555.737 116.188C554.8 116.188 554.009 116.386 553.365 116.784C552.721 117.172 552.399 117.693 552.399 118.347C552.399 118.867 552.607 119.308 553.024 119.668C553.441 120.027 554.156 120.316 555.169 120.534L559.118 121.33C561.239 121.765 562.821 122.466 563.862 123.432C564.904 124.398 565.425 125.667 565.425 127.239C565.425 128.669 565.003 129.923 564.161 131.003C563.327 132.082 562.181 132.925 560.723 133.531C559.274 134.128 557.603 134.426 555.709 134.426C552.821 134.426 550.519 133.825 548.805 132.622C547.101 131.41 546.102 129.762 545.808 127.679L551.76 127.366C551.94 128.247 552.375 128.92 553.067 129.384C553.758 129.838 554.643 130.065 555.723 130.065C556.784 130.065 557.636 129.862 558.28 129.455C558.933 129.038 559.265 128.503 559.274 127.849C559.265 127.3 559.033 126.85 558.578 126.5C558.124 126.14 557.423 125.866 556.476 125.676L552.697 124.923C550.567 124.497 548.981 123.759 547.939 122.707C546.907 121.656 546.391 120.316 546.391 118.688C546.391 117.286 546.769 116.079 547.527 115.065C548.294 114.052 549.369 113.271 550.751 112.722C552.143 112.172 553.772 111.898 555.638 111.898C558.393 111.898 560.562 112.48 562.143 113.645C563.734 114.81 564.662 116.396 564.928 118.403ZM579.178 134.426C576.934 134.426 575.002 133.972 573.383 133.062C571.773 132.144 570.532 130.847 569.661 129.17C568.79 127.485 568.354 125.491 568.354 123.19C568.354 120.946 568.79 118.976 569.661 117.281C570.532 115.586 571.759 114.265 573.34 113.318C574.931 112.371 576.797 111.898 578.937 111.898C580.376 111.898 581.716 112.13 582.957 112.594C584.207 113.048 585.296 113.735 586.224 114.653C587.161 115.572 587.89 116.727 588.411 118.119C588.932 119.502 589.192 121.121 589.192 122.977V124.639H570.769V120.889H583.496C583.496 120.018 583.307 119.246 582.928 118.574C582.549 117.902 582.024 117.376 581.352 116.997C580.689 116.609 579.917 116.415 579.036 116.415C578.118 116.415 577.303 116.628 576.593 117.054C575.892 117.471 575.343 118.034 574.945 118.744C574.548 119.445 574.344 120.226 574.335 121.088V124.653C574.335 125.733 574.533 126.666 574.931 127.452C575.338 128.238 575.911 128.844 576.65 129.27C577.388 129.696 578.264 129.909 579.278 129.909C579.95 129.909 580.566 129.814 581.124 129.625C581.683 129.436 582.161 129.152 582.559 128.773C582.957 128.394 583.26 127.93 583.468 127.381L589.065 127.75C588.781 129.095 588.198 130.269 587.317 131.273C586.446 132.267 585.319 133.044 583.937 133.602C582.564 134.152 580.978 134.426 579.178 134.426ZM593.141 134V112.182H599.008V115.989H599.235C599.633 114.634 600.3 113.612 601.238 112.92C602.175 112.22 603.255 111.869 604.477 111.869C604.78 111.869 605.106 111.888 605.457 111.926C605.807 111.964 606.115 112.016 606.38 112.082V117.452C606.096 117.366 605.703 117.291 605.201 117.224C604.699 117.158 604.24 117.125 603.823 117.125C602.933 117.125 602.138 117.319 601.437 117.707C600.746 118.086 600.196 118.616 599.789 119.298C599.391 119.98 599.192 120.766 599.192 121.656V134H593.141ZM630.513 112.182L622.886 134H616.067L608.44 112.182H614.832L619.363 127.793H619.59L624.107 112.182H630.513ZM639.246 134.412C637.854 134.412 636.613 134.17 635.524 133.688C634.435 133.195 633.573 132.471 632.939 131.514C632.314 130.548 632.001 129.346 632.001 127.906C632.001 126.694 632.224 125.676 632.669 124.852C633.114 124.028 633.72 123.366 634.487 122.864C635.254 122.362 636.125 121.983 637.101 121.727C638.086 121.472 639.118 121.292 640.197 121.188C641.466 121.055 642.489 120.932 643.266 120.818C644.042 120.695 644.606 120.515 644.956 120.278C645.306 120.042 645.482 119.691 645.482 119.227V119.142C645.482 118.242 645.197 117.546 644.629 117.054C644.071 116.562 643.275 116.315 642.243 116.315C641.154 116.315 640.287 116.557 639.643 117.04C639 117.513 638.573 118.11 638.365 118.83L632.768 118.375C633.053 117.049 633.611 115.903 634.445 114.938C635.278 113.962 636.353 113.214 637.669 112.693C638.995 112.163 640.529 111.898 642.271 111.898C643.483 111.898 644.643 112.04 645.751 112.324C646.869 112.608 647.858 113.048 648.72 113.645C649.591 114.241 650.278 115.009 650.78 115.946C651.282 116.874 651.533 117.987 651.533 119.284V134H645.794V130.974H645.624C645.273 131.656 644.804 132.258 644.217 132.778C643.63 133.29 642.925 133.692 642.101 133.986C641.277 134.27 640.325 134.412 639.246 134.412ZM640.979 130.236C641.869 130.236 642.655 130.061 643.337 129.71C644.018 129.35 644.554 128.867 644.942 128.261C645.33 127.655 645.524 126.969 645.524 126.202V123.886C645.335 124.009 645.074 124.123 644.743 124.227C644.421 124.322 644.056 124.412 643.649 124.497C643.242 124.573 642.835 124.644 642.428 124.71C642.02 124.767 641.651 124.819 641.32 124.866C640.609 124.971 639.989 125.136 639.459 125.364C638.929 125.591 638.517 125.899 638.223 126.287C637.929 126.666 637.783 127.139 637.783 127.707C637.783 128.531 638.081 129.161 638.678 129.597C639.284 130.023 640.051 130.236 640.979 130.236ZM667.832 112.182V116.727H654.693V112.182H667.832ZM657.676 106.955H663.727V127.295C663.727 127.854 663.813 128.29 663.983 128.602C664.153 128.905 664.39 129.118 664.693 129.241C665.006 129.365 665.366 129.426 665.773 129.426C666.057 129.426 666.341 129.402 666.625 129.355C666.909 129.298 667.127 129.256 667.278 129.227L668.23 133.73C667.927 133.825 667.501 133.934 666.952 134.057C666.402 134.189 665.735 134.27 664.949 134.298C663.491 134.355 662.212 134.161 661.114 133.716C660.025 133.271 659.177 132.58 658.571 131.642C657.965 130.705 657.667 129.521 657.676 128.091V106.955ZM671.774 134V112.182H677.825V134H671.774ZM674.814 109.369C673.914 109.369 673.143 109.071 672.499 108.474C671.864 107.868 671.547 107.144 671.547 106.301C671.547 105.468 671.864 104.753 672.499 104.156C673.143 103.55 673.914 103.247 674.814 103.247C675.714 103.247 676.481 103.55 677.115 104.156C677.759 104.753 678.081 105.468 678.081 106.301C678.081 107.144 677.759 107.868 677.115 108.474C676.481 109.071 675.714 109.369 674.814 109.369ZM692.531 134.426C690.324 134.426 688.416 133.957 686.806 133.02C685.206 132.073 683.97 130.757 683.099 129.071C682.228 127.376 681.792 125.411 681.792 123.176C681.792 120.922 682.228 118.953 683.099 117.267C683.97 115.572 685.206 114.256 686.806 113.318C688.416 112.371 690.324 111.898 692.531 111.898C694.737 111.898 696.64 112.371 698.241 113.318C699.851 114.256 701.091 115.572 701.962 117.267C702.834 118.953 703.269 120.922 703.269 123.176C703.269 125.411 702.834 127.376 701.962 129.071C701.091 130.757 699.851 132.073 698.241 133.02C696.64 133.957 694.737 134.426 692.531 134.426ZM692.559 129.739C693.563 129.739 694.401 129.455 695.073 128.886C695.746 128.309 696.252 127.523 696.593 126.528C696.943 125.534 697.119 124.402 697.119 123.134C697.119 121.865 696.943 120.733 696.593 119.739C696.252 118.744 695.746 117.958 695.073 117.381C694.401 116.803 693.563 116.514 692.559 116.514C691.546 116.514 690.693 116.803 690.002 117.381C689.32 117.958 688.804 118.744 688.454 119.739C688.113 120.733 687.942 121.865 687.942 123.134C687.942 124.402 688.113 125.534 688.454 126.528C688.804 127.523 689.32 128.309 690.002 128.886C690.693 129.455 691.546 129.739 692.559 129.739ZM713.255 121.386V134H707.204V112.182H712.971V116.031H713.227C713.71 114.762 714.519 113.759 715.656 113.02C716.792 112.272 718.17 111.898 719.789 111.898C721.304 111.898 722.625 112.229 723.752 112.892C724.879 113.555 725.755 114.502 726.38 115.733C727.005 116.955 727.317 118.413 727.317 120.108V134H721.266V121.188C721.276 119.852 720.935 118.811 720.244 118.062C719.552 117.305 718.601 116.926 717.388 116.926C716.574 116.926 715.854 117.101 715.229 117.452C714.614 117.802 714.131 118.313 713.781 118.986C713.44 119.649 713.264 120.449 713.255 121.386Z" fill="#008DD0"/>
<path d="M134.5 123.271C138.81 123.271 142.943 121.558 145.99 118.511C149.038 115.464 150.75 111.33 150.75 107.021C150.75 102.711 149.038 98.5775 145.99 95.53C142.943 92.4826 138.81 90.7705 134.5 90.7705C130.19 90.7705 126.057 92.4826 123.01 95.53C119.962 98.5775 118.25 102.711 118.25 107.021C118.25 111.33 119.962 115.464 123.01 118.511C126.057 121.558 130.19 123.271 134.5 123.271Z" stroke="#008DD0" stroke-width="4" stroke-linecap="round" stroke-linejoin="round"/>
<path d="M145.336 142.229C147.47 142.229 149.583 141.808 151.555 140.992C153.526 140.175 155.317 138.978 156.826 137.469C158.335 135.96 159.532 134.169 160.349 132.197C161.166 130.226 161.586 128.112 161.586 125.979C161.586 123.845 161.166 121.731 160.349 119.76C159.532 117.788 158.335 115.997 156.826 114.488C155.317 112.979 153.526 111.782 151.555 110.965C149.583 110.149 147.47 109.729 145.336 109.729C141.026 109.729 136.893 111.441 133.845 114.488C130.798 117.535 129.086 121.669 129.086 125.979C129.086 130.288 130.798 134.422 133.845 137.469C136.893 140.516 141.026 142.229 145.336 142.229Z" stroke="#008DD0" stroke-width="4" stroke-linecap="round" stroke-linejoin="round"/>
<path d="M123.668 142.229C125.802 142.229 127.915 141.808 129.887 140.992C131.858 140.175 133.65 138.978 135.158 137.469C136.667 135.96 137.864 134.169 138.681 132.197C139.498 130.226 139.918 128.112 139.918 125.979C139.918 123.845 139.498 121.731 138.681 119.76C137.864 117.788 136.667 115.997 135.158 114.488C133.65 112.979 131.858 111.782 129.887 110.965C127.915 110.149 125.802 109.729 123.668 109.729C119.358 109.729 115.225 111.441 112.177 114.488C109.13 117.535 107.418 121.669 107.418 125.979C107.418 130.288 109.13 134.422 112.177 137.469C115.225 140.516 119.358 142.229 123.668 142.229Z" stroke="#008DD0" stroke-width="4" stroke-linecap="round" stroke-linejoin="round"/>
<rect x="93" y="77" width="82" height="82" rx="13" stroke="#008DD0" stroke-width="4"/>
</svg>
