<svg width="1927" height="775" viewBox="0 0 1927 775" fill="none" xmlns="http://www.w3.org/2000/svg">
<rect width="1927" height="775" fill="#FFFED3"/>
<path d="M0 123C0 79.3695 35.3695 44 79 44H1848C1891.63 44 1927 79.3695 1927 123V775H0V123Z" fill="#CF413F"/>
<circle cx="123.5" cy="18.5" r="8.5" fill="#CF413F"/>
<circle cx="472.5" cy="18.5" r="8.5" fill="#CF413F"/>
<circle cx="821.5" cy="18.5" r="8.5" fill="#CF413F"/>
<circle cx="1171.5" cy="18.5" r="8.5" fill="#CF413F"/>
<circle cx="1521.5" cy="18.5" r="8.5" fill="#CF413F"/>
<circle cx="298.5" cy="18.5" r="8.5" fill="#CF413F"/>
<circle cx="647.5" cy="18.5" r="8.5" fill="#CF413F"/>
<circle cx="996.5" cy="18.5" r="8.5" fill="#CF413F"/>
<circle cx="1346.5" cy="18.5" r="8.5" fill="#CF413F"/>
<circle cx="1696.5" cy="18.5" r="8.5" fill="#CF413F"/>
<circle cx="148.5" cy="18.5" r="8.5" fill="#CF413F"/>
<circle cx="497.5" cy="18.5" r="8.5" fill="#CF413F"/>
<circle cx="846.5" cy="18.5" r="8.5" fill="#CF413F"/>
<circle cx="1196.5" cy="18.5" r="8.5" fill="#CF413F"/>
<circle cx="1546.5" cy="18.5" r="8.5" fill="#CF413F"/>
<circle cx="323.5" cy="18.5" r="8.5" fill="#CF413F"/>
<circle cx="672.5" cy="18.5" r="8.5" fill="#CF413F"/>
<circle cx="1021.5" cy="18.5" r="8.5" fill="#CF413F"/>
<circle cx="1371.5" cy="18.5" r="8.5" fill="#CF413F"/>
<circle cx="1721.5" cy="18.5" r="8.5" fill="#CF413F"/>
<circle cx="173.5" cy="18.5" r="8.5" fill="#CF413F"/>
<circle cx="522.5" cy="18.5" r="8.5" fill="#CF413F"/>
<circle cx="871.5" cy="18.5" r="8.5" fill="#CF413F"/>
<circle cx="1221.5" cy="18.5" r="8.5" fill="#CF413F"/>
<circle cx="1571.5" cy="18.5" r="8.5" fill="#CF413F"/>
<circle cx="348.5" cy="18.5" r="8.5" fill="#CF413F"/>
<circle cx="697.5" cy="18.5" r="8.5" fill="#CF413F"/>
<circle cx="1046.5" cy="18.5" r="8.5" fill="#CF413F"/>
<circle cx="1396.5" cy="18.5" r="8.5" fill="#CF413F"/>
<circle cx="1746.5" cy="18.5" r="8.5" fill="#CF413F"/>
<circle cx="198.5" cy="18.5" r="8.5" fill="#CF413F"/>
<circle cx="547.5" cy="18.5" r="8.5" fill="#CF413F"/>
<circle cx="896.5" cy="18.5" r="8.5" fill="#CF413F"/>
<circle cx="1246.5" cy="18.5" r="8.5" fill="#CF413F"/>
<circle cx="1596.5" cy="18.5" r="8.5" fill="#CF413F"/>
<circle cx="373.5" cy="18.5" r="8.5" fill="#CF413F"/>
<circle cx="722.5" cy="18.5" r="8.5" fill="#CF413F"/>
<circle cx="1071.5" cy="18.5" r="8.5" fill="#CF413F"/>
<circle cx="1421.5" cy="18.5" r="8.5" fill="#CF413F"/>
<circle cx="1771.5" cy="18.5" r="8.5" fill="#CF413F"/>
<circle cx="223.5" cy="18.5" r="8.5" fill="#CF413F"/>
<circle cx="572.5" cy="18.5" r="8.5" fill="#CF413F"/>
<circle cx="921.5" cy="18.5" r="8.5" fill="#CF413F"/>
<circle cx="1271.5" cy="18.5" r="8.5" fill="#CF413F"/>
<circle cx="1621.5" cy="18.5" r="8.5" fill="#CF413F"/>
<circle cx="398.5" cy="18.5" r="8.5" fill="#CF413F"/>
<circle cx="747.5" cy="18.5" r="8.5" fill="#CF413F"/>
<circle cx="1096.5" cy="18.5" r="8.5" fill="#CF413F"/>
<circle cx="1446.5" cy="18.5" r="8.5" fill="#CF413F"/>
<circle cx="1796.5" cy="18.5" r="8.5" fill="#CF413F"/>
<circle cx="248.5" cy="18.5" r="8.5" fill="#CF413F"/>
<circle cx="597.5" cy="18.5" r="8.5" fill="#CF413F"/>
<circle cx="946.5" cy="18.5" r="8.5" fill="#CF413F"/>
<circle cx="1296.5" cy="18.5" r="8.5" fill="#CF413F"/>
<circle cx="1646.5" cy="18.5" r="8.5" fill="#CF413F"/>
<circle cx="423.5" cy="18.5" r="8.5" fill="#CF413F"/>
<circle cx="772.5" cy="18.5" r="8.5" fill="#CF413F"/>
<circle cx="1121.5" cy="18.5" r="8.5" fill="#CF413F"/>
<circle cx="1471.5" cy="18.5" r="8.5" fill="#CF413F"/>
<circle cx="1821.5" cy="18.5" r="8.5" fill="#CF413F"/>
<circle cx="1844.5" cy="18.5" r="8.5" fill="#CF413F"/>
<circle cx="1869.42" cy="19.4172" r="8.5" transform="rotate(6.57403 1869.42 19.4172)" fill="#CF413F"/>
<circle cx="1892.42" cy="24.4172" r="8.5" transform="rotate(6.57403 1892.42 24.4172)" fill="#CF413F"/>
<circle cx="1911.42" cy="36.4172" r="8.5" transform="rotate(6.57403 1911.42 36.4172)" fill="#CF413F"/>
<circle cx="273.5" cy="18.5" r="8.5" fill="#CF413F"/>
<circle cx="622.5" cy="18.5" r="8.5" fill="#CF413F"/>
<circle cx="971.5" cy="18.5" r="8.5" fill="#CF413F"/>
<circle cx="1321.5" cy="18.5" r="8.5" fill="#CF413F"/>
<circle cx="1671.5" cy="18.5" r="8.5" fill="#CF413F"/>
<circle cx="98.5" cy="18.5" r="8.5" fill="#CF413F"/>
<circle cx="74.5" cy="18.5" r="8.5" fill="#CF413F"/>
<circle cx="50.5" cy="22.5" r="8.5" fill="#CF413F"/>
<circle cx="28.5" cy="31.5" r="8.5" fill="#CF413F"/>
<circle cx="8.5" cy="47.5" r="8.5" fill="#CF413F"/>
<circle cx="447.5" cy="18.5" r="8.5" fill="#CF413F"/>
<circle cx="796.5" cy="18.5" r="8.5" fill="#CF413F"/>
<circle cx="1146.5" cy="18.5" r="8.5" fill="#CF413F"/>
<circle cx="1496.5" cy="18.5" r="8.5" fill="#CF413F"/>
</svg>
