<svg width="1920" height="71" viewBox="0 0 1920 71" fill="none" xmlns="http://www.w3.org/2000/svg">
<g clip-path="url(#clip0_825_1812)">
<rect width="1920" height="71" fill="white"/>
<rect x="-21" y="43" width="1963" height="10" rx="5" fill="#CF413F"/>
<rect x="-21" y="61" width="1963" height="10" rx="5" fill="#CF413F"/>
<circle cx="5.5" cy="28.5" r="8.5" fill="#CF413F"/>
<circle cx="355.5" cy="28.5" r="8.5" fill="#CF413F"/>
<circle cx="705.5" cy="29.5" r="8.5" fill="#CF413F"/>
<circle cx="1054.5" cy="29.5" r="8.5" fill="#CF413F"/>
<circle cx="1404.5" cy="29.5" r="8.5" fill="#CF413F"/>
<circle cx="180.5" cy="28.5" r="8.5" fill="#CF413F"/>
<circle cx="530.5" cy="28.5" r="8.5" fill="#CF413F"/>
<circle cx="880.5" cy="29.5" r="8.5" fill="#CF413F"/>
<circle cx="1229.5" cy="29.5" r="8.5" fill="#CF413F"/>
<circle cx="1579.5" cy="29.5" r="8.5" fill="#CF413F"/>
<circle cx="30.5" cy="28.5" r="8.5" fill="#CF413F"/>
<circle cx="380.5" cy="28.5" r="8.5" fill="#CF413F"/>
<circle cx="730.5" cy="29.5" r="8.5" fill="#CF413F"/>
<circle cx="1079.5" cy="29.5" r="8.5" fill="#CF413F"/>
<circle cx="1429.5" cy="29.5" r="8.5" fill="#CF413F"/>
<circle cx="205.5" cy="28.5" r="8.5" fill="#CF413F"/>
<circle cx="555.5" cy="28.5" r="8.5" fill="#CF413F"/>
<circle cx="905.5" cy="29.5" r="8.5" fill="#CF413F"/>
<circle cx="1254.5" cy="29.5" r="8.5" fill="#CF413F"/>
<circle cx="1604.5" cy="29.5" r="8.5" fill="#CF413F"/>
<circle cx="55.5" cy="28.5" r="8.5" fill="#CF413F"/>
<circle cx="405.5" cy="28.5" r="8.5" fill="#CF413F"/>
<circle cx="755.5" cy="29.5" r="8.5" fill="#CF413F"/>
<circle cx="1104.5" cy="29.5" r="8.5" fill="#CF413F"/>
<circle cx="1454.5" cy="29.5" r="8.5" fill="#CF413F"/>
<circle cx="230.5" cy="28.5" r="8.5" fill="#CF413F"/>
<circle cx="580.5" cy="28.5" r="8.5" fill="#CF413F"/>
<circle cx="930.5" cy="29.5" r="8.5" fill="#CF413F"/>
<circle cx="1279.5" cy="29.5" r="8.5" fill="#CF413F"/>
<circle cx="1629.5" cy="29.5" r="8.5" fill="#CF413F"/>
<circle cx="80.5" cy="28.5" r="8.5" fill="#CF413F"/>
<circle cx="430.5" cy="28.5" r="8.5" fill="#CF413F"/>
<circle cx="780.5" cy="29.5" r="8.5" fill="#CF413F"/>
<circle cx="1129.5" cy="29.5" r="8.5" fill="#CF413F"/>
<circle cx="1479.5" cy="29.5" r="8.5" fill="#CF413F"/>
<circle cx="255.5" cy="28.5" r="8.5" fill="#CF413F"/>
<circle cx="605.5" cy="28.5" r="8.5" fill="#CF413F"/>
<circle cx="955.5" cy="29.5" r="8.5" fill="#CF413F"/>
<circle cx="1304.5" cy="29.5" r="8.5" fill="#CF413F"/>
<circle cx="1654.5" cy="29.5" r="8.5" fill="#CF413F"/>
<circle cx="105.5" cy="28.5" r="8.5" fill="#CF413F"/>
<circle cx="455.5" cy="28.5" r="8.5" fill="#CF413F"/>
<circle cx="805.5" cy="29.5" r="8.5" fill="#CF413F"/>
<circle cx="1154.5" cy="29.5" r="8.5" fill="#CF413F"/>
<circle cx="1504.5" cy="29.5" r="8.5" fill="#CF413F"/>
<circle cx="280.5" cy="28.5" r="8.5" fill="#CF413F"/>
<circle cx="630.5" cy="28.5" r="8.5" fill="#CF413F"/>
<circle cx="980.5" cy="29.5" r="8.5" fill="#CF413F"/>
<circle cx="1329.5" cy="29.5" r="8.5" fill="#CF413F"/>
<circle cx="1679.5" cy="29.5" r="8.5" fill="#CF413F"/>
<circle cx="130.5" cy="28.5" r="8.5" fill="#CF413F"/>
<circle cx="480.5" cy="28.5" r="8.5" fill="#CF413F"/>
<circle cx="830.5" cy="29.5" r="8.5" fill="#CF413F"/>
<circle cx="1179.5" cy="29.5" r="8.5" fill="#CF413F"/>
<circle cx="1529.5" cy="29.5" r="8.5" fill="#CF413F"/>
<circle cx="305.5" cy="28.5" r="8.5" fill="#CF413F"/>
<circle cx="655.5" cy="28.5" r="8.5" fill="#CF413F"/>
<circle cx="1005.5" cy="29.5" r="8.5" fill="#CF413F"/>
<circle cx="1354.5" cy="29.5" r="8.5" fill="#CF413F"/>
<circle cx="1704.5" cy="29.5" r="8.5" fill="#CF413F"/>
<circle cx="155.5" cy="28.5" r="8.5" fill="#CF413F"/>
<circle cx="505.5" cy="28.5" r="8.5" fill="#CF413F"/>
<circle cx="855.5" cy="29.5" r="8.5" fill="#CF413F"/>
<circle cx="1204.5" cy="29.5" r="8.5" fill="#CF413F"/>
<circle cx="1554.5" cy="29.5" r="8.5" fill="#CF413F"/>
<circle cx="330.5" cy="28.5" r="8.5" fill="#CF413F"/>
<circle cx="680.5" cy="28.5" r="8.5" fill="#CF413F"/>
<circle cx="1030.5" cy="29.5" r="8.5" fill="#CF413F"/>
<circle cx="1379.5" cy="29.5" r="8.5" fill="#CF413F"/>
<circle cx="1729.5" cy="29.5" r="8.5" fill="#CF413F"/>
<circle cx="1754.5" cy="29.5" r="8.5" fill="#CF413F"/>
<circle cx="1779.5" cy="29.5" r="8.5" fill="#CF413F"/>
<circle cx="1804.5" cy="29.5" r="8.5" fill="#CF413F"/>
<circle cx="1829.5" cy="29.5" r="8.5" fill="#CF413F"/>
<circle cx="1854.5" cy="29.5" r="8.5" fill="#CF413F"/>
<circle cx="1879.5" cy="29.5" r="8.5" fill="#CF413F"/>
<circle cx="1904.5" cy="29.5" r="8.5" fill="#CF413F"/>
</g>
<defs>
<clipPath id="clip0_825_1812">
<rect width="1920" height="71" fill="white"/>
</clipPath>
</defs>
</svg>
