<svg width="1920" height="300" viewBox="0 0 1920 300" fill="none" xmlns="http://www.w3.org/2000/svg">
<rect width="1920" height="300" fill="#FFFED3"/>
<path d="M725.516 161L744.524 129.32H750.86L755.132 161H750.14L749.036 152.408H736.124L731.132 161H725.516ZM738.572 148.232H748.604L746.78 134.12L738.572 148.232ZM759.806 161L765.374 137H769.886L768.878 143.048L768.398 142.712C769.07 140.664 770.254 139.128 771.95 138.104C773.646 137.048 775.518 136.52 777.566 136.52C779.358 136.52 780.878 136.92 782.126 137.72C783.374 138.488 784.254 139.608 784.766 141.08C785.278 142.52 785.294 144.28 784.814 146.36L781.406 161H776.27L779.63 146.6C780.046 144.776 779.87 143.352 779.102 142.328C778.334 141.272 777.118 140.744 775.454 140.744C774.174 140.744 773.022 141.032 771.998 141.608C771.006 142.184 770.174 143.032 769.502 144.152C768.83 145.24 768.286 146.616 767.87 148.28L764.942 161H759.806ZM798.86 161.384C797.1 161.384 795.532 160.968 794.156 160.136C792.78 159.272 791.708 158.072 790.94 156.536C790.172 155 789.788 153.192 789.788 151.112C789.788 149.16 790.076 147.304 790.652 145.544C791.26 143.784 792.092 142.232 793.148 140.888C794.236 139.512 795.516 138.44 796.988 137.672C798.492 136.904 800.124 136.52 801.884 136.52C803.196 136.52 804.38 136.744 805.436 137.192C806.524 137.64 807.436 138.296 808.172 139.16C808.908 140.024 809.404 141.08 809.66 142.328L813.356 126.2H818.492L810.476 161H805.916L806.732 156.536C805.932 158.008 804.828 159.192 803.42 160.088C802.044 160.952 800.524 161.384 798.86 161.384ZM800.588 157.304C801.644 157.304 802.636 157.032 803.564 156.488C804.492 155.944 805.292 155.192 805.964 154.232C806.636 153.272 807.164 152.168 807.548 150.92C807.964 149.64 808.172 148.312 808.172 146.936C808.172 145.656 807.932 144.552 807.452 143.624C807.004 142.664 806.364 141.928 805.532 141.416C804.732 140.904 803.772 140.648 802.652 140.648C801.468 140.648 800.396 140.92 799.436 141.464C798.508 142.008 797.692 142.76 796.988 143.72C796.316 144.648 795.788 145.736 795.404 146.984C795.02 148.2 794.828 149.48 794.828 150.824C794.828 152.2 795.052 153.368 795.5 154.328C795.948 155.288 796.604 156.024 797.468 156.536C798.332 157.048 799.372 157.304 800.588 157.304ZM843.349 161.384C841.685 161.384 840.261 161.08 839.077 160.472C837.925 159.832 837.109 158.904 836.629 157.688C836.149 156.472 836.101 155 836.485 153.272L841.429 131.768L846.949 130.232L841.525 153.32C841.205 154.728 841.397 155.752 842.101 156.392C842.805 157 843.717 157.304 844.837 157.304C845.605 157.304 846.261 157.208 846.805 157.016C847.381 156.824 847.893 156.568 848.341 156.248L848.725 160.04C847.893 160.552 847.029 160.904 846.133 161.096C845.269 161.288 844.341 161.384 843.349 161.384ZM834.565 141.032L835.477 137H852.517L851.605 141.032H834.565ZM852.806 161L860.87 126.2H866.006L862.358 141.992L861.59 142.568C862.006 141.288 862.662 140.2 863.558 139.304C864.454 138.408 865.494 137.72 866.678 137.24C867.894 136.76 869.206 136.52 870.614 136.52C872.342 136.52 873.83 136.92 875.078 137.72C876.326 138.488 877.206 139.592 877.718 141.032C878.262 142.472 878.31 144.216 877.862 146.264L874.406 161H869.27L872.63 146.6C873.046 144.776 872.87 143.352 872.102 142.328C871.334 141.272 870.118 140.744 868.454 140.744C867.174 140.744 866.022 141.032 864.998 141.608C864.006 142.184 863.174 143.032 862.502 144.152C861.83 145.24 861.286 146.616 860.87 148.28L857.942 161H852.806ZM893.828 161.432C891.556 161.432 889.604 160.968 887.972 160.04C886.34 159.08 885.076 157.784 884.18 156.152C883.284 154.52 882.836 152.68 882.836 150.632C882.836 148.072 883.348 145.736 884.372 143.624C885.396 141.48 886.884 139.768 888.836 138.488C890.788 137.208 893.14 136.568 895.892 136.568C897.94 136.568 899.7 136.984 901.172 137.816C902.644 138.648 903.764 139.816 904.532 141.32C905.3 142.792 905.684 144.52 905.684 146.504C905.684 147.144 905.636 147.8 905.54 148.472C905.476 149.144 905.332 149.816 905.108 150.488H885.764V146.552H902.324L900.452 147.896C900.58 147.512 900.66 147.144 900.692 146.792C900.724 146.408 900.74 146.056 900.74 145.736C900.74 144.68 900.532 143.768 900.116 143C899.732 142.232 899.156 141.64 898.388 141.224C897.62 140.808 896.708 140.6 895.652 140.6C894.212 140.6 892.98 140.904 891.956 141.512C890.964 142.088 890.164 142.888 889.556 143.912C888.948 144.904 888.516 146.008 888.26 147.224C888.004 148.44 887.876 149.64 887.876 150.824C887.876 152.168 888.132 153.336 888.644 154.328C889.188 155.288 889.924 156.04 890.852 156.584C891.812 157.128 892.932 157.4 894.212 157.4C895.716 157.4 896.932 157.08 897.86 156.44C898.82 155.8 899.588 154.984 900.164 153.992L904.292 156.2C903.652 157.288 902.804 158.232 901.748 159.032C900.724 159.8 899.54 160.392 898.196 160.808C896.884 161.224 895.428 161.432 893.828 161.432ZM940.844 161.48C938.316 161.48 936.012 160.968 933.932 159.944C931.852 158.888 930.204 157.352 928.988 155.336C927.772 153.288 927.164 150.792 927.164 147.848C927.164 145.384 927.516 143.032 928.22 140.792C928.924 138.52 929.98 136.488 931.388 134.696C932.796 132.904 934.524 131.48 936.572 130.424C938.652 129.368 941.036 128.84 943.724 128.84C945.836 128.84 947.708 129.192 949.34 129.896C951.004 130.568 952.396 131.592 953.516 132.968C954.636 134.344 955.452 136.072 955.964 138.152L950.732 139.64C950.316 137.4 949.5 135.784 948.284 134.792C947.068 133.8 945.436 133.304 943.388 133.304C941.596 133.304 940.012 133.736 938.636 134.6C937.292 135.432 936.156 136.536 935.228 137.912C934.332 139.256 933.644 140.776 933.164 142.472C932.716 144.136 932.492 145.816 932.492 147.512C932.492 149.496 932.86 151.192 933.596 152.6C934.364 154.008 935.404 155.096 936.716 155.864C938.028 156.632 939.516 157.016 941.18 157.016C943.132 157.016 944.668 156.584 945.788 155.72C946.94 154.856 947.9 153.688 948.668 152.216L953.468 154.328C952.156 156.504 950.492 158.248 948.476 159.56C946.46 160.84 943.916 161.48 940.844 161.48ZM969.157 161.432C966.885 161.432 964.933 160.968 963.301 160.04C961.669 159.08 960.405 157.784 959.509 156.152C958.613 154.52 958.165 152.68 958.165 150.632C958.165 148.072 958.677 145.736 959.701 143.624C960.725 141.48 962.213 139.768 964.165 138.488C966.117 137.208 968.469 136.568 971.221 136.568C973.269 136.568 975.029 136.984 976.501 137.816C977.973 138.648 979.093 139.816 979.861 141.32C980.629 142.792 981.013 144.52 981.013 146.504C981.013 147.144 980.965 147.8 980.869 148.472C980.805 149.144 980.661 149.816 980.437 150.488H961.093V146.552H977.653L975.781 147.896C975.909 147.512 975.989 147.144 976.021 146.792C976.053 146.408 976.069 146.056 976.069 145.736C976.069 144.68 975.861 143.768 975.445 143C975.061 142.232 974.485 141.64 973.717 141.224C972.949 140.808 972.037 140.6 970.981 140.6C969.541 140.6 968.309 140.904 967.285 141.512C966.293 142.088 965.493 142.888 964.885 143.912C964.277 144.904 963.845 146.008 963.589 147.224C963.333 148.44 963.205 149.64 963.205 150.824C963.205 152.168 963.461 153.336 963.973 154.328C964.517 155.288 965.253 156.04 966.181 156.584C967.141 157.128 968.261 157.4 969.541 157.4C971.045 157.4 972.261 157.08 973.189 156.44C974.149 155.8 974.917 154.984 975.493 153.992L979.621 156.2C978.981 157.288 978.133 158.232 977.077 159.032C976.053 159.8 974.869 160.392 973.525 160.808C972.213 161.224 970.757 161.432 969.157 161.432ZM991.678 161.384C989.278 161.384 987.598 160.68 986.638 159.272C985.678 157.864 985.47 156.008 986.014 153.704L992.398 126.2H997.534L991.15 153.752C990.83 155 990.91 155.912 991.39 156.488C991.87 157.032 992.702 157.304 993.886 157.304C994.334 157.304 994.718 157.288 995.038 157.256C995.39 157.224 995.694 157.176 995.95 157.112L994.846 160.856C994.334 161.048 993.838 161.176 993.358 161.24C992.91 161.336 992.35 161.384 991.678 161.384ZM1011.3 161.432C1009.03 161.432 1007.07 160.968 1005.44 160.04C1003.81 159.08 1002.55 157.784 1001.65 156.152C1000.75 154.52 1000.31 152.68 1000.31 150.632C1000.31 148.072 1000.82 145.736 1001.84 143.624C1002.87 141.48 1004.35 139.768 1006.31 138.488C1008.26 137.208 1010.61 136.568 1013.36 136.568C1015.41 136.568 1017.17 136.984 1018.64 137.816C1020.11 138.648 1021.23 139.816 1022 141.32C1022.77 142.792 1023.15 144.52 1023.15 146.504C1023.15 147.144 1023.11 147.8 1023.01 148.472C1022.95 149.144 1022.8 149.816 1022.58 150.488H1003.23V146.552H1019.79L1017.92 147.896C1018.05 147.512 1018.13 147.144 1018.16 146.792C1018.19 146.408 1018.21 146.056 1018.21 145.736C1018.21 144.68 1018 143.768 1017.59 143C1017.2 142.232 1016.63 141.64 1015.86 141.224C1015.09 140.808 1014.18 140.6 1013.12 140.6C1011.68 140.6 1010.45 140.904 1009.43 141.512C1008.43 142.088 1007.63 142.888 1007.03 143.912C1006.42 144.904 1005.99 146.008 1005.73 147.224C1005.47 148.44 1005.35 149.64 1005.35 150.824C1005.35 152.168 1005.6 153.336 1006.11 154.328C1006.66 155.288 1007.39 156.04 1008.32 156.584C1009.28 157.128 1010.4 157.4 1011.68 157.4C1013.19 157.4 1014.4 157.08 1015.33 156.44C1016.29 155.8 1017.06 154.984 1017.63 153.992L1021.76 156.2C1021.12 157.288 1020.27 158.232 1019.22 159.032C1018.19 159.8 1017.01 160.392 1015.67 160.808C1014.35 161.224 1012.9 161.432 1011.3 161.432ZM1044.14 136.616C1045.8 136.616 1047.29 137.016 1048.6 137.816C1049.95 138.616 1050.99 139.784 1051.72 141.32C1052.49 142.856 1052.87 144.728 1052.87 146.936C1052.87 148.92 1052.57 150.792 1051.96 152.552C1051.35 154.28 1050.51 155.816 1049.42 157.16C1048.36 158.504 1047.1 159.56 1045.63 160.328C1044.19 161.096 1042.6 161.48 1040.87 161.48C1039.5 161.48 1038.25 161.24 1037.13 160.76C1036.01 160.28 1035.1 159.608 1034.39 158.744C1033.69 157.848 1033.21 156.84 1032.95 155.72L1031.66 161H1026.62L1034.68 126.2H1039.82L1036.41 140.84C1037.18 139.592 1038.23 138.584 1039.58 137.816C1040.95 137.016 1042.47 136.616 1044.14 136.616ZM1040.15 157.352C1041.21 157.352 1042.2 157.096 1043.13 156.584C1044.06 156.04 1044.87 155.304 1045.58 154.376C1046.28 153.448 1046.83 152.36 1047.21 151.112C1047.59 149.864 1047.79 148.536 1047.79 147.128C1047.79 145.688 1047.55 144.504 1047.07 143.576C1046.59 142.616 1045.91 141.896 1045.05 141.416C1044.22 140.936 1043.26 140.696 1042.17 140.696C1041.02 140.696 1039.96 140.968 1039 141.512C1038.07 142.056 1037.26 142.808 1036.55 143.768C1035.88 144.696 1035.37 145.8 1035.02 147.08C1034.67 148.36 1034.49 149.72 1034.49 151.16C1034.49 153.016 1034.97 154.52 1035.93 155.672C1036.89 156.792 1038.3 157.352 1040.15 157.352ZM1056.24 161L1061.81 137H1066.13L1065.36 143.48L1064.84 143C1065.35 141.656 1066.04 140.504 1066.9 139.544C1067.8 138.584 1068.82 137.848 1069.97 137.336C1071.12 136.792 1072.32 136.52 1073.57 136.52C1074.08 136.52 1074.53 136.552 1074.92 136.616C1075.33 136.68 1075.68 136.792 1075.97 136.952L1074.58 141.56C1074.26 141.4 1073.89 141.288 1073.48 141.224C1073.09 141.128 1072.6 141.08 1071.99 141.08C1070.84 141.08 1069.75 141.352 1068.72 141.896C1067.7 142.408 1066.8 143.208 1066.04 144.296C1065.27 145.384 1064.68 146.808 1064.26 148.568L1061.38 161H1056.24ZM1085.13 161.384C1083.37 161.384 1081.8 160.968 1080.42 160.136C1079.05 159.272 1077.97 158.072 1077.21 156.536C1076.44 155 1076.05 153.192 1076.05 151.112C1076.05 149.16 1076.34 147.304 1076.92 145.544C1077.53 143.784 1078.36 142.232 1079.41 140.888C1080.5 139.512 1081.78 138.44 1083.25 137.672C1084.76 136.904 1086.39 136.52 1088.15 136.52C1089.46 136.52 1090.65 136.744 1091.7 137.192C1092.79 137.64 1093.7 138.296 1094.44 139.16C1095.17 140.024 1095.67 141.08 1095.93 142.328L1097.17 137H1102.31L1096.74 161H1092.18L1093 156.536C1092.2 158.008 1091.09 159.192 1089.69 160.088C1088.31 160.952 1086.79 161.384 1085.13 161.384ZM1086.9 157.304C1087.93 157.304 1088.89 157.032 1089.78 156.488C1090.71 155.944 1091.51 155.192 1092.18 154.232C1092.89 153.272 1093.43 152.168 1093.81 150.92C1094.23 149.64 1094.44 148.312 1094.44 146.936C1094.44 145.656 1094.2 144.552 1093.72 143.624C1093.27 142.664 1092.63 141.928 1091.8 141.416C1091 140.904 1090.04 140.648 1088.92 140.648C1087.73 140.648 1086.66 140.92 1085.7 141.464C1084.77 142.008 1083.96 142.76 1083.25 143.72C1082.58 144.648 1082.05 145.736 1081.67 146.984C1081.29 148.2 1081.09 149.48 1081.09 150.824C1081.09 152.2 1081.32 153.368 1081.77 154.328C1082.21 155.288 1082.87 156.024 1083.73 156.536C1084.6 157.048 1085.65 157.304 1086.9 157.304ZM1114.99 161.384C1113.33 161.384 1111.9 161.08 1110.72 160.472C1109.57 159.832 1108.75 158.904 1108.27 157.688C1107.79 156.472 1107.74 155 1108.13 153.272L1113.07 131.768L1118.59 130.232L1113.17 153.32C1112.85 154.728 1113.04 155.752 1113.74 156.392C1114.45 157 1115.36 157.304 1116.48 157.304C1117.25 157.304 1117.9 157.208 1118.45 157.016C1119.02 156.824 1119.53 156.568 1119.98 156.248L1120.37 160.04C1119.53 160.552 1118.67 160.904 1117.77 161.096C1116.91 161.288 1115.98 161.384 1114.99 161.384ZM1106.21 141.032L1107.12 137H1124.16L1123.25 141.032H1106.21ZM1133.76 132.968C1132.8 132.968 1132.04 132.712 1131.46 132.2C1130.88 131.688 1130.63 130.984 1130.69 130.088C1130.72 128.968 1131.08 128.104 1131.75 127.496C1132.42 126.888 1133.27 126.584 1134.29 126.584C1135.28 126.584 1136.05 126.84 1136.6 127.352C1137.17 127.832 1137.44 128.504 1137.41 129.368C1137.35 130.552 1136.98 131.448 1136.31 132.056C1135.64 132.664 1134.79 132.968 1133.76 132.968ZM1134.96 137L1129.4 161H1124.26L1129.83 137H1134.96ZM1149.54 161.432C1147.17 161.432 1145.15 160.952 1143.49 159.992C1141.86 159.032 1140.59 157.736 1139.7 156.104C1138.8 154.44 1138.35 152.616 1138.35 150.632C1138.35 147.912 1138.88 145.496 1139.94 143.384C1141.02 141.272 1142.51 139.608 1144.4 138.392C1146.32 137.176 1148.58 136.568 1151.17 136.568C1153.54 136.568 1155.54 137.048 1157.17 138.008C1158.83 138.968 1160.1 140.264 1160.96 141.896C1161.82 143.528 1162.26 145.352 1162.26 147.368C1162.26 150.024 1161.73 152.424 1160.67 154.568C1159.65 156.68 1158.18 158.36 1156.26 159.608C1154.34 160.824 1152.1 161.432 1149.54 161.432ZM1149.63 157.4C1150.69 157.4 1151.66 157.144 1152.56 156.632C1153.49 156.12 1154.29 155.4 1154.96 154.472C1155.66 153.544 1156.19 152.472 1156.54 151.256C1156.93 150.008 1157.12 148.68 1157.12 147.272C1157.12 145.992 1156.9 144.856 1156.45 143.864C1156.03 142.872 1155.36 142.088 1154.43 141.512C1153.54 140.904 1152.4 140.6 1151.02 140.6C1149.97 140.6 1148.98 140.856 1148.05 141.368C1147.12 141.88 1146.32 142.6 1145.65 143.528C1144.98 144.424 1144.45 145.496 1144.06 146.744C1143.68 147.96 1143.49 149.288 1143.49 150.728C1143.49 151.944 1143.71 153.064 1144.16 154.088C1144.61 155.112 1145.28 155.928 1146.18 156.536C1147.1 157.112 1148.26 157.4 1149.63 157.4ZM1165.65 161L1171.22 137H1175.73L1174.72 143.048L1174.24 142.712C1174.91 140.664 1176.1 139.128 1177.79 138.104C1179.49 137.048 1181.36 136.52 1183.41 136.52C1185.2 136.52 1186.72 136.92 1187.97 137.72C1189.22 138.488 1190.1 139.608 1190.61 141.08C1191.12 142.52 1191.14 144.28 1190.66 146.36L1187.25 161H1182.11L1185.47 146.6C1185.89 144.776 1185.71 143.352 1184.95 142.328C1184.18 141.272 1182.96 140.744 1181.3 140.744C1180.02 140.744 1178.87 141.032 1177.84 141.608C1176.85 142.184 1176.02 143.032 1175.35 144.152C1174.67 145.24 1174.13 146.616 1173.71 148.28L1170.79 161H1165.65ZM848.281 212.584H865.561L864.505 217H842.089L849.433 185.32H854.617L848.281 212.584ZM879.232 188.968C878.272 188.968 877.504 188.712 876.928 188.2C876.352 187.688 876.096 186.984 876.16 186.088C876.192 184.968 876.544 184.104 877.216 183.496C877.888 182.888 878.736 182.584 879.76 182.584C880.752 182.584 881.52 182.84 882.064 183.352C882.64 183.832 882.912 184.504 882.88 185.368C882.816 186.552 882.448 187.448 881.776 188.056C881.104 188.664 880.256 188.968 879.232 188.968ZM880.432 193L874.864 217H869.728L875.296 193H880.432ZM902.877 193H908.589L893.853 217H888.237L884.397 193H889.485L892.125 214.408L890.973 214.216L902.877 193ZM920.125 217.432C917.853 217.432 915.901 216.968 914.269 216.04C912.637 215.08 911.373 213.784 910.477 212.152C909.581 210.52 909.133 208.68 909.133 206.632C909.133 204.072 909.645 201.736 910.669 199.624C911.693 197.48 913.181 195.768 915.133 194.488C917.085 193.208 919.437 192.568 922.189 192.568C924.237 192.568 925.997 192.984 927.469 193.816C928.941 194.648 930.061 195.816 930.829 197.32C931.597 198.792 931.981 200.52 931.981 202.504C931.981 203.144 931.933 203.8 931.837 204.472C931.773 205.144 931.629 205.816 931.405 206.488H912.061V202.552H928.621L926.749 203.896C926.877 203.512 926.957 203.144 926.989 202.792C927.021 202.408 927.037 202.056 927.037 201.736C927.037 200.68 926.829 199.768 926.413 199C926.029 198.232 925.453 197.64 924.685 197.224C923.917 196.808 923.005 196.6 921.949 196.6C920.509 196.6 919.277 196.904 918.253 197.512C917.261 198.088 916.461 198.888 915.853 199.912C915.245 200.904 914.813 202.008 914.557 203.224C914.301 204.44 914.173 205.64 914.173 206.824C914.173 208.168 914.429 209.336 914.941 210.328C915.485 211.288 916.221 212.04 917.149 212.584C918.109 213.128 919.229 213.4 920.509 213.4C922.013 213.4 923.229 213.08 924.157 212.44C925.117 211.8 925.885 210.984 926.461 209.992L930.589 212.2C929.949 213.288 929.101 214.232 928.045 215.032C927.021 215.8 925.837 216.392 924.493 216.808C923.181 217.224 921.725 217.432 920.125 217.432ZM946.535 217.528C944.711 217.528 943.031 217.256 941.495 216.712C939.991 216.168 938.679 215.384 937.559 214.36C936.439 213.336 935.559 212.136 934.919 210.76L938.807 208.408C939.479 210.04 940.455 211.304 941.735 212.2C943.047 213.064 944.615 213.496 946.439 213.496C947.911 213.496 949.047 213.208 949.847 212.632C950.647 212.056 951.047 211.288 951.047 210.328C951.047 209.624 950.823 209.064 950.375 208.648C949.927 208.2 949.239 207.848 948.311 207.592L944.471 206.44C942.359 205.864 940.791 205.016 939.767 203.896C938.775 202.744 938.279 201.416 938.279 199.912C938.279 198.472 938.663 197.208 939.431 196.12C940.199 195 941.303 194.12 942.743 193.48C944.183 192.84 945.879 192.52 947.831 192.52C950.167 192.52 952.231 193 954.023 193.96C955.815 194.92 957.127 196.312 957.959 198.136L954.263 200.632C953.911 199.8 953.415 199.08 952.775 198.472C952.135 197.864 951.383 197.384 950.519 197.032C949.687 196.68 948.759 196.504 947.735 196.504C946.167 196.504 944.999 196.776 944.231 197.32C943.463 197.832 943.079 198.536 943.079 199.432C943.079 200.232 943.383 200.84 943.991 201.256C944.599 201.672 945.319 202.008 946.151 202.264L950.807 203.656C952.471 204.136 953.767 204.904 954.695 205.96C955.623 206.984 956.087 208.2 956.087 209.608C956.087 211.24 955.687 212.648 954.887 213.832C954.087 215.016 952.967 215.928 951.527 216.568C950.087 217.208 948.423 217.528 946.535 217.528ZM991.7 217.48C989.236 217.48 986.98 216.952 984.932 215.896C982.884 214.808 981.252 213.224 980.036 211.144C978.82 209.032 978.212 206.504 978.212 203.56C978.212 201.032 978.58 198.648 979.316 196.408C980.052 194.168 981.108 192.184 982.484 190.456C983.86 188.728 985.572 187.368 987.62 186.376C989.7 185.352 992.068 184.84 994.724 184.84C997.188 184.84 999.412 185.384 1001.4 186.472C1003.41 187.56 1005.01 189.144 1006.2 191.224C1007.41 193.272 1008.02 195.784 1008.02 198.76C1008.02 201.256 1007.67 203.64 1006.96 205.912C1006.26 208.152 1005.2 210.136 1003.8 211.864C1002.42 213.592 1000.71 214.968 998.66 215.992C996.644 216.984 994.324 217.48 991.7 217.48ZM992.084 212.968C993.844 212.968 995.38 212.568 996.692 211.768C998.036 210.936 999.156 209.848 1000.05 208.504C1000.95 207.128 1001.62 205.592 1002.07 203.896C1002.52 202.2 1002.74 200.488 1002.74 198.76C1002.74 196.776 1002.39 195.08 1001.68 193.672C1000.98 192.264 999.988 191.192 998.708 190.456C997.46 189.72 995.988 189.352 994.292 189.352C992.532 189.352 990.98 189.768 989.636 190.6C988.292 191.4 987.156 192.488 986.228 193.864C985.332 195.208 984.66 196.728 984.212 198.424C983.764 200.088 983.54 201.8 983.54 203.56C983.54 205.544 983.892 207.24 984.596 208.648C985.3 210.056 986.292 211.128 987.572 211.864C988.852 212.6 990.356 212.968 992.084 212.968ZM1010.87 217L1016.44 193H1020.95L1019.94 199.048L1019.46 198.712C1020.13 196.664 1021.32 195.128 1023.01 194.104C1024.71 193.048 1026.58 192.52 1028.63 192.52C1030.42 192.52 1031.94 192.92 1033.19 193.72C1034.44 194.488 1035.32 195.608 1035.83 197.08C1036.34 198.52 1036.36 200.28 1035.88 202.36L1032.47 217H1027.33L1030.69 202.6C1031.11 200.776 1030.93 199.352 1030.16 198.328C1029.4 197.272 1028.18 196.744 1026.52 196.744C1025.24 196.744 1024.08 197.032 1023.06 197.608C1022.07 198.184 1021.24 199.032 1020.56 200.152C1019.89 201.24 1019.35 202.616 1018.93 204.28L1016 217H1010.87ZM1071.37 217.432C1070.41 217.432 1069.63 217.176 1069.02 216.664C1068.41 216.12 1068.11 215.384 1068.11 214.456C1068.11 213.24 1068.46 212.28 1069.17 211.576C1069.9 210.872 1070.81 210.52 1071.9 210.52C1072.86 210.52 1073.65 210.792 1074.25 211.336C1074.86 211.848 1075.17 212.568 1075.17 213.496C1075.17 214.712 1074.81 215.672 1074.11 216.376C1073.41 217.08 1072.49 217.432 1071.37 217.432ZM1057.36 217.432C1056.4 217.432 1055.61 217.176 1055.01 216.664C1054.4 216.12 1054.09 215.384 1054.09 214.456C1054.09 213.24 1054.45 212.28 1055.15 211.576C1055.89 210.872 1056.8 210.52 1057.89 210.52C1058.85 210.52 1059.63 210.792 1060.24 211.336C1060.85 211.848 1061.15 212.568 1061.15 213.496C1061.15 214.712 1060.8 215.672 1060.09 216.376C1059.39 217.08 1058.48 217.432 1057.36 217.432ZM1043.39 217.432C1042.43 217.432 1041.65 217.176 1041.04 216.664C1040.43 216.12 1040.13 215.384 1040.13 214.456C1040.13 213.24 1040.48 212.28 1041.18 211.576C1041.92 210.872 1042.83 210.52 1043.92 210.52C1044.88 210.52 1045.66 210.792 1046.27 211.336C1046.88 211.848 1047.18 212.568 1047.18 213.496C1047.18 214.712 1046.83 215.672 1046.13 216.376C1045.42 217.08 1044.51 217.432 1043.39 217.432Z" fill="#C93A2B"/>
</svg>
