<svg width="1920" height="293" viewBox="0 0 1920 293" fill="none" xmlns="http://www.w3.org/2000/svg">
<rect width="1920" height="293" fill="white"/>
<path d="M206.295 87L204.519 55.32H209.511L210.423 82.104L222.903 55.32H228.471L229.191 82.296L242.199 55.32H247.815L231.351 87H225.207L224.535 67.992L224.631 60.6H224.583L221.367 67.992L212.295 87H206.295ZM244.392 87L249.96 63H254.28L253.512 69.48L252.984 69C253.496 67.656 254.184 66.504 255.048 65.544C255.944 64.584 256.968 63.848 258.12 63.336C259.272 62.792 260.472 62.52 261.72 62.52C262.232 62.52 262.68 62.552 263.064 62.616C263.48 62.68 263.832 62.792 264.12 62.952L262.728 67.56C262.408 67.4 262.04 67.288 261.624 67.224C261.24 67.128 260.744 67.08 260.136 67.08C258.984 67.08 257.896 67.352 256.872 67.896C255.848 68.408 254.952 69.208 254.184 70.296C253.416 71.384 252.824 72.808 252.408 74.568L249.528 87H244.392ZM273.274 87.384C271.514 87.384 269.946 86.968 268.57 86.136C267.194 85.272 266.122 84.072 265.354 82.536C264.586 81 264.202 79.192 264.202 77.112C264.202 75.16 264.49 73.304 265.066 71.544C265.674 69.784 266.506 68.232 267.562 66.888C268.65 65.512 269.93 64.44 271.402 63.672C272.906 62.904 274.538 62.52 276.298 62.52C277.61 62.52 278.794 62.744 279.85 63.192C280.938 63.64 281.85 64.296 282.586 65.16C283.322 66.024 283.818 67.08 284.074 68.328L285.322 63H290.458L284.89 87H280.33L281.146 82.536C280.346 84.008 279.242 85.192 277.834 86.088C276.458 86.952 274.938 87.384 273.274 87.384ZM275.05 83.304C276.074 83.304 277.034 83.032 277.93 82.488C278.858 81.944 279.658 81.192 280.33 80.232C281.034 79.272 281.578 78.168 281.962 76.92C282.378 75.64 282.586 74.312 282.586 72.936C282.586 71.656 282.346 70.552 281.866 69.624C281.418 68.664 280.778 67.928 279.946 67.416C279.146 66.904 278.186 66.648 277.066 66.648C275.882 66.648 274.81 66.92 273.85 67.464C272.922 68.008 272.106 68.76 271.402 69.72C270.73 70.648 270.202 71.736 269.818 72.984C269.434 74.2 269.242 75.48 269.242 76.824C269.242 78.2 269.466 79.368 269.914 80.328C270.362 81.288 271.018 82.024 271.882 82.536C272.746 83.048 273.802 83.304 275.05 83.304ZM290.275 97.08L298.147 63H302.707L301.507 69.576L300.931 69.912C301.315 68.376 301.939 67.064 302.803 65.976C303.699 64.888 304.787 64.056 306.067 63.48C307.379 62.904 308.771 62.616 310.243 62.616C311.875 62.616 313.331 63.016 314.611 63.816C315.923 64.616 316.947 65.784 317.683 67.32C318.451 68.824 318.835 70.648 318.835 72.792C318.835 74.808 318.531 76.712 317.923 78.504C317.315 80.264 316.467 81.816 315.379 83.16C314.291 84.504 313.011 85.56 311.539 86.328C310.099 87.096 308.515 87.48 306.787 87.48C305.283 87.48 303.923 87.192 302.707 86.616C301.523 86.04 300.579 85.192 299.875 84.072C299.171 82.92 298.771 81.56 298.675 79.992L299.491 79.224L295.411 97.08H290.275ZM306.115 83.352C307.171 83.352 308.163 83.096 309.091 82.584C310.019 82.04 310.835 81.288 311.539 80.328C312.243 79.368 312.787 78.28 313.171 77.064C313.555 75.816 313.747 74.488 313.747 73.08C313.747 71.704 313.507 70.552 313.027 69.624C312.579 68.664 311.923 67.944 311.059 67.464C310.227 66.952 309.251 66.696 308.131 66.696C306.979 66.696 305.939 66.968 305.011 67.512C304.083 68.056 303.267 68.808 302.563 69.768C301.891 70.696 301.363 71.8 300.979 73.08C300.627 74.36 300.451 75.72 300.451 77.16C300.451 79.016 300.931 80.52 301.891 81.672C302.851 82.792 304.259 83.352 306.115 83.352ZM319.9 97.08L327.772 63H332.332L331.132 69.576L330.556 69.912C330.94 68.376 331.564 67.064 332.428 65.976C333.324 64.888 334.412 64.056 335.692 63.48C337.004 62.904 338.396 62.616 339.868 62.616C341.5 62.616 342.956 63.016 344.236 63.816C345.548 64.616 346.572 65.784 347.308 67.32C348.076 68.824 348.46 70.648 348.46 72.792C348.46 74.808 348.156 76.712 347.548 78.504C346.94 80.264 346.092 81.816 345.004 83.16C343.916 84.504 342.636 85.56 341.164 86.328C339.724 87.096 338.14 87.48 336.412 87.48C334.908 87.48 333.548 87.192 332.332 86.616C331.148 86.04 330.204 85.192 329.5 84.072C328.796 82.92 328.396 81.56 328.3 79.992L329.116 79.224L325.036 97.08H319.9ZM335.74 83.352C336.796 83.352 337.788 83.096 338.716 82.584C339.644 82.04 340.46 81.288 341.164 80.328C341.868 79.368 342.412 78.28 342.796 77.064C343.18 75.816 343.372 74.488 343.372 73.08C343.372 71.704 343.132 70.552 342.652 69.624C342.204 68.664 341.548 67.944 340.684 67.464C339.852 66.952 338.876 66.696 337.756 66.696C336.604 66.696 335.564 66.968 334.636 67.512C333.708 68.056 332.892 68.808 332.188 69.768C331.516 70.696 330.988 71.8 330.604 73.08C330.252 74.36 330.076 75.72 330.076 77.16C330.076 79.016 330.556 80.52 331.516 81.672C332.476 82.792 333.884 83.352 335.74 83.352ZM364.117 87.432C361.845 87.432 359.893 86.968 358.261 86.04C356.629 85.08 355.365 83.784 354.469 82.152C353.573 80.52 353.125 78.68 353.125 76.632C353.125 74.072 353.637 71.736 354.661 69.624C355.685 67.48 357.173 65.768 359.125 64.488C361.077 63.208 363.429 62.568 366.181 62.568C368.229 62.568 369.989 62.984 371.461 63.816C372.933 64.648 374.053 65.816 374.821 67.32C375.589 68.792 375.973 70.52 375.973 72.504C375.973 73.144 375.925 73.8 375.829 74.472C375.765 75.144 375.621 75.816 375.397 76.488H356.053V72.552H372.613L370.741 73.896C370.869 73.512 370.949 73.144 370.981 72.792C371.013 72.408 371.029 72.056 371.029 71.736C371.029 70.68 370.821 69.768 370.405 69C370.021 68.232 369.445 67.64 368.677 67.224C367.909 66.808 366.997 66.6 365.941 66.6C364.501 66.6 363.269 66.904 362.245 67.512C361.253 68.088 360.453 68.888 359.845 69.912C359.237 70.904 358.805 72.008 358.549 73.224C358.293 74.44 358.165 75.64 358.165 76.824C358.165 78.168 358.421 79.336 358.933 80.328C359.477 81.288 360.213 82.04 361.141 82.584C362.101 83.128 363.221 83.4 364.501 83.4C366.005 83.4 367.221 83.08 368.149 82.44C369.109 81.8 369.877 80.984 370.453 79.992L374.581 82.2C373.941 83.288 373.093 84.232 372.037 85.032C371.013 85.8 369.829 86.392 368.485 86.808C367.173 87.224 365.717 87.432 364.117 87.432ZM389.571 87.384C387.811 87.384 386.243 86.968 384.867 86.136C383.491 85.272 382.419 84.072 381.651 82.536C380.883 81 380.499 79.192 380.499 77.112C380.499 75.16 380.787 73.304 381.363 71.544C381.971 69.784 382.803 68.232 383.859 66.888C384.947 65.512 386.227 64.44 387.699 63.672C389.203 62.904 390.835 62.52 392.595 62.52C393.907 62.52 395.091 62.744 396.147 63.192C397.235 63.64 398.147 64.296 398.883 65.16C399.619 66.024 400.115 67.08 400.371 68.328L404.067 52.2H409.203L401.187 87H396.627L397.443 82.536C396.643 84.008 395.539 85.192 394.131 86.088C392.755 86.952 391.235 87.384 389.571 87.384ZM391.299 83.304C392.355 83.304 393.347 83.032 394.275 82.488C395.203 81.944 396.003 81.192 396.675 80.232C397.347 79.272 397.875 78.168 398.259 76.92C398.675 75.64 398.883 74.312 398.883 72.936C398.883 71.656 398.643 70.552 398.163 69.624C397.715 68.664 397.075 67.928 396.243 67.416C395.443 66.904 394.483 66.648 393.363 66.648C392.179 66.648 391.107 66.92 390.147 67.464C389.219 68.008 388.403 68.76 387.699 69.72C387.027 70.648 386.499 71.736 386.115 72.984C385.731 74.2 385.539 75.48 385.539 76.824C385.539 78.2 385.763 79.368 386.211 80.328C386.659 81.288 387.315 82.024 388.179 82.536C389.043 83.048 390.083 83.304 391.299 83.304ZM433.802 58.968C432.842 58.968 432.074 58.712 431.498 58.2C430.922 57.688 430.666 56.984 430.73 56.088C430.762 54.968 431.114 54.104 431.786 53.496C432.458 52.888 433.306 52.584 434.33 52.584C435.322 52.584 436.09 52.84 436.634 53.352C437.21 53.832 437.482 54.504 437.45 55.368C437.386 56.552 437.018 57.448 436.346 58.056C435.674 58.664 434.826 58.968 433.802 58.968ZM435.002 63L429.434 87H424.298L429.866 63H435.002ZM437.095 87L442.663 63H447.175L446.167 69.048L445.687 68.712C446.359 66.664 447.543 65.128 449.239 64.104C450.935 63.048 452.807 62.52 454.855 62.52C456.647 62.52 458.167 62.92 459.415 63.72C460.663 64.488 461.543 65.608 462.055 67.08C462.567 68.52 462.583 70.28 462.103 72.36L458.695 87H453.559L456.919 72.6C457.335 70.776 457.159 69.352 456.391 68.328C455.623 67.272 454.407 66.744 452.743 66.744C451.463 66.744 450.311 67.032 449.287 67.608C448.295 68.184 447.463 69.032 446.791 70.152C446.119 71.24 445.575 72.616 445.159 74.28L442.231 87H437.095ZM497.711 87.48C495.183 87.48 492.879 86.968 490.799 85.944C488.719 84.888 487.071 83.352 485.855 81.336C484.639 79.288 484.031 76.792 484.031 73.848C484.031 71.384 484.383 69.032 485.087 66.792C485.791 64.52 486.847 62.488 488.255 60.696C489.663 58.904 491.391 57.48 493.439 56.424C495.519 55.368 497.903 54.84 500.591 54.84C502.703 54.84 504.575 55.192 506.207 55.896C507.871 56.568 509.263 57.592 510.383 58.968C511.503 60.344 512.319 62.072 512.831 64.152L507.599 65.64C507.183 63.4 506.367 61.784 505.151 60.792C503.935 59.8 502.303 59.304 500.255 59.304C498.463 59.304 496.879 59.736 495.503 60.6C494.159 61.432 493.023 62.536 492.095 63.912C491.199 65.256 490.511 66.776 490.031 68.472C489.583 70.136 489.359 71.816 489.359 73.512C489.359 75.496 489.727 77.192 490.463 78.6C491.231 80.008 492.271 81.096 493.583 81.864C494.895 82.632 496.383 83.016 498.047 83.016C499.999 83.016 501.535 82.584 502.655 81.72C503.807 80.856 504.767 79.688 505.535 78.216L510.335 80.328C509.023 82.504 507.359 84.248 505.343 85.56C503.327 86.84 500.783 87.48 497.711 87.48ZM523.234 87.384C521.506 87.384 519.986 87 518.674 86.232C517.394 85.464 516.466 84.36 515.89 82.92C515.346 81.48 515.314 79.736 515.794 77.688L519.202 63H524.338L521.026 77.256C520.578 79.176 520.754 80.648 521.554 81.672C522.386 82.664 523.618 83.16 525.25 83.16C526.53 83.16 527.65 82.888 528.61 82.344C529.602 81.768 530.434 80.936 531.106 79.848C531.778 78.728 532.29 77.352 532.642 75.72L535.618 63H540.754L535.186 87H530.626L531.634 80.952L532.114 81.336C531.474 83.352 530.338 84.872 528.706 85.896C527.106 86.888 525.282 87.384 523.234 87.384ZM550.045 87.384C547.645 87.384 545.965 86.68 545.005 85.272C544.045 83.864 543.837 82.008 544.381 79.704L550.765 52.2H555.901L549.517 79.752C549.197 81 549.277 81.912 549.757 82.488C550.237 83.032 551.069 83.304 552.253 83.304C552.701 83.304 553.085 83.288 553.405 83.256C553.757 83.224 554.061 83.176 554.317 83.112L553.213 86.856C552.701 87.048 552.205 87.176 551.725 87.24C551.277 87.336 550.717 87.384 550.045 87.384ZM567.373 87.384C565.709 87.384 564.285 87.08 563.101 86.472C561.949 85.832 561.133 84.904 560.653 83.688C560.173 82.472 560.125 81 560.509 79.272L565.453 57.768L570.973 56.232L565.549 79.32C565.229 80.728 565.421 81.752 566.125 82.392C566.829 83 567.741 83.304 568.861 83.304C569.629 83.304 570.285 83.208 570.829 83.016C571.405 82.824 571.917 82.568 572.365 82.248L572.749 86.04C571.917 86.552 571.053 86.904 570.157 87.096C569.293 87.288 568.365 87.384 567.373 87.384ZM558.589 67.032L559.501 63H576.541L575.629 67.032H558.589ZM585.906 87.384C584.178 87.384 582.658 87 581.346 86.232C580.066 85.464 579.138 84.36 578.562 82.92C578.018 81.48 577.986 79.736 578.466 77.688L581.874 63H587.01L583.698 77.256C583.25 79.176 583.426 80.648 584.226 81.672C585.058 82.664 586.29 83.16 587.922 83.16C589.202 83.16 590.322 82.888 591.282 82.344C592.274 81.768 593.106 80.936 593.778 79.848C594.45 78.728 594.962 77.352 595.314 75.72L598.29 63H603.426L597.858 87H593.298L594.306 80.952L594.786 81.336C594.146 83.352 593.01 84.872 591.378 85.896C589.778 86.888 587.954 87.384 585.906 87.384ZM605.517 87L611.085 63H615.405L614.637 69.48L614.109 69C614.621 67.656 615.309 66.504 616.173 65.544C617.069 64.584 618.093 63.848 619.245 63.336C620.397 62.792 621.597 62.52 622.845 62.52C623.357 62.52 623.805 62.552 624.189 62.616C624.605 62.68 624.957 62.792 625.245 62.952L623.853 67.56C623.533 67.4 623.165 67.288 622.749 67.224C622.365 67.128 621.869 67.08 621.261 67.08C620.109 67.08 619.021 67.352 617.997 67.896C616.973 68.408 616.077 69.208 615.309 70.296C614.541 71.384 613.949 72.808 613.533 74.568L610.653 87H605.517ZM636.367 87.432C634.095 87.432 632.143 86.968 630.511 86.04C628.879 85.08 627.615 83.784 626.719 82.152C625.823 80.52 625.375 78.68 625.375 76.632C625.375 74.072 625.887 71.736 626.911 69.624C627.935 67.48 629.423 65.768 631.375 64.488C633.327 63.208 635.679 62.568 638.431 62.568C640.479 62.568 642.239 62.984 643.711 63.816C645.183 64.648 646.303 65.816 647.071 67.32C647.839 68.792 648.223 70.52 648.223 72.504C648.223 73.144 648.175 73.8 648.079 74.472C648.015 75.144 647.871 75.816 647.647 76.488H628.303V72.552H644.863L642.991 73.896C643.119 73.512 643.199 73.144 643.231 72.792C643.263 72.408 643.279 72.056 643.279 71.736C643.279 70.68 643.071 69.768 642.655 69C642.271 68.232 641.695 67.64 640.927 67.224C640.159 66.808 639.247 66.6 638.191 66.6C636.751 66.6 635.519 66.904 634.495 67.512C633.503 68.088 632.703 68.888 632.095 69.912C631.487 70.904 631.055 72.008 630.799 73.224C630.543 74.44 630.415 75.64 630.415 76.824C630.415 78.168 630.671 79.336 631.183 80.328C631.727 81.288 632.463 82.04 633.391 82.584C634.351 83.128 635.471 83.4 636.751 83.4C638.255 83.4 639.471 83.08 640.399 82.44C641.359 81.8 642.127 80.984 642.703 79.992L646.831 82.2C646.191 83.288 645.343 84.232 644.287 85.032C643.263 85.8 642.079 86.392 640.735 86.808C639.423 87.224 637.967 87.432 636.367 87.432ZM655.477 80.52C656.629 80.52 657.525 80.904 658.165 81.672C658.805 82.44 659.125 83.432 659.125 84.648C659.125 85.992 658.773 87.336 658.069 88.68C657.397 90.024 656.421 91.192 655.141 92.184C653.861 93.208 652.325 93.912 650.533 94.296L649.141 91.752C650.389 91.528 651.445 91.192 652.309 90.744C653.205 90.296 653.925 89.736 654.469 89.064C655.045 88.424 655.461 87.752 655.717 87.048L655.621 86.952C655.461 87.08 655.285 87.16 655.093 87.192C654.933 87.256 654.677 87.288 654.325 87.288C653.493 87.288 652.837 86.984 652.357 86.376C651.877 85.768 651.637 85.08 651.637 84.312C651.637 83.16 652.005 82.248 652.741 81.576C653.477 80.872 654.389 80.52 655.477 80.52ZM200.437 143.48C197.557 143.48 195.141 142.92 193.189 141.8C191.237 140.648 189.893 139 189.157 136.856C188.421 134.712 188.405 132.152 189.109 129.176L193.285 111.32H198.469L194.149 130.136C193.701 132.088 193.701 133.736 194.149 135.08C194.629 136.392 195.445 137.384 196.597 138.056C197.749 138.696 199.157 139.016 200.821 139.016C203.157 139.016 204.981 138.296 206.293 136.856C207.637 135.416 208.581 133.448 209.125 130.952L213.685 111.32H218.821L214.117 131.816C213.253 135.4 211.685 138.248 209.413 140.36C207.173 142.44 204.181 143.48 200.437 143.48ZM219.079 143L224.647 119H229.159L228.151 125.048L227.671 124.712C228.343 122.664 229.527 121.128 231.223 120.104C232.919 119.048 234.791 118.52 236.839 118.52C238.631 118.52 240.151 118.92 241.399 119.72C242.647 120.488 243.527 121.608 244.039 123.08C244.551 124.52 244.567 126.28 244.087 128.36L240.679 143H235.543L238.903 128.6C239.319 126.776 239.143 125.352 238.375 124.328C237.607 123.272 236.391 122.744 234.727 122.744C233.447 122.744 232.295 123.032 231.271 123.608C230.279 124.184 229.447 125.032 228.775 126.152C228.103 127.24 227.559 128.616 227.143 130.28L224.215 143H219.079ZM265.521 118.616C267.185 118.616 268.673 119.016 269.985 119.816C271.329 120.616 272.369 121.784 273.105 123.32C273.873 124.856 274.257 126.728 274.257 128.936C274.257 130.92 273.953 132.792 273.345 134.552C272.737 136.28 271.889 137.816 270.801 139.16C269.745 140.504 268.481 141.56 267.009 142.328C265.569 143.096 263.985 143.48 262.257 143.48C260.881 143.48 259.633 143.24 258.513 142.76C257.393 142.28 256.481 141.608 255.777 140.744C255.073 139.848 254.593 138.84 254.337 137.72L253.041 143H248.001L256.065 108.2H261.201L257.793 122.84C258.561 121.592 259.617 120.584 260.961 119.816C262.337 119.016 263.857 118.616 265.521 118.616ZM261.537 139.352C262.593 139.352 263.585 139.096 264.513 138.584C265.441 138.04 266.257 137.304 266.961 136.376C267.665 135.448 268.209 134.36 268.593 133.112C268.977 131.864 269.169 130.536 269.169 129.128C269.169 127.688 268.929 126.504 268.449 125.576C267.969 124.616 267.297 123.896 266.433 123.416C265.601 122.936 264.641 122.696 263.553 122.696C262.401 122.696 261.345 122.968 260.385 123.512C259.457 124.056 258.641 124.808 257.937 125.768C257.265 126.696 256.753 127.8 256.401 129.08C256.049 130.36 255.873 131.72 255.873 133.16C255.873 135.016 256.353 136.52 257.313 137.672C258.273 138.792 259.681 139.352 261.537 139.352ZM290.106 143.432C287.738 143.432 285.722 142.952 284.058 141.992C282.426 141.032 281.162 139.736 280.266 138.104C279.37 136.44 278.922 134.616 278.922 132.632C278.922 129.912 279.45 127.496 280.506 125.384C281.594 123.272 283.082 121.608 284.97 120.392C286.89 119.176 289.146 118.568 291.738 118.568C294.106 118.568 296.106 119.048 297.738 120.008C299.402 120.968 300.666 122.264 301.53 123.896C302.394 125.528 302.826 127.352 302.826 129.368C302.826 132.024 302.298 134.424 301.242 136.568C300.218 138.68 298.746 140.36 296.826 141.608C294.906 142.824 292.666 143.432 290.106 143.432ZM290.202 139.4C291.258 139.4 292.234 139.144 293.13 138.632C294.058 138.12 294.858 137.4 295.53 136.472C296.234 135.544 296.762 134.472 297.114 133.256C297.498 132.008 297.69 130.68 297.69 129.272C297.69 127.992 297.466 126.856 297.018 125.864C296.602 124.872 295.93 124.088 295.002 123.512C294.106 122.904 292.97 122.6 291.594 122.6C290.538 122.6 289.546 122.856 288.618 123.368C287.69 123.88 286.89 124.6 286.218 125.528C285.546 126.424 285.018 127.496 284.634 128.744C284.25 129.96 284.058 131.288 284.058 132.728C284.058 133.944 284.282 135.064 284.73 136.088C285.178 137.112 285.85 137.928 286.746 138.536C287.674 139.112 288.826 139.4 290.202 139.4ZM302.496 143L315.072 129.608L316.512 129.272L325.344 119H331.488L319.488 131.96L317.904 132.536L308.832 143H302.496ZM320.784 143L315.936 132.2L314.736 131.624L308.448 119H314.16L318.72 129.464L319.728 129.656L326.448 143H320.784ZM342.555 143.432C340.283 143.432 338.331 142.968 336.699 142.04C335.067 141.08 333.803 139.784 332.907 138.152C332.011 136.52 331.563 134.68 331.563 132.632C331.563 130.072 332.075 127.736 333.099 125.624C334.123 123.48 335.611 121.768 337.563 120.488C339.515 119.208 341.867 118.568 344.619 118.568C346.667 118.568 348.427 118.984 349.899 119.816C351.371 120.648 352.491 121.816 353.259 123.32C354.027 124.792 354.411 126.52 354.411 128.504C354.411 129.144 354.363 129.8 354.267 130.472C354.203 131.144 354.059 131.816 353.835 132.488H334.491V128.552H351.051L349.179 129.896C349.307 129.512 349.387 129.144 349.419 128.792C349.451 128.408 349.467 128.056 349.467 127.736C349.467 126.68 349.259 125.768 348.843 125C348.459 124.232 347.883 123.64 347.115 123.224C346.347 122.808 345.435 122.6 344.379 122.6C342.939 122.6 341.707 122.904 340.683 123.512C339.691 124.088 338.891 124.888 338.283 125.912C337.675 126.904 337.243 128.008 336.987 129.224C336.731 130.44 336.603 131.64 336.603 132.824C336.603 134.168 336.859 135.336 337.371 136.328C337.915 137.288 338.651 138.04 339.579 138.584C340.539 139.128 341.659 139.4 342.939 139.4C344.443 139.4 345.659 139.08 346.587 138.44C347.547 137.8 348.315 136.984 348.891 135.992L353.019 138.2C352.379 139.288 351.531 140.232 350.475 141.032C349.451 141.8 348.267 142.392 346.923 142.808C345.611 143.224 344.155 143.432 342.555 143.432ZM368.009 143.384C366.249 143.384 364.681 142.968 363.305 142.136C361.929 141.272 360.857 140.072 360.089 138.536C359.321 137 358.937 135.192 358.937 133.112C358.937 131.16 359.225 129.304 359.801 127.544C360.409 125.784 361.241 124.232 362.297 122.888C363.385 121.512 364.665 120.44 366.137 119.672C367.641 118.904 369.273 118.52 371.033 118.52C372.345 118.52 373.529 118.744 374.585 119.192C375.673 119.64 376.585 120.296 377.321 121.16C378.057 122.024 378.553 123.08 378.809 124.328L382.505 108.2H387.641L379.625 143H375.065L375.881 138.536C375.081 140.008 373.977 141.192 372.569 142.088C371.193 142.952 369.673 143.384 368.009 143.384ZM369.737 139.304C370.793 139.304 371.785 139.032 372.713 138.488C373.641 137.944 374.441 137.192 375.113 136.232C375.785 135.272 376.313 134.168 376.697 132.92C377.113 131.64 377.321 130.312 377.321 128.936C377.321 127.656 377.081 126.552 376.601 125.624C376.153 124.664 375.513 123.928 374.681 123.416C373.881 122.904 372.921 122.648 371.801 122.648C370.617 122.648 369.545 122.92 368.585 123.464C367.657 124.008 366.841 124.76 366.137 125.72C365.465 126.648 364.937 127.736 364.553 128.984C364.169 130.2 363.977 131.48 363.977 132.824C363.977 134.2 364.201 135.368 364.649 136.328C365.097 137.288 365.753 138.024 366.617 138.536C367.481 139.048 368.521 139.304 369.737 139.304ZM406.218 143L404.01 119H409.002L410.298 137.624L419.898 119H424.986L427.002 137.864L436.602 119H442.074L429.066 143H423.45L421.29 125.24L411.93 143H406.218ZM450.818 114.968C449.858 114.968 449.09 114.712 448.514 114.2C447.938 113.688 447.682 112.984 447.746 112.088C447.778 110.968 448.13 110.104 448.802 109.496C449.474 108.888 450.322 108.584 451.346 108.584C452.338 108.584 453.106 108.84 453.65 109.352C454.226 109.832 454.498 110.504 454.466 111.368C454.402 112.552 454.034 113.448 453.362 114.056C452.69 114.664 451.842 114.968 450.818 114.968ZM452.018 119L446.45 143H441.314L446.882 119H452.018ZM464.623 143.384C462.959 143.384 461.535 143.08 460.351 142.472C459.199 141.832 458.383 140.904 457.903 139.688C457.423 138.472 457.375 137 457.759 135.272L462.703 113.768L468.223 112.232L462.799 135.32C462.479 136.728 462.671 137.752 463.375 138.392C464.079 139 464.991 139.304 466.111 139.304C466.879 139.304 467.535 139.208 468.079 139.016C468.655 138.824 469.167 138.568 469.615 138.248L469.999 142.04C469.167 142.552 468.303 142.904 467.407 143.096C466.543 143.288 465.615 143.384 464.623 143.384ZM455.839 123.032L456.751 119H473.791L472.879 123.032H455.839ZM474.079 143L482.143 108.2H487.279L483.631 123.992L482.863 124.568C483.279 123.288 483.935 122.2 484.831 121.304C485.727 120.408 486.767 119.72 487.951 119.24C489.167 118.76 490.479 118.52 491.887 118.52C493.615 118.52 495.103 118.92 496.351 119.72C497.599 120.488 498.479 121.592 498.991 123.032C499.535 124.472 499.583 126.216 499.135 128.264L495.679 143H490.543L493.903 128.6C494.319 126.776 494.143 125.352 493.375 124.328C492.607 123.272 491.391 122.744 489.727 122.744C488.447 122.744 487.295 123.032 486.271 123.608C485.279 124.184 484.447 125.032 483.775 126.152C483.103 127.24 482.559 128.616 482.143 130.28L479.215 143H474.079ZM525.335 138.584H542.615L541.559 143H519.143L526.487 111.32H531.671L525.335 138.584ZM558.513 143.432C556.145 143.432 554.129 142.952 552.465 141.992C550.833 141.032 549.569 139.736 548.673 138.104C547.777 136.44 547.329 134.616 547.329 132.632C547.329 129.912 547.857 127.496 548.913 125.384C550.001 123.272 551.489 121.608 553.377 120.392C555.297 119.176 557.553 118.568 560.145 118.568C562.513 118.568 564.513 119.048 566.145 120.008C567.809 120.968 569.073 122.264 569.937 123.896C570.801 125.528 571.233 127.352 571.233 129.368C571.233 132.024 570.705 134.424 569.649 136.568C568.625 138.68 567.153 140.36 565.233 141.608C563.313 142.824 561.073 143.432 558.513 143.432ZM558.609 139.4C559.665 139.4 560.641 139.144 561.537 138.632C562.465 138.12 563.265 137.4 563.937 136.472C564.641 135.544 565.169 134.472 565.521 133.256C565.905 132.008 566.097 130.68 566.097 129.272C566.097 127.992 565.873 126.856 565.425 125.864C565.009 124.872 564.337 124.088 563.409 123.512C562.513 122.904 561.377 122.6 560.001 122.6C558.945 122.6 557.953 122.856 557.025 123.368C556.097 123.88 555.297 124.6 554.625 125.528C553.953 126.424 553.425 127.496 553.041 128.744C552.657 129.96 552.465 131.288 552.465 132.728C552.465 133.944 552.689 135.064 553.137 136.088C553.585 137.112 554.257 137.928 555.153 138.536C556.081 139.112 557.233 139.4 558.609 139.4ZM593.994 119H599.706L584.97 143H579.354L575.514 119H580.602L583.242 140.408L582.09 140.216L593.994 119ZM611.242 143.432C608.97 143.432 607.018 142.968 605.386 142.04C603.754 141.08 602.49 139.784 601.594 138.152C600.698 136.52 600.25 134.68 600.25 132.632C600.25 130.072 600.762 127.736 601.786 125.624C602.81 123.48 604.298 121.768 606.25 120.488C608.202 119.208 610.554 118.568 613.306 118.568C615.354 118.568 617.114 118.984 618.586 119.816C620.058 120.648 621.178 121.816 621.946 123.32C622.714 124.792 623.098 126.52 623.098 128.504C623.098 129.144 623.05 129.8 622.954 130.472C622.89 131.144 622.746 131.816 622.522 132.488H603.178V128.552H619.738L617.866 129.896C617.994 129.512 618.074 129.144 618.106 128.792C618.138 128.408 618.154 128.056 618.154 127.736C618.154 126.68 617.946 125.768 617.53 125C617.146 124.232 616.57 123.64 615.802 123.224C615.034 122.808 614.122 122.6 613.066 122.6C611.626 122.6 610.394 122.904 609.37 123.512C608.378 124.088 607.578 124.888 606.97 125.912C606.362 126.904 605.93 128.008 605.674 129.224C605.418 130.44 605.29 131.64 605.29 132.824C605.29 134.168 605.546 135.336 606.058 136.328C606.602 137.288 607.338 138.04 608.266 138.584C609.226 139.128 610.346 139.4 611.626 139.4C613.13 139.4 614.346 139.08 615.274 138.44C616.234 137.8 617.002 136.984 617.578 135.992L621.706 138.2C621.066 139.288 620.218 140.232 619.162 141.032C618.138 141.8 616.954 142.392 615.61 142.808C614.298 143.224 612.842 143.432 611.242 143.432ZM629.776 143.432C628.816 143.432 628.032 143.176 627.424 142.664C626.816 142.12 626.512 141.384 626.512 140.456C626.512 139.24 626.864 138.28 627.568 137.576C628.304 136.872 629.216 136.52 630.304 136.52C631.264 136.52 632.048 136.792 632.656 137.336C633.264 137.848 633.568 138.568 633.568 139.496C633.568 140.712 633.216 141.672 632.512 142.376C631.808 143.08 630.896 143.432 629.776 143.432ZM642.667 143.432C641.707 143.432 640.923 143.176 640.315 142.664C639.707 142.12 639.403 141.384 639.403 140.456C639.403 139.24 639.755 138.28 640.459 137.576C641.195 136.872 642.107 136.52 643.195 136.52C644.155 136.52 644.939 136.792 645.547 137.336C646.155 137.848 646.459 138.568 646.459 139.496C646.459 140.712 646.107 141.672 645.403 142.376C644.699 143.08 643.787 143.432 642.667 143.432ZM655.558 143.432C654.598 143.432 653.814 143.176 653.206 142.664C652.598 142.12 652.294 141.384 652.294 140.456C652.294 139.24 652.646 138.28 653.35 137.576C654.086 136.872 654.998 136.52 656.086 136.52C657.046 136.52 657.83 136.792 658.438 137.336C659.046 137.848 659.35 138.568 659.35 139.496C659.35 140.712 658.998 141.672 658.294 142.376C657.59 143.08 656.678 143.432 655.558 143.432ZM668.448 143.432C667.488 143.432 666.704 143.176 666.096 142.664C665.488 142.12 665.184 141.384 665.184 140.456C665.184 139.24 665.536 138.28 666.24 137.576C666.976 136.872 667.888 136.52 668.976 136.52C669.936 136.52 670.72 136.792 671.328 137.336C671.936 137.848 672.24 138.568 672.24 139.496C672.24 140.712 671.888 141.672 671.184 142.376C670.48 143.08 669.568 143.432 668.448 143.432Z" fill="#C93A2B"/>
<path d="M221.492 213.512C221.492 213.837 221.329 214 221.004 214C220.77 214 220.411 213.98 219.93 213.941C219.461 213.902 219.109 213.883 218.875 213.883C218.641 213.883 218.283 213.902 217.801 213.941C217.319 213.98 216.961 214 216.727 214C216.401 214 216.238 213.785 216.238 213.355C216.238 211.702 216.29 209.221 216.395 205.914C216.499 202.607 216.551 200.126 216.551 198.473C216.551 198.225 216.499 198.102 216.395 198.102C216.277 198.102 216.186 198.173 216.121 198.316C215.457 199.736 213.888 203.525 211.414 209.684C211.01 210.868 210.431 212.346 209.676 214.117C209.585 214.286 209.116 214.371 208.27 214.371C207.046 214.371 206.368 214.26 206.238 214.039C205.796 212.984 205.164 211.507 204.344 209.605C203.263 207.027 201.603 203.186 199.363 198.082C199.324 197.991 199.24 197.9 199.109 197.809C199.005 197.887 198.953 198.03 198.953 198.238C198.953 199.918 198.979 202.438 199.031 205.797C199.096 209.156 199.129 211.676 199.129 213.355C199.129 213.785 198.966 214 198.641 214C198.419 214 198.081 213.98 197.625 213.941C197.169 213.902 196.831 213.883 196.609 213.883C196.375 213.883 196.023 213.902 195.555 213.941C195.099 213.98 194.754 214 194.52 214C194.194 214 194.031 213.876 194.031 213.629C194.031 212.184 194.096 210.022 194.227 207.145C194.37 204.254 194.441 202.086 194.441 200.641C194.441 199.143 194.37 196.897 194.227 193.902C194.096 190.895 194.031 188.642 194.031 187.145C194.031 186.897 194.181 186.754 194.48 186.715C196.251 186.48 197.586 186.363 198.484 186.363C198.615 186.363 198.797 186.63 199.031 187.164C202.182 194.091 204.891 200.276 207.156 205.719C207.69 206.995 208.009 207.633 208.113 207.633C208.243 207.633 208.523 207.112 208.953 206.07C210.724 201.852 213.178 195.589 216.316 187.281C216.512 186.773 216.727 186.52 216.961 186.52C217.404 186.52 218.068 186.546 218.953 186.598C219.852 186.65 220.522 186.676 220.965 186.676C221.29 186.676 221.453 186.832 221.453 187.145C221.453 188.642 221.401 190.895 221.297 193.902C221.206 196.897 221.16 199.143 221.16 200.641C221.16 202.073 221.212 204.221 221.316 207.086C221.434 209.951 221.492 212.092 221.492 213.512ZM243.289 204.488C243.289 207.21 242.397 209.534 240.613 211.461C238.79 213.453 236.531 214.449 233.836 214.449C231.128 214.449 228.862 213.46 227.039 211.48C225.255 209.566 224.363 207.249 224.363 204.527C224.363 201.806 225.255 199.488 227.039 197.574C228.875 195.621 231.141 194.645 233.836 194.645C236.518 194.645 238.771 195.621 240.594 197.574C242.391 199.475 243.289 201.78 243.289 204.488ZM239.168 204.527C239.168 202.939 238.68 201.585 237.703 200.465C236.688 199.28 235.398 198.688 233.836 198.688C232.273 198.688 230.978 199.273 229.949 200.445C228.973 201.578 228.484 202.939 228.484 204.527C228.484 206.09 228.979 207.444 229.969 208.59C231.01 209.801 232.299 210.406 233.836 210.406C235.385 210.406 236.674 209.801 237.703 208.59C238.68 207.444 239.168 206.09 239.168 204.527ZM259.695 196.285C259.695 196.572 259.546 197.21 259.246 198.199C258.947 199.189 258.738 199.684 258.621 199.684C258.035 199.423 257.443 199.163 256.844 198.902C256.258 198.642 255.613 198.512 254.91 198.512C253.309 198.512 251.974 199.104 250.906 200.289C249.839 201.474 249.305 202.874 249.305 204.488C249.305 206.077 249.839 207.451 250.906 208.609C252 209.807 253.335 210.406 254.91 210.406C255.783 210.406 256.642 210.191 257.488 209.762C258.335 209.332 258.706 209.117 258.602 209.117C258.771 209.117 258.96 209.664 259.168 210.758C259.363 211.747 259.461 212.431 259.461 212.809C259.461 213.212 258.699 213.609 257.176 214C255.9 214.326 254.956 214.488 254.344 214.488C251.661 214.488 249.396 213.486 247.547 211.48C245.737 209.527 244.832 207.197 244.832 204.488C244.832 201.728 245.717 199.384 247.488 197.457C249.311 195.478 251.583 194.488 254.305 194.488C256.128 194.488 257.794 194.951 259.305 195.875C259.565 196.031 259.695 196.168 259.695 196.285ZM281.355 200.602C281.355 203.987 279.786 206.253 276.648 207.398C276.648 208.062 277.299 209.267 278.602 211.012C279.904 212.743 280.555 213.609 280.555 213.609C280.555 213.805 279.904 213.935 278.602 214C277.742 214.039 277.098 214.059 276.668 214.059C275.743 214.059 275.164 213.863 274.93 213.473C274.318 212.431 273.354 210.914 272.039 208.922C271.883 208.688 270.47 208.59 267.801 208.629L267.039 208.648V213.473C267.039 213.876 266.896 214.078 266.609 214.078C266.193 214.078 265.574 214.072 264.754 214.059C263.947 214.046 263.335 214.039 262.918 214.039C262.632 214.039 262.488 213.785 262.488 213.277V201.129C262.488 199.54 262.423 197.164 262.293 194C262.176 190.836 262.117 188.46 262.117 186.871C262.117 186.637 262.241 186.507 262.488 186.48C262.918 186.467 263.569 186.441 264.441 186.402C264.624 186.389 265.008 186.344 265.594 186.266C266.062 186.201 266.44 186.168 266.727 186.168C266.909 186.168 267 186.324 267 186.637C267 187.34 266.967 188.388 266.902 189.781C266.837 191.174 266.805 192.223 266.805 192.926V197.965C266.805 198.238 266.863 198.375 266.98 198.375C267.293 198.115 267.762 197.73 268.387 197.223C270.574 195.53 272.658 194.684 274.637 194.684C276.564 194.684 278.139 195.178 279.363 196.168C280.691 197.249 281.355 198.727 281.355 200.602ZM276.648 201.52C276.648 199.658 275.444 198.727 273.035 198.727C271.238 198.727 269.214 199.924 266.961 202.32V205.23C268.016 205.426 269.292 205.523 270.789 205.523C272.299 205.523 273.589 205.237 274.656 204.664C275.984 203.948 276.648 202.9 276.648 201.52ZM302.117 196.285C302.117 197.236 302.078 198.674 302 200.602C301.922 202.516 301.883 203.954 301.883 204.918C301.883 205.868 301.909 207.294 301.961 209.195C302.026 211.083 302.059 212.503 302.059 213.453C302.059 213.714 301.935 213.883 301.688 213.961C301.583 213.987 300.262 214 297.723 214C297.566 214 297.469 213.512 297.43 212.535C297.404 211.559 297.332 211.07 297.215 211.07C297.15 211.07 297.052 211.129 296.922 211.246C294.747 213.134 292.599 214.078 290.477 214.078C287.599 214.078 285.698 213.036 284.773 210.953C284.201 209.664 283.914 207.346 283.914 204C283.914 200.979 284.155 198.421 284.637 196.324C284.754 195.816 284.969 195.562 285.281 195.562C285.659 195.562 286.225 195.569 286.98 195.582C287.736 195.595 288.302 195.602 288.68 195.602C288.94 195.602 289.07 195.745 289.07 196.031C289.07 196.539 288.986 197.385 288.816 198.57C288.634 199.833 288.536 200.725 288.523 201.246C288.484 202.027 288.465 202.887 288.465 203.824C288.465 206.103 288.628 207.633 288.953 208.414C289.513 209.82 290.757 210.523 292.684 210.523C293.504 210.523 294.474 210.12 295.594 209.312C296.779 208.466 297.391 207.652 297.43 206.871C297.495 205.895 297.527 202.457 297.527 196.559C297.527 195.921 297.794 195.602 298.328 195.602H301.551C301.928 195.602 302.117 195.829 302.117 196.285ZM325.633 204.605C325.633 207.236 324.799 209.521 323.133 211.461C321.388 213.505 319.22 214.527 316.629 214.527C315.014 214.527 313.602 214.026 312.391 213.023C311.844 212.516 311.297 212.001 310.75 211.48C310.672 211.52 310.62 211.624 310.594 211.793C310.581 211.871 310.574 212.6 310.574 213.98L310.555 219.488C310.555 219.905 310.405 220.113 310.105 220.113C308.1 220.113 306.915 220.087 306.551 220.035C306.251 219.996 306.102 219.827 306.102 219.527C306.102 217.861 306.115 215.361 306.141 212.027C306.167 208.694 306.18 206.194 306.18 204.527C306.18 201.467 305.984 198.596 305.594 195.914C305.568 195.758 305.555 195.654 305.555 195.602C305.555 195.458 305.62 195.367 305.75 195.328C306.245 195.302 306.967 195.23 307.918 195.113C309.194 194.879 309.91 194.762 310.066 194.762C310.288 194.762 310.431 195.152 310.496 195.934C310.535 196.454 310.568 196.969 310.594 197.477C310.594 197.581 310.633 197.685 310.711 197.789C310.802 197.737 310.906 197.646 311.023 197.516C312.846 195.654 314.689 194.723 316.551 194.723C319.129 194.723 321.303 195.732 323.074 197.75C324.78 199.69 325.633 201.975 325.633 204.605ZM321.062 204.527C321.062 202.965 320.574 201.591 319.598 200.406C318.569 199.143 317.286 198.512 315.75 198.512C314.24 198.512 313.003 199.163 312.039 200.465C311.154 201.637 310.711 203.004 310.711 204.566C310.711 206.155 311.167 207.535 312.078 208.707C313.081 209.97 314.357 210.602 315.906 210.602C317.391 210.602 318.641 209.944 319.656 208.629C320.594 207.405 321.062 206.038 321.062 204.527ZM337.82 207.984C337.82 209.924 337.046 211.48 335.496 212.652C334.09 213.72 332.378 214.254 330.359 214.254C329.578 214.254 329.135 214.234 329.031 214.195C328.81 214.091 328.699 213.772 328.699 213.238C328.699 212.952 328.66 212.522 328.582 211.949C328.517 211.376 328.484 210.953 328.484 210.68C328.484 210.51 328.602 210.4 328.836 210.348C329.005 210.309 329.246 210.309 329.559 210.348C329.962 210.387 330.158 210.406 330.145 210.406C332.605 210.406 333.836 209.651 333.836 208.141C333.836 207.424 333.296 206.767 332.215 206.168C330.457 205.204 329.448 204.612 329.188 204.391C328.107 203.466 327.566 202.255 327.566 200.758C327.566 198.805 328.302 197.281 329.773 196.188C331.102 195.211 332.781 194.723 334.812 194.723C334.995 194.723 335.125 194.807 335.203 194.977C335.294 195.146 335.457 195.673 335.691 196.559C335.939 197.444 336.062 197.978 336.062 198.16C336.062 198.303 335.939 198.395 335.691 198.434C334.858 198.551 334.018 198.661 333.172 198.766C332.169 199.039 331.668 199.586 331.668 200.406C331.668 200.992 332.195 201.585 333.25 202.184C334.812 203.056 335.802 203.688 336.219 204.078C337.286 205.094 337.82 206.396 337.82 207.984Z" fill="#CF413F"/>
</svg>
